<?xml version="1.0" encoding="UTF-8" standalone="no"?>
<!DOCTYPE svg PUBLIC "-//W3C//DTD SVG 1.1//EN"
 "http://www.w3.org/Graphics/SVG/1.1/DTD/svg11.dtd">
<!-- Generated by graphviz version 14.1.4 (0)
 -->
<!-- Title: Argument Map Pages: 1 -->
<svg class="argdown-summary-map" width="632pt" height="720pt"
 viewBox="0.00 0.00 632.00 720.00" xmlns="http://www.w3.org/2000/svg" xmlns:xlink="http://www.w3.org/1999/xlink">
<g id="graph0" class="graph" transform="scale(0.861121 0.861121) rotate(0) translate(4 832.12)">
<title>Argument Map</title>
<g id="clust1" class="cluster">
<title>cluster_1</title>
<polygon fill="#f3eadb" stroke="#d4c0a1" points="8,-18.12 8,-820.12 718.23,-820.12 718.23,-18.12 8,-18.12"/>
<text xml:space="preserve" text-anchor="start" x="324.43" y="-804.12" font-family="Inter, ui-sans-serif, system-ui, -apple-system, BlinkMacSystemFont, Segoe UI, sans-serif" font-size="12.00" fill="#2f2a21">Central Thesis</text>
</g>
<!-- n0 -->
<g id="node1" class="node">
<title>n0</title>
<g id="a_node1"><a xlink:title="公民證明的概念定位">
<path fill="#fffdf7" stroke="#6f8f72" stroke-width="2" d="M698.23,-460.12C698.23,-460.12 526.39,-460.12 526.39,-460.12 520.39,-460.12 514.39,-454.12 514.39,-448.12 514.39,-448.12 514.39,-436.12 514.39,-436.12 514.39,-430.12 520.39,-424.12 526.39,-424.12 526.39,-424.12 698.23,-424.12 698.23,-424.12 704.23,-424.12 710.23,-430.12 710.23,-436.12 710.23,-436.12 710.23,-448.12 710.23,-448.12 710.23,-454.12 704.23,-460.12 698.23,-460.12"/>
<text xml:space="preserve" text-anchor="start" x="574.8" y="-440.12" font-family="Inter, ui-sans-serif, system-ui, -apple-system, BlinkMacSystemFont, Segoe UI, sans-serif" font-weight="bold" font-size="10.00" fill="#2f2a21">公民證明的概念定位</text>
</a>
</g>
</g>
<!-- n1 -->
<g id="node2" class="node">
<title>n1</title>
<g id="a_node2"><a xlink:title="公民證明 概念工程提案">
<path fill="#fffdf7" stroke="#6f8f72" stroke-width="2" d="M211.58,-72.12C211.58,-72.12 39.74,-72.12 39.74,-72.12 33.74,-72.12 27.74,-66.12 27.74,-60.12 27.74,-60.12 27.74,-48.12 27.74,-48.12 27.74,-42.12 33.74,-36.12 39.74,-36.12 39.74,-36.12 211.58,-36.12 211.58,-36.12 217.58,-36.12 223.58,-42.12 223.58,-48.12 223.58,-48.12 223.58,-60.12 223.58,-60.12 223.58,-66.12 217.58,-72.12 211.58,-72.12"/>
<text xml:space="preserve" text-anchor="start" x="82.59" y="-52.12" font-family="Inter, ui-sans-serif, system-ui, -apple-system, BlinkMacSystemFont, Segoe UI, sans-serif" font-weight="bold" font-size="10.00" fill="#2f2a21">公民證明 概念工程提案</text>
</a>
</g>
</g>
<!-- n1&#45;&gt;n0 -->
<g id="edge2" class="edge">
<title>n1&#45;&gt;n0</title>
<g id="a_edge2"><a xlink:title="support">
<path fill="none" stroke="#6f8f72" d="M171.39,-35.72C243.51,-9.3 386.67,29.31 478.39,-37.12 602.12,-126.74 612.73,-335.22 612.2,-412.55"/>
<polygon fill="#6f8f72" stroke="#6f8f72" points="608.71,-412.24 612.06,-422.29 615.71,-412.34 608.71,-412.24"/>
</a>
</g>
</g>
<!-- n3 -->
<g id="node4" class="node">
<title>n3</title>
<g id="a_node4"><a xlink:title="公民證明 既有系統的重命名">
<path fill="#fffdf7" stroke="#6f8f72" stroke-width="2" d="M460.77,-82.12C460.77,-82.12 288.93,-82.12 288.93,-82.12 282.93,-82.12 276.93,-76.12 276.93,-70.12 276.93,-70.12 276.93,-58.12 276.93,-58.12 276.93,-52.12 282.93,-46.12 288.93,-46.12 288.93,-46.12 460.77,-46.12 460.77,-46.12 466.77,-46.12 472.77,-52.12 472.77,-58.12 472.77,-58.12 472.77,-70.12 472.77,-70.12 472.77,-76.12 466.77,-82.12 460.77,-82.12"/>
<text xml:space="preserve" text-anchor="start" x="323.45" y="-62.12" font-family="Inter, ui-sans-serif, system-ui, -apple-system, BlinkMacSystemFont, Segoe UI, sans-serif" font-weight="bold" font-size="10.00" fill="#2f2a21">公民證明 既有系統的重命名</text>
</a>
</g>
</g>
<!-- n1&#45;&gt;n3 -->
<g id="edge11" class="edge">
<title>n1&#45;&gt;n3</title>
<g id="a_edge11"><a xlink:title="attack">
<path fill="none" stroke="#b85b57" d="M224,-58.06C237.51,-58.6 251.46,-59.17 265.16,-59.72"/>
<polygon fill="#b85b57" stroke="#b85b57" points="264.95,-63.22 275.09,-60.12 265.24,-56.22 264.95,-63.22"/>
</a>
</g>
</g>
<!-- n2 -->
<g id="node3" class="node">
<title>n2</title>
<g id="a_node3"><a xlink:title="公民證明的合法部署，必須先通過四條邊界條件">
<path fill="#fffdf7" stroke="#6f8f72" stroke-width="2" d="M460.77,-136.12C460.77,-136.12 288.93,-136.12 288.93,-136.12 282.93,-136.12 276.93,-130.12 276.93,-124.12 276.93,-124.12 276.93,-112.12 276.93,-112.12 276.93,-106.12 282.93,-100.12 288.93,-100.12 288.93,-100.12 460.77,-100.12 460.77,-100.12 466.77,-100.12 472.77,-106.12 472.77,-112.12 472.77,-112.12 472.77,-124.12 472.77,-124.12 472.77,-130.12 466.77,-136.12 460.77,-136.12"/>
<text xml:space="preserve" text-anchor="start" x="287.34" y="-116.12" font-family="Inter, ui-sans-serif, system-ui, -apple-system, BlinkMacSystemFont, Segoe UI, sans-serif" font-weight="bold" font-size="10.00" fill="#2f2a21">公民證明的合法部署，必須先通過四條邊界條件</text>
</a>
</g>
</g>
<!-- n2&#45;&gt;n0 -->
<g id="edge9" class="edge">
<title>n2&#45;&gt;n0</title>
<g id="a_edge9"><a xlink:title="support">
<path fill="none" stroke="#6f8f72" d="M466.11,-136.56C470.47,-139.07 474.6,-141.9 478.39,-145.12 562.81,-216.76 595.87,-352.79 606.74,-412.63"/>
<polygon fill="#6f8f72" stroke="#6f8f72" points="603.27,-413.11 608.42,-422.37 610.17,-411.92 603.27,-413.11"/>
</a>
</g>
</g>
<!-- n3&#45;&gt;n0 -->
<g id="edge12" class="edge">
<title>n3&#45;&gt;n0</title>
<g id="a_edge12"><a xlink:title="attack">
<path fill="none" stroke="#b85b57" d="M466.82,-82.58C470.94,-85.09 474.83,-87.92 478.39,-91.12 575.71,-178.76 602.15,-345.15 609.02,-412.6"/>
<polygon fill="#b85b57" stroke="#b85b57" points="605.52,-412.87 609.94,-422.5 612.49,-412.22 605.52,-412.87"/>
</a>
</g>
</g>
<!-- n4 -->
<g id="node5" class="node">
<title>n4</title>
<g id="a_node5"><a xlink:title="Soulbound Token 已涵蓋公民證明的所有功能">
<path fill="#fffdf7" stroke="#6f8f72" stroke-width="2" d="M466.39,-642.12C466.39,-642.12 283.32,-642.12 283.32,-642.12 277.32,-642.12 271.32,-636.12 271.32,-630.12 271.32,-630.12 271.32,-618.12 271.32,-618.12 271.32,-612.12 277.32,-606.12 283.32,-606.12 283.32,-606.12 466.39,-606.12 466.39,-606.12 472.39,-606.12 478.39,-612.12 478.39,-618.12 478.39,-618.12 478.39,-630.12 478.39,-630.12 478.39,-636.12 472.39,-642.12 466.39,-642.12"/>
<text xml:space="preserve" text-anchor="start" x="281.24" y="-622.12" font-family="Inter, ui-sans-serif, system-ui, -apple-system, BlinkMacSystemFont, Segoe UI, sans-serif" font-weight="bold" font-size="10.00" fill="#2f2a21">Soulbound Token 已涵蓋公民證明的所有功能</text>
</a>
</g>
</g>
<!-- n4&#45;&gt;n0 -->
<g id="edge14" class="edge">
<title>n4&#45;&gt;n0</title>
<g id="a_edge14"><a xlink:title="attack">
<path fill="none" stroke="#b85b57" d="M451.64,-605.68C461.01,-601.92 470.17,-597.44 478.39,-592.12 528.65,-559.61 571.38,-503.07 594.01,-469.46"/>
<polygon fill="#b85b57" stroke="#b85b57" points="596.68,-471.76 599.27,-461.49 590.84,-467.9 596.68,-471.76"/>
</a>
</g>
</g>
<!-- n5 -->
<g id="node6" class="node">
<title>n5</title>
<g id="a_node6"><a xlink:title="Verifiable Credentials...">
<path fill="#fffdf7" stroke="#6f8f72" stroke-width="2" d="M460.77,-716.12C460.77,-716.12 288.93,-716.12 288.93,-716.12 282.93,-716.12 276.93,-710.12 276.93,-704.12 276.93,-704.12 276.93,-692.12 276.93,-692.12 276.93,-686.12 282.93,-680.12 288.93,-680.12 288.93,-680.12 460.77,-680.12 460.77,-680.12 466.77,-680.12 472.77,-686.12 472.77,-692.12 472.77,-692.12 472.77,-704.12 472.77,-704.12 472.77,-710.12 466.77,-716.12 460.77,-716.12"/>
<text xml:space="preserve" text-anchor="start" x="319.56" y="-696.12" font-family="Inter, ui-sans-serif, system-ui, -apple-system, BlinkMacSystemFont, Segoe UI, sans-serif" font-weight="bold" font-size="10.00" fill="#2f2a21">Verifiable Credentials...</text>
</a>
</g>
</g>
<!-- n5&#45;&gt;n0 -->
<g id="edge17" class="edge">
<title>n5&#45;&gt;n0</title>
<g id="a_edge17"><a xlink:title="attack">
<path fill="none" stroke="#b85b57" d="M455.8,-679.71C463.87,-675.98 471.59,-671.5 478.39,-666.12 544.43,-613.92 584.71,-519.19 601.77,-471.39"/>
<polygon fill="#b85b57" stroke="#b85b57" points="605.06,-472.6 605.03,-462 598.44,-470.3 605.06,-472.6"/>
</a>
</g>
</g>
<!-- n6 -->
<g id="node7" class="node">
<title>n6</title>
<g id="a_node7"><a xlink:title="軟性 KYC">
<path fill="#fffdf7" stroke="#6f8f72" stroke-width="2" d="M460.77,-790.12C460.77,-790.12 288.93,-790.12 288.93,-790.12 282.93,-790.12 276.93,-784.12 276.93,-778.12 276.93,-778.12 276.93,-766.12 276.93,-766.12 276.93,-760.12 282.93,-754.12 288.93,-754.12 288.93,-754.12 460.77,-754.12 460.77,-754.12 466.77,-754.12 472.77,-760.12 472.77,-766.12 472.77,-766.12 472.77,-778.12 472.77,-778.12 472.77,-784.12 466.77,-790.12 460.77,-790.12"/>
<text xml:space="preserve" text-anchor="start" x="354.57" y="-770.12" font-family="Inter, ui-sans-serif, system-ui, -apple-system, BlinkMacSystemFont, Segoe UI, sans-serif" font-weight="bold" font-size="10.00" fill="#2f2a21">軟性 KYC</text>
</a>
</g>
</g>
<!-- n6&#45;&gt;n0 -->
<g id="edge20" class="edge">
<title>n6&#45;&gt;n0</title>
<g id="a_edge20"><a xlink:title="attack">
<path fill="none" stroke="#b85b57" d="M457.98,-753.72C465.37,-749.99 472.33,-745.51 478.39,-740.12 561.16,-666.51 595.03,-531.5 606.42,-471.83"/>
<polygon fill="#b85b57" stroke="#b85b57" points="609.84,-472.56 608.19,-462.1 602.95,-471.31 609.84,-472.56"/>
</a>
</g>
</g>
<!-- n7 -->
<g id="node8" class="node">
<title>n7</title>
<g id="a_node8"><a xlink:title="Formal Core">
<path fill="#e8f1e8" stroke="#c8b794" d="M460.77,-190.12C460.77,-190.12 288.93,-190.12 288.93,-190.12 282.93,-190.12 276.93,-184.12 276.93,-178.12 276.93,-178.12 276.93,-166.12 276.93,-166.12 276.93,-160.12 282.93,-154.12 288.93,-154.12 288.93,-154.12 460.77,-154.12 460.77,-154.12 466.77,-154.12 472.77,-160.12 472.77,-166.12 472.77,-166.12 472.77,-178.12 472.77,-178.12 472.77,-184.12 466.77,-190.12 460.77,-190.12"/>
<text xml:space="preserve" text-anchor="start" x="345.4" y="-170.12" font-family="Inter, ui-sans-serif, system-ui, -apple-system, BlinkMacSystemFont, Segoe UI, sans-serif" font-weight="bold" font-size="10.00" fill="#2f2a21">Formal Core</text>
</a>
</g>
</g>
<!-- n7&#45;&gt;n0 -->
<g id="edge1" class="edge">
<title>n7&#45;&gt;n0</title>
<g id="a_edge1"><a xlink:title="support">
<path fill="none" stroke="#6f8f72" d="M464.82,-190.4C469.62,-192.94 474.18,-195.83 478.39,-199.12 550.24,-255.33 588.6,-361.69 603.64,-412.99"/>
<polygon fill="#6f8f72" stroke="#6f8f72" points="600.24,-413.81 606.33,-422.47 606.97,-411.9 600.24,-413.81"/>
</a>
</g>
</g>
<!-- n8 -->
<g id="node9" class="node">
<title>n8</title>
<g id="a_node9"><a xlink:title="CI Cohen Hildebrandt 三段式論證">
<path fill="#e8f1e8" stroke="#c8b794" d="M460.77,-244.12C460.77,-244.12 288.93,-244.12 288.93,-244.12 282.93,-244.12 276.93,-238.12 276.93,-232.12 276.93,-232.12 276.93,-220.12 276.93,-220.12 276.93,-214.12 282.93,-208.12 288.93,-208.12 288.93,-208.12 460.77,-208.12 460.77,-208.12 466.77,-208.12 472.77,-214.12 472.77,-220.12 472.77,-220.12 472.77,-232.12 472.77,-232.12 472.77,-238.12 466.77,-244.12 460.77,-244.12"/>
<text xml:space="preserve" text-anchor="start" x="301.52" y="-224.12" font-family="Inter, ui-sans-serif, system-ui, -apple-system, BlinkMacSystemFont, Segoe UI, sans-serif" font-weight="bold" font-size="10.00" fill="#2f2a21">CI Cohen Hildebrandt 三段式論證</text>
</a>
</g>
</g>
<!-- n8&#45;&gt;n0 -->
<g id="edge3" class="edge">
<title>n8&#45;&gt;n0</title>
<g id="a_edge3"><a xlink:title="support">
<path fill="none" stroke="#6f8f72" d="M463.64,-244.6C468.81,-247.09 473.78,-249.91 478.39,-253.12 537.95,-294.54 579.69,-371.75 599.07,-413.52"/>
<polygon fill="#6f8f72" stroke="#6f8f72" points="595.79,-414.77 603.1,-422.44 602.17,-411.89 595.79,-414.77"/>
</a>
</g>
</g>
<!-- n9 -->
<g id="node10" class="node">
<title>n9</title>
<g id="a_node10"><a xlink:title="Civil Political Social...">
<path fill="#e8f1e8" stroke="#c8b794" d="M460.77,-298.12C460.77,-298.12 288.93,-298.12 288.93,-298.12 282.93,-298.12 276.93,-292.12 276.93,-286.12 276.93,-286.12 276.93,-274.12 276.93,-274.12 276.93,-268.12 282.93,-262.12 288.93,-262.12 288.93,-262.12 460.77,-262.12 460.77,-262.12 466.77,-262.12 472.77,-268.12 472.77,-274.12 472.77,-274.12 472.77,-286.12 472.77,-286.12 472.77,-292.12 466.77,-298.12 460.77,-298.12"/>
<text xml:space="preserve" text-anchor="start" x="323.45" y="-278.12" font-family="Inter, ui-sans-serif, system-ui, -apple-system, BlinkMacSystemFont, Segoe UI, sans-serif" font-weight="bold" font-size="10.00" fill="#2f2a21">Civil Political Social...</text>
</a>
</g>
</g>
<!-- n9&#45;&gt;n0 -->
<g id="edge4" class="edge">
<title>n9&#45;&gt;n0</title>
<g id="a_edge4"><a xlink:title="support">
<path fill="none" stroke="#6f8f72" d="M460.7,-298.52C466.85,-301.04 472.81,-303.89 478.39,-307.12 526.1,-334.77 568.33,-384.11 591.79,-414.86"/>
<polygon fill="#6f8f72" stroke="#6f8f72" points="588.75,-416.65 597.55,-422.56 594.36,-412.45 588.75,-416.65"/>
</a>
</g>
</g>
<!-- n10 -->
<g id="node11" class="node">
<title>n10</title>
<g id="a_node11"><a xlink:title="M₁..M₄ 規範差異矩陣">
<path fill="#e8f1e8" stroke="#c8b794" d="M460.77,-352.12C460.77,-352.12 288.93,-352.12 288.93,-352.12 282.93,-352.12 276.93,-346.12 276.93,-340.12 276.93,-340.12 276.93,-328.12 276.93,-328.12 276.93,-322.12 282.93,-316.12 288.93,-316.12 288.93,-316.12 460.77,-316.12 460.77,-316.12 466.77,-316.12 472.77,-322.12 472.77,-328.12 472.77,-328.12 472.77,-340.12 472.77,-340.12 472.77,-346.12 466.77,-352.12 460.77,-352.12"/>
<text xml:space="preserve" text-anchor="start" x="329.02" y="-332.12" font-family="Inter, ui-sans-serif, system-ui, -apple-system, BlinkMacSystemFont, Segoe UI, sans-serif" font-weight="bold" font-size="10.00" fill="#2f2a21">M₁..M₄ 規範差異矩陣</text>
</a>
</g>
</g>
<!-- n10&#45;&gt;n0 -->
<g id="edge5" class="edge">
<title>n10&#45;&gt;n0</title>
<g id="a_edge5"><a xlink:title="support">
<path fill="none" stroke="#6f8f72" d="M455.28,-352.56C463.2,-355.13 471.02,-357.98 478.39,-361.12 513.67,-376.13 550.67,-399.38 576.65,-417.13"/>
<polygon fill="#6f8f72" stroke="#6f8f72" points="574.58,-419.96 584.79,-422.77 578.56,-414.2 574.58,-419.96"/>
</a>
</g>
</g>
<!-- n11 -->
<g id="node12" class="node">
<title>n11</title>
<g id="a_node12"><a xlink:title="ℱ — 最小必要條件 最大允許範圍">
<path fill="#e8f1e8" stroke="#c8b794" d="M460.77,-406.12C460.77,-406.12 288.93,-406.12 288.93,-406.12 282.93,-406.12 276.93,-400.12 276.93,-394.12 276.93,-394.12 276.93,-382.12 276.93,-382.12 276.93,-376.12 282.93,-370.12 288.93,-370.12 288.93,-370.12 460.77,-370.12 460.77,-370.12 466.77,-370.12 472.77,-376.12 472.77,-382.12 472.77,-382.12 472.77,-394.12 472.77,-394.12 472.77,-400.12 466.77,-406.12 460.77,-406.12"/>
<text xml:space="preserve" text-anchor="start" x="312.34" y="-386.12" font-family="Inter, ui-sans-serif, system-ui, -apple-system, BlinkMacSystemFont, Segoe UI, sans-serif" font-weight="bold" font-size="10.00" fill="#2f2a21">ℱ — 最小必要條件 最大允許範圍</text>
</a>
</g>
</g>
<!-- n11&#45;&gt;n0 -->
<g id="edge6" class="edge">
<title>n11&#45;&gt;n0</title>
<g id="a_edge6"><a xlink:title="support">
<path fill="none" stroke="#6f8f72" d="M456.23,-406.55C476.66,-411.24 498.78,-416.31 519.73,-421.12"/>
<polygon fill="#6f8f72" stroke="#6f8f72" points="518.9,-424.52 529.42,-423.34 520.46,-417.69 518.9,-424.52"/>
</a>
</g>
</g>
<!-- n12 -->
<g id="node13" class="node">
<title>n12</title>
<g id="a_node13"><a xlink:title="條件性結論 18 篇系列的位置">
<path fill="#e8f1e8" stroke="#c8b794" d="M460.77,-460.12C460.77,-460.12 288.93,-460.12 288.93,-460.12 282.93,-460.12 276.93,-454.12 276.93,-448.12 276.93,-448.12 276.93,-436.12 276.93,-436.12 276.93,-430.12 282.93,-424.12 288.93,-424.12 288.93,-424.12 460.77,-424.12 460.77,-424.12 466.77,-424.12 472.77,-430.12 472.77,-436.12 472.77,-436.12 472.77,-448.12 472.77,-448.12 472.77,-454.12 466.77,-460.12 460.77,-460.12"/>
<text xml:space="preserve" text-anchor="start" x="320.67" y="-440.12" font-family="Inter, ui-sans-serif, system-ui, -apple-system, BlinkMacSystemFont, Segoe UI, sans-serif" font-weight="bold" font-size="10.00" fill="#2f2a21">條件性結論 18 篇系列的位置</text>
</a>
</g>
</g>
<!-- n12&#45;&gt;n0 -->
<g id="edge7" class="edge">
<title>n12&#45;&gt;n0</title>
<g id="a_edge7"><a xlink:title="support">
<path fill="none" stroke="#6f8f72" d="M472.98,-442.12C482.72,-442.12 492.66,-442.12 502.51,-442.12"/>
<polygon fill="#6f8f72" stroke="#6f8f72" points="502.51,-445.62 512.51,-442.12 502.51,-438.62 502.51,-445.62"/>
</a>
</g>
</g>
<!-- n13 -->
<g id="node14" class="node">
<title>n13</title>
<g id="a_node14"><a xlink:title="概念工程六步推導 從現成概念地景到三件式定義">
<path fill="#e8f1e8" stroke="#c8b794" d="M461.68,-514.12C461.68,-514.12 288.03,-514.12 288.03,-514.12 282.03,-514.12 276.03,-508.12 276.03,-502.12 276.03,-502.12 276.03,-490.12 276.03,-490.12 276.03,-484.12 282.03,-478.12 288.03,-478.12 288.03,-478.12 461.68,-478.12 461.68,-478.12 467.68,-478.12 473.68,-484.12 473.68,-490.12 473.68,-490.12 473.68,-502.12 473.68,-502.12 473.68,-508.12 467.68,-514.12 461.68,-514.12"/>
<text xml:space="preserve" text-anchor="start" x="285.95" y="-494.12" font-family="Inter, ui-sans-serif, system-ui, -apple-system, BlinkMacSystemFont, Segoe UI, sans-serif" font-weight="bold" font-size="10.00" fill="#2f2a21">概念工程六步推導 從現成概念地景到三件式定義</text>
</a>
</g>
</g>
<!-- n13&#45;&gt;n0 -->
<g id="edge8" class="edge">
<title>n13&#45;&gt;n0</title>
<g id="a_edge8"><a xlink:title="support">
<path fill="none" stroke="#6f8f72" d="M456.23,-477.69C476.66,-473 498.78,-467.93 519.73,-463.12"/>
<polygon fill="#6f8f72" stroke="#6f8f72" points="520.46,-466.55 529.42,-460.9 518.9,-459.72 520.46,-466.55"/>
</a>
</g>
</g>
<!-- n14 -->
<g id="node15" class="node">
<title>n14</title>
<g id="a_node15"><a xlink:title="Conclusion">
<path fill="#e8f1e8" stroke="#c8b794" d="M460.77,-568.12C460.77,-568.12 288.93,-568.12 288.93,-568.12 282.93,-568.12 276.93,-562.12 276.93,-556.12 276.93,-556.12 276.93,-544.12 276.93,-544.12 276.93,-538.12 282.93,-532.12 288.93,-532.12 288.93,-532.12 460.77,-532.12 460.77,-532.12 466.77,-532.12 472.77,-538.12 472.77,-544.12 472.77,-544.12 472.77,-556.12 472.77,-556.12 472.77,-562.12 466.77,-568.12 460.77,-568.12"/>
<text xml:space="preserve" text-anchor="start" x="347.63" y="-548.12" font-family="Inter, ui-sans-serif, system-ui, -apple-system, BlinkMacSystemFont, Segoe UI, sans-serif" font-weight="bold" font-size="10.00" fill="#2f2a21">Conclusion</text>
</a>
</g>
</g>
<!-- n14&#45;&gt;n0 -->
<g id="edge10" class="edge">
<title>n14&#45;&gt;n0</title>
<g id="a_edge10"><a xlink:title="support">
<path fill="none" stroke="#6f8f72" d="M455.28,-531.68C463.2,-529.11 471.02,-526.26 478.39,-523.12 513.67,-508.11 550.67,-484.85 576.65,-467.11"/>
<polygon fill="#6f8f72" stroke="#6f8f72" points="578.56,-470.04 584.79,-461.47 574.58,-464.28 578.56,-470.04"/>
</a>
</g>
</g>
<!-- n15 -->
<g id="node16" class="node">
<title>n15</title>
<g id="a_node16"><a xlink:title="Reply 公民證明 SBT 重命名 SBT...">
<path fill="#e8f1e8" stroke="#c8b794" d="M211.58,-623.12C211.58,-623.12 39.74,-623.12 39.74,-623.12 33.74,-623.12 27.74,-617.12 27.74,-611.12 27.74,-611.12 27.74,-599.12 27.74,-599.12 27.74,-593.12 33.74,-587.12 39.74,-587.12 39.74,-587.12 211.58,-587.12 211.58,-587.12 217.58,-587.12 223.58,-593.12 223.58,-599.12 223.58,-599.12 223.58,-611.12 223.58,-611.12 223.58,-617.12 217.58,-623.12 211.58,-623.12"/>
<text xml:space="preserve" text-anchor="start" x="53.15" y="-603.12" font-family="Inter, ui-sans-serif, system-ui, -apple-system, BlinkMacSystemFont, Segoe UI, sans-serif" font-weight="bold" font-size="10.00" fill="#2f2a21">Reply 公民證明 SBT 重命名 SBT...</text>
</a>
</g>
</g>
<!-- n15&#45;&gt;n0 -->
<g id="edge15" class="edge">
<title>n15&#45;&gt;n0</title>
<g id="a_edge15"><a xlink:title="support">
<path fill="none" stroke="#6f8f72" d="M224.05,-599.04C324.13,-592.55 466.94,-582.46 478.39,-577.12 528.91,-553.56 570.79,-502.03 593.33,-469.89"/>
<polygon fill="#6f8f72" stroke="#6f8f72" points="596.08,-472.07 598.84,-461.84 590.3,-468.12 596.08,-472.07"/>
</a>
</g>
</g>
<!-- n15&#45;&gt;n4 -->
<g id="edge13" class="edge">
<title>n15&#45;&gt;n4</title>
<g id="a_edge13"><a xlink:title="attack">
<path fill="none" stroke="#b85b57" d="M224,-612.6C235.67,-613.5 247.67,-614.42 259.56,-615.33"/>
<polygon fill="#b85b57" stroke="#b85b57" points="259.15,-618.81 269.39,-616.09 259.69,-611.83 259.15,-618.81"/>
</a>
</g>
</g>
<!-- n16 -->
<g id="node17" class="node">
<title>n16</title>
<g id="a_node17"><a xlink:title="Reply 公民證明 W3C VC 的政治版本 W3C VC...">
<path fill="#e8f1e8" stroke="#c8b794" d="M223.32,-697.12C223.32,-697.12 28,-697.12 28,-697.12 22,-697.12 16,-691.12 16,-685.12 16,-685.12 16,-673.12 16,-673.12 16,-667.12 22,-661.12 28,-661.12 28,-661.12 223.32,-661.12 223.32,-661.12 229.32,-661.12 235.32,-667.12 235.32,-673.12 235.32,-673.12 235.32,-685.12 235.32,-685.12 235.32,-691.12 229.32,-697.12 223.32,-697.12"/>
<text xml:space="preserve" text-anchor="start" x="25.92" y="-677.12" font-family="Inter, ui-sans-serif, system-ui, -apple-system, BlinkMacSystemFont, Segoe UI, sans-serif" font-weight="bold" font-size="10.00" fill="#2f2a21">Reply 公民證明 W3C VC 的政治版本 W3C VC...</text>
</a>
</g>
</g>
<!-- n16&#45;&gt;n0 -->
<g id="edge18" class="edge">
<title>n16&#45;&gt;n0</title>
<g id="a_edge18"><a xlink:title="support">
<path fill="none" stroke="#6f8f72" d="M235.39,-672.81C334.8,-666.68 467.96,-657.4 478.39,-651.12 546.97,-609.83 586.09,-518.08 602.34,-471.09"/>
<polygon fill="#6f8f72" stroke="#6f8f72" points="605.57,-472.46 605.42,-461.86 598.93,-470.24 605.57,-472.46"/>
</a>
</g>
</g>
<!-- n16&#45;&gt;n5 -->
<g id="edge16" class="edge">
<title>n16&#45;&gt;n5</title>
<g id="a_edge16"><a xlink:title="attack">
<path fill="none" stroke="#b85b57" d="M235.8,-687.51C245.56,-688.26 255.44,-689.02 265.2,-689.77"/>
<polygon fill="#b85b57" stroke="#b85b57" points="264.83,-693.25 275.07,-690.53 265.37,-686.27 264.83,-693.25"/>
</a>
</g>
</g>
<!-- n17 -->
<g id="node18" class="node">
<title>n17</title>
<g id="a_node18"><a xlink:title="Reply 公民證明 軟性 KYC 即使軟性...">
<path fill="#e8f1e8" stroke="#c8b794" d="M211.58,-771.12C211.58,-771.12 39.74,-771.12 39.74,-771.12 33.74,-771.12 27.74,-765.12 27.74,-759.12 27.74,-759.12 27.74,-747.12 27.74,-747.12 27.74,-741.12 33.74,-735.12 39.74,-735.12 39.74,-735.12 211.58,-735.12 211.58,-735.12 217.58,-735.12 223.58,-741.12 223.58,-747.12 223.58,-747.12 223.58,-759.12 223.58,-759.12 223.58,-765.12 217.58,-771.12 211.58,-771.12"/>
<text xml:space="preserve" text-anchor="start" x="50.09" y="-751.12" font-family="Inter, ui-sans-serif, system-ui, -apple-system, BlinkMacSystemFont, Segoe UI, sans-serif" font-weight="bold" font-size="10.00" fill="#2f2a21">Reply 公民證明 軟性 KYC 即使軟性...</text>
</a>
</g>
</g>
<!-- n17&#45;&gt;n0 -->
<g id="edge21" class="edge">
<title>n17&#45;&gt;n0</title>
<g id="a_edge21"><a xlink:title="support">
<path fill="none" stroke="#6f8f72" d="M224,-747.77C324.45,-741.89 467.99,-732.32 478.39,-725.12 565.86,-664.56 597.31,-530.85 607.24,-471.49"/>
<polygon fill="#6f8f72" stroke="#6f8f72" points="610.67,-472.25 608.76,-461.83 603.75,-471.16 610.67,-472.25"/>
</a>
</g>
</g>
<!-- n17&#45;&gt;n6 -->
<g id="edge19" class="edge">
<title>n17&#45;&gt;n6</title>
<g id="a_edge19"><a xlink:title="attack">
<path fill="none" stroke="#b85b57" d="M224,-760.6C237.51,-761.64 251.46,-762.71 265.16,-763.77"/>
<polygon fill="#b85b57" stroke="#b85b57" points="264.85,-767.25 275.09,-764.53 265.39,-760.27 264.85,-767.25"/>
</a>
</g>
</g>
</g>
</svg>
