<?xml version="1.0" encoding="UTF-8" standalone="no"?>
<!DOCTYPE svg PUBLIC "-//W3C//DTD SVG 1.1//EN"
 "http://www.w3.org/Graphics/SVG/1.1/DTD/svg11.dtd">
<!-- Generated by graphviz version 14.1.4 (0)
 -->
<!-- Title: Argument Map Pages: 1 -->
<svg class="argdown-summary-map" width="720pt" height="658pt"
 viewBox="0.00 0.00 720.00 658.00" xmlns="http://www.w3.org/2000/svg" xmlns:xlink="http://www.w3.org/1999/xlink">
<g id="graph0" class="graph" transform="scale(0.77097 0.77097) rotate(0) translate(4 849.42)">
<title>Argument Map</title>
<g id="clust1" class="cluster">
<title>cluster_1</title>
<polygon fill="#f3eadb" stroke="#d4c0a1" points="8,-35.42 8,-837.42 917.89,-837.42 917.89,-35.42 8,-35.42"/>
<text xml:space="preserve" text-anchor="start" x="424.26" y="-821.42" font-family="Inter, ui-sans-serif, system-ui, -apple-system, BlinkMacSystemFont, Segoe UI, sans-serif" font-size="12.00" fill="#2f2a21">Central Thesis</text>
</g>
<!-- n0 -->
<g id="node1" class="node">
<title>n0</title>
<g id="a_node1"><a xlink:title="身分基礎設施為什麼一定會擴張——以及如何預防">
<path fill="#fffdf7" stroke="#6f8f72" stroke-width="2" d="M897.89,-477.42C897.89,-477.42 718.68,-477.42 718.68,-477.42 712.68,-477.42 706.68,-471.42 706.68,-465.42 706.68,-465.42 706.68,-453.42 706.68,-453.42 706.68,-447.42 712.68,-441.42 718.68,-441.42 718.68,-441.42 897.89,-441.42 897.89,-441.42 903.89,-441.42 909.89,-447.42 909.89,-453.42 909.89,-453.42 909.89,-465.42 909.89,-465.42 909.89,-471.42 903.89,-477.42 897.89,-477.42"/>
<text xml:space="preserve" text-anchor="start" x="716.6" y="-457.42" font-family="Inter, ui-sans-serif, system-ui, -apple-system, BlinkMacSystemFont, Segoe UI, sans-serif" font-weight="bold" font-size="10.00" fill="#2f2a21">身分基礎設施為什麼一定會擴張——以及如何預防</text>
</a>
</g>
</g>
<!-- n1 -->
<g id="node2" class="node">
<title>n1</title>
<g id="a_node2"><a xlink:title="強傾向 可被反向制度壓力反轉，建設前 MVSR 四層條款顯著提升邊際成本">
<path fill="#fffdf7" stroke="#6f8f72" stroke-width="2" d="M302.78,-89.42C302.78,-89.42 28,-89.42 28,-89.42 22,-89.42 16,-83.42 16,-77.42 16,-77.42 16,-65.42 16,-65.42 16,-59.42 22,-53.42 28,-53.42 28,-53.42 302.78,-53.42 302.78,-53.42 308.78,-53.42 314.78,-59.42 314.78,-65.42 314.78,-65.42 314.78,-77.42 314.78,-77.42 314.78,-83.42 308.78,-89.42 302.78,-89.42"/>
<text xml:space="preserve" text-anchor="start" x="25.92" y="-69.42" font-family="Inter, ui-sans-serif, system-ui, -apple-system, BlinkMacSystemFont, Segoe UI, sans-serif" font-weight="bold" font-size="10.00" fill="#2f2a21">強傾向 可被反向制度壓力反轉，建設前 MVSR 四層條款顯著提升邊際成本</text>
</a>
</g>
</g>
<!-- n1&#45;&gt;n0 -->
<g id="edge2" class="edge">
<title>n1&#45;&gt;n0</title>
<g id="a_edge2"><a xlink:title="support">
<path fill="none" stroke="#6f8f72" d="M212.43,-52.95C308,-17.93 530.68,46.11 670.68,-54.42 795.12,-143.77 807.69,-352.41 807.9,-429.82"/>
<polygon fill="#6f8f72" stroke="#6f8f72" points="804.4,-429.55 807.85,-439.57 811.4,-429.58 804.4,-429.55"/>
</a>
</g>
</g>
<!-- n3 -->
<g id="node4" class="node">
<title>n3</title>
<g id="a_node4"><a xlink:title="結構性必然 不建身分基礎設施 政治意志薄弱 加強監督">
<path fill="#fffdf7" stroke="#6f8f72" stroke-width="2" d="M608.67,-99.42C608.67,-99.42 412.79,-99.42 412.79,-99.42 406.79,-99.42 400.79,-93.42 400.79,-87.42 400.79,-87.42 400.79,-75.42 400.79,-75.42 400.79,-69.42 406.79,-63.42 412.79,-63.42 412.79,-63.42 608.67,-63.42 608.67,-63.42 614.67,-63.42 620.67,-69.42 620.67,-75.42 620.67,-75.42 620.67,-87.42 620.67,-87.42 620.67,-93.42 614.67,-99.42 608.67,-99.42"/>
<text xml:space="preserve" text-anchor="start" x="410.71" y="-79.42" font-family="Inter, ui-sans-serif, system-ui, -apple-system, BlinkMacSystemFont, Segoe UI, sans-serif" font-weight="bold" font-size="10.00" fill="#2f2a21">結構性必然 不建身分基礎設施 政治意志薄弱 加強監督</text>
</a>
</g>
</g>
<!-- n1&#45;&gt;n3 -->
<g id="edge11" class="edge">
<title>n1&#45;&gt;n3</title>
<g id="a_edge11"><a xlink:title="attack">
<path fill="none" stroke="#b85b57" d="M314.99,-75.74C339.79,-76.47 365.24,-77.21 389.22,-77.91"/>
<polygon fill="#b85b57" stroke="#b85b57" points="388.89,-81.4 398.99,-78.19 389.09,-74.4 388.89,-81.4"/>
</a>
</g>
</g>
<!-- n2 -->
<g id="node3" class="node">
<title>n2</title>
<g id="a_node3"><a xlink:title="MVSR 預防條款的合法部署，必須通過四件式 layered...">
<path fill="#fffdf7" stroke="#6f8f72" stroke-width="2" d="M618.4,-153.42C618.4,-153.42 403.06,-153.42 403.06,-153.42 397.06,-153.42 391.06,-147.42 391.06,-141.42 391.06,-141.42 391.06,-129.42 391.06,-129.42 391.06,-123.42 397.06,-117.42 403.06,-117.42 403.06,-117.42 618.4,-117.42 618.4,-117.42 624.4,-117.42 630.4,-123.42 630.4,-129.42 630.4,-129.42 630.4,-141.42 630.4,-141.42 630.4,-147.42 624.4,-153.42 618.4,-153.42"/>
<text xml:space="preserve" text-anchor="start" x="400.98" y="-133.42" font-family="Inter, ui-sans-serif, system-ui, -apple-system, BlinkMacSystemFont, Segoe UI, sans-serif" font-weight="bold" font-size="10.00" fill="#2f2a21">MVSR 預防條款的合法部署，必須通過四件式 layered...</text>
</a>
</g>
</g>
<!-- n2&#45;&gt;n0 -->
<g id="edge9" class="edge">
<title>n2&#45;&gt;n0</title>
<g id="a_edge9"><a xlink:title="support">
<path fill="none" stroke="#6f8f72" d="M630.85,-142.4C645.19,-146.95 658.9,-153.39 670.68,-162.42 759.36,-230.39 792.43,-369.47 802.98,-430.09"/>
<polygon fill="#6f8f72" stroke="#6f8f72" points="799.47,-430.33 804.55,-439.62 806.38,-429.19 799.47,-430.33"/>
</a>
</g>
</g>
<!-- n3&#45;&gt;n0 -->
<g id="edge12" class="edge">
<title>n3&#45;&gt;n0</title>
<g id="a_edge12"><a xlink:title="attack">
<path fill="none" stroke="#b85b57" d="M620.77,-84.67C638.86,-89.3 656.36,-96.74 670.68,-108.42 773,-191.83 798.89,-361.96 805.27,-430.17"/>
<polygon fill="#b85b57" stroke="#b85b57" points="801.75,-430.14 806.09,-439.81 808.73,-429.54 801.75,-430.14"/>
</a>
</g>
</g>
<!-- n4 -->
<g id="node5" class="node">
<title>n4</title>
<g id="a_node5"><a xlink:title="任何中心化身分基礎設施一旦建成都會擴張，制度設計工具是延遲滑坡的安慰劑...">
<path fill="#fffdf7" stroke="#6f8f72" stroke-width="2" d="M658.68,-659.42C658.68,-659.42 362.78,-659.42 362.78,-659.42 356.78,-659.42 350.78,-653.42 350.78,-647.42 350.78,-647.42 350.78,-635.42 350.78,-635.42 350.78,-629.42 356.78,-623.42 362.78,-623.42 362.78,-623.42 658.68,-623.42 658.68,-623.42 664.68,-623.42 670.68,-629.42 670.68,-635.42 670.68,-635.42 670.68,-647.42 670.68,-647.42 670.68,-653.42 664.68,-659.42 658.68,-659.42"/>
<text xml:space="preserve" text-anchor="start" x="360.7" y="-639.42" font-family="Inter, ui-sans-serif, system-ui, -apple-system, BlinkMacSystemFont, Segoe UI, sans-serif" font-weight="bold" font-size="10.00" fill="#2f2a21">任何中心化身分基礎設施一旦建成都會擴張，制度設計工具是延遲滑坡的安慰劑...</text>
</a>
</g>
</g>
<!-- n4&#45;&gt;n0 -->
<g id="edge14" class="edge">
<title>n4&#45;&gt;n0</title>
<g id="a_edge14"><a xlink:title="attack">
<path fill="none" stroke="#b85b57" d="M640.56,-622.94C651.06,-619.22 661.25,-614.76 670.68,-609.42 723.54,-579.48 767.18,-521.79 790.03,-487.34"/>
<polygon fill="#b85b57" stroke="#b85b57" points="792.84,-489.43 795.35,-479.13 786.97,-485.62 792.84,-489.43"/>
</a>
</g>
</g>
<!-- n5 -->
<g id="node6" class="node">
<title>n5</title>
<g id="a_node6"><a xlink:title="sunset clauses 在政治壓力下會被延期，PATRIOT...">
<path fill="#fffdf7" stroke="#6f8f72" stroke-width="2" d="M617.84,-733.42C617.84,-733.42 403.62,-733.42 403.62,-733.42 397.62,-733.42 391.62,-727.42 391.62,-721.42 391.62,-721.42 391.62,-709.42 391.62,-709.42 391.62,-703.42 397.62,-697.42 403.62,-697.42 403.62,-697.42 617.84,-697.42 617.84,-697.42 623.84,-697.42 629.84,-703.42 629.84,-709.42 629.84,-709.42 629.84,-721.42 629.84,-721.42 629.84,-727.42 623.84,-733.42 617.84,-733.42"/>
<text xml:space="preserve" text-anchor="start" x="401.54" y="-713.42" font-family="Inter, ui-sans-serif, system-ui, -apple-system, BlinkMacSystemFont, Segoe UI, sans-serif" font-weight="bold" font-size="10.00" fill="#2f2a21">sunset clauses 在政治壓力下會被延期，PATRIOT...</text>
</a>
</g>
</g>
<!-- n5&#45;&gt;n0 -->
<g id="edge17" class="edge">
<title>n5&#45;&gt;n0</title>
<g id="a_edge17"><a xlink:title="attack">
<path fill="none" stroke="#b85b57" d="M630.01,-703.11C644.49,-698.36 658.46,-691.97 670.68,-683.42 740.63,-634.43 781.39,-537.07 798.19,-488.45"/>
<polygon fill="#b85b57" stroke="#b85b57" points="801.44,-489.77 801.3,-479.18 794.8,-487.55 801.44,-489.77"/>
</a>
</g>
</g>
<!-- n6 -->
<g id="node7" class="node">
<title>n6</title>
<g id="a_node7"><a xlink:title="兩案例上線 3 年，path dependency 時間常數 5...">
<path fill="#fffdf7" stroke="#6f8f72" stroke-width="2" d="M610.9,-807.42C610.9,-807.42 410.56,-807.42 410.56,-807.42 404.56,-807.42 398.56,-801.42 398.56,-795.42 398.56,-795.42 398.56,-783.42 398.56,-783.42 398.56,-777.42 404.56,-771.42 410.56,-771.42 410.56,-771.42 610.9,-771.42 610.9,-771.42 616.9,-771.42 622.9,-777.42 622.9,-783.42 622.9,-783.42 622.9,-795.42 622.9,-795.42 622.9,-801.42 616.9,-807.42 610.9,-807.42"/>
<text xml:space="preserve" text-anchor="start" x="408.48" y="-787.42" font-family="Inter, ui-sans-serif, system-ui, -apple-system, BlinkMacSystemFont, Segoe UI, sans-serif" font-weight="bold" font-size="10.00" fill="#2f2a21">兩案例上線 3 年，path dependency 時間常數 5...</text>
</a>
</g>
</g>
<!-- n6&#45;&gt;n0 -->
<g id="edge20" class="edge">
<title>n6&#45;&gt;n0</title>
<g id="a_edge20"><a xlink:title="attack">
<path fill="none" stroke="#b85b57" d="M623.24,-780.93C640.36,-775.84 656.89,-768.34 670.68,-757.42 758.52,-687.85 792.04,-549.04 802.85,-488.63"/>
<polygon fill="#b85b57" stroke="#b85b57" points="806.24,-489.57 804.46,-479.13 799.33,-488.4 806.24,-489.57"/>
</a>
</g>
</g>
<!-- n7 -->
<g id="node8" class="node">
<title>n7</title>
<g id="a_node8"><a xlink:title="Formal Core">
<path fill="#e8f1e8" stroke="#c8b794" d="M596.65,-207.42C596.65,-207.42 424.81,-207.42 424.81,-207.42 418.81,-207.42 412.81,-201.42 412.81,-195.42 412.81,-195.42 412.81,-183.42 412.81,-183.42 412.81,-177.42 418.81,-171.42 424.81,-171.42 424.81,-171.42 596.65,-171.42 596.65,-171.42 602.65,-171.42 608.65,-177.42 608.65,-183.42 608.65,-183.42 608.65,-195.42 608.65,-195.42 608.65,-201.42 602.65,-207.42 596.65,-207.42"/>
<text xml:space="preserve" text-anchor="start" x="481.28" y="-187.42" font-family="Inter, ui-sans-serif, system-ui, -apple-system, BlinkMacSystemFont, Segoe UI, sans-serif" font-weight="bold" font-size="10.00" fill="#2f2a21">Formal Core</text>
</a>
</g>
</g>
<!-- n7&#45;&gt;n0 -->
<g id="edge1" class="edge">
<title>n7&#45;&gt;n0</title>
<g id="a_edge1"><a xlink:title="support">
<path fill="none" stroke="#6f8f72" d="M609.1,-192.11C630.82,-196.34 652.71,-203.77 670.68,-216.42 746.1,-269.52 784.93,-378.24 799.86,-430.33"/>
<polygon fill="#6f8f72" stroke="#6f8f72" points="796.4,-430.96 802.44,-439.67 803.15,-429.1 796.4,-430.96"/>
</a>
</g>
</g>
<!-- n8 -->
<g id="node9" class="node">
<title>n8</title>
<g id="a_node9"><a xlink:title="Aadhaar SSN eIDAS 中國 real&#45;name 的擴張軌跡">
<path fill="#e8f1e8" stroke="#c8b794" d="M613.41,-261.42C613.41,-261.42 408.05,-261.42 408.05,-261.42 402.05,-261.42 396.05,-255.42 396.05,-249.42 396.05,-249.42 396.05,-237.42 396.05,-237.42 396.05,-231.42 402.05,-225.42 408.05,-225.42 408.05,-225.42 613.41,-225.42 613.41,-225.42 619.41,-225.42 625.41,-231.42 625.41,-237.42 625.41,-237.42 625.41,-249.42 625.41,-249.42 625.41,-255.42 619.41,-261.42 613.41,-261.42"/>
<text xml:space="preserve" text-anchor="start" x="405.97" y="-241.42" font-family="Inter, ui-sans-serif, system-ui, -apple-system, BlinkMacSystemFont, Segoe UI, sans-serif" font-weight="bold" font-size="10.00" fill="#2f2a21">Aadhaar SSN eIDAS 中國 real&#45;name 的擴張軌跡</text>
</a>
</g>
</g>
<!-- n8&#45;&gt;n0 -->
<g id="edge3" class="edge">
<title>n8&#45;&gt;n0</title>
<g id="a_edge3"><a xlink:title="support">
<path fill="none" stroke="#6f8f72" d="M625.58,-251.61C641.47,-255.87 657.01,-261.91 670.68,-270.42 733,-309.19 775.56,-387.84 795.1,-430.44"/>
<polygon fill="#6f8f72" stroke="#6f8f72" points="791.89,-431.85 799.16,-439.55 798.29,-429 791.89,-431.85"/>
</a>
</g>
</g>
<!-- n9 -->
<g id="node10" class="node">
<title>n9</title>
<g id="a_node10"><a xlink:title="奧地利 sourcePIN（無法律有技術） 德國 nPA（有法律無技術）">
<path fill="#e8f1e8" stroke="#c8b794" d="M635.07,-315.42C635.07,-315.42 386.39,-315.42 386.39,-315.42 380.39,-315.42 374.39,-309.42 374.39,-303.42 374.39,-303.42 374.39,-291.42 374.39,-291.42 374.39,-285.42 380.39,-279.42 386.39,-279.42 386.39,-279.42 635.07,-279.42 635.07,-279.42 641.07,-279.42 647.07,-285.42 647.07,-291.42 647.07,-291.42 647.07,-303.42 647.07,-303.42 647.07,-309.42 641.07,-315.42 635.07,-315.42"/>
<text xml:space="preserve" text-anchor="start" x="384.31" y="-295.42" font-family="Inter, ui-sans-serif, system-ui, -apple-system, BlinkMacSystemFont, Segoe UI, sans-serif" font-weight="bold" font-size="10.00" fill="#2f2a21">奧地利 sourcePIN（無法律有技術） 德國 nPA（有法律無技術）</text>
</a>
</g>
</g>
<!-- n9&#45;&gt;n0 -->
<g id="edge4" class="edge">
<title>n9&#45;&gt;n0</title>
<g id="a_edge4"><a xlink:title="support">
<path fill="none" stroke="#6f8f72" d="M647.17,-314.43C655.3,-317.28 663.21,-320.58 670.68,-324.42 720.69,-350.06 764.07,-400.47 787.86,-431.9"/>
<polygon fill="#6f8f72" stroke="#6f8f72" points="784.94,-433.84 793.71,-439.79 790.56,-429.67 784.94,-433.84"/>
</a>
</g>
</g>
<!-- n10 -->
<g id="node11" class="node">
<title>n10</title>
<g id="a_node11"><a xlink:title="Path Dependency Infrastructure...">
<path fill="#e8f1e8" stroke="#c8b794" d="M596.65,-369.42C596.65,-369.42 424.81,-369.42 424.81,-369.42 418.81,-369.42 412.81,-363.42 412.81,-357.42 412.81,-357.42 412.81,-345.42 412.81,-345.42 412.81,-339.42 418.81,-333.42 424.81,-333.42 424.81,-333.42 596.65,-333.42 596.65,-333.42 602.65,-333.42 608.65,-339.42 608.65,-345.42 608.65,-345.42 608.65,-357.42 608.65,-357.42 608.65,-363.42 602.65,-369.42 596.65,-369.42"/>
<text xml:space="preserve" text-anchor="start" x="430.71" y="-349.42" font-family="Inter, ui-sans-serif, system-ui, -apple-system, BlinkMacSystemFont, Segoe UI, sans-serif" font-weight="bold" font-size="10.00" fill="#2f2a21">Path Dependency Infrastructure...</text>
</a>
</g>
</g>
<!-- n10&#45;&gt;n0 -->
<g id="edge5" class="edge">
<title>n10&#45;&gt;n0</title>
<g id="a_edge5"><a xlink:title="support">
<path fill="none" stroke="#6f8f72" d="M609.03,-362.13C629.75,-366.01 651.23,-371.28 670.68,-378.42 708.25,-392.21 747.14,-416.4 773.77,-434.77"/>
<polygon fill="#6f8f72" stroke="#6f8f72" points="771.57,-437.5 781.76,-440.38 775.58,-431.77 771.57,-437.5"/>
</a>
</g>
</g>
<!-- n11 -->
<g id="node12" class="node">
<title>n11</title>
<g id="a_node12"><a xlink:title="Sunset Scope&#45;Bound Split&#45;Key...">
<path fill="#e8f1e8" stroke="#c8b794" d="M596.65,-423.42C596.65,-423.42 424.81,-423.42 424.81,-423.42 418.81,-423.42 412.81,-417.42 412.81,-411.42 412.81,-411.42 412.81,-399.42 412.81,-399.42 412.81,-393.42 418.81,-387.42 424.81,-387.42 424.81,-387.42 596.65,-387.42 596.65,-387.42 602.65,-387.42 608.65,-393.42 608.65,-399.42 608.65,-399.42 608.65,-411.42 608.65,-411.42 608.65,-417.42 602.65,-423.42 596.65,-423.42"/>
<text xml:space="preserve" text-anchor="start" x="432.95" y="-403.42" font-family="Inter, ui-sans-serif, system-ui, -apple-system, BlinkMacSystemFont, Segoe UI, sans-serif" font-weight="bold" font-size="10.00" fill="#2f2a21">Sunset Scope&#45;Bound Split&#45;Key...</text>
</a>
</g>
</g>
<!-- n11&#45;&gt;n0 -->
<g id="edge6" class="edge">
<title>n11&#45;&gt;n0</title>
<g id="a_edge6"><a xlink:title="support">
<path fill="none" stroke="#6f8f72" d="M608.89,-421.49C629.32,-424.99 650.72,-428.75 670.68,-432.42 681.56,-434.42 692.91,-436.56 704.22,-438.74"/>
<polygon fill="#6f8f72" stroke="#6f8f72" points="703.53,-442.17 714.01,-440.64 704.86,-435.3 703.53,-442.17"/>
</a>
</g>
</g>
<!-- n12 -->
<g id="node13" class="node">
<title>n12</title>
<g id="a_node13"><a xlink:title="規範性文本層級的高度一致性（待 5 10 年壓力測試）">
<path fill="#e8f1e8" stroke="#c8b794" d="M608.68,-477.42C608.68,-477.42 412.78,-477.42 412.78,-477.42 406.78,-477.42 400.78,-471.42 400.78,-465.42 400.78,-465.42 400.78,-453.42 400.78,-453.42 400.78,-447.42 406.78,-441.42 412.78,-441.42 412.78,-441.42 608.68,-441.42 608.68,-441.42 614.68,-441.42 620.68,-447.42 620.68,-453.42 620.68,-453.42 620.68,-465.42 620.68,-465.42 620.68,-471.42 614.68,-477.42 608.68,-477.42"/>
<text xml:space="preserve" text-anchor="start" x="410.7" y="-457.42" font-family="Inter, ui-sans-serif, system-ui, -apple-system, BlinkMacSystemFont, Segoe UI, sans-serif" font-weight="bold" font-size="10.00" fill="#2f2a21">規範性文本層級的高度一致性（待 5 10 年壓力測試）</text>
</a>
</g>
</g>
<!-- n12&#45;&gt;n0 -->
<g id="edge7" class="edge">
<title>n12&#45;&gt;n0</title>
<g id="a_edge7"><a xlink:title="support">
<path fill="none" stroke="#6f8f72" d="M620.94,-459.42C645.08,-459.42 670.68,-459.42 694.94,-459.42"/>
<polygon fill="#6f8f72" stroke="#6f8f72" points="694.84,-462.92 704.84,-459.42 694.84,-455.92 694.84,-462.92"/>
</a>
</g>
</g>
<!-- n13 -->
<g id="node14" class="node">
<title>n13</title>
<g id="a_node14"><a xlink:title="滑坡形成的六步因果鏈 從原始建設目的到擴張用途">
<path fill="#e8f1e8" stroke="#c8b794" d="M601.72,-531.42C601.72,-531.42 419.74,-531.42 419.74,-531.42 413.74,-531.42 407.74,-525.42 407.74,-519.42 407.74,-519.42 407.74,-507.42 407.74,-507.42 407.74,-501.42 413.74,-495.42 419.74,-495.42 419.74,-495.42 601.72,-495.42 601.72,-495.42 607.72,-495.42 613.72,-501.42 613.72,-507.42 613.72,-507.42 613.72,-519.42 613.72,-519.42 613.72,-525.42 607.72,-531.42 601.72,-531.42"/>
<text xml:space="preserve" text-anchor="start" x="417.66" y="-511.42" font-family="Inter, ui-sans-serif, system-ui, -apple-system, BlinkMacSystemFont, Segoe UI, sans-serif" font-weight="bold" font-size="10.00" fill="#2f2a21">滑坡形成的六步因果鏈 從原始建設目的到擴張用途</text>
</a>
</g>
</g>
<!-- n13&#45;&gt;n0 -->
<g id="edge8" class="edge">
<title>n13&#45;&gt;n0</title>
<g id="a_edge8"><a xlink:title="support">
<path fill="none" stroke="#6f8f72" d="M613.98,-496.47C632.85,-493.22 652.37,-489.78 670.68,-486.42 681.56,-484.42 692.91,-482.27 704.22,-480.09"/>
<polygon fill="#6f8f72" stroke="#6f8f72" points="704.86,-483.54 714.01,-478.2 703.53,-476.66 704.86,-483.54"/>
</a>
</g>
</g>
<!-- n14 -->
<g id="node15" class="node">
<title>n14</title>
<g id="a_node15"><a xlink:title="Conclusion">
<path fill="#e8f1e8" stroke="#c8b794" d="M596.65,-585.42C596.65,-585.42 424.81,-585.42 424.81,-585.42 418.81,-585.42 412.81,-579.42 412.81,-573.42 412.81,-573.42 412.81,-561.42 412.81,-561.42 412.81,-555.42 418.81,-549.42 424.81,-549.42 424.81,-549.42 596.65,-549.42 596.65,-549.42 602.65,-549.42 608.65,-555.42 608.65,-561.42 608.65,-561.42 608.65,-573.42 608.65,-573.42 608.65,-579.42 602.65,-585.42 596.65,-585.42"/>
<text xml:space="preserve" text-anchor="start" x="483.51" y="-565.42" font-family="Inter, ui-sans-serif, system-ui, -apple-system, BlinkMacSystemFont, Segoe UI, sans-serif" font-weight="bold" font-size="10.00" fill="#2f2a21">Conclusion</text>
</a>
</g>
</g>
<!-- n14&#45;&gt;n0 -->
<g id="edge10" class="edge">
<title>n14&#45;&gt;n0</title>
<g id="a_edge10"><a xlink:title="support">
<path fill="none" stroke="#6f8f72" d="M609.03,-556.7C629.75,-552.82 651.23,-547.55 670.68,-540.42 708.25,-526.63 747.14,-502.43 773.77,-484.06"/>
<polygon fill="#6f8f72" stroke="#6f8f72" points="775.58,-487.07 781.76,-478.46 771.57,-481.33 775.58,-487.07"/>
</a>
</g>
</g>
<!-- n15 -->
<g id="node16" class="node">
<title>n15</title>
<g id="a_node16"><a xlink:title="Reply 虛無主義（既然滑坡會發生，乾脆不建身分基礎設施）...">
<path fill="#e8f1e8" stroke="#c8b794" d="M282.5,-640.42C282.5,-640.42 48.28,-640.42 48.28,-640.42 42.28,-640.42 36.28,-634.42 36.28,-628.42 36.28,-628.42 36.28,-616.42 36.28,-616.42 36.28,-610.42 42.28,-604.42 48.28,-604.42 48.28,-604.42 282.5,-604.42 282.5,-604.42 288.5,-604.42 294.5,-610.42 294.5,-616.42 294.5,-616.42 294.5,-628.42 294.5,-628.42 294.5,-634.42 288.5,-640.42 282.5,-640.42"/>
<text xml:space="preserve" text-anchor="start" x="46.2" y="-620.42" font-family="Inter, ui-sans-serif, system-ui, -apple-system, BlinkMacSystemFont, Segoe UI, sans-serif" font-weight="bold" font-size="10.00" fill="#2f2a21">Reply 虛無主義（既然滑坡會發生，乾脆不建身分基礎設施）...</text>
</a>
</g>
</g>
<!-- n15&#45;&gt;n0 -->
<g id="edge15" class="edge">
<title>n15&#45;&gt;n0</title>
<g id="a_edge15"><a xlink:title="support">
<path fill="none" stroke="#6f8f72" d="M294.71,-616.4C441.28,-609.37 662.14,-598.21 670.68,-594.42 722.61,-571.38 765.92,-519.21 789.09,-486.89"/>
<polygon fill="#6f8f72" stroke="#6f8f72" points="791.89,-488.99 794.75,-478.79 786.15,-484.98 791.89,-488.99"/>
</a>
</g>
</g>
<!-- n15&#45;&gt;n4 -->
<g id="edge13" class="edge">
<title>n15&#45;&gt;n4</title>
<g id="a_edge13"><a xlink:title="attack">
<path fill="none" stroke="#b85b57" d="M294.73,-629.52C309.22,-630.32 324.16,-631.15 339.08,-631.97"/>
<polygon fill="#b85b57" stroke="#b85b57" points="338.8,-635.46 348.98,-632.52 339.18,-628.47 338.8,-635.46"/>
</a>
</g>
</g>
<!-- n16 -->
<g id="node17" class="node">
<title>n16</title>
<g id="a_node17"><a xlink:title="Reply Public Choice 對 Sunset...">
<path fill="#e8f1e8" stroke="#c8b794" d="M251.31,-714.42C251.31,-714.42 79.47,-714.42 79.47,-714.42 73.47,-714.42 67.47,-708.42 67.47,-702.42 67.47,-702.42 67.47,-690.42 67.47,-690.42 67.47,-684.42 73.47,-678.42 79.47,-678.42 79.47,-678.42 251.31,-678.42 251.31,-678.42 257.31,-678.42 263.31,-684.42 263.31,-690.42 263.31,-690.42 263.31,-702.42 263.31,-702.42 263.31,-708.42 257.31,-714.42 251.31,-714.42"/>
<text xml:space="preserve" text-anchor="start" x="89.54" y="-694.42" font-family="Inter, ui-sans-serif, system-ui, -apple-system, BlinkMacSystemFont, Segoe UI, sans-serif" font-weight="bold" font-size="10.00" fill="#2f2a21">Reply Public Choice 對 Sunset...</text>
</a>
</g>
</g>
<!-- n16&#45;&gt;n0 -->
<g id="edge18" class="edge">
<title>n16&#45;&gt;n0</title>
<g id="a_edge18"><a xlink:title="support">
<path fill="none" stroke="#6f8f72" d="M263.61,-692.12C407.69,-685.6 661.99,-673.44 670.68,-668.42 740.56,-628.07 781.04,-535.89 797.93,-488.59"/>
<polygon fill="#6f8f72" stroke="#6f8f72" points="801.19,-489.89 801.14,-479.29 794.57,-487.61 801.19,-489.89"/>
</a>
</g>
</g>
<!-- n16&#45;&gt;n5 -->
<g id="edge16" class="edge">
<title>n16&#45;&gt;n5</title>
<g id="a_edge16"><a xlink:title="attack">
<path fill="none" stroke="#b85b57" d="M263.4,-701.79C299.59,-703.79 341.27,-706.09 379.94,-708.23"/>
<polygon fill="#b85b57" stroke="#b85b57" points="379.6,-711.72 389.78,-708.78 379.99,-704.73 379.6,-711.72"/>
</a>
</g>
</g>
<!-- n17 -->
<g id="node18" class="node">
<title>n17</title>
<g id="a_node18"><a xlink:title="Reply EUDI ARF 與 AB1043...">
<path fill="#e8f1e8" stroke="#c8b794" d="M251.31,-788.42C251.31,-788.42 79.47,-788.42 79.47,-788.42 73.47,-788.42 67.47,-782.42 67.47,-776.42 67.47,-776.42 67.47,-764.42 67.47,-764.42 67.47,-758.42 73.47,-752.42 79.47,-752.42 79.47,-752.42 251.31,-752.42 251.31,-752.42 257.31,-752.42 263.31,-758.42 263.31,-764.42 263.31,-764.42 263.31,-776.42 263.31,-776.42 263.31,-782.42 257.31,-788.42 251.31,-788.42"/>
<text xml:space="preserve" text-anchor="start" x="97.32" y="-768.42" font-family="Inter, ui-sans-serif, system-ui, -apple-system, BlinkMacSystemFont, Segoe UI, sans-serif" font-weight="bold" font-size="10.00" fill="#2f2a21">Reply EUDI ARF 與 AB1043...</text>
</a>
</g>
</g>
<!-- n17&#45;&gt;n0 -->
<g id="edge21" class="edge">
<title>n17&#45;&gt;n0</title>
<g id="a_edge21"><a xlink:title="support">
<path fill="none" stroke="#6f8f72" d="M263.69,-766.26C407.88,-759.92 662.33,-747.99 670.68,-742.42 759.63,-683.08 792.45,-548.72 802.95,-488.99"/>
<polygon fill="#6f8f72" stroke="#6f8f72" points="806.38,-489.69 804.56,-479.25 799.47,-488.54 806.38,-489.69"/>
</a>
</g>
</g>
<!-- n17&#45;&gt;n6 -->
<g id="edge19" class="edge">
<title>n17&#45;&gt;n6</title>
<g id="a_edge19"><a xlink:title="attack">
<path fill="none" stroke="#b85b57" d="M263.4,-775.79C301.74,-777.91 346.24,-780.37 386.79,-782.61"/>
<polygon fill="#b85b57" stroke="#b85b57" points="386.43,-786.1 396.6,-783.16 386.81,-779.11 386.43,-786.1"/>
</a>
</g>
</g>
</g>
</svg>
