<?xml version="1.0" encoding="UTF-8" standalone="no"?>
<!DOCTYPE svg PUBLIC "-//W3C//DTD SVG 1.1//EN"
 "http://www.w3.org/Graphics/SVG/1.1/DTD/svg11.dtd">
<!-- Generated by graphviz version 14.1.4 (0)
 -->
<!-- Title: Argument Map Pages: 1 -->
<svg class="argdown-summary-map" width="679pt" height="720pt"
 viewBox="0.00 0.00 679.00 720.00" xmlns="http://www.w3.org/2000/svg" xmlns:xlink="http://www.w3.org/1999/xlink">
<g id="graph0" class="graph" transform="scale(0.860651 0.860651) rotate(0) translate(4 832.58)">
<title>Argument Map</title>
<g id="clust1" class="cluster">
<title>cluster_1</title>
<polygon fill="#f3eadb" stroke="#d4c0a1" points="8,-18.58 8,-820.58 773.33,-820.58 773.33,-18.58 8,-18.58"/>
<text xml:space="preserve" text-anchor="start" x="351.98" y="-804.58" font-family="Inter, ui-sans-serif, system-ui, -apple-system, BlinkMacSystemFont, Segoe UI, sans-serif" font-size="12.00" fill="#2f2a21">Central Thesis</text>
</g>
<!-- n0 -->
<g id="node1" class="node">
<title>n0</title>
<g id="a_node1"><a xlink:title="當你的數位皮夾在另一個國家被拒絕：跨法域救濟的法律空白">
<path fill="#fffdf7" stroke="#6f8f72" stroke-width="2" d="M753.33,-460.58C753.33,-460.58 532.44,-460.58 532.44,-460.58 526.44,-460.58 520.44,-454.58 520.44,-448.58 520.44,-448.58 520.44,-436.58 520.44,-436.58 520.44,-430.58 526.44,-424.58 532.44,-424.58 532.44,-424.58 753.33,-424.58 753.33,-424.58 759.33,-424.58 765.33,-430.58 765.33,-436.58 765.33,-436.58 765.33,-448.58 765.33,-448.58 765.33,-454.58 759.33,-460.58 753.33,-460.58"/>
<text xml:space="preserve" text-anchor="start" x="530.36" y="-440.58" font-family="Inter, ui-sans-serif, system-ui, -apple-system, BlinkMacSystemFont, Segoe UI, sans-serif" font-weight="bold" font-size="10.00" fill="#2f2a21">當你的數位皮夾在另一個國家被拒絕：跨法域救濟的法律空白</text>
</a>
</g>
</g>
<!-- n1 -->
<g id="node2" class="node">
<title>n1</title>
<g id="a_node2"><a xlink:title="四方關係 規範遞延 三軸並行">
<path fill="#fffdf7" stroke="#6f8f72" stroke-width="2" d="M199.84,-72.58C199.84,-72.58 28,-72.58 28,-72.58 22,-72.58 16,-66.58 16,-60.58 16,-60.58 16,-48.58 16,-48.58 16,-42.58 22,-36.58 28,-36.58 28,-36.58 199.84,-36.58 199.84,-36.58 205.84,-36.58 211.84,-42.58 211.84,-48.58 211.84,-48.58 211.84,-60.58 211.84,-60.58 211.84,-66.58 205.84,-72.58 199.84,-72.58"/>
<text xml:space="preserve" text-anchor="start" x="61.13" y="-52.58" font-family="Inter, ui-sans-serif, system-ui, -apple-system, BlinkMacSystemFont, Segoe UI, sans-serif" font-weight="bold" font-size="10.00" fill="#2f2a21">四方關係 規範遞延 三軸並行</text>
</a>
</g>
</g>
<!-- n1&#45;&gt;n0 -->
<g id="edge2" class="edge">
<title>n1&#45;&gt;n0</title>
<g id="a_edge2"><a xlink:title="support">
<path fill="none" stroke="#6f8f72" d="M161.19,-36.11C236.27,-9.45 386.12,29.69 484.44,-37.58 612.98,-125.52 636.6,-335.02 640.92,-412.82"/>
<polygon fill="#6f8f72" stroke="#6f8f72" points="637.41,-412.8 641.39,-422.63 644.41,-412.47 637.41,-412.8"/>
</a>
</g>
</g>
<!-- n3 -->
<g id="node4" class="node">
<title>n3</title>
<g id="a_node4"><a xlink:title="issuer 法域 救濟法域">
<path fill="#fffdf7" stroke="#6f8f72" stroke-width="2" d="M452.06,-82.58C452.06,-82.58 280.22,-82.58 280.22,-82.58 274.22,-82.58 268.22,-76.58 268.22,-70.58 268.22,-70.58 268.22,-58.58 268.22,-58.58 268.22,-52.58 274.22,-46.58 280.22,-46.58 280.22,-46.58 452.06,-46.58 452.06,-46.58 458.06,-46.58 464.06,-52.58 464.06,-58.58 464.06,-58.58 464.06,-70.58 464.06,-70.58 464.06,-76.58 458.06,-82.58 452.06,-82.58"/>
<text xml:space="preserve" text-anchor="start" x="323.63" y="-62.58" font-family="Inter, ui-sans-serif, system-ui, -apple-system, BlinkMacSystemFont, Segoe UI, sans-serif" font-weight="bold" font-size="10.00" fill="#2f2a21">issuer 法域 救濟法域</text>
</a>
</g>
</g>
<!-- n1&#45;&gt;n3 -->
<g id="edge11" class="edge">
<title>n1&#45;&gt;n3</title>
<g id="a_edge11"><a xlink:title="attack">
<path fill="none" stroke="#b85b57" d="M212.02,-58.46C226.69,-59.04 241.9,-59.65 256.79,-60.25"/>
<polygon fill="#b85b57" stroke="#b85b57" points="256.45,-63.73 266.58,-60.64 256.73,-56.74 256.45,-63.73"/>
</a>
</g>
</g>
<!-- n2 -->
<g id="node3" class="node">
<title>n2</title>
<g id="a_node3"><a xlink:title="任何跨境 wallet 救濟方案的合法性，必須先通過六道條件">
<path fill="#fffdf7" stroke="#6f8f72" stroke-width="2" d="M472.42,-136.58C472.42,-136.58 259.86,-136.58 259.86,-136.58 253.86,-136.58 247.86,-130.58 247.86,-124.58 247.86,-124.58 247.86,-112.58 247.86,-112.58 247.86,-106.58 253.86,-100.58 259.86,-100.58 259.86,-100.58 472.42,-100.58 472.42,-100.58 478.42,-100.58 484.42,-106.58 484.42,-112.58 484.42,-112.58 484.42,-124.58 484.42,-124.58 484.42,-130.58 478.42,-136.58 472.42,-136.58"/>
<text xml:space="preserve" text-anchor="start" x="257.78" y="-116.58" font-family="Inter, ui-sans-serif, system-ui, -apple-system, BlinkMacSystemFont, Segoe UI, sans-serif" font-weight="bold" font-size="10.00" fill="#2f2a21">任何跨境 wallet 救濟方案的合法性，必須先通過六道條件</text>
</a>
</g>
</g>
<!-- n2&#45;&gt;n0 -->
<g id="edge9" class="edge">
<title>n2&#45;&gt;n0</title>
<g id="a_edge9"><a xlink:title="support">
<path fill="none" stroke="#6f8f72" d="M470.9,-136.93C475.67,-139.46 480.22,-142.33 484.44,-145.58 575.36,-215.38 619.44,-352.89 635.04,-413.13"/>
<polygon fill="#6f8f72" stroke="#6f8f72" points="631.6,-413.79 637.42,-422.64 638.39,-412.09 631.6,-413.79"/>
</a>
</g>
</g>
<!-- n3&#45;&gt;n0 -->
<g id="edge12" class="edge">
<title>n3&#45;&gt;n0</title>
<g id="a_edge12"><a xlink:title="attack">
<path fill="none" stroke="#b85b57" d="M464.4,-79.14C471.59,-82.51 478.39,-86.6 484.44,-91.58 588.38,-176.96 626.23,-345.25 637.64,-413.15"/>
<polygon fill="#b85b57" stroke="#b85b57" points="634.14,-413.43 639.18,-422.76 641.05,-412.33 634.14,-413.43"/>
</a>
</g>
</g>
<!-- n4 -->
<g id="node5" class="node">
<title>n4</title>
<g id="a_node5"><a xlink:title="Svantesson — 既有衝突法已涵蓋 internet 跨境">
<path fill="#fffdf7" stroke="#6f8f72" stroke-width="2" d="M461.86,-642.58C461.86,-642.58 270.42,-642.58 270.42,-642.58 264.42,-642.58 258.42,-636.58 258.42,-630.58 258.42,-630.58 258.42,-618.58 258.42,-618.58 258.42,-612.58 264.42,-606.58 270.42,-606.58 270.42,-606.58 461.86,-606.58 461.86,-606.58 467.86,-606.58 473.86,-612.58 473.86,-618.58 473.86,-618.58 473.86,-630.58 473.86,-630.58 473.86,-636.58 467.86,-642.58 461.86,-642.58"/>
<text xml:space="preserve" text-anchor="start" x="268.34" y="-622.58" font-family="Inter, ui-sans-serif, system-ui, -apple-system, BlinkMacSystemFont, Segoe UI, sans-serif" font-weight="bold" font-size="10.00" fill="#2f2a21">Svantesson — 既有衝突法已涵蓋 internet 跨境</text>
</a>
</g>
</g>
<!-- n4&#45;&gt;n0 -->
<g id="edge14" class="edge">
<title>n4&#45;&gt;n0</title>
<g id="a_edge14"><a xlink:title="attack">
<path fill="none" stroke="#b85b57" d="M453.99,-606.17C464.57,-602.41 474.97,-597.92 484.44,-592.58 541.24,-560.52 593.08,-503.42 620.79,-469.67"/>
<polygon fill="#b85b57" stroke="#b85b57" points="623.43,-471.97 627,-461.99 617.99,-467.57 623.43,-471.97"/>
</a>
</g>
</g>
<!-- n5 -->
<g id="node6" class="node">
<title>n5</title>
<g id="a_node6"><a xlink:title="Goldsmith Wu — cyber&#45;jurisdiction...">
<path fill="#fffdf7" stroke="#6f8f72" stroke-width="2" d="M452.06,-716.58C452.06,-716.58 280.22,-716.58 280.22,-716.58 274.22,-716.58 268.22,-710.58 268.22,-704.58 268.22,-704.58 268.22,-692.58 268.22,-692.58 268.22,-686.58 274.22,-680.58 280.22,-680.58 280.22,-680.58 452.06,-680.58 452.06,-680.58 458.06,-680.58 464.06,-686.58 464.06,-692.58 464.06,-692.58 464.06,-704.58 464.06,-704.58 464.06,-710.58 458.06,-716.58 452.06,-716.58"/>
<text xml:space="preserve" text-anchor="start" x="279.19" y="-696.58" font-family="Inter, ui-sans-serif, system-ui, -apple-system, BlinkMacSystemFont, Segoe UI, sans-serif" font-weight="bold" font-size="10.00" fill="#2f2a21">Goldsmith Wu — cyber&#45;jurisdiction...</text>
</a>
</g>
</g>
<!-- n5&#45;&gt;n0 -->
<g id="edge17" class="edge">
<title>n5&#45;&gt;n0</title>
<g id="a_edge17"><a xlink:title="attack">
<path fill="none" stroke="#b85b57" d="M459.3,-680.19C468.2,-676.46 476.76,-671.97 484.44,-666.58 557.34,-615.38 607.88,-519.1 629.73,-471.18"/>
<polygon fill="#b85b57" stroke="#b85b57" points="632.82,-472.85 633.7,-462.29 626.43,-470 632.82,-472.85"/>
</a>
</g>
</g>
<!-- n6 -->
<g id="node7" class="node">
<title>n6</title>
<g id="a_node7"><a xlink:title="合作">
<path fill="#fffdf7" stroke="#6f8f72" stroke-width="2" d="M452.06,-790.58C452.06,-790.58 280.22,-790.58 280.22,-790.58 274.22,-790.58 268.22,-784.58 268.22,-778.58 268.22,-778.58 268.22,-766.58 268.22,-766.58 268.22,-760.58 274.22,-754.58 280.22,-754.58 280.22,-754.58 452.06,-754.58 452.06,-754.58 458.06,-754.58 464.06,-760.58 464.06,-766.58 464.06,-766.58 464.06,-778.58 464.06,-778.58 464.06,-784.58 458.06,-790.58 452.06,-790.58"/>
<text xml:space="preserve" text-anchor="start" x="357.81" y="-770.58" font-family="Inter, ui-sans-serif, system-ui, -apple-system, BlinkMacSystemFont, Segoe UI, sans-serif" font-weight="bold" font-size="10.00" fill="#2f2a21">合作</text>
</a>
</g>
</g>
<!-- n6&#45;&gt;n0 -->
<g id="edge20" class="edge">
<title>n6&#45;&gt;n0</title>
<g id="a_edge20"><a xlink:title="attack">
<path fill="none" stroke="#b85b57" d="M462.38,-754.09C470.27,-750.38 477.77,-745.92 484.44,-740.58 574.13,-668.71 618.87,-531.71 634.84,-471.82"/>
<polygon fill="#b85b57" stroke="#b85b57" points="638.17,-472.94 637.28,-462.38 631.39,-471.19 638.17,-472.94"/>
</a>
</g>
</g>
<!-- n7 -->
<g id="node8" class="node">
<title>n7</title>
<g id="a_node8"><a xlink:title="Formal Core">
<path fill="#e8f1e8" stroke="#c8b794" d="M452.06,-190.58C452.06,-190.58 280.22,-190.58 280.22,-190.58 274.22,-190.58 268.22,-184.58 268.22,-178.58 268.22,-178.58 268.22,-166.58 268.22,-166.58 268.22,-160.58 274.22,-154.58 280.22,-154.58 280.22,-154.58 452.06,-154.58 452.06,-154.58 458.06,-154.58 464.06,-160.58 464.06,-166.58 464.06,-166.58 464.06,-178.58 464.06,-178.58 464.06,-184.58 458.06,-190.58 452.06,-190.58"/>
<text xml:space="preserve" text-anchor="start" x="336.69" y="-170.58" font-family="Inter, ui-sans-serif, system-ui, -apple-system, BlinkMacSystemFont, Segoe UI, sans-serif" font-weight="bold" font-size="10.00" fill="#2f2a21">Formal Core</text>
</a>
</g>
</g>
<!-- n7&#45;&gt;n0 -->
<g id="edge1" class="edge">
<title>n7&#45;&gt;n0</title>
<g id="a_edge1"><a xlink:title="support">
<path fill="none" stroke="#6f8f72" d="M464.48,-188.56C471.53,-191.62 478.28,-195.26 484.44,-199.58 562.72,-254.41 611.57,-361.82 631.52,-413.47"/>
<polygon fill="#6f8f72" stroke="#6f8f72" points="628.22,-414.65 635.02,-422.77 634.78,-412.18 628.22,-414.65"/>
</a>
</g>
</g>
<!-- n8 -->
<g id="node9" class="node">
<title>n8</title>
<g id="a_node9"><a xlink:title="缺口可被類型化，但類型在歐盟內外不對稱">
<path fill="#e8f1e8" stroke="#c8b794" d="M452.06,-244.58C452.06,-244.58 280.22,-244.58 280.22,-244.58 274.22,-244.58 268.22,-238.58 268.22,-232.58 268.22,-232.58 268.22,-220.58 268.22,-220.58 268.22,-214.58 274.22,-208.58 280.22,-208.58 280.22,-208.58 452.06,-208.58 452.06,-208.58 458.06,-208.58 464.06,-214.58 464.06,-220.58 464.06,-220.58 464.06,-232.58 464.06,-232.58 464.06,-238.58 458.06,-244.58 452.06,-244.58"/>
<text xml:space="preserve" text-anchor="start" x="286.96" y="-224.58" font-family="Inter, ui-sans-serif, system-ui, -apple-system, BlinkMacSystemFont, Segoe UI, sans-serif" font-weight="bold" font-size="10.00" fill="#2f2a21">缺口可被類型化，但類型在歐盟內外不對稱</text>
</a>
</g>
</g>
<!-- n8&#45;&gt;n0 -->
<g id="edge3" class="edge">
<title>n8&#45;&gt;n0</title>
<g id="a_edge3"><a xlink:title="support">
<path fill="none" stroke="#6f8f72" d="M464.53,-243.64C471.49,-246.46 478.21,-249.75 484.44,-253.58 550.51,-294.2 602.08,-372.3 626.46,-414.26"/>
<polygon fill="#6f8f72" stroke="#6f8f72" points="623.33,-415.84 631.32,-422.79 629.41,-412.37 623.33,-415.84"/>
</a>
</g>
</g>
<!-- n9 -->
<g id="node10" class="node">
<title>n9</title>
<g id="a_node10"><a xlink:title="規則不缺，缺的是元規則">
<path fill="#e8f1e8" stroke="#c8b794" d="M452.06,-298.58C452.06,-298.58 280.22,-298.58 280.22,-298.58 274.22,-298.58 268.22,-292.58 268.22,-286.58 268.22,-286.58 268.22,-274.58 268.22,-274.58 268.22,-268.58 274.22,-262.58 280.22,-262.58 280.22,-262.58 452.06,-262.58 452.06,-262.58 458.06,-262.58 464.06,-268.58 464.06,-274.58 464.06,-274.58 464.06,-286.58 464.06,-286.58 464.06,-292.58 458.06,-298.58 452.06,-298.58"/>
<text xml:space="preserve" text-anchor="start" x="320.3" y="-278.58" font-family="Inter, ui-sans-serif, system-ui, -apple-system, BlinkMacSystemFont, Segoe UI, sans-serif" font-weight="bold" font-size="10.00" fill="#2f2a21">規則不缺，缺的是元規則</text>
</a>
</g>
</g>
<!-- n9&#45;&gt;n0 -->
<g id="edge4" class="edge">
<title>n9&#45;&gt;n0</title>
<g id="a_edge4"><a xlink:title="support">
<path fill="none" stroke="#6f8f72" d="M464.48,-299.05C471.37,-301.55 478.1,-304.37 484.44,-307.58 538.8,-335.02 590.04,-385.11 618.57,-415.96"/>
<polygon fill="#6f8f72" stroke="#6f8f72" points="615.65,-417.95 624.97,-422.99 620.83,-413.24 615.65,-417.95"/>
</a>
</g>
</g>
<!-- n10 -->
<g id="node11" class="node">
<title>n10</title>
<g id="a_node11"><a xlink:title="條款層級拼裝，並非整套移植">
<path fill="#e8f1e8" stroke="#c8b794" d="M452.06,-352.58C452.06,-352.58 280.22,-352.58 280.22,-352.58 274.22,-352.58 268.22,-346.58 268.22,-340.58 268.22,-340.58 268.22,-328.58 268.22,-328.58 268.22,-322.58 274.22,-316.58 280.22,-316.58 280.22,-316.58 452.06,-316.58 452.06,-316.58 458.06,-316.58 464.06,-322.58 464.06,-328.58 464.06,-328.58 464.06,-340.58 464.06,-340.58 464.06,-346.58 458.06,-352.58 452.06,-352.58"/>
<text xml:space="preserve" text-anchor="start" x="311.96" y="-332.58" font-family="Inter, ui-sans-serif, system-ui, -apple-system, BlinkMacSystemFont, Segoe UI, sans-serif" font-weight="bold" font-size="10.00" fill="#2f2a21">條款層級拼裝，並非整套移植</text>
</a>
</g>
</g>
<!-- n10&#45;&gt;n0 -->
<g id="edge5" class="edge">
<title>n10&#45;&gt;n0</title>
<g id="a_edge5"><a xlink:title="support">
<path fill="none" stroke="#6f8f72" d="M457.79,-353.05C466.88,-355.61 475.91,-358.45 484.44,-361.58 526.25,-376.87 571.14,-400.78 602.25,-418.67"/>
<polygon fill="#6f8f72" stroke="#6f8f72" points="600.13,-421.49 610.54,-423.48 603.65,-415.43 600.13,-421.49"/>
</a>
</g>
</g>
<!-- n11 -->
<g id="node12" class="node">
<title>n11</title>
<g id="a_node12"><a xlink:title="既有 EU 機制可遞延，需雙邊同意而非單邊外推">
<path fill="#e8f1e8" stroke="#c8b794" d="M452.97,-406.58C452.97,-406.58 279.32,-406.58 279.32,-406.58 273.32,-406.58 267.32,-400.58 267.32,-394.58 267.32,-394.58 267.32,-382.58 267.32,-382.58 267.32,-376.58 273.32,-370.58 279.32,-370.58 279.32,-370.58 452.97,-370.58 452.97,-370.58 458.97,-370.58 464.97,-376.58 464.97,-382.58 464.97,-382.58 464.97,-394.58 464.97,-394.58 464.97,-400.58 458.97,-406.58 452.97,-406.58"/>
<text xml:space="preserve" text-anchor="start" x="277.24" y="-386.58" font-family="Inter, ui-sans-serif, system-ui, -apple-system, BlinkMacSystemFont, Segoe UI, sans-serif" font-weight="bold" font-size="10.00" fill="#2f2a21">既有 EU 機制可遞延，需雙邊同意而非單邊外推</text>
</a>
</g>
</g>
<!-- n11&#45;&gt;n0 -->
<g id="edge6" class="edge">
<title>n11&#45;&gt;n0</title>
<g id="a_edge6"><a xlink:title="support">
<path fill="none" stroke="#6f8f72" d="M460.92,-407.01C485.43,-411.83 512.01,-417.05 537.05,-421.97"/>
<polygon fill="#6f8f72" stroke="#6f8f72" points="536.09,-425.35 546.57,-423.84 537.44,-418.48 536.09,-425.35"/>
</a>
</g>
</g>
<!-- n12 -->
<g id="node13" class="node">
<title>n12</title>
<g id="a_node13"><a xlink:title="三軸並列，無國籍者軌道與三條路徑正交">
<path fill="#e8f1e8" stroke="#c8b794" d="M452.06,-460.58C452.06,-460.58 280.22,-460.58 280.22,-460.58 274.22,-460.58 268.22,-454.58 268.22,-448.58 268.22,-448.58 268.22,-436.58 268.22,-436.58 268.22,-430.58 274.22,-424.58 280.22,-424.58 280.22,-424.58 452.06,-424.58 452.06,-424.58 458.06,-424.58 464.06,-430.58 464.06,-436.58 464.06,-436.58 464.06,-448.58 464.06,-448.58 464.06,-454.58 458.06,-460.58 452.06,-460.58"/>
<text xml:space="preserve" text-anchor="start" x="291.13" y="-440.58" font-family="Inter, ui-sans-serif, system-ui, -apple-system, BlinkMacSystemFont, Segoe UI, sans-serif" font-weight="bold" font-size="10.00" fill="#2f2a21">三軸並列，無國籍者軌道與三條路徑正交</text>
</a>
</g>
</g>
<!-- n12&#45;&gt;n0 -->
<g id="edge7" class="edge">
<title>n12&#45;&gt;n0</title>
<g id="a_edge7"><a xlink:title="support">
<path fill="none" stroke="#6f8f72" d="M464.39,-442.58C478.78,-442.58 493.82,-442.58 508.79,-442.58"/>
<polygon fill="#6f8f72" stroke="#6f8f72" points="508.7,-446.08 518.7,-442.58 508.7,-439.08 508.7,-446.08"/>
</a>
</g>
</g>
<!-- n13 -->
<g id="node14" class="node">
<title>n13</title>
<g id="a_node14"><a xlink:title="Camerfirma 跨境失效六步因果鏈（2022 警告 2024...">
<path fill="#e8f1e8" stroke="#c8b794" d="M472.44,-514.58C472.44,-514.58 259.84,-514.58 259.84,-514.58 253.84,-514.58 247.84,-508.58 247.84,-502.58 247.84,-502.58 247.84,-490.58 247.84,-490.58 247.84,-484.58 253.84,-478.58 259.84,-478.58 259.84,-478.58 472.44,-478.58 472.44,-478.58 478.44,-478.58 484.44,-484.58 484.44,-490.58 484.44,-490.58 484.44,-502.58 484.44,-502.58 484.44,-508.58 478.44,-514.58 472.44,-514.58"/>
<text xml:space="preserve" text-anchor="start" x="257.76" y="-494.58" font-family="Inter, ui-sans-serif, system-ui, -apple-system, BlinkMacSystemFont, Segoe UI, sans-serif" font-weight="bold" font-size="10.00" fill="#2f2a21">Camerfirma 跨境失效六步因果鏈（2022 警告 2024...</text>
</a>
</g>
</g>
<!-- n13&#45;&gt;n0 -->
<g id="edge8" class="edge">
<title>n13&#45;&gt;n0</title>
<g id="a_edge8"><a xlink:title="support">
<path fill="none" stroke="#6f8f72" d="M460.92,-478.14C485.43,-473.33 512.01,-468.1 537.05,-463.18"/>
<polygon fill="#6f8f72" stroke="#6f8f72" points="537.44,-466.67 546.57,-461.31 536.09,-459.8 537.44,-466.67"/>
</a>
</g>
</g>
<!-- n14 -->
<g id="node15" class="node">
<title>n14</title>
<g id="a_node15"><a xlink:title="Conclusion">
<path fill="#e8f1e8" stroke="#c8b794" d="M452.06,-568.58C452.06,-568.58 280.22,-568.58 280.22,-568.58 274.22,-568.58 268.22,-562.58 268.22,-556.58 268.22,-556.58 268.22,-544.58 268.22,-544.58 268.22,-538.58 274.22,-532.58 280.22,-532.58 280.22,-532.58 452.06,-532.58 452.06,-532.58 458.06,-532.58 464.06,-538.58 464.06,-544.58 464.06,-544.58 464.06,-556.58 464.06,-556.58 464.06,-562.58 458.06,-568.58 452.06,-568.58"/>
<text xml:space="preserve" text-anchor="start" x="338.92" y="-548.58" font-family="Inter, ui-sans-serif, system-ui, -apple-system, BlinkMacSystemFont, Segoe UI, sans-serif" font-weight="bold" font-size="10.00" fill="#2f2a21">Conclusion</text>
</a>
</g>
</g>
<!-- n14&#45;&gt;n0 -->
<g id="edge10" class="edge">
<title>n14&#45;&gt;n0</title>
<g id="a_edge10"><a xlink:title="support">
<path fill="none" stroke="#6f8f72" d="M457.79,-532.11C466.88,-529.54 475.91,-526.7 484.44,-523.58 526.25,-508.28 571.14,-484.37 602.25,-466.48"/>
<polygon fill="#6f8f72" stroke="#6f8f72" points="603.65,-469.72 610.54,-461.67 600.13,-463.67 603.65,-469.72"/>
</a>
</g>
</g>
<!-- n15 -->
<g id="node16" class="node">
<title>n15</title>
<g id="a_node16"><a xlink:title="Reply Svantesson — 既有衝突法已涵蓋...">
<path fill="#e8f1e8" stroke="#c8b794" d="M199.84,-623.58C199.84,-623.58 28,-623.58 28,-623.58 22,-623.58 16,-617.58 16,-611.58 16,-611.58 16,-599.58 16,-599.58 16,-593.58 22,-587.58 28,-587.58 28,-587.58 199.84,-587.58 199.84,-587.58 205.84,-587.58 211.84,-593.58 211.84,-599.58 211.84,-599.58 211.84,-611.58 211.84,-611.58 211.84,-617.58 205.84,-623.58 199.84,-623.58"/>
<text xml:space="preserve" text-anchor="start" x="26.4" y="-603.58" font-family="Inter, ui-sans-serif, system-ui, -apple-system, BlinkMacSystemFont, Segoe UI, sans-serif" font-weight="bold" font-size="10.00" fill="#2f2a21">Reply Svantesson — 既有衝突法已涵蓋...</text>
</a>
</g>
</g>
<!-- n15&#45;&gt;n0 -->
<g id="edge15" class="edge">
<title>n15&#45;&gt;n0</title>
<g id="a_edge15"><a xlink:title="support">
<path fill="none" stroke="#6f8f72" d="M211.94,-599.73C317.18,-593.15 471.98,-582.73 484.44,-577.58 541.62,-553.92 592.98,-501.2 620.56,-469.08"/>
<polygon fill="#6f8f72" stroke="#6f8f72" points="622.96,-471.67 626.73,-461.77 617.61,-467.16 622.96,-471.67"/>
</a>
</g>
</g>
<!-- n15&#45;&gt;n4 -->
<g id="edge13" class="edge">
<title>n15&#45;&gt;n4</title>
<g id="a_edge13"><a xlink:title="attack">
<path fill="none" stroke="#b85b57" d="M212.02,-612.95C223.47,-613.82 235.25,-614.71 246.95,-615.6"/>
<polygon fill="#b85b57" stroke="#b85b57" points="246.39,-619.07 256.62,-616.34 246.92,-612.09 246.39,-619.07"/>
</a>
</g>
</g>
<!-- n16 -->
<g id="node17" class="node">
<title>n16</title>
<g id="a_node17"><a xlink:title="Reply Goldsmith Wu...">
<path fill="#e8f1e8" stroke="#c8b794" d="M199.84,-697.58C199.84,-697.58 28,-697.58 28,-697.58 22,-697.58 16,-691.58 16,-685.58 16,-685.58 16,-673.58 16,-673.58 16,-667.58 22,-661.58 28,-661.58 28,-661.58 199.84,-661.58 199.84,-661.58 205.84,-661.58 211.84,-667.58 211.84,-673.58 211.84,-673.58 211.84,-685.58 211.84,-685.58 211.84,-691.58 205.84,-697.58 199.84,-697.58"/>
<text xml:space="preserve" text-anchor="start" x="60.86" y="-677.58" font-family="Inter, ui-sans-serif, system-ui, -apple-system, BlinkMacSystemFont, Segoe UI, sans-serif" font-weight="bold" font-size="10.00" fill="#2f2a21">Reply Goldsmith Wu...</text>
</a>
</g>
</g>
<!-- n16&#45;&gt;n0 -->
<g id="edge18" class="edge">
<title>n16&#45;&gt;n0</title>
<g id="a_edge18"><a xlink:title="support">
<path fill="none" stroke="#6f8f72" d="M211.88,-673.2C319.35,-665.99 478.48,-654.84 484.44,-651.58 558.8,-610.92 608.39,-518.54 629.82,-471.4"/>
<polygon fill="#6f8f72" stroke="#6f8f72" points="632.97,-472.93 633.82,-462.37 626.57,-470.1 632.97,-472.93"/>
</a>
</g>
</g>
<!-- n16&#45;&gt;n5 -->
<g id="edge16" class="edge">
<title>n16&#45;&gt;n5</title>
<g id="a_edge16"><a xlink:title="attack">
<path fill="none" stroke="#b85b57" d="M212.02,-686.95C226.69,-688.06 241.9,-689.22 256.79,-690.35"/>
<polygon fill="#b85b57" stroke="#b85b57" points="256.35,-693.82 266.59,-691.09 256.88,-686.84 256.35,-693.82"/>
</a>
</g>
</g>
<!-- n17 -->
<g id="node18" class="node">
<title>n17</title>
<g id="a_node18"><a xlink:title="Reply cyber&#45;sovereignty 立場...">
<path fill="#e8f1e8" stroke="#c8b794" d="M199.84,-771.58C199.84,-771.58 28,-771.58 28,-771.58 22,-771.58 16,-765.58 16,-759.58 16,-759.58 16,-747.58 16,-747.58 16,-741.58 22,-735.58 28,-735.58 28,-735.58 199.84,-735.58 199.84,-735.58 205.84,-735.58 211.84,-741.58 211.84,-747.58 211.84,-747.58 211.84,-759.58 211.84,-759.58 211.84,-765.58 205.84,-771.58 199.84,-771.58"/>
<text xml:space="preserve" text-anchor="start" x="41.95" y="-751.58" font-family="Inter, ui-sans-serif, system-ui, -apple-system, BlinkMacSystemFont, Segoe UI, sans-serif" font-weight="bold" font-size="10.00" fill="#2f2a21">Reply cyber&#45;sovereignty 立場...</text>
</a>
</g>
</g>
<!-- n17&#45;&gt;n0 -->
<g id="edge21" class="edge">
<title>n17&#45;&gt;n0</title>
<g id="a_edge21"><a xlink:title="support">
<path fill="none" stroke="#6f8f72" d="M211.96,-747.34C319.51,-740.27 478.72,-729.24 484.44,-725.58 577.45,-666.04 620.42,-531.28 635.38,-471.77"/>
<polygon fill="#6f8f72" stroke="#6f8f72" points="638.7,-472.92 637.65,-462.38 631.9,-471.28 638.7,-472.92"/>
</a>
</g>
</g>
<!-- n17&#45;&gt;n6 -->
<g id="edge19" class="edge">
<title>n17&#45;&gt;n6</title>
<g id="a_edge19"><a xlink:title="attack">
<path fill="none" stroke="#b85b57" d="M212.02,-760.95C226.69,-762.06 241.9,-763.22 256.79,-764.35"/>
<polygon fill="#b85b57" stroke="#b85b57" points="256.35,-767.82 266.59,-765.09 256.88,-760.84 256.35,-767.82"/>
</a>
</g>
</g>
</g>
</svg>
