<?xml version="1.0" encoding="UTF-8" standalone="no"?>
<!DOCTYPE svg PUBLIC "-//W3C//DTD SVG 1.1//EN"
 "http://www.w3.org/Graphics/SVG/1.1/DTD/svg11.dtd">
<!-- Generated by graphviz version 14.1.4 (0)
 -->
<!-- Title: Argument Map Pages: 1 -->
<svg class="argdown-summary-map" width="707pt" height="720pt"
 viewBox="0.00 0.00 707.00 720.00" xmlns="http://www.w3.org/2000/svg" xmlns:xlink="http://www.w3.org/1999/xlink">
<g id="graph0" class="graph" transform="scale(0.859216 0.859216) rotate(0) translate(4 833.97)">
<title>Argument Map</title>
<g id="clust1" class="cluster">
<title>cluster_1</title>
<polygon fill="#f3eadb" stroke="#d4c0a1" points="8,-19.97 8,-821.97 806.78,-821.97 806.78,-19.97 8,-19.97"/>
<text xml:space="preserve" text-anchor="start" x="368.71" y="-805.97" font-family="Inter, ui-sans-serif, system-ui, -apple-system, BlinkMacSystemFont, Segoe UI, sans-serif" font-size="12.00" fill="#2f2a21">Central Thesis</text>
</g>
<!-- n0 -->
<g id="node1" class="node">
<title>n0</title>
<g id="a_node1"><a xlink:title="Civic Receipts 與證據鏈：條件可委任區的可審計工程原語">
<path fill="#fffdf7" stroke="#6f8f72" stroke-width="2" d="M786.78,-461.97C786.78,-461.97 561.44,-461.97 561.44,-461.97 555.44,-461.97 549.44,-455.97 549.44,-449.97 549.44,-449.97 549.44,-437.97 549.44,-437.97 549.44,-431.97 555.44,-425.97 561.44,-425.97 561.44,-425.97 786.78,-425.97 786.78,-425.97 792.78,-425.97 798.78,-431.97 798.78,-437.97 798.78,-437.97 798.78,-449.97 798.78,-449.97 798.78,-455.97 792.78,-461.97 786.78,-461.97"/>
<text xml:space="preserve" text-anchor="start" x="559.36" y="-441.97" font-family="Inter, ui-sans-serif, system-ui, -apple-system, BlinkMacSystemFont, Segoe UI, sans-serif" font-weight="bold" font-size="10.00" fill="#2f2a21">Civic Receipts 與證據鏈：條件可委任區的可審計工程原語</text>
</a>
</g>
</g>
<!-- n1 -->
<g id="node2" class="node">
<title>n1</title>
<g id="a_node2"><a xlink:title="civic&#45;action&#45;receipt 是 (Subject...">
<path fill="#fffdf7" stroke="#6f8f72" stroke-width="2" d="M214.92,-73.97C214.92,-73.97 43.08,-73.97 43.08,-73.97 37.08,-73.97 31.08,-67.97 31.08,-61.97 31.08,-61.97 31.08,-49.97 31.08,-49.97 31.08,-43.97 37.08,-37.97 43.08,-37.97 43.08,-37.97 214.92,-37.97 214.92,-37.97 220.92,-37.97 226.92,-43.97 226.92,-49.97 226.92,-49.97 226.92,-61.97 226.92,-61.97 226.92,-67.97 220.92,-73.97 214.92,-73.97"/>
<text xml:space="preserve" text-anchor="start" x="52.59" y="-53.97" font-family="Inter, ui-sans-serif, system-ui, -apple-system, BlinkMacSystemFont, Segoe UI, sans-serif" font-weight="bold" font-size="10.00" fill="#2f2a21">civic&#45;action&#45;receipt 是 (Subject...</text>
</a>
</g>
</g>
<!-- n1&#45;&gt;n0 -->
<g id="edge2" class="edge">
<title>n1&#45;&gt;n0</title>
<g id="a_edge2"><a xlink:title="support">
<path fill="none" stroke="#6f8f72" d="M176.41,-37.54C253.73,-10.14 410.57,31.05 513.44,-38.97 642.43,-126.77 667.22,-336.36 671.98,-414.2"/>
<polygon fill="#6f8f72" stroke="#6f8f72" points="668.47,-414.21 672.5,-424.01 675.46,-413.84 668.47,-414.21"/>
</a>
</g>
</g>
<!-- n3 -->
<g id="node4" class="node">
<title>n3</title>
<g id="a_node4"><a xlink:title="civic&#45;action&#45;receipt 可化約為 VC...">
<path fill="#fffdf7" stroke="#6f8f72" stroke-width="2" d="M481.64,-83.97C481.64,-83.97 309.8,-83.97 309.8,-83.97 303.8,-83.97 297.8,-77.97 297.8,-71.97 297.8,-71.97 297.8,-59.97 297.8,-59.97 297.8,-53.97 303.8,-47.97 309.8,-47.97 309.8,-47.97 481.64,-47.97 481.64,-47.97 487.64,-47.97 493.64,-53.97 493.64,-59.97 493.64,-59.97 493.64,-71.97 493.64,-71.97 493.64,-77.97 487.64,-83.97 481.64,-83.97"/>
<text xml:space="preserve" text-anchor="start" x="319.58" y="-63.97" font-family="Inter, ui-sans-serif, system-ui, -apple-system, BlinkMacSystemFont, Segoe UI, sans-serif" font-weight="bold" font-size="10.00" fill="#2f2a21">civic&#45;action&#45;receipt 可化約為 VC...</text>
</a>
</g>
</g>
<!-- n1&#45;&gt;n3 -->
<g id="edge11" class="edge">
<title>n1&#45;&gt;n3</title>
<g id="a_edge11"><a xlink:title="attack">
<path fill="none" stroke="#b85b57" d="M227.06,-59.64C246.31,-60.37 266.62,-61.13 286.22,-61.87"/>
<polygon fill="#b85b57" stroke="#b85b57" points="286.02,-65.37 296.15,-62.25 286.29,-58.37 286.02,-65.37"/>
</a>
</g>
</g>
<!-- n2 -->
<g id="node3" class="node">
<title>n2</title>
<g id="a_node3"><a xlink:title="把 civic receipts...">
<path fill="#fffdf7" stroke="#6f8f72" stroke-width="2" d="M481.64,-137.97C481.64,-137.97 309.8,-137.97 309.8,-137.97 303.8,-137.97 297.8,-131.97 297.8,-125.97 297.8,-125.97 297.8,-113.97 297.8,-113.97 297.8,-107.97 303.8,-101.97 309.8,-101.97 309.8,-101.97 481.64,-101.97 481.64,-101.97 487.64,-101.97 493.64,-107.97 493.64,-113.97 493.64,-113.97 493.64,-125.97 493.64,-125.97 493.64,-131.97 487.64,-137.97 481.64,-137.97"/>
<text xml:space="preserve" text-anchor="start" x="354.3" y="-117.97" font-family="Inter, ui-sans-serif, system-ui, -apple-system, BlinkMacSystemFont, Segoe UI, sans-serif" font-weight="bold" font-size="10.00" fill="#2f2a21">把 civic receipts...</text>
</a>
</g>
</g>
<!-- n2&#45;&gt;n0 -->
<g id="edge9" class="edge">
<title>n2&#45;&gt;n0</title>
<g id="a_edge9"><a xlink:title="support">
<path fill="none" stroke="#6f8f72" d="M493.98,-135.45C500.9,-138.63 507.49,-142.43 513.44,-146.97 604.8,-216.78 649.96,-354.29 666.03,-414.53"/>
<polygon fill="#6f8f72" stroke="#6f8f72" points="662.6,-415.23 668.49,-424.04 669.38,-413.48 662.6,-415.23"/>
</a>
</g>
</g>
<!-- n3&#45;&gt;n0 -->
<g id="edge12" class="edge">
<title>n3&#45;&gt;n0</title>
<g id="a_edge12"><a xlink:title="attack">
<path fill="none" stroke="#b85b57" d="M494.04,-80.88C500.99,-84.18 507.56,-88.17 513.44,-92.97 617.81,-178.34 656.78,-346.64 668.66,-414.54"/>
<polygon fill="#b85b57" stroke="#b85b57" points="665.17,-414.87 670.27,-424.15 672.07,-413.71 665.17,-414.87"/>
</a>
</g>
</g>
<!-- n4 -->
<g id="node5" class="node">
<title>n4</title>
<g id="a_node5"><a xlink:title="baseline 高階">
<path fill="#fffdf7" stroke="#6f8f72" stroke-width="2" d="M481.64,-643.97C481.64,-643.97 309.8,-643.97 309.8,-643.97 303.8,-643.97 297.8,-637.97 297.8,-631.97 297.8,-631.97 297.8,-619.97 297.8,-619.97 297.8,-613.97 303.8,-607.97 309.8,-607.97 309.8,-607.97 481.64,-607.97 481.64,-607.97 487.64,-607.97 493.64,-613.97 493.64,-619.97 493.64,-619.97 493.64,-631.97 493.64,-631.97 493.64,-637.97 487.64,-643.97 481.64,-643.97"/>
<text xml:space="preserve" text-anchor="start" x="365.98" y="-623.97" font-family="Inter, ui-sans-serif, system-ui, -apple-system, BlinkMacSystemFont, Segoe UI, sans-serif" font-weight="bold" font-size="10.00" fill="#2f2a21">baseline 高階</text>
</a>
</g>
</g>
<!-- n4&#45;&gt;n0 -->
<g id="edge14" class="edge">
<title>n4&#45;&gt;n0</title>
<g id="a_edge14"><a xlink:title="attack">
<path fill="none" stroke="#b85b57" d="M482.79,-607.58C493.43,-603.81 503.91,-599.32 513.44,-593.97 570.76,-561.85 623.43,-504.77 651.62,-471.05"/>
<polygon fill="#b85b57" stroke="#b85b57" points="654.3,-473.31 657.95,-463.36 648.89,-468.86 654.3,-473.31"/>
</a>
</g>
</g>
<!-- n5 -->
<g id="node6" class="node">
<title>n5</title>
<g id="a_node6"><a xlink:title="30% 退化率">
<path fill="#fffdf7" stroke="#6f8f72" stroke-width="2" d="M481.64,-717.97C481.64,-717.97 309.8,-717.97 309.8,-717.97 303.8,-717.97 297.8,-711.97 297.8,-705.97 297.8,-705.97 297.8,-693.97 297.8,-693.97 297.8,-687.97 303.8,-681.97 309.8,-681.97 309.8,-681.97 481.64,-681.97 481.64,-681.97 487.64,-681.97 493.64,-687.97 493.64,-693.97 493.64,-693.97 493.64,-705.97 493.64,-705.97 493.64,-711.97 487.64,-717.97 481.64,-717.97"/>
<text xml:space="preserve" text-anchor="start" x="371.82" y="-697.97" font-family="Inter, ui-sans-serif, system-ui, -apple-system, BlinkMacSystemFont, Segoe UI, sans-serif" font-weight="bold" font-size="10.00" fill="#2f2a21">30% 退化率</text>
</a>
</g>
</g>
<!-- n5&#45;&gt;n0 -->
<g id="edge17" class="edge">
<title>n5&#45;&gt;n0</title>
<g id="a_edge17"><a xlink:title="attack">
<path fill="none" stroke="#b85b57" d="M488.38,-681.5C497.24,-677.79 505.77,-673.33 513.44,-667.97 586.82,-616.74 638.33,-520.48 660.67,-472.57"/>
<polygon fill="#b85b57" stroke="#b85b57" points="663.76,-474.22 664.72,-463.67 657.39,-471.32 663.76,-474.22"/>
</a>
</g>
</g>
<!-- n6 -->
<g id="node7" class="node">
<title>n6</title>
<g id="a_node7"><a xlink:title="全球南方主體性">
<path fill="#fffdf7" stroke="#6f8f72" stroke-width="2" d="M481.64,-791.97C481.64,-791.97 309.8,-791.97 309.8,-791.97 303.8,-791.97 297.8,-785.97 297.8,-779.97 297.8,-779.97 297.8,-767.97 297.8,-767.97 297.8,-761.97 303.8,-755.97 309.8,-755.97 309.8,-755.97 481.64,-755.97 481.64,-755.97 487.64,-755.97 493.64,-761.97 493.64,-767.97 493.64,-767.97 493.64,-779.97 493.64,-779.97 493.64,-785.97 487.64,-791.97 481.64,-791.97"/>
<text xml:space="preserve" text-anchor="start" x="366.54" y="-771.97" font-family="Inter, ui-sans-serif, system-ui, -apple-system, BlinkMacSystemFont, Segoe UI, sans-serif" font-weight="bold" font-size="10.00" fill="#2f2a21">全球南方主體性</text>
</a>
</g>
</g>
<!-- n6&#45;&gt;n0 -->
<g id="edge20" class="edge">
<title>n6&#45;&gt;n0</title>
<g id="a_edge20"><a xlink:title="attack">
<path fill="none" stroke="#b85b57" d="M491.16,-755.54C499.13,-751.82 506.7,-747.35 513.44,-741.97 603.56,-670.09 649.38,-533.1 665.83,-473.22"/>
<polygon fill="#b85b57" stroke="#b85b57" points="669.16,-474.34 668.35,-463.77 662.39,-472.53 669.16,-474.34"/>
</a>
</g>
</g>
<!-- n7 -->
<g id="node8" class="node">
<title>n7</title>
<g id="a_node8"><a xlink:title="Formal Core">
<path fill="#e8f1e8" stroke="#c8b794" d="M481.64,-191.97C481.64,-191.97 309.8,-191.97 309.8,-191.97 303.8,-191.97 297.8,-185.97 297.8,-179.97 297.8,-179.97 297.8,-167.97 297.8,-167.97 297.8,-161.97 303.8,-155.97 309.8,-155.97 309.8,-155.97 481.64,-155.97 481.64,-155.97 487.64,-155.97 493.64,-161.97 493.64,-167.97 493.64,-167.97 493.64,-179.97 493.64,-179.97 493.64,-185.97 487.64,-191.97 481.64,-191.97"/>
<text xml:space="preserve" text-anchor="start" x="366.26" y="-171.97" font-family="Inter, ui-sans-serif, system-ui, -apple-system, BlinkMacSystemFont, Segoe UI, sans-serif" font-weight="bold" font-size="10.00" fill="#2f2a21">Formal Core</text>
</a>
</g>
</g>
<!-- n7&#45;&gt;n0 -->
<g id="edge1" class="edge">
<title>n7&#45;&gt;n0</title>
<g id="a_edge1"><a xlink:title="support">
<path fill="none" stroke="#6f8f72" d="M494.13,-190.29C500.94,-193.28 507.46,-196.81 513.44,-200.97 592.19,-255.83 642.04,-363.23 662.48,-414.88"/>
<polygon fill="#6f8f72" stroke="#6f8f72" points="659.2,-416.11 666.07,-424.18 665.73,-413.59 659.2,-416.11"/>
</a>
</g>
</g>
<!-- n8 -->
<g id="node9" class="node">
<title>n8</title>
<g id="a_node9"><a xlink:title="14 個欄位群 schema 與 V receipt...">
<path fill="#e8f1e8" stroke="#c8b794" d="M481.64,-245.97C481.64,-245.97 309.8,-245.97 309.8,-245.97 303.8,-245.97 297.8,-239.97 297.8,-233.97 297.8,-233.97 297.8,-221.97 297.8,-221.97 297.8,-215.97 303.8,-209.97 309.8,-209.97 309.8,-209.97 481.64,-209.97 481.64,-209.97 487.64,-209.97 493.64,-215.97 493.64,-221.97 493.64,-221.97 493.64,-233.97 493.64,-233.97 493.64,-239.97 487.64,-245.97 481.64,-245.97"/>
<text xml:space="preserve" text-anchor="start" x="319.85" y="-225.97" font-family="Inter, ui-sans-serif, system-ui, -apple-system, BlinkMacSystemFont, Segoe UI, sans-serif" font-weight="bold" font-size="10.00" fill="#2f2a21">14 個欄位群 schema 與 V receipt...</text>
</a>
</g>
</g>
<!-- n8&#45;&gt;n0 -->
<g id="edge3" class="edge">
<title>n8&#45;&gt;n0</title>
<g id="a_edge3"><a xlink:title="support">
<path fill="none" stroke="#6f8f72" d="M493.9,-245.23C500.72,-248.01 507.31,-251.23 513.44,-254.97 580.01,-295.64 632.49,-373.72 657.36,-415.67"/>
<polygon fill="#6f8f72" stroke="#6f8f72" points="654.27,-417.32 662.32,-424.2 660.32,-413.8 654.27,-417.32"/>
</a>
</g>
</g>
<!-- n9 -->
<g id="node10" class="node">
<title>n9</title>
<g id="a_node10"><a xlink:title="混合策略是 verifier policy...">
<path fill="#e8f1e8" stroke="#c8b794" d="M481.64,-299.97C481.64,-299.97 309.8,-299.97 309.8,-299.97 303.8,-299.97 297.8,-293.97 297.8,-287.97 297.8,-287.97 297.8,-275.97 297.8,-275.97 297.8,-269.97 303.8,-263.97 309.8,-263.97 309.8,-263.97 481.64,-263.97 481.64,-263.97 487.64,-263.97 493.64,-269.97 493.64,-275.97 493.64,-275.97 493.64,-287.97 493.64,-287.97 493.64,-293.97 487.64,-299.97 481.64,-299.97"/>
<text xml:space="preserve" text-anchor="start" x="336.81" y="-279.97" font-family="Inter, ui-sans-serif, system-ui, -apple-system, BlinkMacSystemFont, Segoe UI, sans-serif" font-weight="bold" font-size="10.00" fill="#2f2a21">混合策略是 verifier policy...</text>
</a>
</g>
</g>
<!-- n9&#45;&gt;n0 -->
<g id="edge4" class="edge">
<title>n9&#45;&gt;n0</title>
<g id="a_edge4"><a xlink:title="support">
<path fill="none" stroke="#6f8f72" d="M493.24,-300.41C500.22,-302.92 507.02,-305.76 513.44,-308.97 568.32,-336.48 620.37,-386.55 649.38,-417.38"/>
<polygon fill="#6f8f72" stroke="#6f8f72" points="646.54,-419.46 655.9,-424.41 651.67,-414.7 646.54,-419.46"/>
</a>
</g>
</g>
<!-- n10 -->
<g id="node11" class="node">
<title>n10</title>
<g id="a_node11"><a xlink:title="30 年下限由三規範性窗口聚合推導，雙軌設計排除設計 B">
<path fill="#e8f1e8" stroke="#c8b794" d="M501.44,-353.97C501.44,-353.97 289.99,-353.97 289.99,-353.97 283.99,-353.97 277.99,-347.97 277.99,-341.97 277.99,-341.97 277.99,-329.97 277.99,-329.97 277.99,-323.97 283.99,-317.97 289.99,-317.97 289.99,-317.97 501.44,-317.97 501.44,-317.97 507.44,-317.97 513.44,-323.97 513.44,-329.97 513.44,-329.97 513.44,-341.97 513.44,-341.97 513.44,-347.97 507.44,-353.97 501.44,-353.97"/>
<text xml:space="preserve" text-anchor="start" x="287.91" y="-333.97" font-family="Inter, ui-sans-serif, system-ui, -apple-system, BlinkMacSystemFont, Segoe UI, sans-serif" font-weight="bold" font-size="10.00" fill="#2f2a21">30 年下限由三規範性窗口聚合推導，雙軌設計排除設計 B</text>
</a>
</g>
</g>
<!-- n10&#45;&gt;n0 -->
<g id="edge5" class="edge">
<title>n10&#45;&gt;n0</title>
<g id="a_edge5"><a xlink:title="support">
<path fill="none" stroke="#6f8f72" d="M486.58,-354.43C495.74,-357 504.84,-359.85 513.44,-362.97 555.62,-378.29 601.01,-402.1 632.57,-419.94"/>
<polygon fill="#6f8f72" stroke="#6f8f72" points="630.58,-422.83 641,-424.76 634.05,-416.76 630.58,-422.83"/>
</a>
</g>
</g>
<!-- n11 -->
<g id="node12" class="node">
<title>n11</title>
<g id="a_node12"><a xlink:title="法庭可採性對接 FRE 901(b)(9) eIDAS 修正後...">
<path fill="#e8f1e8" stroke="#c8b794" d="M490.6,-407.97C490.6,-407.97 300.83,-407.97 300.83,-407.97 294.83,-407.97 288.83,-401.97 288.83,-395.97 288.83,-395.97 288.83,-383.97 288.83,-383.97 288.83,-377.97 294.83,-371.97 300.83,-371.97 300.83,-371.97 490.6,-371.97 490.6,-371.97 496.6,-371.97 502.6,-377.97 502.6,-383.97 502.6,-383.97 502.6,-395.97 502.6,-395.97 502.6,-401.97 496.6,-407.97 490.6,-407.97"/>
<text xml:space="preserve" text-anchor="start" x="298.75" y="-387.97" font-family="Inter, ui-sans-serif, system-ui, -apple-system, BlinkMacSystemFont, Segoe UI, sans-serif" font-weight="bold" font-size="10.00" fill="#2f2a21">法庭可採性對接 FRE 901(b)(9) eIDAS 修正後...</text>
</a>
</g>
</g>
<!-- n11&#45;&gt;n0 -->
<g id="edge6" class="edge">
<title>n11&#45;&gt;n0</title>
<g id="a_edge6"><a xlink:title="support">
<path fill="none" stroke="#6f8f72" d="M491.06,-408.41C515.72,-413.22 542.45,-418.45 567.65,-423.37"/>
<polygon fill="#6f8f72" stroke="#6f8f72" points="566.75,-426.76 577.24,-425.24 568.09,-419.89 566.75,-426.76"/>
</a>
</g>
</g>
<!-- n12 -->
<g id="node13" class="node">
<title>n12</title>
<g id="a_node13"><a xlink:title="G recognition A 軟法層分三段、OECD...">
<path fill="#e8f1e8" stroke="#c8b794" d="M481.64,-461.97C481.64,-461.97 309.8,-461.97 309.8,-461.97 303.8,-461.97 297.8,-455.97 297.8,-449.97 297.8,-449.97 297.8,-437.97 297.8,-437.97 297.8,-431.97 303.8,-425.97 309.8,-425.97 309.8,-425.97 481.64,-425.97 481.64,-425.97 487.64,-425.97 493.64,-431.97 493.64,-437.97 493.64,-437.97 493.64,-449.97 493.64,-449.97 493.64,-455.97 487.64,-461.97 481.64,-461.97"/>
<text xml:space="preserve" text-anchor="start" x="309.04" y="-441.97" font-family="Inter, ui-sans-serif, system-ui, -apple-system, BlinkMacSystemFont, Segoe UI, sans-serif" font-weight="bold" font-size="10.00" fill="#2f2a21">G recognition A 軟法層分三段、OECD...</text>
</a>
</g>
</g>
<!-- n12&#45;&gt;n0 -->
<g id="edge7" class="edge">
<title>n12&#45;&gt;n0</title>
<g id="a_edge7"><a xlink:title="support">
<path fill="none" stroke="#6f8f72" d="M493.77,-443.97C508.03,-443.97 522.93,-443.97 537.78,-443.97"/>
<polygon fill="#6f8f72" stroke="#6f8f72" points="537.6,-447.47 547.6,-443.97 537.6,-440.47 537.6,-447.47"/>
</a>
</g>
</g>
<!-- n13 -->
<g id="node14" class="node">
<title>n13</title>
<g id="a_node14"><a xlink:title="四原語驗證依賴 SA1 SA2 SA3 SA4 線性閉包 SA4...">
<path fill="#e8f1e8" stroke="#c8b794" d="M500.61,-515.97C500.61,-515.97 290.82,-515.97 290.82,-515.97 284.82,-515.97 278.82,-509.97 278.82,-503.97 278.82,-503.97 278.82,-491.97 278.82,-491.97 278.82,-485.97 284.82,-479.97 290.82,-479.97 290.82,-479.97 500.61,-479.97 500.61,-479.97 506.61,-479.97 512.61,-485.97 512.61,-491.97 512.61,-491.97 512.61,-503.97 512.61,-503.97 512.61,-509.97 506.61,-515.97 500.61,-515.97"/>
<text xml:space="preserve" text-anchor="start" x="288.74" y="-495.97" font-family="Inter, ui-sans-serif, system-ui, -apple-system, BlinkMacSystemFont, Segoe UI, sans-serif" font-weight="bold" font-size="10.00" fill="#2f2a21">四原語驗證依賴 SA1 SA2 SA3 SA4 線性閉包 SA4...</text>
</a>
</g>
</g>
<!-- n13&#45;&gt;n0 -->
<g id="edge8" class="edge">
<title>n13&#45;&gt;n0</title>
<g id="a_edge8"><a xlink:title="support">
<path fill="none" stroke="#6f8f72" d="M491.06,-479.54C515.72,-474.72 542.45,-469.5 567.65,-464.58"/>
<polygon fill="#6f8f72" stroke="#6f8f72" points="568.09,-468.06 577.24,-462.7 566.75,-461.19 568.09,-468.06"/>
</a>
</g>
</g>
<!-- n14 -->
<g id="node15" class="node">
<title>n14</title>
<g id="a_node15"><a xlink:title="Conclusion">
<path fill="#e8f1e8" stroke="#c8b794" d="M481.64,-569.97C481.64,-569.97 309.8,-569.97 309.8,-569.97 303.8,-569.97 297.8,-563.97 297.8,-557.97 297.8,-557.97 297.8,-545.97 297.8,-545.97 297.8,-539.97 303.8,-533.97 309.8,-533.97 309.8,-533.97 481.64,-533.97 481.64,-533.97 487.64,-533.97 493.64,-539.97 493.64,-545.97 493.64,-545.97 493.64,-557.97 493.64,-557.97 493.64,-563.97 487.64,-569.97 481.64,-569.97"/>
<text xml:space="preserve" text-anchor="start" x="368.49" y="-549.97" font-family="Inter, ui-sans-serif, system-ui, -apple-system, BlinkMacSystemFont, Segoe UI, sans-serif" font-weight="bold" font-size="10.00" fill="#2f2a21">Conclusion</text>
</a>
</g>
</g>
<!-- n14&#45;&gt;n0 -->
<g id="edge10" class="edge">
<title>n14&#45;&gt;n0</title>
<g id="a_edge10"><a xlink:title="support">
<path fill="none" stroke="#6f8f72" d="M486.58,-533.52C495.74,-530.95 504.84,-528.1 513.44,-524.97 555.62,-509.65 601.01,-485.85 632.57,-468.01"/>
<polygon fill="#6f8f72" stroke="#6f8f72" points="634.05,-471.19 641,-463.19 630.58,-465.11 634.05,-471.19"/>
</a>
</g>
</g>
<!-- n15 -->
<g id="node16" class="node">
<title>n15</title>
<g id="a_node16"><a xlink:title="Reply CF1 BBS 標準化順延 — 高階分層不成立故...">
<path fill="#e8f1e8" stroke="#c8b794" d="M229.99,-624.97C229.99,-624.97 28,-624.97 28,-624.97 22,-624.97 16,-618.97 16,-612.97 16,-612.97 16,-600.97 16,-600.97 16,-594.97 22,-588.97 28,-588.97 28,-588.97 229.99,-588.97 229.99,-588.97 235.99,-588.97 241.99,-594.97 241.99,-600.97 241.99,-600.97 241.99,-612.97 241.99,-612.97 241.99,-618.97 235.99,-624.97 229.99,-624.97"/>
<text xml:space="preserve" text-anchor="start" x="25.92" y="-604.97" font-family="Inter, ui-sans-serif, system-ui, -apple-system, BlinkMacSystemFont, Segoe UI, sans-serif" font-weight="bold" font-size="10.00" fill="#2f2a21">Reply CF1 BBS 標準化順延 — 高階分層不成立故...</text>
</a>
</g>
</g>
<!-- n15&#45;&gt;n0 -->
<g id="edge15" class="edge">
<title>n15&#45;&gt;n0</title>
<g id="a_edge15"><a xlink:title="support">
<path fill="none" stroke="#6f8f72" d="M242.31,-600.47C350.93,-593.92 500.93,-584.08 513.44,-578.97 571.2,-555.41 623.36,-502.65 651.42,-470.51"/>
<polygon fill="#6f8f72" stroke="#6f8f72" points="653.84,-473.05 657.69,-463.18 648.53,-468.5 653.84,-473.05"/>
</a>
</g>
</g>
<!-- n15&#45;&gt;n4 -->
<g id="edge13" class="edge">
<title>n15&#45;&gt;n4</title>
<g id="a_edge13"><a xlink:title="attack">
<path fill="none" stroke="#b85b57" d="M242.26,-615.03C256.72,-616.07 271.5,-617.13 285.9,-618.16"/>
<polygon fill="#b85b57" stroke="#b85b57" points="285.61,-621.65 295.84,-618.88 286.11,-614.67 285.61,-621.65"/>
</a>
</g>
</g>
<!-- n16 -->
<g id="node17" class="node">
<title>n16</title>
<g id="a_node17"><a xlink:title="Reply CF2 失智長者 receipts 集體失效...">
<path fill="#e8f1e8" stroke="#c8b794" d="M214.92,-698.97C214.92,-698.97 43.08,-698.97 43.08,-698.97 37.08,-698.97 31.08,-692.97 31.08,-686.97 31.08,-686.97 31.08,-674.97 31.08,-674.97 31.08,-668.97 37.08,-662.97 43.08,-662.97 43.08,-662.97 214.92,-662.97 214.92,-662.97 220.92,-662.97 226.92,-668.97 226.92,-674.97 226.92,-674.97 226.92,-686.97 226.92,-686.97 226.92,-692.97 220.92,-698.97 214.92,-698.97"/>
<text xml:space="preserve" text-anchor="start" x="43.69" y="-678.97" font-family="Inter, ui-sans-serif, system-ui, -apple-system, BlinkMacSystemFont, Segoe UI, sans-serif" font-weight="bold" font-size="10.00" fill="#2f2a21">Reply CF2 失智長者 receipts 集體失效...</text>
</a>
</g>
</g>
<!-- n16&#45;&gt;n0 -->
<g id="edge18" class="edge">
<title>n16&#45;&gt;n0</title>
<g id="a_edge18"><a xlink:title="support">
<path fill="none" stroke="#6f8f72" d="M227.16,-674.85C338.68,-667.69 507.17,-656.36 513.44,-652.97 588.37,-612.46 638.88,-520.01 660.78,-472.83"/>
<polygon fill="#6f8f72" stroke="#6f8f72" points="663.93,-474.34 664.86,-463.79 657.56,-471.46 663.93,-474.34"/>
</a>
</g>
</g>
<!-- n16&#45;&gt;n5 -->
<g id="edge16" class="edge">
<title>n16&#45;&gt;n5</title>
<g id="a_edge16"><a xlink:title="attack">
<path fill="none" stroke="#b85b57" d="M227.06,-687.94C246.31,-689.32 266.62,-690.78 286.22,-692.19"/>
<polygon fill="#b85b57" stroke="#b85b57" points="285.92,-695.67 296.15,-692.9 286.42,-688.69 285.92,-695.67"/>
</a>
</g>
</g>
<!-- n17 -->
<g id="node18" class="node">
<title>n17</title>
<g id="a_node18"><a xlink:title="Reply CF4 BRICS 集體拒絕 OECD 路徑 — G...">
<path fill="#e8f1e8" stroke="#c8b794" d="M226.93,-772.97C226.93,-772.97 31.06,-772.97 31.06,-772.97 25.06,-772.97 19.06,-766.97 19.06,-760.97 19.06,-760.97 19.06,-748.97 19.06,-748.97 19.06,-742.97 25.06,-736.97 31.06,-736.97 31.06,-736.97 226.93,-736.97 226.93,-736.97 232.93,-736.97 238.93,-742.97 238.93,-748.97 238.93,-748.97 238.93,-760.97 238.93,-760.97 238.93,-766.97 232.93,-772.97 226.93,-772.97"/>
<text xml:space="preserve" text-anchor="start" x="28.98" y="-752.97" font-family="Inter, ui-sans-serif, system-ui, -apple-system, BlinkMacSystemFont, Segoe UI, sans-serif" font-weight="bold" font-size="10.00" fill="#2f2a21">Reply CF4 BRICS 集體拒絕 OECD 路徑 — G...</text>
</a>
</g>
</g>
<!-- n17&#45;&gt;n0 -->
<g id="edge21" class="edge">
<title>n17&#45;&gt;n0</title>
<g id="a_edge21"><a xlink:title="support">
<path fill="none" stroke="#6f8f72" d="M239.21,-748.24C350.49,-741.19 507.63,-730.65 513.44,-726.97 607.02,-667.65 650.99,-532.78 666.39,-473.2"/>
<polygon fill="#6f8f72" stroke="#6f8f72" points="669.71,-474.35 668.73,-463.8 662.92,-472.66 669.71,-474.35"/>
</a>
</g>
</g>
<!-- n17&#45;&gt;n6 -->
<g id="edge19" class="edge">
<title>n17&#45;&gt;n6</title>
<g id="a_edge19"><a xlink:title="attack">
<path fill="none" stroke="#b85b57" d="M239.2,-762.81C254.78,-763.93 270.81,-765.08 286.38,-766.2"/>
<polygon fill="#b85b57" stroke="#b85b57" points="285.89,-769.67 296.11,-766.9 286.39,-762.69 285.89,-769.67"/>
</a>
</g>
</g>
</g>
</svg>
