<?xml version="1.0" encoding="UTF-8" standalone="no"?>
<!DOCTYPE svg PUBLIC "-//W3C//DTD SVG 1.1//EN"
 "http://www.w3.org/Graphics/SVG/1.1/DTD/svg11.dtd">
<!-- Generated by graphviz version 14.1.4 (0)
 -->
<!-- Title: Argument Map Pages: 1 -->
<svg class="argdown-summary-map" width="720pt" height="690pt"
 viewBox="0.00 0.00 720.00 690.00" xmlns="http://www.w3.org/2000/svg" xmlns:xlink="http://www.w3.org/1999/xlink">
<g id="graph0" class="graph" transform="scale(0.83775 0.83775) rotate(0) translate(4 820)">
<title>Argument Map</title>
<g id="clust1" class="cluster">
<title>cluster_1</title>
<polygon fill="#f3eadb" stroke="#d4c0a1" points="8,-8 8,-808 843.44,-808 843.44,-8 8,-8"/>
<text xml:space="preserve" text-anchor="start" x="387.04" y="-792" font-family="Inter, ui-sans-serif, system-ui, -apple-system, BlinkMacSystemFont, Segoe UI, sans-serif" font-size="12.00" fill="#2f2a21">Central Thesis</text>
</g>
<!-- n0 -->
<g id="node1" class="node">
<title>n0</title>
<g id="a_node1"><a xlink:title="選擇性揭露的 UX 認知極限：可審計工程原語的人因瓶頸">
<path fill="#fffdf7" stroke="#6f8f72" stroke-width="2" d="M823.44,-448C823.44,-448 616.45,-448 616.45,-448 610.45,-448 604.45,-442 604.45,-436 604.45,-436 604.45,-424 604.45,-424 604.45,-418 610.45,-412 616.45,-412 616.45,-412 823.44,-412 823.44,-412 829.44,-412 835.44,-418 835.44,-424 835.44,-424 835.44,-436 835.44,-436 835.44,-442 829.44,-448 823.44,-448"/>
<text xml:space="preserve" text-anchor="start" x="614.37" y="-428" font-family="Inter, ui-sans-serif, system-ui, -apple-system, BlinkMacSystemFont, Segoe UI, sans-serif" font-weight="bold" font-size="10.00" fill="#2f2a21">選擇性揭露的 UX 認知極限：可審計工程原語的人因瓶頸</text>
</a>
</g>
</g>
<!-- n1 -->
<g id="node2" class="node">
<title>n1</title>
<g id="a_node2"><a xlink:title="selective disclosure 的 informed...">
<path fill="#fffdf7" stroke="#6f8f72" stroke-width="2" d="M509.43,-52C509.43,-52 337.59,-52 337.59,-52 331.59,-52 325.59,-46 325.59,-40 325.59,-40 325.59,-28 325.59,-28 325.59,-22 331.59,-16 337.59,-16 337.59,-16 509.43,-16 509.43,-16 515.43,-16 521.43,-22 521.43,-28 521.43,-28 521.43,-40 521.43,-40 521.43,-46 515.43,-52 509.43,-52"/>
<text xml:space="preserve" text-anchor="start" x="343.48" y="-32" font-family="Inter, ui-sans-serif, system-ui, -apple-system, BlinkMacSystemFont, Segoe UI, sans-serif" font-weight="bold" font-size="10.00" fill="#2f2a21">selective disclosure 的 informed...</text>
</a>
</g>
</g>
<!-- n1&#45;&gt;n0 -->
<g id="edge2" class="edge">
<title>n1&#45;&gt;n0</title>
<g id="a_edge2"><a xlink:title="support">
<path fill="none" stroke="#6f8f72" d="M521.62,-42.89C538.64,-49.17 555.14,-57.98 568.45,-70 669.43,-161.16 705.22,-331.67 715.45,-400.41"/>
<polygon fill="#6f8f72" stroke="#6f8f72" points="711.96,-400.73 716.81,-410.15 718.89,-399.76 711.96,-400.73"/>
</a>
</g>
</g>
<!-- n1&#45;&gt;n0 -->
<g id="edge12" class="edge">
<title>n1&#45;&gt;n0</title>
<g id="a_edge12"><a xlink:title="attack">
<path fill="none" stroke="#b85b57" d="M497.33,-52.47C522.28,-59.54 548.82,-70.28 568.45,-88 664.82,-175 701.81,-334.27 713.88,-400.32"/>
<polygon fill="#b85b57" stroke="#b85b57" points="710.41,-400.79 715.59,-410.04 717.31,-399.58 710.41,-400.79"/>
</a>
</g>
</g>
<!-- n1&#45;&gt;n1 -->
<g id="edge11" class="edge">
<title>n1&#45;&gt;n1</title>
<g id="a_edge11"><a xlink:title="attack">
<path fill="none" stroke="#b85b57" d="M370.28,-52.15C362.09,-61.54 379.83,-70 423.51,-70 448.75,-70 465.34,-67.17 473.25,-62.97"/>
<polygon fill="#b85b57" stroke="#b85b57" points="476.54,-64.18 476.27,-53.59 469.87,-62.04 476.54,-64.18"/>
</a>
</g>
</g>
<!-- n2 -->
<g id="node3" class="node">
<title>n2</title>
<g id="a_node3"><a xlink:title="把 F3 四件 UX 工程原語翻譯成可被檢驗的工程或法律義務，必須通過...">
<path fill="#fffdf7" stroke="#6f8f72" stroke-width="2" d="M556.45,-124C556.45,-124 290.56,-124 290.56,-124 284.56,-124 278.56,-118 278.56,-112 278.56,-112 278.56,-100 278.56,-100 278.56,-94 284.56,-88 290.56,-88 290.56,-88 556.45,-88 556.45,-88 562.45,-88 568.45,-94 568.45,-100 568.45,-100 568.45,-112 568.45,-112 568.45,-118 562.45,-124 556.45,-124"/>
<text xml:space="preserve" text-anchor="start" x="288.48" y="-104" font-family="Inter, ui-sans-serif, system-ui, -apple-system, BlinkMacSystemFont, Segoe UI, sans-serif" font-weight="bold" font-size="10.00" fill="#2f2a21">把 F3 四件 UX 工程原語翻譯成可被檢驗的工程或法律義務，必須通過...</text>
</a>
</g>
</g>
<!-- n2&#45;&gt;n0 -->
<g id="edge9" class="edge">
<title>n2&#45;&gt;n0</title>
<g id="a_edge9"><a xlink:title="support">
<path fill="none" stroke="#6f8f72" d="M554.91,-124.38C559.64,-126.94 564.18,-129.8 568.45,-133 659.49,-201.29 699.51,-340.2 713.14,-400.72"/>
<polygon fill="#6f8f72" stroke="#6f8f72" points="709.67,-401.22 715.2,-410.25 716.51,-399.74 709.67,-401.22"/>
</a>
</g>
</g>
<!-- n3 -->
<g id="node4" class="node">
<title>n3</title>
<g id="a_node4"><a xlink:title="3 attribute group">
<path fill="#fffdf7" stroke="#6f8f72" stroke-width="2" d="M509.43,-630C509.43,-630 337.59,-630 337.59,-630 331.59,-630 325.59,-624 325.59,-618 325.59,-618 325.59,-606 325.59,-606 325.59,-600 331.59,-594 337.59,-594 337.59,-594 509.43,-594 509.43,-594 515.43,-594 521.43,-600 521.43,-606 521.43,-606 521.43,-618 521.43,-618 521.43,-624 515.43,-630 509.43,-630"/>
<text xml:space="preserve" text-anchor="start" x="383.78" y="-610" font-family="Inter, ui-sans-serif, system-ui, -apple-system, BlinkMacSystemFont, Segoe UI, sans-serif" font-weight="bold" font-size="10.00" fill="#2f2a21">3 attribute group</text>
</a>
</g>
</g>
<!-- n3&#45;&gt;n0 -->
<g id="edge14" class="edge">
<title>n3&#45;&gt;n0</title>
<g id="a_edge14"><a xlink:title="attack">
<path fill="none" stroke="#b85b57" d="M521.71,-598.29C537.9,-593.81 554.08,-587.87 568.45,-580 624.49,-549.3 673.59,-491.47 699.49,-457.28"/>
<polygon fill="#b85b57" stroke="#b85b57" points="702.11,-459.63 705.27,-449.52 696.49,-455.46 702.11,-459.63"/>
</a>
</g>
</g>
<!-- n4 -->
<g id="node5" class="node">
<title>n4</title>
<g id="a_node5"><a xlink:title="全部接受">
<path fill="#fffdf7" stroke="#6f8f72" stroke-width="2" d="M509.43,-704C509.43,-704 337.59,-704 337.59,-704 331.59,-704 325.59,-698 325.59,-692 325.59,-692 325.59,-680 325.59,-680 325.59,-674 331.59,-668 337.59,-668 337.59,-668 509.43,-668 509.43,-668 515.43,-668 521.43,-674 521.43,-680 521.43,-680 521.43,-692 521.43,-692 521.43,-698 515.43,-704 509.43,-704"/>
<text xml:space="preserve" text-anchor="start" x="406.84" y="-684" font-family="Inter, ui-sans-serif, system-ui, -apple-system, BlinkMacSystemFont, Segoe UI, sans-serif" font-weight="bold" font-size="10.00" fill="#2f2a21">全部接受</text>
</a>
</g>
</g>
<!-- n4&#45;&gt;n0 -->
<g id="edge17" class="edge">
<title>n4&#45;&gt;n0</title>
<g id="a_edge17"><a xlink:title="attack">
<path fill="none" stroke="#b85b57" d="M521.62,-675.03C538.17,-670.27 554.5,-663.53 568.45,-654 640.99,-604.48 688,-507.36 707.96,-458.92"/>
<polygon fill="#b85b57" stroke="#b85b57" points="711.2,-460.24 711.68,-449.66 704.71,-457.63 711.2,-460.24"/>
</a>
</g>
</g>
<!-- n5 -->
<g id="node6" class="node">
<title>n5</title>
<g id="a_node6"><a xlink:title="不可替代">
<path fill="#fffdf7" stroke="#6f8f72" stroke-width="2" d="M509.43,-778C509.43,-778 337.59,-778 337.59,-778 331.59,-778 325.59,-772 325.59,-766 325.59,-766 325.59,-754 325.59,-754 325.59,-748 331.59,-742 337.59,-742 337.59,-742 509.43,-742 509.43,-742 515.43,-742 521.43,-748 521.43,-754 521.43,-754 521.43,-766 521.43,-766 521.43,-772 515.43,-778 509.43,-778"/>
<text xml:space="preserve" text-anchor="start" x="406.84" y="-758" font-family="Inter, ui-sans-serif, system-ui, -apple-system, BlinkMacSystemFont, Segoe UI, sans-serif" font-weight="bold" font-size="10.00" fill="#2f2a21">不可替代</text>
</a>
</g>
</g>
<!-- n5&#45;&gt;n0 -->
<g id="edge20" class="edge">
<title>n5&#45;&gt;n0</title>
<g id="a_edge20"><a xlink:title="attack">
<path fill="none" stroke="#b85b57" d="M521.89,-750.65C538.6,-745.74 554.91,-738.53 568.45,-728 658.53,-657.95 699.07,-519.4 712.99,-459.14"/>
<polygon fill="#b85b57" stroke="#b85b57" points="716.34,-460.17 715.1,-449.65 709.51,-458.65 716.34,-460.17"/>
</a>
</g>
</g>
<!-- n6 -->
<g id="node7" class="node">
<title>n6</title>
<g id="a_node7"><a xlink:title="Formal Core">
<path fill="#e8f1e8" stroke="#c8b794" d="M509.43,-178C509.43,-178 337.59,-178 337.59,-178 331.59,-178 325.59,-172 325.59,-166 325.59,-166 325.59,-154 325.59,-154 325.59,-148 331.59,-142 337.59,-142 337.59,-142 509.43,-142 509.43,-142 515.43,-142 521.43,-148 521.43,-154 521.43,-154 521.43,-166 521.43,-166 521.43,-172 515.43,-178 509.43,-178"/>
<text xml:space="preserve" text-anchor="start" x="394.05" y="-158" font-family="Inter, ui-sans-serif, system-ui, -apple-system, BlinkMacSystemFont, Segoe UI, sans-serif" font-weight="bold" font-size="10.00" fill="#2f2a21">Formal Core</text>
</a>
</g>
</g>
<!-- n6&#45;&gt;n0 -->
<g id="edge1" class="edge">
<title>n6&#45;&gt;n0</title>
<g id="a_edge1"><a xlink:title="support">
<path fill="none" stroke="#6f8f72" d="M521.81,-166.86C538.34,-171.12 554.61,-177.51 568.45,-187 646.46,-240.47 691.73,-349.01 709.77,-400.98"/>
<polygon fill="#6f8f72" stroke="#6f8f72" points="706.41,-401.96 712.92,-410.32 713.04,-399.73 706.41,-401.96"/>
</a>
</g>
</g>
<!-- n7 -->
<g id="node8" class="node">
<title>n7</title>
<g id="a_node8"><a xlink:title="V ux 函數與四件原語 schema 構成 UX 履行性的形式骨架">
<path fill="#e8f1e8" stroke="#c8b794" d="M535.35,-232C535.35,-232 311.66,-232 311.66,-232 305.66,-232 299.66,-226 299.66,-220 299.66,-220 299.66,-208 299.66,-208 299.66,-202 305.66,-196 311.66,-196 311.66,-196 535.35,-196 535.35,-196 541.35,-196 547.35,-202 547.35,-208 547.35,-208 547.35,-220 547.35,-220 547.35,-226 541.35,-232 535.35,-232"/>
<text xml:space="preserve" text-anchor="start" x="309.58" y="-212" font-family="Inter, ui-sans-serif, system-ui, -apple-system, BlinkMacSystemFont, Segoe UI, sans-serif" font-weight="bold" font-size="10.00" fill="#2f2a21">V ux 函數與四件原語 schema 構成 UX 履行性的形式骨架</text>
</a>
</g>
</g>
<!-- n7&#45;&gt;n0 -->
<g id="edge3" class="edge">
<title>n7&#45;&gt;n0</title>
<g id="a_edge3"><a xlink:title="support">
<path fill="none" stroke="#6f8f72" d="M547.71,-230.78C554.94,-233.68 561.92,-237.07 568.45,-241 633.74,-280.3 682.16,-359.01 704.77,-401.4"/>
<polygon fill="#6f8f72" stroke="#6f8f72" points="701.66,-403 709.38,-410.25 707.87,-399.77 701.66,-403"/>
</a>
</g>
</g>
<!-- n8 -->
<g id="node9" class="node">
<title>n8</title>
<g id="a_node9"><a xlink:title="認知負荷上界由 Cowan 4 1 加 wallet...">
<path fill="#e8f1e8" stroke="#c8b794" d="M509.43,-286C509.43,-286 337.59,-286 337.59,-286 331.59,-286 325.59,-280 325.59,-274 325.59,-274 325.59,-262 325.59,-262 325.59,-256 331.59,-250 337.59,-250 337.59,-250 509.43,-250 509.43,-250 515.43,-250 521.43,-256 521.43,-262 521.43,-262 521.43,-274 521.43,-274 521.43,-280 515.43,-286 509.43,-286"/>
<text xml:space="preserve" text-anchor="start" x="343.21" y="-266" font-family="Inter, ui-sans-serif, system-ui, -apple-system, BlinkMacSystemFont, Segoe UI, sans-serif" font-weight="bold" font-size="10.00" fill="#2f2a21">認知負荷上界由 Cowan 4 1 加 wallet...</text>
</a>
</g>
</g>
<!-- n8&#45;&gt;n0 -->
<g id="edge4" class="edge">
<title>n8&#45;&gt;n0</title>
<g id="a_edge4"><a xlink:title="support">
<path fill="none" stroke="#6f8f72" d="M521.71,-278.72C537.82,-282.6 553.97,-287.86 568.45,-295 621.74,-321.29 670.36,-371.84 697.19,-403.08"/>
<polygon fill="#6f8f72" stroke="#6f8f72" points="694.38,-405.17 703.5,-410.56 699.73,-400.66 694.38,-405.17"/>
</a>
</g>
</g>
<!-- n9 -->
<g id="node10" class="node">
<title>n9</title>
<g id="a_node10"><a xlink:title="dark patterns 在 wallet 場景同型重演...">
<path fill="#e8f1e8" stroke="#c8b794" d="M509.43,-340C509.43,-340 337.59,-340 337.59,-340 331.59,-340 325.59,-334 325.59,-328 325.59,-328 325.59,-316 325.59,-316 325.59,-310 331.59,-304 337.59,-304 337.59,-304 509.43,-304 509.43,-304 515.43,-304 521.43,-310 521.43,-316 521.43,-316 521.43,-328 521.43,-328 521.43,-334 515.43,-340 509.43,-340"/>
<text xml:space="preserve" text-anchor="start" x="340.43" y="-320" font-family="Inter, ui-sans-serif, system-ui, -apple-system, BlinkMacSystemFont, Segoe UI, sans-serif" font-weight="bold" font-size="10.00" fill="#2f2a21">dark patterns 在 wallet 場景同型重演...</text>
</a>
</g>
</g>
<!-- n9&#45;&gt;n0 -->
<g id="edge5" class="edge">
<title>n9&#45;&gt;n0</title>
<g id="a_edge5"><a xlink:title="support">
<path fill="none" stroke="#6f8f72" d="M521.6,-335.97C537.48,-339.46 553.59,-343.75 568.45,-349 609.05,-363.34 651.97,-387.45 681.54,-405.64"/>
<polygon fill="#6f8f72" stroke="#6f8f72" points="679.42,-408.44 689.75,-410.76 683.12,-402.5 679.42,-408.44"/>
</a>
</g>
</g>
<!-- n10 -->
<g id="node11" class="node">
<title>n10</title>
<g id="a_node11"><a xlink:title="capacity&#45;aware UX...">
<path fill="#e8f1e8" stroke="#c8b794" d="M509.43,-394C509.43,-394 337.59,-394 337.59,-394 331.59,-394 325.59,-388 325.59,-382 325.59,-382 325.59,-370 325.59,-370 325.59,-364 331.59,-358 337.59,-358 337.59,-358 509.43,-358 509.43,-358 515.43,-358 521.43,-364 521.43,-370 521.43,-370 521.43,-382 521.43,-382 521.43,-388 515.43,-394 509.43,-394"/>
<text xml:space="preserve" text-anchor="start" x="375.15" y="-374" font-family="Inter, ui-sans-serif, system-ui, -apple-system, BlinkMacSystemFont, Segoe UI, sans-serif" font-weight="bold" font-size="10.00" fill="#2f2a21">capacity&#45;aware UX...</text>
</a>
</g>
</g>
<!-- n10&#45;&gt;n0 -->
<g id="edge6" class="edge">
<title>n10&#45;&gt;n0</title>
<g id="a_edge6"><a xlink:title="support">
<path fill="none" stroke="#6f8f72" d="M521.73,-393.83C549.09,-398.85 579.06,-404.35 607.2,-409.5"/>
<polygon fill="#6f8f72" stroke="#6f8f72" points="606.34,-412.91 616.8,-411.27 607.6,-406.02 606.34,-412.91"/>
</a>
</g>
</g>
<!-- n11 -->
<g id="node12" class="node">
<title>n11</title>
<g id="a_node12"><a xlink:title="supporter UI 三層分離由 signatures...">
<path fill="#e8f1e8" stroke="#c8b794" d="M509.43,-448C509.43,-448 337.59,-448 337.59,-448 331.59,-448 325.59,-442 325.59,-436 325.59,-436 325.59,-424 325.59,-424 325.59,-418 331.59,-412 337.59,-412 337.59,-412 509.43,-412 509.43,-412 515.43,-412 521.43,-418 521.43,-424 521.43,-424 521.43,-436 521.43,-436 521.43,-442 515.43,-448 509.43,-448"/>
<text xml:space="preserve" text-anchor="start" x="340.71" y="-428" font-family="Inter, ui-sans-serif, system-ui, -apple-system, BlinkMacSystemFont, Segoe UI, sans-serif" font-weight="bold" font-size="10.00" fill="#2f2a21">supporter UI 三層分離由 signatures...</text>
</a>
</g>
</g>
<!-- n11&#45;&gt;n0 -->
<g id="edge7" class="edge">
<title>n11&#45;&gt;n0</title>
<g id="a_edge7"><a xlink:title="support">
<path fill="none" stroke="#6f8f72" d="M521.73,-430C544.51,-430 569.1,-430 592.93,-430"/>
<polygon fill="#6f8f72" stroke="#6f8f72" points="592.67,-433.5 602.67,-430 592.67,-426.5 592.67,-433.5"/>
</a>
</g>
</g>
<!-- n12 -->
<g id="node13" class="node">
<title>n12</title>
<g id="a_node13"><a xlink:title="四件 UX 原語履行依賴 UX1 UX2 UX3 UX4 線性閉包...">
<path fill="#e8f1e8" stroke="#c8b794" d="M531.18,-502C531.18,-502 315.83,-502 315.83,-502 309.83,-502 303.83,-496 303.83,-490 303.83,-490 303.83,-478 303.83,-478 303.83,-472 309.83,-466 315.83,-466 315.83,-466 531.18,-466 531.18,-466 537.18,-466 543.18,-472 543.18,-478 543.18,-478 543.18,-490 543.18,-490 543.18,-496 537.18,-502 531.18,-502"/>
<text xml:space="preserve" text-anchor="start" x="313.75" y="-482" font-family="Inter, ui-sans-serif, system-ui, -apple-system, BlinkMacSystemFont, Segoe UI, sans-serif" font-weight="bold" font-size="10.00" fill="#2f2a21">四件 UX 原語履行依賴 UX1 UX2 UX3 UX4 線性閉包...</text>
</a>
</g>
</g>
<!-- n12&#45;&gt;n0 -->
<g id="edge8" class="edge">
<title>n12&#45;&gt;n0</title>
<g id="a_edge8"><a xlink:title="support">
<path fill="none" stroke="#6f8f72" d="M525.01,-465.57C551.52,-460.71 580.27,-455.43 607.32,-450.47"/>
<polygon fill="#6f8f72" stroke="#6f8f72" points="607.7,-453.96 616.91,-448.71 606.44,-447.08 607.7,-453.96"/>
</a>
</g>
</g>
<!-- n13 -->
<g id="node14" class="node">
<title>n13</title>
<g id="a_node14"><a xlink:title="Conclusion">
<path fill="#e8f1e8" stroke="#c8b794" d="M509.43,-556C509.43,-556 337.59,-556 337.59,-556 331.59,-556 325.59,-550 325.59,-544 325.59,-544 325.59,-532 325.59,-532 325.59,-526 331.59,-520 337.59,-520 337.59,-520 509.43,-520 509.43,-520 515.43,-520 521.43,-526 521.43,-532 521.43,-532 521.43,-544 521.43,-544 521.43,-550 515.43,-556 509.43,-556"/>
<text xml:space="preserve" text-anchor="start" x="396.28" y="-536" font-family="Inter, ui-sans-serif, system-ui, -apple-system, BlinkMacSystemFont, Segoe UI, sans-serif" font-weight="bold" font-size="10.00" fill="#2f2a21">Conclusion</text>
</a>
</g>
</g>
<!-- n13&#45;&gt;n0 -->
<g id="edge10" class="edge">
<title>n13&#45;&gt;n0</title>
<g id="a_edge10"><a xlink:title="support">
<path fill="none" stroke="#6f8f72" d="M521.6,-524.03C537.48,-520.54 553.59,-516.25 568.45,-511 609.05,-496.66 651.97,-472.55 681.54,-454.36"/>
<polygon fill="#6f8f72" stroke="#6f8f72" points="683.12,-457.5 689.75,-449.24 679.42,-451.56 683.12,-457.5"/>
</a>
</g>
</g>
<!-- n14 -->
<g id="node15" class="node">
<title>n14</title>
<g id="a_node15"><a xlink:title="Reply CF1 認知科學新研究下修 Cowan 4 1 — 3...">
<path fill="#e8f1e8" stroke="#c8b794" d="M230.56,-611C230.56,-611 28,-611 28,-611 22,-611 16,-605 16,-599 16,-599 16,-587 16,-587 16,-581 22,-575 28,-575 28,-575 230.56,-575 230.56,-575 236.56,-575 242.56,-581 242.56,-587 242.56,-587 242.56,-599 242.56,-599 242.56,-605 236.56,-611 230.56,-611"/>
<text xml:space="preserve" text-anchor="start" x="25.92" y="-591" font-family="Inter, ui-sans-serif, system-ui, -apple-system, BlinkMacSystemFont, Segoe UI, sans-serif" font-weight="bold" font-size="10.00" fill="#2f2a21">Reply CF1 認知科學新研究下修 Cowan 4 1 — 3...</text>
</a>
</g>
</g>
<!-- n14&#45;&gt;n0 -->
<g id="edge15" class="edge">
<title>n14&#45;&gt;n0</title>
<g id="a_edge15"><a xlink:title="support">
<path fill="none" stroke="#6f8f72" d="M242.88,-586.7C370.21,-579.45 560.98,-568.14 568.45,-565 623.83,-541.75 672.41,-489.27 698.55,-457.02"/>
<polygon fill="#6f8f72" stroke="#6f8f72" points="701.2,-459.3 704.67,-449.29 695.72,-454.95 701.2,-459.3"/>
</a>
</g>
</g>
<!-- n14&#45;&gt;n3 -->
<g id="edge13" class="edge">
<title>n14&#45;&gt;n3</title>
<g id="a_edge13"><a xlink:title="attack">
<path fill="none" stroke="#b85b57" d="M242.84,-600.32C266.19,-601.84 290.75,-603.43 313.96,-604.94"/>
<polygon fill="#b85b57" stroke="#b85b57" points="313.51,-608.42 323.72,-605.58 313.97,-601.44 313.51,-608.42"/>
</a>
</g>
</g>
<!-- n15 -->
<g id="node16" class="node">
<title>n15</title>
<g id="a_node16"><a xlink:title="Reply CF2 EUDI 強制階段重演 GDPR cookie...">
<path fill="#e8f1e8" stroke="#c8b794" d="M228.61,-685C228.61,-685 29.95,-685 29.95,-685 23.95,-685 17.95,-679 17.95,-673 17.95,-673 17.95,-661 17.95,-661 17.95,-655 23.95,-649 29.95,-649 29.95,-649 228.61,-649 228.61,-649 234.61,-649 240.61,-655 240.61,-661 240.61,-661 240.61,-673 240.61,-673 240.61,-679 234.61,-685 228.61,-685"/>
<text xml:space="preserve" text-anchor="start" x="27.87" y="-665" font-family="Inter, ui-sans-serif, system-ui, -apple-system, BlinkMacSystemFont, Segoe UI, sans-serif" font-weight="bold" font-size="10.00" fill="#2f2a21">Reply CF2 EUDI 強制階段重演 GDPR cookie...</text>
</a>
</g>
</g>
<!-- n15&#45;&gt;n0 -->
<g id="edge18" class="edge">
<title>n15&#45;&gt;n0</title>
<g id="a_edge18"><a xlink:title="support">
<path fill="none" stroke="#6f8f72" d="M241.1,-660.49C369.73,-652.85 564.88,-640.98 568.45,-639 641.44,-598.63 687.97,-506.12 707.84,-458.89"/>
<polygon fill="#6f8f72" stroke="#6f8f72" points="710.99,-460.44 711.54,-449.86 704.51,-457.79 710.99,-460.44"/>
</a>
</g>
</g>
<!-- n15&#45;&gt;n4 -->
<g id="edge16" class="edge">
<title>n15&#45;&gt;n4</title>
<g id="a_edge16"><a xlink:title="attack">
<path fill="none" stroke="#b85b57" d="M240.76,-674.18C264.76,-675.74 290.12,-677.39 314.04,-678.95"/>
<polygon fill="#b85b57" stroke="#b85b57" points="313.57,-682.42 323.78,-679.58 314.03,-675.44 313.57,-682.42"/>
</a>
</g>
</g>
<!-- n16 -->
<g id="node17" class="node">
<title>n16</title>
<g id="a_node17"><a xlink:title="Reply CF5 LLM&#45;agent 補位 — agent 與...">
<path fill="#e8f1e8" stroke="#c8b794" d="M218.04,-759C218.04,-759 40.52,-759 40.52,-759 34.52,-759 28.52,-753 28.52,-747 28.52,-747 28.52,-735 28.52,-735 28.52,-729 34.52,-723 40.52,-723 40.52,-723 218.04,-723 218.04,-723 224.04,-723 230.04,-729 230.04,-735 230.04,-735 230.04,-747 230.04,-747 230.04,-753 224.04,-759 218.04,-759"/>
<text xml:space="preserve" text-anchor="start" x="38.44" y="-739" font-family="Inter, ui-sans-serif, system-ui, -apple-system, BlinkMacSystemFont, Segoe UI, sans-serif" font-weight="bold" font-size="10.00" fill="#2f2a21">Reply CF5 LLM&#45;agent 補位 — agent 與...</text>
</a>
</g>
</g>
<!-- n16&#45;&gt;n0 -->
<g id="edge21" class="edge">
<title>n16&#45;&gt;n0</title>
<g id="a_edge21"><a xlink:title="support">
<path fill="none" stroke="#6f8f72" d="M230.33,-735.2C358.56,-727.69 564.92,-715.28 568.45,-713 660.1,-653.88 699.63,-519.4 713.13,-459.61"/>
<polygon fill="#6f8f72" stroke="#6f8f72" points="716.55,-460.36 715.23,-449.84 709.7,-458.88 716.55,-460.36"/>
</a>
</g>
</g>
<!-- n16&#45;&gt;n5 -->
<g id="edge19" class="edge">
<title>n16&#45;&gt;n5</title>
<g id="a_edge19"><a xlink:title="attack">
<path fill="none" stroke="#b85b57" d="M230.44,-747.51C257.45,-749.27 286.79,-751.18 314.22,-752.96"/>
<polygon fill="#b85b57" stroke="#b85b57" points="313.72,-756.43 323.93,-753.59 314.18,-749.45 313.72,-756.43"/>
</a>
</g>
</g>
</g>
</svg>
