<?xml version="1.0" encoding="UTF-8" standalone="no"?>
<!DOCTYPE svg PUBLIC "-//W3C//DTD SVG 1.1//EN"
 "http://www.w3.org/Graphics/SVG/1.1/DTD/svg11.dtd">
<!-- Generated by graphviz version 14.1.4 (0)
 -->
<!-- Title: Argument Map Pages: 1 -->
<svg class="argdown-summary-map" width="716pt" height="720pt"
 viewBox="0.00 0.00 716.00 720.00" xmlns="http://www.w3.org/2000/svg" xmlns:xlink="http://www.w3.org/1999/xlink">
<g id="graph0" class="graph" transform="scale(0.859978 0.859978) rotate(0) translate(4 833.23)">
<title>Argument Map</title>
<g id="clust1" class="cluster">
<title>cluster_1</title>
<polygon fill="#f3eadb" stroke="#d4c0a1" points="8,-19.23 8,-821.23 816.77,-821.23 816.77,-19.23 8,-19.23"/>
<text xml:space="preserve" text-anchor="start" x="373.71" y="-805.23" font-family="Inter, ui-sans-serif, system-ui, -apple-system, BlinkMacSystemFont, Segoe UI, sans-serif" font-size="12.00" fill="#2f2a21">Central Thesis</text>
</g>
<!-- n0 -->
<g id="node1" class="node">
<title>n0</title>
<g id="a_node1"><a xlink:title="以兒童安全為名的年齡驗證法規如何改寫數位身分與數位人權的版圖">
<path fill="#fffdf7" stroke="#6f8f72" stroke-width="2" d="M796.77,-461.23C796.77,-461.23 550.89,-461.23 550.89,-461.23 544.89,-461.23 538.89,-455.23 538.89,-449.23 538.89,-449.23 538.89,-437.23 538.89,-437.23 538.89,-431.23 544.89,-425.23 550.89,-425.23 550.89,-425.23 796.77,-425.23 796.77,-425.23 802.77,-425.23 808.77,-431.23 808.77,-437.23 808.77,-437.23 808.77,-449.23 808.77,-449.23 808.77,-455.23 802.77,-461.23 796.77,-461.23"/>
<text xml:space="preserve" text-anchor="start" x="548.81" y="-441.23" font-family="Inter, ui-sans-serif, system-ui, -apple-system, BlinkMacSystemFont, Segoe UI, sans-serif" font-weight="bold" font-size="10.00" fill="#2f2a21">以兒童安全為名的年齡驗證法規如何改寫數位身分與數位人權的版圖</text>
</a>
</g>
</g>
<!-- n1 -->
<g id="node2" class="node">
<title>n1</title>
<g id="a_node2"><a xlink:title="技術設計 治理設計組合決定結局">
<path fill="#fffdf7" stroke="#6f8f72" stroke-width="2" d="M204.92,-73.23C204.92,-73.23 33.08,-73.23 33.08,-73.23 27.08,-73.23 21.08,-67.23 21.08,-61.23 21.08,-61.23 21.08,-49.23 21.08,-49.23 21.08,-43.23 27.08,-37.23 33.08,-37.23 33.08,-37.23 204.92,-37.23 204.92,-37.23 210.92,-37.23 216.92,-43.23 216.92,-49.23 216.92,-49.23 216.92,-61.23 216.92,-61.23 216.92,-67.23 210.92,-73.23 204.92,-73.23"/>
<text xml:space="preserve" text-anchor="start" x="59.27" y="-53.23" font-family="Inter, ui-sans-serif, system-ui, -apple-system, BlinkMacSystemFont, Segoe UI, sans-serif" font-weight="bold" font-size="10.00" fill="#2f2a21">技術設計 治理設計組合決定結局</text>
</a>
</g>
</g>
<!-- n1&#45;&gt;n0 -->
<g id="edge2" class="edge">
<title>n1&#45;&gt;n0</title>
<g id="a_edge2"><a xlink:title="support">
<path fill="none" stroke="#6f8f72" d="M167.11,-36.74C244.4,-9.73 399.82,30.29 502.89,-38.23 633.98,-125.39 664.16,-335.37 670.93,-413.39"/>
<polygon fill="#6f8f72" stroke="#6f8f72" points="667.43,-413.53 671.71,-423.23 674.41,-412.98 667.43,-413.53"/>
</a>
</g>
</g>
<!-- n3 -->
<g id="node4" class="node">
<title>n3</title>
<g id="a_node4"><a xlink:title="兒童保護 vs 隱私保護二選一">
<path fill="#fffdf7" stroke="#6f8f72" stroke-width="2" d="M466.36,-83.23C466.36,-83.23 294.52,-83.23 294.52,-83.23 288.52,-83.23 282.52,-77.23 282.52,-71.23 282.52,-71.23 282.52,-59.23 282.52,-59.23 282.52,-53.23 288.52,-47.23 294.52,-47.23 294.52,-47.23 466.36,-47.23 466.36,-47.23 472.36,-47.23 478.36,-53.23 478.36,-59.23 478.36,-59.23 478.36,-71.23 478.36,-71.23 478.36,-77.23 472.36,-83.23 466.36,-83.23"/>
<text xml:space="preserve" text-anchor="start" x="326.26" y="-63.23" font-family="Inter, ui-sans-serif, system-ui, -apple-system, BlinkMacSystemFont, Segoe UI, sans-serif" font-weight="bold" font-size="10.00" fill="#2f2a21">兒童保護 vs 隱私保護二選一</text>
</a>
</g>
</g>
<!-- n1&#45;&gt;n3 -->
<g id="edge11" class="edge">
<title>n1&#45;&gt;n3</title>
<g id="a_edge11"><a xlink:title="attack">
<path fill="none" stroke="#b85b57" d="M217.35,-58.98C234.89,-59.66 253.27,-60.37 271.1,-61.05"/>
<polygon fill="#b85b57" stroke="#b85b57" points="270.78,-64.54 280.9,-61.43 271.05,-57.55 270.78,-64.54"/>
</a>
</g>
</g>
<!-- n2 -->
<g id="node3" class="node">
<title>n2</title>
<g id="a_node3"><a xlink:title="任何年齡驗證體制要落在保護工具端，必須先通過六道條件">
<path fill="#fffdf7" stroke="#6f8f72" stroke-width="2" d="M486.72,-137.23C486.72,-137.23 274.17,-137.23 274.17,-137.23 268.17,-137.23 262.17,-131.23 262.17,-125.23 262.17,-125.23 262.17,-113.23 262.17,-113.23 262.17,-107.23 268.17,-101.23 274.17,-101.23 274.17,-101.23 486.72,-101.23 486.72,-101.23 492.72,-101.23 498.72,-107.23 498.72,-113.23 498.72,-113.23 498.72,-125.23 498.72,-125.23 498.72,-131.23 492.72,-137.23 486.72,-137.23"/>
<text xml:space="preserve" text-anchor="start" x="272.09" y="-117.23" font-family="Inter, ui-sans-serif, system-ui, -apple-system, BlinkMacSystemFont, Segoe UI, sans-serif" font-weight="bold" font-size="10.00" fill="#2f2a21">任何年齡驗證體制要落在保護工具端，必須先通過六道條件</text>
</a>
</g>
</g>
<!-- n2&#45;&gt;n0 -->
<g id="edge9" class="edge">
<title>n2&#45;&gt;n0</title>
<g id="a_edge9"><a xlink:title="support">
<path fill="none" stroke="#6f8f72" d="M489.02,-137.69C493.88,-140.19 498.54,-143.03 502.89,-146.23 597.05,-215.6 646.89,-353.93 664.89,-414.12"/>
<polygon fill="#6f8f72" stroke="#6f8f72" points="661.5,-414.99 667.65,-423.62 668.22,-413.04 661.5,-414.99"/>
</a>
</g>
</g>
<!-- n3&#45;&gt;n0 -->
<g id="edge12" class="edge">
<title>n3&#45;&gt;n0</title>
<g id="a_edge12"><a xlink:title="attack">
<path fill="none" stroke="#b85b57" d="M478.63,-78.23C487.34,-81.88 495.6,-86.47 502.89,-92.23 609.83,-176.84 653.69,-345.57 667.53,-413.69"/>
<polygon fill="#b85b57" stroke="#b85b57" points="664.06,-414.21 669.42,-423.35 670.94,-412.87 664.06,-414.21"/>
</a>
</g>
</g>
<!-- n4 -->
<g id="node5" class="node">
<title>n4</title>
<g id="a_node5"><a xlink:title="中度審查 成年人沒有避免年齡驗證的第一修正案權利">
<path fill="#fffdf7" stroke="#6f8f72" stroke-width="2" d="M475.61,-643.23C475.61,-643.23 285.28,-643.23 285.28,-643.23 279.28,-643.23 273.28,-637.23 273.28,-631.23 273.28,-631.23 273.28,-619.23 273.28,-619.23 273.28,-613.23 279.28,-607.23 285.28,-607.23 285.28,-607.23 475.61,-607.23 475.61,-607.23 481.61,-607.23 487.61,-613.23 487.61,-619.23 487.61,-619.23 487.61,-631.23 487.61,-631.23 487.61,-637.23 481.61,-643.23 475.61,-643.23"/>
<text xml:space="preserve" text-anchor="start" x="283.2" y="-623.23" font-family="Inter, ui-sans-serif, system-ui, -apple-system, BlinkMacSystemFont, Segoe UI, sans-serif" font-weight="bold" font-size="10.00" fill="#2f2a21">中度審查 成年人沒有避免年齡驗證的第一修正案權利</text>
</a>
</g>
</g>
<!-- n4&#45;&gt;n0 -->
<g id="edge14" class="edge">
<title>n4&#45;&gt;n0</title>
<g id="a_edge14"><a xlink:title="attack">
<path fill="none" stroke="#b85b57" d="M470.84,-606.83C481.94,-603.06 492.88,-598.57 502.89,-593.23 563.12,-561.07 619.76,-503.61 650.02,-469.91"/>
<polygon fill="#b85b57" stroke="#b85b57" points="652.47,-472.42 656.48,-462.61 647.23,-467.78 652.47,-472.42"/>
</a>
</g>
</g>
<!-- n5 -->
<g id="node6" class="node">
<title>n5</title>
<g id="a_node6"><a xlink:title="年齡確認是必要的">
<path fill="#fffdf7" stroke="#6f8f72" stroke-width="2" d="M466.36,-717.23C466.36,-717.23 294.52,-717.23 294.52,-717.23 288.52,-717.23 282.52,-711.23 282.52,-705.23 282.52,-705.23 282.52,-693.23 282.52,-693.23 282.52,-687.23 288.52,-681.23 294.52,-681.23 294.52,-681.23 466.36,-681.23 466.36,-681.23 472.36,-681.23 478.36,-687.23 478.36,-693.23 478.36,-693.23 478.36,-705.23 478.36,-705.23 478.36,-711.23 472.36,-717.23 466.36,-717.23"/>
<text xml:space="preserve" text-anchor="start" x="347.1" y="-697.23" font-family="Inter, ui-sans-serif, system-ui, -apple-system, BlinkMacSystemFont, Segoe UI, sans-serif" font-weight="bold" font-size="10.00" fill="#2f2a21">年齡確認是必要的</text>
</a>
</g>
</g>
<!-- n5&#45;&gt;n0 -->
<g id="edge17" class="edge">
<title>n5&#45;&gt;n0</title>
<g id="a_edge17"><a xlink:title="attack">
<path fill="none" stroke="#b85b57" d="M476.64,-680.84C485.89,-677.11 494.82,-672.63 502.89,-667.23 578.92,-616.36 634.7,-519.93 659.14,-471.9"/>
<polygon fill="#b85b57" stroke="#b85b57" points="662.27,-473.47 663.6,-462.96 656,-470.35 662.27,-473.47"/>
</a>
</g>
</g>
<!-- n6 -->
<g id="node7" class="node">
<title>n6</title>
<g id="a_node7"><a xlink:title="第一次">
<path fill="#fffdf7" stroke="#6f8f72" stroke-width="2" d="M466.36,-791.23C466.36,-791.23 294.52,-791.23 294.52,-791.23 288.52,-791.23 282.52,-785.23 282.52,-779.23 282.52,-779.23 282.52,-767.23 282.52,-767.23 282.52,-761.23 288.52,-755.23 294.52,-755.23 294.52,-755.23 466.36,-755.23 466.36,-755.23 472.36,-755.23 478.36,-761.23 478.36,-767.23 478.36,-767.23 478.36,-779.23 478.36,-779.23 478.36,-785.23 472.36,-791.23 466.36,-791.23"/>
<text xml:space="preserve" text-anchor="start" x="367.94" y="-771.23" font-family="Inter, ui-sans-serif, system-ui, -apple-system, BlinkMacSystemFont, Segoe UI, sans-serif" font-weight="bold" font-size="10.00" fill="#2f2a21">第一次</text>
</a>
</g>
</g>
<!-- n6&#45;&gt;n0 -->
<g id="edge20" class="edge">
<title>n6&#45;&gt;n0</title>
<g id="a_edge20"><a xlink:title="attack">
<path fill="none" stroke="#b85b57" d="M478.62,-755.36C487.28,-751.53 495.54,-746.88 502.89,-741.23 595.65,-669.97 646.11,-532.64 664.57,-472.57"/>
<polygon fill="#b85b57" stroke="#b85b57" points="667.9,-473.66 667.41,-463.08 661.19,-471.66 667.9,-473.66"/>
</a>
</g>
</g>
<!-- n7 -->
<g id="node8" class="node">
<title>n7</title>
<g id="a_node8"><a xlink:title="Formal Core">
<path fill="#e8f1e8" stroke="#c8b794" d="M466.36,-191.23C466.36,-191.23 294.52,-191.23 294.52,-191.23 288.52,-191.23 282.52,-185.23 282.52,-179.23 282.52,-179.23 282.52,-167.23 282.52,-167.23 282.52,-161.23 288.52,-155.23 294.52,-155.23 294.52,-155.23 466.36,-155.23 466.36,-155.23 472.36,-155.23 478.36,-161.23 478.36,-167.23 478.36,-167.23 478.36,-179.23 478.36,-179.23 478.36,-185.23 472.36,-191.23 466.36,-191.23"/>
<text xml:space="preserve" text-anchor="start" x="350.99" y="-171.23" font-family="Inter, ui-sans-serif, system-ui, -apple-system, BlinkMacSystemFont, Segoe UI, sans-serif" font-weight="bold" font-size="10.00" fill="#2f2a21">Formal Core</text>
</a>
</g>
</g>
<!-- n7&#45;&gt;n0 -->
<g id="edge1" class="edge">
<title>n7&#45;&gt;n0</title>
<g id="a_edge1"><a xlink:title="support">
<path fill="none" stroke="#6f8f72" d="M478.66,-187.83C487.21,-191.17 495.44,-195.25 502.89,-200.23 584.41,-254.77 638.71,-362.72 661.16,-414.37"/>
<polygon fill="#6f8f72" stroke="#6f8f72" points="657.87,-415.56 665,-423.4 664.31,-412.83 657.87,-415.56"/>
</a>
</g>
</g>
<!-- n8 -->
<g id="node9" class="node">
<title>n8</title>
<g id="a_node9"><a xlink:title="從 1998 COPPA 到 2025 Paxton 翻轉合憲推定">
<path fill="#e8f1e8" stroke="#c8b794" d="M476.74,-245.23C476.74,-245.23 284.15,-245.23 284.15,-245.23 278.15,-245.23 272.15,-239.23 272.15,-233.23 272.15,-233.23 272.15,-221.23 272.15,-221.23 272.15,-215.23 278.15,-209.23 284.15,-209.23 284.15,-209.23 476.74,-209.23 476.74,-209.23 482.74,-209.23 488.74,-215.23 488.74,-221.23 488.74,-221.23 488.74,-233.23 488.74,-233.23 488.74,-239.23 482.74,-245.23 476.74,-245.23"/>
<text xml:space="preserve" text-anchor="start" x="282.07" y="-225.23" font-family="Inter, ui-sans-serif, system-ui, -apple-system, BlinkMacSystemFont, Segoe UI, sans-serif" font-weight="bold" font-size="10.00" fill="#2f2a21">從 1998 COPPA 到 2025 Paxton 翻轉合憲推定</text>
</a>
</g>
</g>
<!-- n8&#45;&gt;n0 -->
<g id="edge3" class="edge">
<title>n8&#45;&gt;n0</title>
<g id="a_edge3"><a xlink:title="support">
<path fill="none" stroke="#6f8f72" d="M485.5,-245.69C491.54,-248.19 497.38,-251.02 502.89,-254.23 572.41,-294.83 629.16,-373.57 656.03,-415.45"/>
<polygon fill="#6f8f72" stroke="#6f8f72" points="652.95,-417.14 661.25,-423.74 658.88,-413.41 652.95,-417.14"/>
</a>
</g>
</g>
<!-- n9 -->
<g id="node10" class="node">
<title>n9</title>
<g id="a_node10"><a xlink:title="從自我宣告到全民實名制的光譜上三類典型架構">
<path fill="#e8f1e8" stroke="#c8b794" d="M466.36,-299.23C466.36,-299.23 294.52,-299.23 294.52,-299.23 288.52,-299.23 282.52,-293.23 282.52,-287.23 282.52,-287.23 282.52,-275.23 282.52,-275.23 282.52,-269.23 288.52,-263.23 294.52,-263.23 294.52,-263.23 466.36,-263.23 466.36,-263.23 472.36,-263.23 478.36,-269.23 478.36,-275.23 478.36,-275.23 478.36,-287.23 478.36,-287.23 478.36,-293.23 472.36,-299.23 466.36,-299.23"/>
<text xml:space="preserve" text-anchor="start" x="292.93" y="-279.23" font-family="Inter, ui-sans-serif, system-ui, -apple-system, BlinkMacSystemFont, Segoe UI, sans-serif" font-weight="bold" font-size="10.00" fill="#2f2a21">從自我宣告到全民實名制的光譜上三類典型架構</text>
</a>
</g>
</g>
<!-- n9&#45;&gt;n0 -->
<g id="edge4" class="edge">
<title>n9&#45;&gt;n0</title>
<g id="a_edge4"><a xlink:title="support">
<path fill="none" stroke="#6f8f72" d="M478.58,-298.62C486.97,-301.38 495.19,-304.56 502.89,-308.23 560.4,-335.66 616.08,-385.76 647.26,-416.61"/>
<polygon fill="#6f8f72" stroke="#6f8f72" points="644.78,-419.08 654.32,-423.69 649.74,-414.14 644.78,-419.08"/>
</a>
</g>
</g>
<!-- n10 -->
<g id="node11" class="node">
<title>n10</title>
<g id="a_node11"><a xlink:title="從色情網站擴展到全網，從福利卡到泛用 ID">
<path fill="#e8f1e8" stroke="#c8b794" d="M466.36,-353.23C466.36,-353.23 294.52,-353.23 294.52,-353.23 288.52,-353.23 282.52,-347.23 282.52,-341.23 282.52,-341.23 282.52,-329.23 282.52,-329.23 282.52,-323.23 288.52,-317.23 294.52,-317.23 294.52,-317.23 466.36,-317.23 466.36,-317.23 472.36,-317.23 478.36,-323.23 478.36,-329.23 478.36,-329.23 478.36,-341.23 478.36,-341.23 478.36,-347.23 472.36,-353.23 466.36,-353.23"/>
<text xml:space="preserve" text-anchor="start" x="299.04" y="-333.23" font-family="Inter, ui-sans-serif, system-ui, -apple-system, BlinkMacSystemFont, Segoe UI, sans-serif" font-weight="bold" font-size="10.00" fill="#2f2a21">從色情網站擴展到全網，從福利卡到泛用 ID</text>
</a>
</g>
</g>
<!-- n10&#45;&gt;n0 -->
<g id="edge5" class="edge">
<title>n10&#45;&gt;n0</title>
<g id="a_edge5"><a xlink:title="support">
<path fill="none" stroke="#6f8f72" d="M474.55,-353.66C484.2,-356.24 493.8,-359.1 502.89,-362.23 547.69,-377.67 596.26,-401.6 629.96,-419.46"/>
<polygon fill="#6f8f72" stroke="#6f8f72" points="628.11,-422.44 638.58,-424.07 631.42,-416.27 628.11,-422.44"/>
</a>
</g>
</g>
<!-- n11 -->
<g id="node12" class="node">
<title>n11</title>
<g id="a_node12"><a xlink:title="隱私 匿名 言論 數位落差的同步壓力">
<path fill="#e8f1e8" stroke="#c8b794" d="M466.36,-407.23C466.36,-407.23 294.52,-407.23 294.52,-407.23 288.52,-407.23 282.52,-401.23 282.52,-395.23 282.52,-395.23 282.52,-383.23 282.52,-383.23 282.52,-377.23 288.52,-371.23 294.52,-371.23 294.52,-371.23 466.36,-371.23 466.36,-371.23 472.36,-371.23 478.36,-377.23 478.36,-383.23 478.36,-383.23 478.36,-395.23 478.36,-395.23 478.36,-401.23 472.36,-407.23 466.36,-407.23"/>
<text xml:space="preserve" text-anchor="start" x="313.76" y="-387.23" font-family="Inter, ui-sans-serif, system-ui, -apple-system, BlinkMacSystemFont, Segoe UI, sans-serif" font-weight="bold" font-size="10.00" fill="#2f2a21">隱私 匿名 言論 數位落差的同步壓力</text>
</a>
</g>
</g>
<!-- n11&#45;&gt;n0 -->
<g id="edge6" class="edge">
<title>n11&#45;&gt;n0</title>
<g id="a_edge6"><a xlink:title="support">
<path fill="none" stroke="#6f8f72" d="M478.47,-407.21C505.24,-412.17 534.5,-417.59 561.99,-422.69"/>
<polygon fill="#6f8f72" stroke="#6f8f72" points="561.28,-426.12 571.75,-424.5 562.56,-419.23 561.28,-426.12"/>
</a>
</g>
</g>
<!-- n12 -->
<g id="node13" class="node">
<title>n12</title>
<g id="a_node13"><a xlink:title="好方案存在，三條政治弱勢機制">
<path fill="#e8f1e8" stroke="#c8b794" d="M466.36,-461.23C466.36,-461.23 294.52,-461.23 294.52,-461.23 288.52,-461.23 282.52,-455.23 282.52,-449.23 282.52,-449.23 282.52,-437.23 282.52,-437.23 282.52,-431.23 288.52,-425.23 294.52,-425.23 294.52,-425.23 466.36,-425.23 466.36,-425.23 472.36,-425.23 478.36,-431.23 478.36,-437.23 478.36,-437.23 478.36,-449.23 478.36,-449.23 478.36,-455.23 472.36,-461.23 466.36,-461.23"/>
<text xml:space="preserve" text-anchor="start" x="322.1" y="-441.23" font-family="Inter, ui-sans-serif, system-ui, -apple-system, BlinkMacSystemFont, Segoe UI, sans-serif" font-weight="bold" font-size="10.00" fill="#2f2a21">好方案存在，三條政治弱勢機制</text>
</a>
</g>
</g>
<!-- n12&#45;&gt;n0 -->
<g id="edge7" class="edge">
<title>n12&#45;&gt;n0</title>
<g id="a_edge7"><a xlink:title="support">
<path fill="none" stroke="#6f8f72" d="M478.47,-443.23C494.14,-443.23 510.66,-443.23 527.18,-443.23"/>
<polygon fill="#6f8f72" stroke="#6f8f72" points="527.09,-446.73 537.09,-443.23 527.09,-439.73 527.09,-446.73"/>
</a>
</g>
</g>
<!-- n13 -->
<g id="node14" class="node">
<title>n13</title>
<g id="a_node14"><a xlink:title="Paxton 案五步因果鏈（中度審查 翻轉合憲推定 全網擴展）">
<path fill="#e8f1e8" stroke="#c8b794" d="M490.89,-515.23C490.89,-515.23 270,-515.23 270,-515.23 264,-515.23 258,-509.23 258,-503.23 258,-503.23 258,-491.23 258,-491.23 258,-485.23 264,-479.23 270,-479.23 270,-479.23 490.89,-479.23 490.89,-479.23 496.89,-479.23 502.89,-485.23 502.89,-491.23 502.89,-491.23 502.89,-503.23 502.89,-503.23 502.89,-509.23 496.89,-515.23 490.89,-515.23"/>
<text xml:space="preserve" text-anchor="start" x="267.92" y="-495.23" font-family="Inter, ui-sans-serif, system-ui, -apple-system, BlinkMacSystemFont, Segoe UI, sans-serif" font-weight="bold" font-size="10.00" fill="#2f2a21">Paxton 案五步因果鏈（中度審查 翻轉合憲推定 全網擴展）</text>
</a>
</g>
</g>
<!-- n13&#45;&gt;n0 -->
<g id="edge8" class="edge">
<title>n13&#45;&gt;n0</title>
<g id="a_edge8"><a xlink:title="support">
<path fill="none" stroke="#6f8f72" d="M480.91,-478.8C507.02,-473.96 535.34,-468.71 562.01,-463.77"/>
<polygon fill="#6f8f72" stroke="#6f8f72" points="562.64,-467.21 571.83,-461.95 561.36,-460.33 562.64,-467.21"/>
</a>
</g>
</g>
<!-- n14 -->
<g id="node15" class="node">
<title>n14</title>
<g id="a_node15"><a xlink:title="Conclusion">
<path fill="#e8f1e8" stroke="#c8b794" d="M466.36,-569.23C466.36,-569.23 294.52,-569.23 294.52,-569.23 288.52,-569.23 282.52,-563.23 282.52,-557.23 282.52,-557.23 282.52,-545.23 282.52,-545.23 282.52,-539.23 288.52,-533.23 294.52,-533.23 294.52,-533.23 466.36,-533.23 466.36,-533.23 472.36,-533.23 478.36,-539.23 478.36,-545.23 478.36,-545.23 478.36,-557.23 478.36,-557.23 478.36,-563.23 472.36,-569.23 466.36,-569.23"/>
<text xml:space="preserve" text-anchor="start" x="353.22" y="-549.23" font-family="Inter, ui-sans-serif, system-ui, -apple-system, BlinkMacSystemFont, Segoe UI, sans-serif" font-weight="bold" font-size="10.00" fill="#2f2a21">Conclusion</text>
</a>
</g>
</g>
<!-- n14&#45;&gt;n0 -->
<g id="edge10" class="edge">
<title>n14&#45;&gt;n0</title>
<g id="a_edge10"><a xlink:title="support">
<path fill="none" stroke="#6f8f72" d="M474.55,-532.8C484.2,-530.22 493.8,-527.36 502.89,-524.23 547.69,-508.79 596.26,-484.86 629.96,-467"/>
<polygon fill="#6f8f72" stroke="#6f8f72" points="631.42,-470.19 638.58,-462.39 628.11,-464.02 631.42,-470.19"/>
</a>
</g>
</g>
<!-- n15 -->
<g id="node16" class="node">
<title>n15</title>
<g id="a_node16"><a xlink:title="Reply Paxton 多數意見...">
<path fill="#e8f1e8" stroke="#c8b794" d="M204.92,-624.23C204.92,-624.23 33.08,-624.23 33.08,-624.23 27.08,-624.23 21.08,-618.23 21.08,-612.23 21.08,-612.23 21.08,-600.23 21.08,-600.23 21.08,-594.23 27.08,-588.23 33.08,-588.23 33.08,-588.23 204.92,-588.23 204.92,-588.23 210.92,-588.23 216.92,-594.23 216.92,-600.23 216.92,-600.23 216.92,-612.23 216.92,-612.23 216.92,-618.23 210.92,-624.23 204.92,-624.23"/>
<text xml:space="preserve" text-anchor="start" x="65.1" y="-604.23" font-family="Inter, ui-sans-serif, system-ui, -apple-system, BlinkMacSystemFont, Segoe UI, sans-serif" font-weight="bold" font-size="10.00" fill="#2f2a21">Reply Paxton 多數意見...</text>
</a>
</g>
</g>
<!-- n15&#45;&gt;n0 -->
<g id="edge15" class="edge">
<title>n15&#45;&gt;n0</title>
<g id="a_edge15"><a xlink:title="support">
<path fill="none" stroke="#6f8f72" d="M217.1,-600.56C326.14,-593.98 489.73,-583.37 502.89,-578.23 563.46,-554.58 619.6,-501.47 649.75,-469.36"/>
<polygon fill="#6f8f72" stroke="#6f8f72" points="651.96,-472.13 656.17,-462.41 646.82,-467.38 651.96,-472.13"/>
</a>
</g>
</g>
<!-- n15&#45;&gt;n4 -->
<g id="edge13" class="edge">
<title>n15&#45;&gt;n4</title>
<g id="a_edge13"><a xlink:title="attack">
<path fill="none" stroke="#b85b57" d="M217.35,-613.36C231.78,-614.42 246.79,-615.52 261.59,-616.6"/>
<polygon fill="#b85b57" stroke="#b85b57" points="261.12,-620.07 271.35,-617.31 261.63,-613.09 261.12,-620.07"/>
</a>
</g>
</g>
<!-- n16 -->
<g id="node17" class="node">
<title>n16</title>
<g id="a_node17"><a xlink:title="Reply 5Rights Foundation...">
<path fill="#e8f1e8" stroke="#c8b794" d="M204.92,-698.23C204.92,-698.23 33.08,-698.23 33.08,-698.23 27.08,-698.23 21.08,-692.23 21.08,-686.23 21.08,-686.23 21.08,-674.23 21.08,-674.23 21.08,-668.23 27.08,-662.23 33.08,-662.23 33.08,-662.23 204.92,-662.23 204.92,-662.23 210.92,-662.23 216.92,-668.23 216.92,-674.23 216.92,-674.23 216.92,-686.23 216.92,-686.23 216.92,-692.23 210.92,-698.23 204.92,-698.23"/>
<text xml:space="preserve" text-anchor="start" x="52.89" y="-678.23" font-family="Inter, ui-sans-serif, system-ui, -apple-system, BlinkMacSystemFont, Segoe UI, sans-serif" font-weight="bold" font-size="10.00" fill="#2f2a21">Reply 5Rights Foundation...</text>
</a>
</g>
</g>
<!-- n16&#45;&gt;n0 -->
<g id="edge18" class="edge">
<title>n16&#45;&gt;n0</title>
<g id="a_edge18"><a xlink:title="support">
<path fill="none" stroke="#6f8f72" d="M217,-674.08C328.35,-666.88 496.58,-655.52 502.89,-652.23 580.41,-611.82 635.33,-518.98 659.33,-471.83"/>
<polygon fill="#6f8f72" stroke="#6f8f72" points="662.37,-473.56 663.69,-463.05 656.11,-470.44 662.37,-473.56"/>
</a>
</g>
</g>
<!-- n16&#45;&gt;n5 -->
<g id="edge16" class="edge">
<title>n16&#45;&gt;n5</title>
<g id="a_edge16"><a xlink:title="attack">
<path fill="none" stroke="#b85b57" d="M217.35,-687.36C234.89,-688.64 253.27,-689.99 271.1,-691.3"/>
<polygon fill="#b85b57" stroke="#b85b57" points="270.68,-694.77 280.91,-692.01 271.19,-687.79 270.68,-694.77"/>
</a>
</g>
</g>
<!-- n17 -->
<g id="node18" class="node">
<title>n17</title>
<g id="a_node18"><a xlink:title="Reply Brave — ZKP 沒有完全消除隱私風險...">
<path fill="#e8f1e8" stroke="#c8b794" d="M210,-772.23C210,-772.23 28,-772.23 28,-772.23 22,-772.23 16,-766.23 16,-760.23 16,-760.23 16,-748.23 16,-748.23 16,-742.23 22,-736.23 28,-736.23 28,-736.23 210,-736.23 210,-736.23 216,-736.23 222,-742.23 222,-748.23 222,-748.23 222,-760.23 222,-760.23 222,-766.23 216,-772.23 210,-772.23"/>
<text xml:space="preserve" text-anchor="start" x="25.92" y="-752.23" font-family="Inter, ui-sans-serif, system-ui, -apple-system, BlinkMacSystemFont, Segoe UI, sans-serif" font-weight="bold" font-size="10.00" fill="#2f2a21">Reply Brave — ZKP 沒有完全消除隱私風險...</text>
</a>
</g>
</g>
<!-- n17&#45;&gt;n0 -->
<g id="edge21" class="edge">
<title>n17&#45;&gt;n0</title>
<g id="a_edge21"><a xlink:title="support">
<path fill="none" stroke="#6f8f72" d="M222.02,-747.91C333.41,-740.84 496.92,-729.9 502.89,-726.23 598.76,-667.25 647.55,-532.19 665.08,-472.51"/>
<polygon fill="#6f8f72" stroke="#6f8f72" points="668.39,-473.65 667.75,-463.08 661.66,-471.74 668.39,-473.65"/>
</a>
</g>
</g>
<!-- n17&#45;&gt;n6 -->
<g id="edge19" class="edge">
<title>n17&#45;&gt;n6</title>
<g id="a_edge19"><a xlink:title="attack">
<path fill="none" stroke="#b85b57" d="M222.17,-761.71C238.18,-762.89 254.78,-764.1 270.94,-765.28"/>
<polygon fill="#b85b57" stroke="#b85b57" points="270.29,-768.75 280.52,-765.99 270.8,-761.76 270.29,-768.75"/>
</a>
</g>
</g>
</g>
</svg>
