<?xml version="1.0" encoding="UTF-8" standalone="no"?>
<!DOCTYPE svg PUBLIC "-//W3C//DTD SVG 1.1//EN"
 "http://www.w3.org/Graphics/SVG/1.1/DTD/svg11.dtd">
<!-- Generated by graphviz version 14.1.4 (0)
 -->
<!-- Title: Argument Map Pages: 1 -->
<svg class="argdown-summary-map" width="674pt" height="720pt"
 viewBox="0.00 0.00 674.00 720.00" xmlns="http://www.w3.org/2000/svg" xmlns:xlink="http://www.w3.org/1999/xlink">
<g id="graph0" class="graph" transform="scale(0.85936 0.85936) rotate(0) translate(4 833.83)">
<title>Argument Map</title>
<g id="clust1" class="cluster">
<title>cluster_1</title>
<polygon fill="#f3eadb" stroke="#d4c0a1" points="8,-19.83 8,-821.83 767.82,-821.83 767.82,-19.83 8,-19.83"/>
<text xml:space="preserve" text-anchor="start" x="349.23" y="-805.83" font-family="Inter, ui-sans-serif, system-ui, -apple-system, BlinkMacSystemFont, Segoe UI, sans-serif" font-size="12.00" fill="#2f2a21">Central Thesis</text>
</g>
<!-- n0 -->
<g id="node1" class="node">
<title>n0</title>
<g id="a_node1"><a xlink:title="DNS 的不可複製：身分治理為什麼不能照搬域名模式">
<path fill="#fffdf7" stroke="#6f8f72" stroke-width="2" d="M747.82,-461.83C747.82,-461.83 553.06,-461.83 553.06,-461.83 547.06,-461.83 541.06,-455.83 541.06,-449.83 541.06,-449.83 541.06,-437.83 541.06,-437.83 541.06,-431.83 547.06,-425.83 553.06,-425.83 553.06,-425.83 747.82,-425.83 747.82,-425.83 753.82,-425.83 759.82,-431.83 759.82,-437.83 759.82,-437.83 759.82,-449.83 759.82,-449.83 759.82,-455.83 753.82,-461.83 747.82,-461.83"/>
<text xml:space="preserve" text-anchor="start" x="550.98" y="-441.83" font-family="Inter, ui-sans-serif, system-ui, -apple-system, BlinkMacSystemFont, Segoe UI, sans-serif" font-weight="bold" font-size="10.00" fill="#2f2a21">DNS 的不可複製：身分治理為什麼不能照搬域名模式</text>
</a>
</g>
</g>
<!-- n1 -->
<g id="node2" class="node">
<title>n1</title>
<g id="a_node2"><a xlink:title="FTLA 四層治理 主權密度匹配">
<path fill="#fffdf7" stroke="#6f8f72" stroke-width="2" d="M216.85,-73.83C216.85,-73.83 45.01,-73.83 45.01,-73.83 39.01,-73.83 33.01,-67.83 33.01,-61.83 33.01,-61.83 33.01,-49.83 33.01,-49.83 33.01,-43.83 39.01,-37.83 45.01,-37.83 45.01,-37.83 216.85,-37.83 216.85,-37.83 222.85,-37.83 228.85,-43.83 228.85,-49.83 228.85,-49.83 228.85,-61.83 228.85,-61.83 228.85,-67.83 222.85,-73.83 216.85,-73.83"/>
<text xml:space="preserve" text-anchor="start" x="73.7" y="-53.83" font-family="Inter, ui-sans-serif, system-ui, -apple-system, BlinkMacSystemFont, Segoe UI, sans-serif" font-weight="bold" font-size="10.00" fill="#2f2a21">FTLA 四層治理 主權密度匹配</text>
</a>
</g>
</g>
<!-- n1&#45;&gt;n0 -->
<g id="edge2" class="edge">
<title>n1&#45;&gt;n0</title>
<g id="a_edge2"><a xlink:title="support">
<path fill="none" stroke="#6f8f72" d="M177.65,-37.34C253.36,-10.01 406.22,30.86 505.06,-38.83 631.01,-127.64 647.71,-336.62 649.46,-414.18"/>
<polygon fill="#6f8f72" stroke="#6f8f72" points="645.96,-414 649.61,-423.94 652.96,-413.89 645.96,-414"/>
</a>
</g>
</g>
<!-- n3 -->
<g id="node4" class="node">
<title>n3</title>
<g id="a_node4"><a xlink:title="DNS 治理模式可遷移到身分">
<path fill="#fffdf7" stroke="#6f8f72" stroke-width="2" d="M479.38,-83.83C479.38,-83.83 307.54,-83.83 307.54,-83.83 301.54,-83.83 295.54,-77.83 295.54,-71.83 295.54,-71.83 295.54,-59.83 295.54,-59.83 295.54,-53.83 301.54,-47.83 307.54,-47.83 307.54,-47.83 479.38,-47.83 479.38,-47.83 485.38,-47.83 491.38,-53.83 491.38,-59.83 491.38,-59.83 491.38,-71.83 491.38,-71.83 491.38,-77.83 485.38,-83.83 479.38,-83.83"/>
<text xml:space="preserve" text-anchor="start" x="339.84" y="-63.83" font-family="Inter, ui-sans-serif, system-ui, -apple-system, BlinkMacSystemFont, Segoe UI, sans-serif" font-weight="bold" font-size="10.00" fill="#2f2a21">DNS 治理模式可遷移到身分</text>
</a>
</g>
</g>
<!-- n1&#45;&gt;n3 -->
<g id="edge11" class="edge">
<title>n1&#45;&gt;n3</title>
<g id="a_edge11"><a xlink:title="attack">
<path fill="none" stroke="#b85b57" d="M229.31,-59.57C247.06,-60.25 265.68,-60.97 283.74,-61.66"/>
<polygon fill="#b85b57" stroke="#b85b57" points="283.56,-65.16 293.68,-62.04 283.82,-58.16 283.56,-65.16"/>
</a>
</g>
</g>
<!-- n2 -->
<g id="node3" class="node">
<title>n2</title>
<g id="a_node3"><a xlink:title="FTLA 四層治理的合法部署，必須先通過四條邊界條件">
<path fill="#fffdf7" stroke="#6f8f72" stroke-width="2" d="M493.06,-137.83C493.06,-137.83 293.86,-137.83 293.86,-137.83 287.86,-137.83 281.86,-131.83 281.86,-125.83 281.86,-125.83 281.86,-113.83 281.86,-113.83 281.86,-107.83 287.86,-101.83 293.86,-101.83 293.86,-101.83 493.06,-101.83 493.06,-101.83 499.06,-101.83 505.06,-107.83 505.06,-113.83 505.06,-113.83 505.06,-125.83 505.06,-125.83 505.06,-131.83 499.06,-137.83 493.06,-137.83"/>
<text xml:space="preserve" text-anchor="start" x="291.78" y="-117.83" font-family="Inter, ui-sans-serif, system-ui, -apple-system, BlinkMacSystemFont, Segoe UI, sans-serif" font-weight="bold" font-size="10.00" fill="#2f2a21">FTLA 四層治理的合法部署，必須先通過四條邊界條件</text>
</a>
</g>
</g>
<!-- n2&#45;&gt;n0 -->
<g id="edge9" class="edge">
<title>n2&#45;&gt;n0</title>
<g id="a_edge9"><a xlink:title="support">
<path fill="none" stroke="#6f8f72" d="M492.18,-138.24C496.73,-140.76 501.06,-143.61 505.06,-146.83 592.7,-217.54 630.85,-354.57 643.86,-414.54"/>
<polygon fill="#6f8f72" stroke="#6f8f72" points="640.36,-414.9 645.83,-423.98 647.21,-413.48 640.36,-414.9"/>
</a>
</g>
</g>
<!-- n3&#45;&gt;n0 -->
<g id="edge12" class="edge">
<title>n3&#45;&gt;n0</title>
<g id="a_edge12"><a xlink:title="attack">
<path fill="none" stroke="#b85b57" d="M491.65,-83.5C496.42,-86.2 500.94,-89.29 505.06,-92.83 605.7,-179.34 637.35,-346.99 646.27,-414.56"/>
<polygon fill="#b85b57" stroke="#b85b57" points="642.75,-414.61 647.46,-424.1 649.7,-413.75 642.75,-414.61"/>
</a>
</g>
</g>
<!-- n4 -->
<g id="node5" class="node">
<title>n4</title>
<g id="a_node5"><a xlink:title="ITU 是國家中心的多邊治理範本，可直接借到身分領域">
<path fill="#fffdf7" stroke="#6f8f72" stroke-width="2" d="M492.51,-643.83C492.51,-643.83 294.41,-643.83 294.41,-643.83 288.41,-643.83 282.41,-637.83 282.41,-631.83 282.41,-631.83 282.41,-619.83 282.41,-619.83 282.41,-613.83 288.41,-607.83 294.41,-607.83 294.41,-607.83 492.51,-607.83 492.51,-607.83 498.51,-607.83 504.51,-613.83 504.51,-619.83 504.51,-619.83 504.51,-631.83 504.51,-631.83 504.51,-637.83 498.51,-643.83 492.51,-643.83"/>
<text xml:space="preserve" text-anchor="start" x="292.33" y="-623.83" font-family="Inter, ui-sans-serif, system-ui, -apple-system, BlinkMacSystemFont, Segoe UI, sans-serif" font-weight="bold" font-size="10.00" fill="#2f2a21">ITU 是國家中心的多邊治理範本，可直接借到身分領域</text>
</a>
</g>
</g>
<!-- n4&#45;&gt;n0 -->
<g id="edge14" class="edge">
<title>n4&#45;&gt;n0</title>
<g id="a_edge14"><a xlink:title="attack">
<path fill="none" stroke="#b85b57" d="M476.56,-607.38C486.5,-603.63 496.25,-599.15 505.06,-593.83 558.29,-561.7 605.18,-505.02 630.21,-471.3"/>
<polygon fill="#b85b57" stroke="#b85b57" points="633.01,-473.39 636.08,-463.25 627.36,-469.27 633.01,-473.39"/>
</a>
</g>
</g>
<!-- n5 -->
<g id="node6" class="node">
<title>n5</title>
<g id="a_node6"><a xlink:title="IETF 的 rough consensus and...">
<path fill="#fffdf7" stroke="#6f8f72" stroke-width="2" d="M479.38,-717.83C479.38,-717.83 307.54,-717.83 307.54,-717.83 301.54,-717.83 295.54,-711.83 295.54,-705.83 295.54,-705.83 295.54,-693.83 295.54,-693.83 295.54,-687.83 301.54,-681.83 307.54,-681.83 307.54,-681.83 479.38,-681.83 479.38,-681.83 485.38,-681.83 491.38,-687.83 491.38,-693.83 491.38,-693.83 491.38,-705.83 491.38,-705.83 491.38,-711.83 485.38,-717.83 479.38,-717.83"/>
<text xml:space="preserve" text-anchor="start" x="319.56" y="-697.83" font-family="Inter, ui-sans-serif, system-ui, -apple-system, BlinkMacSystemFont, Segoe UI, sans-serif" font-weight="bold" font-size="10.00" fill="#2f2a21">IETF 的 rough consensus and...</text>
</a>
</g>
</g>
<!-- n5&#45;&gt;n0 -->
<g id="edge17" class="edge">
<title>n5&#45;&gt;n0</title>
<g id="a_edge17"><a xlink:title="attack">
<path fill="none" stroke="#b85b57" d="M481.3,-681.4C489.75,-677.68 497.84,-673.2 505.06,-667.83 574.46,-616.16 619.51,-520.45 638.76,-472.61"/>
<polygon fill="#b85b57" stroke="#b85b57" points="641.94,-474.08 642.33,-463.49 635.43,-471.52 641.94,-474.08"/>
</a>
</g>
</g>
<!-- n6 -->
<g id="node7" class="node">
<title>n6</title>
<g id="a_node7"><a xlink:title="W3C ICANN 模式可借">
<path fill="#fffdf7" stroke="#6f8f72" stroke-width="2" d="M479.38,-791.83C479.38,-791.83 307.54,-791.83 307.54,-791.83 301.54,-791.83 295.54,-785.83 295.54,-779.83 295.54,-779.83 295.54,-767.83 295.54,-767.83 295.54,-761.83 301.54,-755.83 307.54,-755.83 307.54,-755.83 479.38,-755.83 479.38,-755.83 485.38,-755.83 491.38,-761.83 491.38,-767.83 491.38,-767.83 491.38,-779.83 491.38,-779.83 491.38,-785.83 485.38,-791.83 479.38,-791.83"/>
<text xml:space="preserve" text-anchor="start" x="347.07" y="-771.83" font-family="Inter, ui-sans-serif, system-ui, -apple-system, BlinkMacSystemFont, Segoe UI, sans-serif" font-weight="bold" font-size="10.00" fill="#2f2a21">W3C ICANN 模式可借</text>
</a>
</g>
</g>
<!-- n6&#45;&gt;n0 -->
<g id="edge20" class="edge">
<title>n6&#45;&gt;n0</title>
<g id="a_edge20"><a xlink:title="attack">
<path fill="none" stroke="#b85b57" d="M483.93,-755.35C491.53,-751.64 498.72,-747.18 505.06,-741.83 591.19,-669.19 630.07,-533.1 643.56,-473.3"/>
<polygon fill="#b85b57" stroke="#b85b57" points="646.98,-474.07 645.67,-463.55 640.13,-472.58 646.98,-474.07"/>
</a>
</g>
</g>
<!-- n7 -->
<g id="node8" class="node">
<title>n7</title>
<g id="a_node8"><a xlink:title="Formal Core">
<path fill="#e8f1e8" stroke="#c8b794" d="M479.38,-191.83C479.38,-191.83 307.54,-191.83 307.54,-191.83 301.54,-191.83 295.54,-185.83 295.54,-179.83 295.54,-179.83 295.54,-167.83 295.54,-167.83 295.54,-161.83 301.54,-155.83 307.54,-155.83 307.54,-155.83 479.38,-155.83 479.38,-155.83 485.38,-155.83 491.38,-161.83 491.38,-167.83 491.38,-167.83 491.38,-179.83 491.38,-179.83 491.38,-185.83 485.38,-191.83 479.38,-191.83"/>
<text xml:space="preserve" text-anchor="start" x="364.01" y="-171.83" font-family="Inter, ui-sans-serif, system-ui, -apple-system, BlinkMacSystemFont, Segoe UI, sans-serif" font-weight="bold" font-size="10.00" fill="#2f2a21">Formal Core</text>
</a>
</g>
</g>
<!-- n7&#45;&gt;n0 -->
<g id="edge1" class="edge">
<title>n7&#45;&gt;n0</title>
<g id="a_edge1"><a xlink:title="support">
<path fill="none" stroke="#6f8f72" d="M491.06,-192.24C495.98,-194.75 500.69,-197.6 505.06,-200.83 580.06,-256.33 623.29,-363.42 640.58,-414.86"/>
<polygon fill="#6f8f72" stroke="#6f8f72" points="637.16,-415.67 643.59,-424.1 643.82,-413.5 637.16,-415.67"/>
</a>
</g>
</g>
<!-- n8 -->
<g id="node9" class="node">
<title>n8</title>
<g id="a_node9"><a xlink:title="P1 P2 P3 P4 的成立條件">
<path fill="#e8f1e8" stroke="#c8b794" d="M479.38,-245.83C479.38,-245.83 307.54,-245.83 307.54,-245.83 301.54,-245.83 295.54,-239.83 295.54,-233.83 295.54,-233.83 295.54,-221.83 295.54,-221.83 295.54,-215.83 301.54,-209.83 307.54,-209.83 307.54,-209.83 479.38,-209.83 479.38,-209.83 485.38,-209.83 491.38,-215.83 491.38,-221.83 491.38,-221.83 491.38,-233.83 491.38,-233.83 491.38,-239.83 485.38,-245.83 479.38,-245.83"/>
<text xml:space="preserve" text-anchor="start" x="342.6" y="-225.83" font-family="Inter, ui-sans-serif, system-ui, -apple-system, BlinkMacSystemFont, Segoe UI, sans-serif" font-weight="bold" font-size="10.00" fill="#2f2a21">P1 P2 P3 P4 的成立條件</text>
</a>
</g>
</g>
<!-- n8&#45;&gt;n0 -->
<g id="edge3" class="edge">
<title>n8&#45;&gt;n0</title>
<g id="a_edge3"><a xlink:title="support">
<path fill="none" stroke="#6f8f72" d="M489.25,-246.22C494.78,-248.73 500.1,-251.59 505.06,-254.83 567.7,-295.78 614.01,-373.46 635.71,-415.36"/>
<polygon fill="#6f8f72" stroke="#6f8f72" points="632.49,-416.75 640.14,-424.09 638.74,-413.58 632.49,-416.75"/>
</a>
</g>
</g>
<!-- n9 -->
<g id="node10" class="node">
<title>n9</title>
<g id="a_node10"><a xlink:title="身分領域 P1 &#45;P4 全部失敗">
<path fill="#e8f1e8" stroke="#c8b794" d="M479.38,-299.83C479.38,-299.83 307.54,-299.83 307.54,-299.83 301.54,-299.83 295.54,-293.83 295.54,-287.83 295.54,-287.83 295.54,-275.83 295.54,-275.83 295.54,-269.83 301.54,-263.83 307.54,-263.83 307.54,-263.83 479.38,-263.83 479.38,-263.83 485.38,-263.83 491.38,-269.83 491.38,-275.83 491.38,-275.83 491.38,-287.83 491.38,-287.83 491.38,-293.83 485.38,-299.83 479.38,-299.83"/>
<text xml:space="preserve" text-anchor="start" x="342.06" y="-279.83" font-family="Inter, ui-sans-serif, system-ui, -apple-system, BlinkMacSystemFont, Segoe UI, sans-serif" font-weight="bold" font-size="10.00" fill="#2f2a21">身分領域 P1 &#45;P4 全部失敗</text>
</a>
</g>
</g>
<!-- n9&#45;&gt;n0 -->
<g id="edge4" class="edge">
<title>n9&#45;&gt;n0</title>
<g id="a_edge4"><a xlink:title="support">
<path fill="none" stroke="#6f8f72" d="M486.39,-300.32C492.86,-302.81 499.15,-305.64 505.06,-308.83 555.89,-336.31 602.31,-386.05 628.14,-416.87"/>
<polygon fill="#6f8f72" stroke="#6f8f72" points="625.15,-418.75 634.21,-424.24 630.55,-414.3 625.15,-418.75"/>
</a>
</g>
</g>
<!-- n10 -->
<g id="node11" class="node">
<title>n10</title>
<g id="a_node11"><a xlink:title="ITU IETF W3C ICANN 適用性矩陣">
<path fill="#e8f1e8" stroke="#c8b794" d="M479.38,-353.83C479.38,-353.83 307.54,-353.83 307.54,-353.83 301.54,-353.83 295.54,-347.83 295.54,-341.83 295.54,-341.83 295.54,-329.83 295.54,-329.83 295.54,-323.83 301.54,-317.83 307.54,-317.83 307.54,-317.83 479.38,-317.83 479.38,-317.83 485.38,-317.83 491.38,-323.83 491.38,-329.83 491.38,-329.83 491.38,-341.83 491.38,-341.83 491.38,-347.83 485.38,-353.83 479.38,-353.83"/>
<text xml:space="preserve" text-anchor="start" x="321.24" y="-333.83" font-family="Inter, ui-sans-serif, system-ui, -apple-system, BlinkMacSystemFont, Segoe UI, sans-serif" font-weight="bold" font-size="10.00" fill="#2f2a21">ITU IETF W3C ICANN 適用性矩陣</text>
</a>
</g>
</g>
<!-- n10&#45;&gt;n0 -->
<g id="edge5" class="edge">
<title>n10&#45;&gt;n0</title>
<g id="a_edge5"><a xlink:title="support">
<path fill="none" stroke="#6f8f72" d="M480.32,-354.33C488.78,-356.89 497.15,-359.72 505.06,-362.83 543.45,-377.96 584.19,-401.6 612.57,-419.44"/>
<polygon fill="#6f8f72" stroke="#6f8f72" points="610.48,-422.26 620.8,-424.67 614.24,-416.35 610.48,-422.26"/>
</a>
</g>
</g>
<!-- n11 -->
<g id="node12" class="node">
<title>n11</title>
<g id="a_node12"><a xlink:title="L₁..L₄ 主權密度分層">
<path fill="#e8f1e8" stroke="#c8b794" d="M479.38,-407.83C479.38,-407.83 307.54,-407.83 307.54,-407.83 301.54,-407.83 295.54,-401.83 295.54,-395.83 295.54,-395.83 295.54,-383.83 295.54,-383.83 295.54,-377.83 301.54,-371.83 307.54,-371.83 307.54,-371.83 479.38,-371.83 479.38,-371.83 485.38,-371.83 491.38,-377.83 491.38,-383.83 491.38,-383.83 491.38,-395.83 491.38,-395.83 491.38,-401.83 485.38,-407.83 479.38,-407.83"/>
<text xml:space="preserve" text-anchor="start" x="349.84" y="-387.83" font-family="Inter, ui-sans-serif, system-ui, -apple-system, BlinkMacSystemFont, Segoe UI, sans-serif" font-weight="bold" font-size="10.00" fill="#2f2a21">L₁..L₄ 主權密度分層</text>
</a>
</g>
</g>
<!-- n11&#45;&gt;n0 -->
<g id="edge6" class="edge">
<title>n11&#45;&gt;n0</title>
<g id="a_edge6"><a xlink:title="support">
<path fill="none" stroke="#6f8f72" d="M481.5,-408.27C503.94,-413.02 528.24,-418.17 551.21,-423.03"/>
<polygon fill="#6f8f72" stroke="#6f8f72" points="550.38,-426.43 560.88,-425.08 551.83,-419.58 550.38,-426.43"/>
</a>
</g>
</g>
<!-- n12 -->
<g id="node13" class="node">
<title>n12</title>
<g id="a_node13"><a xlink:title="4 個案例 4 個邊界條件">
<path fill="#e8f1e8" stroke="#c8b794" d="M479.38,-461.83C479.38,-461.83 307.54,-461.83 307.54,-461.83 301.54,-461.83 295.54,-455.83 295.54,-449.83 295.54,-449.83 295.54,-437.83 295.54,-437.83 295.54,-431.83 301.54,-425.83 307.54,-425.83 307.54,-425.83 479.38,-425.83 479.38,-425.83 485.38,-425.83 491.38,-431.83 491.38,-437.83 491.38,-437.83 491.38,-449.83 491.38,-449.83 491.38,-455.83 485.38,-461.83 479.38,-461.83"/>
<text xml:space="preserve" text-anchor="start" x="350.39" y="-441.83" font-family="Inter, ui-sans-serif, system-ui, -apple-system, BlinkMacSystemFont, Segoe UI, sans-serif" font-weight="bold" font-size="10.00" fill="#2f2a21">4 個案例 4 個邊界條件</text>
</a>
</g>
</g>
<!-- n12&#45;&gt;n0 -->
<g id="edge7" class="edge">
<title>n12&#45;&gt;n0</title>
<g id="a_edge7"><a xlink:title="support">
<path fill="none" stroke="#6f8f72" d="M491.58,-443.83C503.99,-443.83 516.81,-443.83 529.53,-443.83"/>
<polygon fill="#6f8f72" stroke="#6f8f72" points="529.15,-447.33 539.15,-443.83 529.15,-440.33 529.15,-447.33"/>
</a>
</g>
</g>
<!-- n13 -->
<g id="node14" class="node">
<title>n13</title>
<g id="a_node14"><a xlink:title="HM 五階段反事實鏈 DNS 前提移除 身分情境推導">
<path fill="#e8f1e8" stroke="#c8b794" d="M486.12,-515.83C486.12,-515.83 300.8,-515.83 300.8,-515.83 294.8,-515.83 288.8,-509.83 288.8,-503.83 288.8,-503.83 288.8,-491.83 288.8,-491.83 288.8,-485.83 294.8,-479.83 300.8,-479.83 300.8,-479.83 486.12,-479.83 486.12,-479.83 492.12,-479.83 498.12,-485.83 498.12,-491.83 498.12,-491.83 498.12,-503.83 498.12,-503.83 498.12,-509.83 492.12,-515.83 486.12,-515.83"/>
<text xml:space="preserve" text-anchor="start" x="298.72" y="-495.83" font-family="Inter, ui-sans-serif, system-ui, -apple-system, BlinkMacSystemFont, Segoe UI, sans-serif" font-weight="bold" font-size="10.00" fill="#2f2a21">HM 五階段反事實鏈 DNS 前提移除 身分情境推導</text>
</a>
</g>
</g>
<!-- n13&#45;&gt;n0 -->
<g id="edge8" class="edge">
<title>n13&#45;&gt;n0</title>
<g id="a_edge8"><a xlink:title="support">
<path fill="none" stroke="#6f8f72" d="M481.5,-479.4C503.94,-474.65 528.24,-469.5 551.21,-464.64"/>
<polygon fill="#6f8f72" stroke="#6f8f72" points="551.83,-468.08 560.88,-462.59 550.38,-461.24 551.83,-468.08"/>
</a>
</g>
</g>
<!-- n14 -->
<g id="node15" class="node">
<title>n14</title>
<g id="a_node15"><a xlink:title="Conclusion">
<path fill="#e8f1e8" stroke="#c8b794" d="M479.38,-569.83C479.38,-569.83 307.54,-569.83 307.54,-569.83 301.54,-569.83 295.54,-563.83 295.54,-557.83 295.54,-557.83 295.54,-545.83 295.54,-545.83 295.54,-539.83 301.54,-533.83 307.54,-533.83 307.54,-533.83 479.38,-533.83 479.38,-533.83 485.38,-533.83 491.38,-539.83 491.38,-545.83 491.38,-545.83 491.38,-557.83 491.38,-557.83 491.38,-563.83 485.38,-569.83 479.38,-569.83"/>
<text xml:space="preserve" text-anchor="start" x="366.24" y="-549.83" font-family="Inter, ui-sans-serif, system-ui, -apple-system, BlinkMacSystemFont, Segoe UI, sans-serif" font-weight="bold" font-size="10.00" fill="#2f2a21">Conclusion</text>
</a>
</g>
</g>
<!-- n14&#45;&gt;n0 -->
<g id="edge10" class="edge">
<title>n14&#45;&gt;n0</title>
<g id="a_edge10"><a xlink:title="support">
<path fill="none" stroke="#6f8f72" d="M480.32,-533.33C488.78,-530.78 497.15,-527.95 505.06,-524.83 543.45,-509.71 584.19,-486.07 612.57,-468.23"/>
<polygon fill="#6f8f72" stroke="#6f8f72" points="614.24,-471.31 620.8,-462.99 610.48,-465.41 614.24,-471.31"/>
</a>
</g>
</g>
<!-- n15 -->
<g id="node16" class="node">
<title>n15</title>
<g id="a_node16"><a xlink:title="Reply ITU 模式可借（國家中心多邊治理） ITU...">
<path fill="#e8f1e8" stroke="#c8b794" d="M225.25,-624.83C225.25,-624.83 36.61,-624.83 36.61,-624.83 30.61,-624.83 24.61,-618.83 24.61,-612.83 24.61,-612.83 24.61,-600.83 24.61,-600.83 24.61,-594.83 30.61,-588.83 36.61,-588.83 36.61,-588.83 225.25,-588.83 225.25,-588.83 231.25,-588.83 237.25,-594.83 237.25,-600.83 237.25,-600.83 237.25,-612.83 237.25,-612.83 237.25,-618.83 231.25,-624.83 225.25,-624.83"/>
<text xml:space="preserve" text-anchor="start" x="34.53" y="-604.83" font-family="Inter, ui-sans-serif, system-ui, -apple-system, BlinkMacSystemFont, Segoe UI, sans-serif" font-weight="bold" font-size="10.00" fill="#2f2a21">Reply ITU 模式可借（國家中心多邊治理） ITU...</text>
</a>
</g>
</g>
<!-- n15&#45;&gt;n0 -->
<g id="edge15" class="edge">
<title>n15&#45;&gt;n0</title>
<g id="a_edge15"><a xlink:title="support">
<path fill="none" stroke="#6f8f72" d="M237.62,-600.63C343.62,-594.14 492.88,-584.17 505.06,-578.83 558.83,-555.25 605.23,-502.88 630.08,-470.74"/>
<polygon fill="#6f8f72" stroke="#6f8f72" points="632.64,-473.16 635.88,-463.07 627.06,-468.93 632.64,-473.16"/>
</a>
</g>
</g>
<!-- n15&#45;&gt;n4 -->
<g id="edge13" class="edge">
<title>n15&#45;&gt;n4</title>
<g id="a_edge13"><a xlink:title="attack">
<path fill="none" stroke="#b85b57" d="M237.52,-614.53C248.41,-615.33 259.53,-616.14 270.58,-616.94"/>
<polygon fill="#b85b57" stroke="#b85b57" points="270.31,-620.43 280.54,-617.67 270.82,-613.45 270.31,-620.43"/>
</a>
</g>
</g>
<!-- n16 -->
<g id="node17" class="node">
<title>n16</title>
<g id="a_node17"><a xlink:title="Reply IETF 模式可借（工程師共識驅動） IETF...">
<path fill="#e8f1e8" stroke="#c8b794" d="M226.64,-698.83C226.64,-698.83 35.22,-698.83 35.22,-698.83 29.22,-698.83 23.22,-692.83 23.22,-686.83 23.22,-686.83 23.22,-674.83 23.22,-674.83 23.22,-668.83 29.22,-662.83 35.22,-662.83 35.22,-662.83 226.64,-662.83 226.64,-662.83 232.64,-662.83 238.64,-668.83 238.64,-674.83 238.64,-674.83 238.64,-686.83 238.64,-686.83 238.64,-692.83 232.64,-698.83 226.64,-698.83"/>
<text xml:space="preserve" text-anchor="start" x="33.14" y="-678.83" font-family="Inter, ui-sans-serif, system-ui, -apple-system, BlinkMacSystemFont, Segoe UI, sans-serif" font-weight="bold" font-size="10.00" fill="#2f2a21">Reply IETF 模式可借（工程師共識驅動） IETF...</text>
</a>
</g>
</g>
<!-- n16&#45;&gt;n0 -->
<g id="edge18" class="edge">
<title>n16&#45;&gt;n0</title>
<g id="a_edge18"><a xlink:title="support">
<path fill="none" stroke="#6f8f72" d="M238.85,-675.07C344.99,-669 493.56,-659.43 505.06,-652.83 576.28,-612 620.27,-520.04 638.97,-472.9"/>
<polygon fill="#6f8f72" stroke="#6f8f72" points="642.21,-474.21 642.54,-463.62 635.68,-471.7 642.21,-474.21"/>
</a>
</g>
</g>
<!-- n16&#45;&gt;n5 -->
<g id="edge16" class="edge">
<title>n16&#45;&gt;n5</title>
<g id="a_edge16"><a xlink:title="attack">
<path fill="none" stroke="#b85b57" d="M239.02,-688.64C253.9,-689.73 269.19,-690.84 284.09,-691.93"/>
<polygon fill="#b85b57" stroke="#b85b57" points="283.65,-695.41 293.88,-692.64 284.16,-688.43 283.65,-695.41"/>
</a>
</g>
</g>
<!-- n17 -->
<g id="node18" class="node">
<title>n17</title>
<g id="a_node18"><a xlink:title="Reply W3C ICANN 模式可借 即使 W3C ICANN...">
<path fill="#e8f1e8" stroke="#c8b794" d="M233.86,-772.83C233.86,-772.83 28,-772.83 28,-772.83 22,-772.83 16,-766.83 16,-760.83 16,-760.83 16,-748.83 16,-748.83 16,-742.83 22,-736.83 28,-736.83 28,-736.83 233.86,-736.83 233.86,-736.83 239.86,-736.83 245.86,-742.83 245.86,-748.83 245.86,-748.83 245.86,-760.83 245.86,-760.83 245.86,-766.83 239.86,-772.83 233.86,-772.83"/>
<text xml:space="preserve" text-anchor="start" x="25.92" y="-752.83" font-family="Inter, ui-sans-serif, system-ui, -apple-system, BlinkMacSystemFont, Segoe UI, sans-serif" font-weight="bold" font-size="10.00" fill="#2f2a21">Reply W3C ICANN 模式可借 即使 W3C ICANN...</text>
</a>
</g>
</g>
<!-- n17&#45;&gt;n0 -->
<g id="edge21" class="edge">
<title>n17&#45;&gt;n0</title>
<g id="a_edge21"><a xlink:title="support">
<path fill="none" stroke="#6f8f72" d="M246.2,-747.59C353.89,-740.56 499.62,-730.45 505.06,-726.83 595.07,-666.96 631.89,-532.88 644.2,-473.32"/>
<polygon fill="#6f8f72" stroke="#6f8f72" points="647.61,-474.09 646.11,-463.6 640.75,-472.74 647.61,-474.09"/>
</a>
</g>
</g>
<!-- n17&#45;&gt;n6 -->
<g id="edge19" class="edge">
<title>n17&#45;&gt;n6</title>
<g id="a_edge19"><a xlink:title="attack">
<path fill="none" stroke="#b85b57" d="M246.2,-763.17C258.76,-764.08 271.53,-765.01 284.01,-765.92"/>
<polygon fill="#b85b57" stroke="#b85b57" points="283.65,-769.41 293.88,-766.64 284.16,-762.43 283.65,-769.41"/>
</a>
</g>
</g>
</g>
</svg>
