<?xml version="1.0" encoding="UTF-8" standalone="no"?>
<!DOCTYPE svg PUBLIC "-//W3C//DTD SVG 1.1//EN"
 "http://www.w3.org/Graphics/SVG/1.1/DTD/svg11.dtd">
<!-- Generated by graphviz version 14.1.4 (0)
 -->
<!-- Title: Argument Map Pages: 1 -->
<svg class="argdown-summary-map" width="689pt" height="720pt"
 viewBox="0.00 0.00 689.00 720.00" xmlns="http://www.w3.org/2000/svg" xmlns:xlink="http://www.w3.org/1999/xlink">
<g id="graph0" class="graph" transform="scale(0.91742 0.91742) rotate(0) translate(4 780.81)">
<title>Argument Map</title>
<g id="clust1" class="cluster">
<title>cluster_1</title>
<polygon fill="#f3eadb" stroke="#d4c0a1" points="8,-20.81 8,-768.81 735.34,-768.81 735.34,-20.81 8,-20.81"/>
<text xml:space="preserve" text-anchor="start" x="332.99" y="-752.81" font-family="Inter, ui-sans-serif, system-ui, -apple-system, BlinkMacSystemFont, Segoe UI, sans-serif" font-size="12.00" fill="#2f2a21">Central Thesis</text>
</g>
<!-- n0 -->
<g id="node1" class="node">
<title>n0</title>
<g id="a_node1"><a xlink:title="為什麼民主社會早就接受過假名式參與">
<path fill="#fffdf7" stroke="#6f8f72" stroke-width="2" d="M715.34,-435.81C715.34,-435.81 543.5,-435.81 543.5,-435.81 537.5,-435.81 531.5,-429.81 531.5,-423.81 531.5,-423.81 531.5,-411.81 531.5,-411.81 531.5,-405.81 537.5,-399.81 543.5,-399.81 543.5,-399.81 715.34,-399.81 715.34,-399.81 721.34,-399.81 727.34,-405.81 727.34,-411.81 727.34,-411.81 727.34,-423.81 727.34,-423.81 727.34,-429.81 721.34,-435.81 715.34,-435.81"/>
<text xml:space="preserve" text-anchor="start" x="558.58" y="-415.81" font-family="Inter, ui-sans-serif, system-ui, -apple-system, BlinkMacSystemFont, Segoe UI, sans-serif" font-weight="bold" font-size="10.00" fill="#2f2a21">為什麼民主社會早就接受過假名式參與</text>
</a>
</g>
</g>
<!-- n1 -->
<g id="node2" class="node">
<title>n1</title>
<g id="a_node2"><a xlink:title="T Trigger Authority Remedy">
<path fill="#fffdf7" stroke="#6f8f72" stroke-width="2" d="M199.84,-74.81C199.84,-74.81 28,-74.81 28,-74.81 22,-74.81 16,-68.81 16,-62.81 16,-62.81 16,-50.81 16,-50.81 16,-44.81 22,-38.81 28,-38.81 28,-38.81 199.84,-38.81 199.84,-38.81 205.84,-38.81 211.84,-44.81 211.84,-50.81 211.84,-50.81 211.84,-62.81 211.84,-62.81 211.84,-68.81 205.84,-74.81 199.84,-74.81"/>
<text xml:space="preserve" text-anchor="start" x="47.8" y="-54.81" font-family="Inter, ui-sans-serif, system-ui, -apple-system, BlinkMacSystemFont, Segoe UI, sans-serif" font-weight="bold" font-size="10.00" fill="#2f2a21">T Trigger Authority Remedy</text>
</a>
</g>
</g>
<!-- n1&#45;&gt;n0 -->
<g id="edge2" class="edge">
<title>n1&#45;&gt;n0</title>
<g id="a_edge2"><a xlink:title="support">
<path fill="none" stroke="#6f8f72" d="M160.35,-38.41C237.19,-10.57 394.31,31.87 495.5,-39.81 611.65,-122.09 627.04,-314.31 628.54,-388.17"/>
<polygon fill="#6f8f72" stroke="#6f8f72" points="625.04,-387.9 628.66,-397.86 632.04,-387.81 625.04,-387.9"/>
</a>
</g>
</g>
<!-- n3 -->
<g id="node4" class="node">
<title>n3</title>
<g id="a_node4"><a xlink:title="假名 絕對匿名 實名才能問責">
<path fill="#fffdf7" stroke="#6f8f72" stroke-width="2" d="M457.59,-84.81C457.59,-84.81 285.75,-84.81 285.75,-84.81 279.75,-84.81 273.75,-78.81 273.75,-72.81 273.75,-72.81 273.75,-60.81 273.75,-60.81 273.75,-54.81 279.75,-48.81 285.75,-48.81 285.75,-48.81 457.59,-48.81 457.59,-48.81 463.59,-48.81 469.59,-54.81 469.59,-60.81 469.59,-60.81 469.59,-72.81 469.59,-72.81 469.59,-78.81 463.59,-84.81 457.59,-84.81"/>
<text xml:space="preserve" text-anchor="start" x="318.88" y="-64.81" font-family="Inter, ui-sans-serif, system-ui, -apple-system, BlinkMacSystemFont, Segoe UI, sans-serif" font-weight="bold" font-size="10.00" fill="#2f2a21">假名 絕對匿名 實名才能問責</text>
</a>
</g>
</g>
<!-- n1&#45;&gt;n3 -->
<g id="edge10" class="edge">
<title>n1&#45;&gt;n3</title>
<g id="a_edge10"><a xlink:title="attack">
<path fill="none" stroke="#b85b57" d="M212.34,-60.62C228.62,-61.26 245.61,-61.92 262.16,-62.57"/>
<polygon fill="#b85b57" stroke="#b85b57" points="261.88,-66.06 272.01,-62.95 262.16,-59.06 261.88,-66.06"/>
</a>
</g>
</g>
<!-- n2 -->
<g id="node3" class="node">
<title>n2</title>
<g id="a_node3"><a xlink:title="法律契約規格 5 段子規格（ 7.1 &#45; 7.5）">
<path fill="#fffdf7" stroke="#6f8f72" stroke-width="2" d="M457.59,-138.81C457.59,-138.81 285.75,-138.81 285.75,-138.81 279.75,-138.81 273.75,-132.81 273.75,-126.81 273.75,-126.81 273.75,-114.81 273.75,-114.81 273.75,-108.81 279.75,-102.81 285.75,-102.81 285.75,-102.81 457.59,-102.81 457.59,-102.81 463.59,-102.81 469.59,-108.81 469.59,-114.81 469.59,-114.81 469.59,-126.81 469.59,-126.81 469.59,-132.81 463.59,-138.81 457.59,-138.81"/>
<text xml:space="preserve" text-anchor="start" x="296.37" y="-118.81" font-family="Inter, ui-sans-serif, system-ui, -apple-system, BlinkMacSystemFont, Segoe UI, sans-serif" font-weight="bold" font-size="10.00" fill="#2f2a21">法律契約規格 5 段子規格（ 7.1 &#45; 7.5）</text>
</a>
</g>
</g>
<!-- n2&#45;&gt;n0 -->
<g id="edge8" class="edge">
<title>n2&#45;&gt;n0</title>
<g id="a_edge8"><a xlink:title="support">
<path fill="none" stroke="#6f8f72" d="M470,-133.37C479.16,-137.09 487.86,-141.82 495.5,-147.81 574.99,-210.12 610.23,-332.29 622.71,-388.38"/>
<polygon fill="#6f8f72" stroke="#6f8f72" points="619.28,-389.08 624.79,-398.13 626.13,-387.62 619.28,-389.08"/>
</a>
</g>
</g>
<!-- n3&#45;&gt;n0 -->
<g id="edge11" class="edge">
<title>n3&#45;&gt;n0</title>
<g id="a_edge11"><a xlink:title="attack">
<path fill="none" stroke="#b85b57" d="M469.82,-78.59C479.12,-82.45 487.9,-87.42 495.5,-93.81 587.98,-171.54 616.98,-323.79 625.32,-388.06"/>
<polygon fill="#b85b57" stroke="#b85b57" points="621.83,-388.33 626.51,-397.84 628.78,-387.49 621.83,-388.33"/>
</a>
</g>
</g>
<!-- n4 -->
<g id="node5" class="node">
<title>n4</title>
<g id="a_node5"><a xlink:title="對特定相對方保留假名 對至少一個有權主體保留事後可識別性">
<path fill="#fffdf7" stroke="#6f8f72" stroke-width="2" d="M483.5,-590.81C483.5,-590.81 259.84,-590.81 259.84,-590.81 253.84,-590.81 247.84,-584.81 247.84,-578.81 247.84,-578.81 247.84,-566.81 247.84,-566.81 247.84,-560.81 253.84,-554.81 259.84,-554.81 259.84,-554.81 483.5,-554.81 483.5,-554.81 489.5,-554.81 495.5,-560.81 495.5,-566.81 495.5,-566.81 495.5,-578.81 495.5,-578.81 495.5,-584.81 489.5,-590.81 483.5,-590.81"/>
<text xml:space="preserve" text-anchor="start" x="257.76" y="-570.81" font-family="Inter, ui-sans-serif, system-ui, -apple-system, BlinkMacSystemFont, Segoe UI, sans-serif" font-weight="bold" font-size="10.00" fill="#2f2a21">對特定相對方保留假名 對至少一個有權主體保留事後可識別性</text>
</a>
</g>
</g>
<!-- n4&#45;&gt;n0 -->
<g id="edge13" class="edge">
<title>n4&#45;&gt;n0</title>
<g id="a_edge13"><a xlink:title="attack">
<path fill="none" stroke="#b85b57" d="M464.18,-554.38C475.05,-550.63 485.74,-546.15 495.5,-540.81 540.55,-516.16 582.22,-472.9 606.49,-444.81"/>
<polygon fill="#b85b57" stroke="#b85b57" points="608.96,-447.3 612.76,-437.41 603.62,-442.78 608.96,-447.3"/>
</a>
</g>
</g>
<!-- n5 -->
<g id="node6" class="node">
<title>n5</title>
<g id="a_node6"><a xlink:title="制度設計 實證部署（紅線）">
<path fill="#fffdf7" stroke="#6f8f72" stroke-width="2" d="M457.59,-664.81C457.59,-664.81 285.75,-664.81 285.75,-664.81 279.75,-664.81 273.75,-658.81 273.75,-652.81 273.75,-652.81 273.75,-640.81 273.75,-640.81 273.75,-634.81 279.75,-628.81 285.75,-628.81 285.75,-628.81 457.59,-628.81 457.59,-628.81 463.59,-628.81 469.59,-634.81 469.59,-640.81 469.59,-640.81 469.59,-652.81 469.59,-652.81 469.59,-658.81 463.59,-664.81 457.59,-664.81"/>
<text xml:space="preserve" text-anchor="start" x="320.27" y="-644.81" font-family="Inter, ui-sans-serif, system-ui, -apple-system, BlinkMacSystemFont, Segoe UI, sans-serif" font-weight="bold" font-size="10.00" fill="#2f2a21">制度設計 實證部署（紅線）</text>
</a>
</g>
</g>
<!-- n5&#45;&gt;n0 -->
<g id="edge16" class="edge">
<title>n5&#45;&gt;n0</title>
<g id="a_edge16"><a xlink:title="attack">
<path fill="none" stroke="#b85b57" d="M469.9,-628.72C478.97,-624.93 487.68,-620.35 495.5,-614.81 556.84,-571.39 598.18,-490.03 616.93,-446.7"/>
<polygon fill="#b85b57" stroke="#b85b57" points="620.07,-448.26 620.73,-437.69 613.62,-445.55 620.07,-448.26"/>
</a>
</g>
</g>
<!-- n6 -->
<g id="node7" class="node">
<title>n6</title>
<g id="a_node7"><a xlink:title="形式第三方">
<path fill="#fffdf7" stroke="#6f8f72" stroke-width="2" d="M457.59,-738.81C457.59,-738.81 285.75,-738.81 285.75,-738.81 279.75,-738.81 273.75,-732.81 273.75,-726.81 273.75,-726.81 273.75,-714.81 273.75,-714.81 273.75,-708.81 279.75,-702.81 285.75,-702.81 285.75,-702.81 457.59,-702.81 457.59,-702.81 463.59,-702.81 469.59,-708.81 469.59,-714.81 469.59,-714.81 469.59,-726.81 469.59,-726.81 469.59,-732.81 463.59,-738.81 457.59,-738.81"/>
<text xml:space="preserve" text-anchor="start" x="350.83" y="-718.81" font-family="Inter, ui-sans-serif, system-ui, -apple-system, BlinkMacSystemFont, Segoe UI, sans-serif" font-weight="bold" font-size="10.00" fill="#2f2a21">形式第三方</text>
</a>
</g>
</g>
<!-- n6&#45;&gt;n0 -->
<g id="edge19" class="edge">
<title>n6&#45;&gt;n0</title>
<g id="a_edge19"><a xlink:title="attack">
<path fill="none" stroke="#b85b57" d="M469.8,-704.21C479.05,-700.14 487.82,-695.08 495.5,-688.81 573.78,-624.89 609.55,-503.48 622.44,-447.48"/>
<polygon fill="#b85b57" stroke="#b85b57" points="625.85,-448.25 624.59,-437.73 619.01,-446.74 625.85,-448.25"/>
</a>
</g>
</g>
<!-- n7 -->
<g id="node8" class="node">
<title>n7</title>
<g id="a_node8"><a xlink:title="Formal Core">
<path fill="#e8f1e8" stroke="#c8b794" d="M457.59,-192.81C457.59,-192.81 285.75,-192.81 285.75,-192.81 279.75,-192.81 273.75,-186.81 273.75,-180.81 273.75,-180.81 273.75,-168.81 273.75,-168.81 273.75,-162.81 279.75,-156.81 285.75,-156.81 285.75,-156.81 457.59,-156.81 457.59,-156.81 463.59,-156.81 469.59,-162.81 469.59,-168.81 469.59,-168.81 469.59,-180.81 469.59,-180.81 469.59,-186.81 463.59,-192.81 457.59,-192.81"/>
<text xml:space="preserve" text-anchor="start" x="342.22" y="-172.81" font-family="Inter, ui-sans-serif, system-ui, -apple-system, BlinkMacSystemFont, Segoe UI, sans-serif" font-weight="bold" font-size="10.00" fill="#2f2a21">Formal Core</text>
</a>
</g>
</g>
<!-- n7&#45;&gt;n0 -->
<g id="edge1" class="edge">
<title>n7&#45;&gt;n0</title>
<g id="a_edge1"><a xlink:title="support">
<path fill="none" stroke="#6f8f72" d="M470.06,-188.36C479.1,-191.9 487.76,-196.31 495.5,-201.81 562.32,-249.29 602.25,-341.93 619.06,-388.95"/>
<polygon fill="#6f8f72" stroke="#6f8f72" points="615.67,-389.86 622.25,-398.17 622.29,-387.57 615.67,-389.86"/>
</a>
</g>
</g>
<!-- n8 -->
<g id="node9" class="node">
<title>n8</title>
<g id="a_node9"><a xlink:title="五個獨立法律場域的歷史沉澱">
<path fill="#e8f1e8" stroke="#c8b794" d="M457.59,-246.81C457.59,-246.81 285.75,-246.81 285.75,-246.81 279.75,-246.81 273.75,-240.81 273.75,-234.81 273.75,-234.81 273.75,-222.81 273.75,-222.81 273.75,-216.81 279.75,-210.81 285.75,-210.81 285.75,-210.81 457.59,-210.81 457.59,-210.81 463.59,-210.81 469.59,-216.81 469.59,-222.81 469.59,-222.81 469.59,-234.81 469.59,-234.81 469.59,-240.81 463.59,-246.81 457.59,-246.81"/>
<text xml:space="preserve" text-anchor="start" x="317.49" y="-226.81" font-family="Inter, ui-sans-serif, system-ui, -apple-system, BlinkMacSystemFont, Segoe UI, sans-serif" font-weight="bold" font-size="10.00" fill="#2f2a21">五個獨立法律場域的歷史沉澱</text>
</a>
</g>
</g>
<!-- n8&#45;&gt;n0 -->
<g id="edge3" class="edge">
<title>n8&#45;&gt;n0</title>
<g id="a_edge3"><a xlink:title="support">
<path fill="none" stroke="#6f8f72" d="M469.96,-243.7C478.92,-246.98 487.59,-250.96 495.5,-255.81 549.93,-289.18 592.2,-352.93 613.4,-389.73"/>
<polygon fill="#6f8f72" stroke="#6f8f72" points="610.12,-391.03 618.08,-398.02 616.22,-387.59 610.12,-391.03"/>
</a>
</g>
</g>
<!-- n9 -->
<g id="node10" class="node">
<title>n9</title>
<g id="a_node10"><a xlink:title="合取必要條件結構">
<path fill="#e8f1e8" stroke="#c8b794" d="M457.59,-300.81C457.59,-300.81 285.75,-300.81 285.75,-300.81 279.75,-300.81 273.75,-294.81 273.75,-288.81 273.75,-288.81 273.75,-276.81 273.75,-276.81 273.75,-270.81 279.75,-264.81 285.75,-264.81 285.75,-264.81 457.59,-264.81 457.59,-264.81 463.59,-264.81 469.59,-270.81 469.59,-276.81 469.59,-276.81 469.59,-288.81 469.59,-288.81 469.59,-294.81 463.59,-300.81 457.59,-300.81"/>
<text xml:space="preserve" text-anchor="start" x="338.33" y="-280.81" font-family="Inter, ui-sans-serif, system-ui, -apple-system, BlinkMacSystemFont, Segoe UI, sans-serif" font-weight="bold" font-size="10.00" fill="#2f2a21">合取必要條件結構</text>
</a>
</g>
</g>
<!-- n9&#45;&gt;n0 -->
<g id="edge4" class="edge">
<title>n9&#45;&gt;n0</title>
<g id="a_edge4"><a xlink:title="support">
<path fill="none" stroke="#6f8f72" d="M470,-299.73C478.81,-302.59 487.44,-305.92 495.5,-309.81 537.85,-330.23 578.6,-366.63 603.56,-391.48"/>
<polygon fill="#6f8f72" stroke="#6f8f72" points="600.82,-393.69 610.34,-398.34 605.81,-388.77 600.82,-393.69"/>
</a>
</g>
</g>
<!-- n10 -->
<g id="node11" class="node">
<title>n10</title>
<g id="a_node11"><a xlink:title="假名式 civic proof 的可移植性">
<path fill="#e8f1e8" stroke="#c8b794" d="M457.59,-354.81C457.59,-354.81 285.75,-354.81 285.75,-354.81 279.75,-354.81 273.75,-348.81 273.75,-342.81 273.75,-342.81 273.75,-330.81 273.75,-330.81 273.75,-324.81 279.75,-318.81 285.75,-318.81 285.75,-318.81 457.59,-318.81 457.59,-318.81 463.59,-318.81 469.59,-324.81 469.59,-330.81 469.59,-330.81 469.59,-342.81 469.59,-342.81 469.59,-348.81 463.59,-354.81 457.59,-354.81"/>
<text xml:space="preserve" text-anchor="start" x="310.27" y="-334.81" font-family="Inter, ui-sans-serif, system-ui, -apple-system, BlinkMacSystemFont, Segoe UI, sans-serif" font-weight="bold" font-size="10.00" fill="#2f2a21">假名式 civic proof 的可移植性</text>
</a>
</g>
</g>
<!-- n10&#45;&gt;n0 -->
<g id="edge5" class="edge">
<title>n10&#45;&gt;n0</title>
<g id="a_edge5"><a xlink:title="support">
<path fill="none" stroke="#6f8f72" d="M464.68,-355.24C475.14,-357.87 485.6,-360.73 495.5,-363.81 523.16,-372.4 553.12,-384.33 577.58,-394.79"/>
<polygon fill="#6f8f72" stroke="#6f8f72" points="576.1,-397.96 586.67,-398.72 578.88,-391.54 576.1,-397.96"/>
</a>
</g>
</g>
<!-- n11 -->
<g id="node12" class="node">
<title>n11</title>
<g id="a_node12"><a xlink:title="工程&#45;法律對接的契約初稿">
<path fill="#e8f1e8" stroke="#c8b794" d="M457.59,-408.81C457.59,-408.81 285.75,-408.81 285.75,-408.81 279.75,-408.81 273.75,-402.81 273.75,-396.81 273.75,-396.81 273.75,-384.81 273.75,-384.81 273.75,-378.81 279.75,-372.81 285.75,-372.81 285.75,-372.81 457.59,-372.81 457.59,-372.81 463.59,-372.81 469.59,-378.81 469.59,-384.81 469.59,-384.81 469.59,-396.81 469.59,-396.81 469.59,-402.81 463.59,-408.81 457.59,-408.81"/>
<text xml:space="preserve" text-anchor="start" x="324.16" y="-388.81" font-family="Inter, ui-sans-serif, system-ui, -apple-system, BlinkMacSystemFont, Segoe UI, sans-serif" font-weight="bold" font-size="10.00" fill="#2f2a21">工程&#45;法律對接的契約初稿</text>
</a>
</g>
</g>
<!-- n11&#45;&gt;n0 -->
<g id="edge6" class="edge">
<title>n11&#45;&gt;n0</title>
<g id="a_edge6"><a xlink:title="support">
<path fill="none" stroke="#6f8f72" d="M470.09,-401.09C486.38,-402.81 503.36,-404.61 519.91,-406.35"/>
<polygon fill="#6f8f72" stroke="#6f8f72" points="519.46,-409.83 529.77,-407.39 520.19,-402.86 519.46,-409.83"/>
</a>
</g>
</g>
<!-- n12 -->
<g id="node13" class="node">
<title>n12</title>
<g id="a_node13"><a xlink:title="移植強度評估">
<path fill="#e8f1e8" stroke="#c8b794" d="M457.59,-462.81C457.59,-462.81 285.75,-462.81 285.75,-462.81 279.75,-462.81 273.75,-456.81 273.75,-450.81 273.75,-450.81 273.75,-438.81 273.75,-438.81 273.75,-432.81 279.75,-426.81 285.75,-426.81 285.75,-426.81 457.59,-426.81 457.59,-426.81 463.59,-426.81 469.59,-432.81 469.59,-438.81 469.59,-438.81 469.59,-450.81 469.59,-450.81 469.59,-456.81 463.59,-462.81 457.59,-462.81"/>
<text xml:space="preserve" text-anchor="start" x="346.67" y="-442.81" font-family="Inter, ui-sans-serif, system-ui, -apple-system, BlinkMacSystemFont, Segoe UI, sans-serif" font-weight="bold" font-size="10.00" fill="#2f2a21">移植強度評估</text>
</a>
</g>
</g>
<!-- n12&#45;&gt;n0 -->
<g id="edge7" class="edge">
<title>n12&#45;&gt;n0</title>
<g id="a_edge7"><a xlink:title="support">
<path fill="none" stroke="#6f8f72" d="M470.09,-434.53C486.38,-432.81 503.36,-431.01 519.91,-429.27"/>
<polygon fill="#6f8f72" stroke="#6f8f72" points="520.19,-432.76 529.77,-428.22 519.46,-425.79 520.19,-432.76"/>
</a>
</g>
</g>
<!-- n13 -->
<g id="node14" class="node">
<title>n13</title>
<g id="a_node14"><a xlink:title="Conclusion">
<path fill="#e8f1e8" stroke="#c8b794" d="M457.59,-516.81C457.59,-516.81 285.75,-516.81 285.75,-516.81 279.75,-516.81 273.75,-510.81 273.75,-504.81 273.75,-504.81 273.75,-492.81 273.75,-492.81 273.75,-486.81 279.75,-480.81 285.75,-480.81 285.75,-480.81 457.59,-480.81 457.59,-480.81 463.59,-480.81 469.59,-486.81 469.59,-492.81 469.59,-492.81 469.59,-504.81 469.59,-504.81 469.59,-510.81 463.59,-516.81 457.59,-516.81"/>
<text xml:space="preserve" text-anchor="start" x="344.45" y="-496.81" font-family="Inter, ui-sans-serif, system-ui, -apple-system, BlinkMacSystemFont, Segoe UI, sans-serif" font-weight="bold" font-size="10.00" fill="#2f2a21">Conclusion</text>
</a>
</g>
</g>
<!-- n13&#45;&gt;n0 -->
<g id="edge9" class="edge">
<title>n13&#45;&gt;n0</title>
<g id="a_edge9"><a xlink:title="support">
<path fill="none" stroke="#6f8f72" d="M464.68,-480.37C475.14,-477.75 485.6,-474.89 495.5,-471.81 523.16,-463.22 553.12,-451.29 577.58,-440.83"/>
<polygon fill="#6f8f72" stroke="#6f8f72" points="578.88,-444.08 586.67,-436.9 576.1,-437.66 578.88,-444.08"/>
</a>
</g>
</g>
<!-- n14 -->
<g id="node15" class="node">
<title>n14</title>
<g id="a_node15"><a xlink:title="Reply 假名 絕對匿名（紅線）">
<path fill="#e8f1e8" stroke="#c8b794" d="M199.84,-571.81C199.84,-571.81 28,-571.81 28,-571.81 22,-571.81 16,-565.81 16,-559.81 16,-559.81 16,-547.81 16,-547.81 16,-541.81 22,-535.81 28,-535.81 28,-535.81 199.84,-535.81 199.84,-535.81 205.84,-535.81 211.84,-541.81 211.84,-547.81 211.84,-547.81 211.84,-559.81 211.84,-559.81 211.84,-565.81 205.84,-571.81 199.84,-571.81"/>
<text xml:space="preserve" text-anchor="start" x="55.85" y="-551.81" font-family="Inter, ui-sans-serif, system-ui, -apple-system, BlinkMacSystemFont, Segoe UI, sans-serif" font-weight="bold" font-size="10.00" fill="#2f2a21">Reply 假名 絕對匿名（紅線）</text>
</a>
</g>
</g>
<!-- n14&#45;&gt;n0 -->
<g id="edge14" class="edge">
<title>n14&#45;&gt;n0</title>
<g id="a_edge14"><a xlink:title="support">
<path fill="none" stroke="#6f8f72" d="M212.21,-547.37C322.79,-539.94 488.95,-528.41 495.5,-525.81 539.95,-508.17 581.01,-470.07 605.39,-444.18"/>
<polygon fill="#6f8f72" stroke="#6f8f72" points="607.78,-446.75 611.98,-437.03 602.63,-442.01 607.78,-446.75"/>
</a>
</g>
</g>
<!-- n14&#45;&gt;n4 -->
<g id="edge12" class="edge">
<title>n14&#45;&gt;n4</title>
<g id="a_edge12"><a xlink:title="attack">
<path fill="none" stroke="#b85b57" d="M212.34,-561.05C220.21,-561.63 228.24,-562.23 236.3,-562.83"/>
<polygon fill="#b85b57" stroke="#b85b57" points="235.97,-566.31 246.21,-563.56 236.49,-559.33 235.97,-566.31"/>
</a>
</g>
</g>
<!-- n15 -->
<g id="node16" class="node">
<title>n15</title>
<g id="a_node16"><a xlink:title="Reply 制度設計 實證部署（紅線）">
<path fill="#e8f1e8" stroke="#c8b794" d="M199.84,-645.81C199.84,-645.81 28,-645.81 28,-645.81 22,-645.81 16,-639.81 16,-633.81 16,-633.81 16,-621.81 16,-621.81 16,-615.81 22,-609.81 28,-609.81 28,-609.81 199.84,-609.81 199.84,-609.81 205.84,-609.81 211.84,-615.81 211.84,-621.81 211.84,-621.81 211.84,-633.81 211.84,-633.81 211.84,-639.81 205.84,-645.81 199.84,-645.81"/>
<text xml:space="preserve" text-anchor="start" x="47.52" y="-625.81" font-family="Inter, ui-sans-serif, system-ui, -apple-system, BlinkMacSystemFont, Segoe UI, sans-serif" font-weight="bold" font-size="10.00" fill="#2f2a21">Reply 制度設計 實證部署（紅線）</text>
</a>
</g>
</g>
<!-- n15&#45;&gt;n0 -->
<g id="edge17" class="edge">
<title>n15&#45;&gt;n0</title>
<g id="a_edge17"><a xlink:title="support">
<path fill="none" stroke="#6f8f72" d="M211.85,-621.67C322.56,-614.52 489.33,-603.24 495.5,-599.81 557.52,-565.38 598.36,-488.44 616.92,-446.46"/>
<polygon fill="#6f8f72" stroke="#6f8f72" points="620.04,-448.06 620.76,-437.49 613.6,-445.31 620.04,-448.06"/>
</a>
</g>
</g>
<!-- n15&#45;&gt;n5 -->
<g id="edge15" class="edge">
<title>n15&#45;&gt;n5</title>
<g id="a_edge15"><a xlink:title="attack">
<path fill="none" stroke="#b85b57" d="M212.34,-635.05C228.62,-636.26 245.61,-637.52 262.16,-638.75"/>
<polygon fill="#b85b57" stroke="#b85b57" points="261.78,-642.23 272.01,-639.48 262.3,-635.25 261.78,-642.23"/>
</a>
</g>
</g>
<!-- n16 -->
<g id="node17" class="node">
<title>n16</title>
<g id="a_node17"><a xlink:title="Reply 啟封權力 純技術問題">
<path fill="#e8f1e8" stroke="#c8b794" d="M199.84,-719.81C199.84,-719.81 28,-719.81 28,-719.81 22,-719.81 16,-713.81 16,-707.81 16,-707.81 16,-695.81 16,-695.81 16,-689.81 22,-683.81 28,-683.81 28,-683.81 199.84,-683.81 199.84,-683.81 205.84,-683.81 211.84,-689.81 211.84,-695.81 211.84,-695.81 211.84,-707.81 211.84,-707.81 211.84,-713.81 205.84,-719.81 199.84,-719.81"/>
<text xml:space="preserve" text-anchor="start" x="60.02" y="-699.81" font-family="Inter, ui-sans-serif, system-ui, -apple-system, BlinkMacSystemFont, Segoe UI, sans-serif" font-weight="bold" font-size="10.00" fill="#2f2a21">Reply 啟封權力 純技術問題</text>
</a>
</g>
</g>
<!-- n16&#45;&gt;n0 -->
<g id="edge20" class="edge">
<title>n16&#45;&gt;n0</title>
<g id="a_edge20"><a xlink:title="support">
<path fill="none" stroke="#6f8f72" d="M211.95,-695.83C322.75,-688.82 489.61,-677.69 495.5,-673.81 576.14,-620.67 610.72,-502.31 622.87,-447.16"/>
<polygon fill="#6f8f72" stroke="#6f8f72" points="626.25,-448.07 624.88,-437.57 619.4,-446.64 626.25,-448.07"/>
</a>
</g>
</g>
<!-- n16&#45;&gt;n6 -->
<g id="edge18" class="edge">
<title>n16&#45;&gt;n6</title>
<g id="a_edge18"><a xlink:title="attack">
<path fill="none" stroke="#b85b57" d="M212.34,-709.05C228.62,-710.26 245.61,-711.52 262.16,-712.75"/>
<polygon fill="#b85b57" stroke="#b85b57" points="261.78,-716.23 272.01,-713.48 262.3,-709.25 261.78,-716.23"/>
</a>
</g>
</g>
</g>
</svg>
