<?xml version="1.0" encoding="UTF-8" standalone="no"?>
<!DOCTYPE svg PUBLIC "-//W3C//DTD SVG 1.1//EN"
 "http://www.w3.org/Graphics/SVG/1.1/DTD/svg11.dtd">
<!-- Generated by graphviz version 14.1.4 (0)
 -->
<!-- Title: Argument Map Pages: 1 -->
<svg class="argdown-summary-map" width="720pt" height="683pt"
 viewBox="0.00 0.00 720.00 683.00" xmlns="http://www.w3.org/2000/svg" xmlns:xlink="http://www.w3.org/1999/xlink">
<g id="graph0" class="graph" transform="scale(0.867056 0.867056) rotate(0) translate(4 784.2)">
<title>Argument Map</title>
<g id="clust1" class="cluster">
<title>cluster_1</title>
<polygon fill="#f3eadb" stroke="#d4c0a1" points="8,-24.2 8,-772.2 814.4,-772.2 814.4,-24.2 8,-24.2"/>
<text xml:space="preserve" text-anchor="start" x="372.52" y="-756.2" font-family="Inter, ui-sans-serif, system-ui, -apple-system, BlinkMacSystemFont, Segoe UI, sans-serif" font-size="12.00" fill="#2f2a21">Central Thesis</text>
</g>
<!-- n0 -->
<g id="node1" class="node">
<title>n0</title>
<g id="a_node1"><a xlink:title="可問責不以實名為前提">
<path fill="#fffdf7" stroke="#6f8f72" stroke-width="2" d="M794.4,-439.2C794.4,-439.2 622.56,-439.2 622.56,-439.2 616.56,-439.2 610.56,-433.2 610.56,-427.2 610.56,-427.2 610.56,-415.2 610.56,-415.2 610.56,-409.2 616.56,-403.2 622.56,-403.2 622.56,-403.2 794.4,-403.2 794.4,-403.2 800.4,-403.2 806.4,-409.2 806.4,-415.2 806.4,-415.2 806.4,-427.2 806.4,-427.2 806.4,-433.2 800.4,-439.2 794.4,-439.2"/>
<text xml:space="preserve" text-anchor="start" x="666.8" y="-419.2" font-family="Inter, ui-sans-serif, system-ui, -apple-system, BlinkMacSystemFont, Segoe UI, sans-serif" font-weight="bold" font-size="10.00" fill="#2f2a21">可問責不以實名為前提</text>
</a>
</g>
</g>
<!-- n1 -->
<g id="node2" class="node">
<title>n1</title>
<g id="a_node2"><a xlink:title="假名識別 條件性啟封">
<path fill="#fffdf7" stroke="#6f8f72" stroke-width="2" d="M249.09,-78.2C249.09,-78.2 77.25,-78.2 77.25,-78.2 71.25,-78.2 65.25,-72.2 65.25,-66.2 65.25,-66.2 65.25,-54.2 65.25,-54.2 65.25,-48.2 71.25,-42.2 77.25,-42.2 77.25,-42.2 249.09,-42.2 249.09,-42.2 255.09,-42.2 261.09,-48.2 261.09,-54.2 261.09,-54.2 261.09,-66.2 261.09,-66.2 261.09,-72.2 255.09,-78.2 249.09,-78.2"/>
<text xml:space="preserve" text-anchor="start" x="124.27" y="-58.2" font-family="Inter, ui-sans-serif, system-ui, -apple-system, BlinkMacSystemFont, Segoe UI, sans-serif" font-weight="bold" font-size="10.00" fill="#2f2a21">假名識別 條件性啟封</text>
</a>
</g>
</g>
<!-- n1&#45;&gt;n0 -->
<g id="edge2" class="edge">
<title>n1&#45;&gt;n0</title>
<g id="a_edge2"><a xlink:title="support">
<path fill="none" stroke="#6f8f72" d="M209.89,-41.78C291.49,-12.18 464,35.11 574.56,-43.2 690.7,-125.48 706.1,-317.71 707.6,-391.57"/>
<polygon fill="#6f8f72" stroke="#6f8f72" points="704.09,-391.29 707.72,-401.25 711.09,-391.21 704.09,-391.29"/>
</a>
</g>
</g>
<!-- n3 -->
<g id="node4" class="node">
<title>n3</title>
<g id="a_node4"><a xlink:title="實名識別">
<path fill="#fffdf7" stroke="#6f8f72" stroke-width="2" d="M546.37,-88.2C546.37,-88.2 374.53,-88.2 374.53,-88.2 368.53,-88.2 362.53,-82.2 362.53,-76.2 362.53,-76.2 362.53,-64.2 362.53,-64.2 362.53,-58.2 368.53,-52.2 374.53,-52.2 374.53,-52.2 546.37,-52.2 546.37,-52.2 552.37,-52.2 558.37,-58.2 558.37,-64.2 558.37,-64.2 558.37,-76.2 558.37,-76.2 558.37,-82.2 552.37,-88.2 546.37,-88.2"/>
<text xml:space="preserve" text-anchor="start" x="443.78" y="-68.2" font-family="Inter, ui-sans-serif, system-ui, -apple-system, BlinkMacSystemFont, Segoe UI, sans-serif" font-weight="bold" font-size="10.00" fill="#2f2a21">實名識別</text>
</a>
</g>
</g>
<!-- n1&#45;&gt;n3 -->
<g id="edge10" class="edge">
<title>n1&#45;&gt;n3</title>
<g id="a_edge10"><a xlink:title="attack">
<path fill="none" stroke="#b85b57" d="M261.27,-63.49C289.96,-64.46 321.55,-65.53 350.91,-66.53"/>
<polygon fill="#b85b57" stroke="#b85b57" points="350.42,-70.01 360.53,-66.85 350.66,-63.02 350.42,-70.01"/>
</a>
</g>
</g>
<!-- n2 -->
<g id="node3" class="node">
<title>n2</title>
<g id="a_node3"><a xlink:title="任何例外於假名性的合法性，必須先通過六道程序防火牆">
<path fill="#fffdf7" stroke="#6f8f72" stroke-width="2" d="M562.56,-142.2C562.56,-142.2 358.34,-142.2 358.34,-142.2 352.34,-142.2 346.34,-136.2 346.34,-130.2 346.34,-130.2 346.34,-118.2 346.34,-118.2 346.34,-112.2 352.34,-106.2 358.34,-106.2 358.34,-106.2 562.56,-106.2 562.56,-106.2 568.56,-106.2 574.56,-112.2 574.56,-118.2 574.56,-118.2 574.56,-130.2 574.56,-130.2 574.56,-136.2 568.56,-142.2 562.56,-142.2"/>
<text xml:space="preserve" text-anchor="start" x="356.26" y="-122.2" font-family="Inter, ui-sans-serif, system-ui, -apple-system, BlinkMacSystemFont, Segoe UI, sans-serif" font-weight="bold" font-size="10.00" fill="#2f2a21">任何例外於假名性的合法性，必須先通過六道程序防火牆</text>
</a>
</g>
</g>
<!-- n2&#45;&gt;n0 -->
<g id="edge8" class="edge">
<title>n2&#45;&gt;n0</title>
<g id="a_edge8"><a xlink:title="support">
<path fill="none" stroke="#6f8f72" d="M561.63,-142.64C566.19,-145.15 570.53,-147.99 574.56,-151.2 653.29,-214.07 688.83,-335.44 701.58,-391.5"/>
<polygon fill="#6f8f72" stroke="#6f8f72" points="698.15,-392.23 703.7,-401.25 704.99,-390.74 698.15,-392.23"/>
</a>
</g>
</g>
<!-- n3&#45;&gt;n0 -->
<g id="edge11" class="edge">
<title>n3&#45;&gt;n0</title>
<g id="a_edge11"><a xlink:title="attack">
<path fill="none" stroke="#b85b57" d="M558.69,-86.54C564.37,-89.54 569.72,-93.07 574.56,-97.2 666.33,-175.76 695.72,-327.55 704.27,-391.57"/>
<polygon fill="#b85b57" stroke="#b85b57" points="700.78,-391.83 705.49,-401.31 707.72,-390.96 700.78,-391.83"/>
</a>
</g>
</g>
<!-- n4 -->
<g id="node5" class="node">
<title>n4</title>
<g id="a_node5"><a xlink:title="實名能攔截犯罪資金">
<path fill="#fffdf7" stroke="#6f8f72" stroke-width="2" d="M546.37,-594.2C546.37,-594.2 374.53,-594.2 374.53,-594.2 368.53,-594.2 362.53,-588.2 362.53,-582.2 362.53,-582.2 362.53,-570.2 362.53,-570.2 362.53,-564.2 368.53,-558.2 374.53,-558.2 374.53,-558.2 546.37,-558.2 546.37,-558.2 552.37,-558.2 558.37,-564.2 558.37,-570.2 558.37,-570.2 558.37,-582.2 558.37,-582.2 558.37,-588.2 552.37,-594.2 546.37,-594.2"/>
<text xml:space="preserve" text-anchor="start" x="422.94" y="-574.2" font-family="Inter, ui-sans-serif, system-ui, -apple-system, BlinkMacSystemFont, Segoe UI, sans-serif" font-weight="bold" font-size="10.00" fill="#2f2a21">實名能攔截犯罪資金</text>
</a>
</g>
</g>
<!-- n4&#45;&gt;n0 -->
<g id="edge13" class="edge">
<title>n4&#45;&gt;n0</title>
<g id="a_edge13"><a xlink:title="attack">
<path fill="none" stroke="#b85b57" d="M544.22,-557.73C554.75,-553.97 565.12,-549.49 574.56,-544.2 619.34,-519.08 661.08,-475.95 685.44,-448.01"/>
<polygon fill="#b85b57" stroke="#b85b57" points="687.88,-450.54 691.73,-440.67 682.57,-445.99 687.88,-450.54"/>
</a>
</g>
</g>
<!-- n5 -->
<g id="node6" class="node">
<title>n5</title>
<g id="a_node6"><a xlink:title="選民 ID 能防止冒名投票">
<path fill="#fffdf7" stroke="#6f8f72" stroke-width="2" d="M546.37,-668.2C546.37,-668.2 374.53,-668.2 374.53,-668.2 368.53,-668.2 362.53,-662.2 362.53,-656.2 362.53,-656.2 362.53,-644.2 362.53,-644.2 362.53,-638.2 368.53,-632.2 374.53,-632.2 374.53,-632.2 546.37,-632.2 546.37,-632.2 552.37,-632.2 558.37,-638.2 558.37,-644.2 558.37,-644.2 558.37,-656.2 558.37,-656.2 558.37,-662.2 552.37,-668.2 546.37,-668.2"/>
<text xml:space="preserve" text-anchor="start" x="415.16" y="-648.2" font-family="Inter, ui-sans-serif, system-ui, -apple-system, BlinkMacSystemFont, Segoe UI, sans-serif" font-weight="bold" font-size="10.00" fill="#2f2a21">選民 ID 能防止冒名投票</text>
</a>
</g>
</g>
<!-- n5&#45;&gt;n0 -->
<g id="edge16" class="edge">
<title>n5&#45;&gt;n0</title>
<g id="a_edge16"><a xlink:title="attack">
<path fill="none" stroke="#b85b57" d="M550.14,-631.79C558.8,-628.07 567.12,-623.59 574.56,-618.2 635.43,-574.14 676.97,-493.05 695.87,-449.93"/>
<polygon fill="#b85b57" stroke="#b85b57" points="698.99,-451.54 699.7,-440.97 692.55,-448.8 698.99,-451.54"/>
</a>
</g>
</g>
<!-- n6 -->
<g id="node7" class="node">
<title>n6</title>
<g id="a_node7"><a xlink:title="武器需要實名">
<path fill="#fffdf7" stroke="#6f8f72" stroke-width="2" d="M546.37,-742.2C546.37,-742.2 374.53,-742.2 374.53,-742.2 368.53,-742.2 362.53,-736.2 362.53,-730.2 362.53,-730.2 362.53,-718.2 362.53,-718.2 362.53,-712.2 368.53,-706.2 374.53,-706.2 374.53,-706.2 546.37,-706.2 546.37,-706.2 552.37,-706.2 558.37,-712.2 558.37,-718.2 558.37,-718.2 558.37,-730.2 558.37,-730.2 558.37,-736.2 552.37,-742.2 546.37,-742.2"/>
<text xml:space="preserve" text-anchor="start" x="435.44" y="-722.2" font-family="Inter, ui-sans-serif, system-ui, -apple-system, BlinkMacSystemFont, Segoe UI, sans-serif" font-weight="bold" font-size="10.00" fill="#2f2a21">武器需要實名</text>
</a>
</g>
</g>
<!-- n6&#45;&gt;n0 -->
<g id="edge19" class="edge">
<title>n6&#45;&gt;n0</title>
<g id="a_edge19"><a xlink:title="attack">
<path fill="none" stroke="#b85b57" d="M553.19,-705.74C560.86,-702.03 568.13,-697.56 574.56,-692.2 652.16,-627.47 688.27,-506.47 701.37,-450.72"/>
<polygon fill="#b85b57" stroke="#b85b57" points="704.77,-451.55 703.55,-441.03 697.94,-450.01 704.77,-451.55"/>
</a>
</g>
</g>
<!-- n7 -->
<g id="node8" class="node">
<title>n7</title>
<g id="a_node8"><a xlink:title="Formal Core">
<path fill="#e8f1e8" stroke="#c8b794" d="M546.37,-196.2C546.37,-196.2 374.53,-196.2 374.53,-196.2 368.53,-196.2 362.53,-190.2 362.53,-184.2 362.53,-184.2 362.53,-172.2 362.53,-172.2 362.53,-166.2 368.53,-160.2 374.53,-160.2 374.53,-160.2 546.37,-160.2 546.37,-160.2 552.37,-160.2 558.37,-166.2 558.37,-172.2 558.37,-172.2 558.37,-184.2 558.37,-184.2 558.37,-190.2 552.37,-196.2 546.37,-196.2"/>
<text xml:space="preserve" text-anchor="start" x="431" y="-176.2" font-family="Inter, ui-sans-serif, system-ui, -apple-system, BlinkMacSystemFont, Segoe UI, sans-serif" font-weight="bold" font-size="10.00" fill="#2f2a21">Formal Core</text>
</a>
</g>
</g>
<!-- n7&#45;&gt;n0 -->
<g id="edge1" class="edge">
<title>n7&#45;&gt;n0</title>
<g id="a_edge1"><a xlink:title="support">
<path fill="none" stroke="#6f8f72" d="M558.79,-195.87C564.34,-198.56 569.65,-201.65 574.56,-205.2 640.78,-253.16 680.87,-345.19 697.89,-392.12"/>
<polygon fill="#6f8f72" stroke="#6f8f72" points="694.51,-393.06 701.13,-401.34 701.11,-390.74 694.51,-393.06"/>
</a>
</g>
</g>
<!-- n8 -->
<g id="node9" class="node">
<title>n8</title>
<g id="a_node9"><a xlink:title="問責結構上是事後的">
<path fill="#e8f1e8" stroke="#c8b794" d="M546.37,-250.2C546.37,-250.2 374.53,-250.2 374.53,-250.2 368.53,-250.2 362.53,-244.2 362.53,-238.2 362.53,-238.2 362.53,-226.2 362.53,-226.2 362.53,-220.2 368.53,-214.2 374.53,-214.2 374.53,-214.2 546.37,-214.2 546.37,-214.2 552.37,-214.2 558.37,-220.2 558.37,-226.2 558.37,-226.2 558.37,-238.2 558.37,-238.2 558.37,-244.2 552.37,-250.2 546.37,-250.2"/>
<text xml:space="preserve" text-anchor="start" x="422.94" y="-230.2" font-family="Inter, ui-sans-serif, system-ui, -apple-system, BlinkMacSystemFont, Segoe UI, sans-serif" font-weight="bold" font-size="10.00" fill="#2f2a21">問責結構上是事後的</text>
</a>
</g>
</g>
<!-- n8&#45;&gt;n0 -->
<g id="edge3" class="edge">
<title>n8&#45;&gt;n0</title>
<g id="a_edge3"><a xlink:title="support">
<path fill="none" stroke="#6f8f72" d="M558.26,-250.67C563.94,-253.16 569.42,-255.99 574.56,-259.2 628.68,-293.06 671.07,-356.63 692.37,-393.27"/>
<polygon fill="#6f8f72" stroke="#6f8f72" points="689.08,-394.56 697.06,-401.52 695.16,-391.1 689.08,-394.56"/>
</a>
</g>
</g>
<!-- n9 -->
<g id="node10" class="node">
<title>n9</title>
<g id="a_node10"><a xlink:title="數學早就齊備了">
<path fill="#e8f1e8" stroke="#c8b794" d="M546.37,-304.2C546.37,-304.2 374.53,-304.2 374.53,-304.2 368.53,-304.2 362.53,-298.2 362.53,-292.2 362.53,-292.2 362.53,-280.2 362.53,-280.2 362.53,-274.2 368.53,-268.2 374.53,-268.2 374.53,-268.2 546.37,-268.2 546.37,-268.2 552.37,-268.2 558.37,-274.2 558.37,-280.2 558.37,-280.2 558.37,-292.2 558.37,-292.2 558.37,-298.2 552.37,-304.2 546.37,-304.2"/>
<text xml:space="preserve" text-anchor="start" x="431.28" y="-284.2" font-family="Inter, ui-sans-serif, system-ui, -apple-system, BlinkMacSystemFont, Segoe UI, sans-serif" font-weight="bold" font-size="10.00" fill="#2f2a21">數學早就齊備了</text>
</a>
</g>
</g>
<!-- n9&#45;&gt;n0 -->
<g id="edge4" class="edge">
<title>n9&#45;&gt;n0</title>
<g id="a_edge4"><a xlink:title="support">
<path fill="none" stroke="#6f8f72" d="M554.03,-304.63C561.12,-307.14 568.04,-309.99 574.56,-313.2 616.72,-334 657.51,-370.31 682.53,-395.04"/>
<polygon fill="#6f8f72" stroke="#6f8f72" points="679.79,-397.24 689.33,-401.86 684.76,-392.31 679.79,-397.24"/>
</a>
</g>
</g>
<!-- n10 -->
<g id="node11" class="node">
<title>n10</title>
<g id="a_node11"><a xlink:title="民主早就在做這件事">
<path fill="#e8f1e8" stroke="#c8b794" d="M546.37,-358.2C546.37,-358.2 374.53,-358.2 374.53,-358.2 368.53,-358.2 362.53,-352.2 362.53,-346.2 362.53,-346.2 362.53,-334.2 362.53,-334.2 362.53,-328.2 368.53,-322.2 374.53,-322.2 374.53,-322.2 546.37,-322.2 546.37,-322.2 552.37,-322.2 558.37,-328.2 558.37,-334.2 558.37,-334.2 558.37,-346.2 558.37,-346.2 558.37,-352.2 552.37,-358.2 546.37,-358.2"/>
<text xml:space="preserve" text-anchor="start" x="422.94" y="-338.2" font-family="Inter, ui-sans-serif, system-ui, -apple-system, BlinkMacSystemFont, Segoe UI, sans-serif" font-weight="bold" font-size="10.00" fill="#2f2a21">民主早就在做這件事</text>
</a>
</g>
</g>
<!-- n10&#45;&gt;n0 -->
<g id="edge5" class="edge">
<title>n10&#45;&gt;n0</title>
<g id="a_edge5"><a xlink:title="support">
<path fill="none" stroke="#6f8f72" d="M545.23,-358.69C555.18,-361.33 565.14,-364.18 574.56,-367.2 602.04,-376.01 631.87,-387.9 656.29,-398.29"/>
<polygon fill="#6f8f72" stroke="#6f8f72" points="654.8,-401.46 665.37,-402.19 657.56,-395.02 654.8,-401.46"/>
</a>
</g>
</g>
<!-- n11 -->
<g id="node12" class="node">
<title>n11</title>
<g id="a_node12"><a xlink:title="集中啟封權必然退化">
<path fill="#e8f1e8" stroke="#c8b794" d="M546.37,-412.2C546.37,-412.2 374.53,-412.2 374.53,-412.2 368.53,-412.2 362.53,-406.2 362.53,-400.2 362.53,-400.2 362.53,-388.2 362.53,-388.2 362.53,-382.2 368.53,-376.2 374.53,-376.2 374.53,-376.2 546.37,-376.2 546.37,-376.2 552.37,-376.2 558.37,-382.2 558.37,-388.2 558.37,-388.2 558.37,-400.2 558.37,-400.2 558.37,-406.2 552.37,-412.2 546.37,-412.2"/>
<text xml:space="preserve" text-anchor="start" x="422.94" y="-392.2" font-family="Inter, ui-sans-serif, system-ui, -apple-system, BlinkMacSystemFont, Segoe UI, sans-serif" font-weight="bold" font-size="10.00" fill="#2f2a21">集中啟封權必然退化</text>
</a>
</g>
</g>
<!-- n11&#45;&gt;n0 -->
<g id="edge6" class="edge">
<title>n11&#45;&gt;n0</title>
<g id="a_edge6"><a xlink:title="support">
<path fill="none" stroke="#6f8f72" d="M558.69,-404.87C571.91,-406.32 585.54,-407.82 598.95,-409.29"/>
<polygon fill="#6f8f72" stroke="#6f8f72" points="598.31,-412.74 608.64,-410.36 599.08,-405.79 598.31,-412.74"/>
</a>
</g>
</g>
<!-- n12 -->
<g id="node13" class="node">
<title>n12</title>
<g id="a_node13"><a xlink:title="Aadhaar 七步因果鏈 集中啟封權 系統性退化">
<path fill="#e8f1e8" stroke="#c8b794" d="M546.37,-466.2C546.37,-466.2 374.53,-466.2 374.53,-466.2 368.53,-466.2 362.53,-460.2 362.53,-454.2 362.53,-454.2 362.53,-442.2 362.53,-442.2 362.53,-436.2 368.53,-430.2 374.53,-430.2 374.53,-430.2 546.37,-430.2 546.37,-430.2 552.37,-430.2 558.37,-436.2 558.37,-442.2 558.37,-442.2 558.37,-454.2 558.37,-454.2 558.37,-460.2 552.37,-466.2 546.37,-466.2"/>
<text xml:space="preserve" text-anchor="start" x="373.76" y="-446.2" font-family="Inter, ui-sans-serif, system-ui, -apple-system, BlinkMacSystemFont, Segoe UI, sans-serif" font-weight="bold" font-size="10.00" fill="#2f2a21">Aadhaar 七步因果鏈 集中啟封權 系統性退化</text>
</a>
</g>
</g>
<!-- n12&#45;&gt;n0 -->
<g id="edge7" class="edge">
<title>n12&#45;&gt;n0</title>
<g id="a_edge7"><a xlink:title="support">
<path fill="none" stroke="#6f8f72" d="M558.69,-437.53C571.91,-436.08 585.54,-434.58 598.95,-433.11"/>
<polygon fill="#6f8f72" stroke="#6f8f72" points="599.08,-436.62 608.64,-432.05 598.31,-429.66 599.08,-436.62"/>
</a>
</g>
</g>
<!-- n13 -->
<g id="node14" class="node">
<title>n13</title>
<g id="a_node14"><a xlink:title="Conclusion">
<path fill="#e8f1e8" stroke="#c8b794" d="M546.37,-520.2C546.37,-520.2 374.53,-520.2 374.53,-520.2 368.53,-520.2 362.53,-514.2 362.53,-508.2 362.53,-508.2 362.53,-496.2 362.53,-496.2 362.53,-490.2 368.53,-484.2 374.53,-484.2 374.53,-484.2 546.37,-484.2 546.37,-484.2 552.37,-484.2 558.37,-490.2 558.37,-496.2 558.37,-496.2 558.37,-508.2 558.37,-508.2 558.37,-514.2 552.37,-520.2 546.37,-520.2"/>
<text xml:space="preserve" text-anchor="start" x="433.23" y="-500.2" font-family="Inter, ui-sans-serif, system-ui, -apple-system, BlinkMacSystemFont, Segoe UI, sans-serif" font-weight="bold" font-size="10.00" fill="#2f2a21">Conclusion</text>
</a>
</g>
</g>
<!-- n13&#45;&gt;n0 -->
<g id="edge9" class="edge">
<title>n13&#45;&gt;n0</title>
<g id="a_edge9"><a xlink:title="support">
<path fill="none" stroke="#6f8f72" d="M545.23,-483.71C555.18,-481.07 565.14,-478.22 574.56,-475.2 602.04,-466.4 631.87,-454.5 656.29,-444.12"/>
<polygon fill="#6f8f72" stroke="#6f8f72" points="657.56,-447.38 665.37,-440.22 654.8,-440.95 657.56,-447.38"/>
</a>
</g>
</g>
<!-- n14 -->
<g id="node15" class="node">
<title>n14</title>
<g id="a_node15"><a xlink:title="Reply AML KYC 反洗錢 AML...">
<path fill="#e8f1e8" stroke="#c8b794" d="M249.09,-575.2C249.09,-575.2 77.25,-575.2 77.25,-575.2 71.25,-575.2 65.25,-569.2 65.25,-563.2 65.25,-563.2 65.25,-551.2 65.25,-551.2 65.25,-545.2 71.25,-539.2 77.25,-539.2 77.25,-539.2 249.09,-539.2 249.09,-539.2 255.09,-539.2 261.09,-545.2 261.09,-551.2 261.09,-551.2 261.09,-563.2 261.09,-563.2 261.09,-569.2 255.09,-575.2 249.09,-575.2"/>
<text xml:space="preserve" text-anchor="start" x="95.11" y="-555.2" font-family="Inter, ui-sans-serif, system-ui, -apple-system, BlinkMacSystemFont, Segoe UI, sans-serif" font-weight="bold" font-size="10.00" fill="#2f2a21">Reply AML KYC 反洗錢 AML...</text>
</a>
</g>
</g>
<!-- n14&#45;&gt;n0 -->
<g id="edge14" class="edge">
<title>n14&#45;&gt;n0</title>
<g id="a_edge14"><a xlink:title="support">
<path fill="none" stroke="#6f8f72" d="M261.59,-552.04C378.35,-545.63 560.21,-534.85 574.56,-529.2 619.05,-511.68 660.09,-473.55 684.47,-447.62"/>
<polygon fill="#6f8f72" stroke="#6f8f72" points="686.86,-450.19 691.05,-440.46 681.71,-445.45 686.86,-450.19"/>
</a>
</g>
</g>
<!-- n14&#45;&gt;n4 -->
<g id="edge12" class="edge">
<title>n14&#45;&gt;n4</title>
<g id="a_edge12"><a xlink:title="attack">
<path fill="none" stroke="#b85b57" d="M261.27,-563.45C289.96,-565.3 321.55,-567.33 350.91,-569.22"/>
<polygon fill="#b85b57" stroke="#b85b57" points="350.33,-572.69 360.53,-569.84 350.78,-565.7 350.33,-572.69"/>
</a>
</g>
</g>
<!-- n15 -->
<g id="node16" class="node">
<title>n15</title>
<g id="a_node16"><a xlink:title="Reply 選舉舞弊 事前實名解決一個近乎不存在的問題，卻造成真實傷害...">
<path fill="#e8f1e8" stroke="#c8b794" d="M298.34,-649.2C298.34,-649.2 28,-649.2 28,-649.2 22,-649.2 16,-643.2 16,-637.2 16,-637.2 16,-625.2 16,-625.2 16,-619.2 22,-613.2 28,-613.2 28,-613.2 298.34,-613.2 298.34,-613.2 304.34,-613.2 310.34,-619.2 310.34,-625.2 310.34,-625.2 310.34,-637.2 310.34,-637.2 310.34,-643.2 304.34,-649.2 298.34,-649.2"/>
<text xml:space="preserve" text-anchor="start" x="25.92" y="-629.2" font-family="Inter, ui-sans-serif, system-ui, -apple-system, BlinkMacSystemFont, Segoe UI, sans-serif" font-weight="bold" font-size="10.00" fill="#2f2a21">Reply 選舉舞弊 事前實名解決一個近乎不存在的問題，卻造成真實傷害...</text>
</a>
</g>
</g>
<!-- n15&#45;&gt;n0 -->
<g id="edge17" class="edge">
<title>n15&#45;&gt;n0</title>
<g id="a_edge17"><a xlink:title="support">
<path fill="none" stroke="#6f8f72" d="M310.67,-624.12C423.72,-618.19 562.82,-609.68 574.56,-603.2 636.67,-568.94 677.47,-491.93 695.99,-449.9"/>
<polygon fill="#6f8f72" stroke="#6f8f72" points="699.12,-451.49 699.83,-440.92 692.68,-448.74 699.12,-451.49"/>
</a>
</g>
</g>
<!-- n15&#45;&gt;n5 -->
<g id="edge15" class="edge">
<title>n15&#45;&gt;n5</title>
<g id="a_edge15"><a xlink:title="attack">
<path fill="none" stroke="#b85b57" d="M310.51,-640.62C324.08,-641.49 337.67,-642.37 350.81,-643.21"/>
<polygon fill="#b85b57" stroke="#b85b57" points="350.52,-646.7 360.73,-643.85 350.97,-639.72 350.52,-646.7"/>
</a>
</g>
</g>
<!-- n16 -->
<g id="node17" class="node">
<title>n16</title>
<g id="a_node17"><a xlink:title="Reply 武器 WMD...">
<path fill="#e8f1e8" stroke="#c8b794" d="M249.09,-723.2C249.09,-723.2 77.25,-723.2 77.25,-723.2 71.25,-723.2 65.25,-717.2 65.25,-711.2 65.25,-711.2 65.25,-699.2 65.25,-699.2 65.25,-693.2 71.25,-687.2 77.25,-687.2 77.25,-687.2 249.09,-687.2 249.09,-687.2 255.09,-687.2 261.09,-693.2 261.09,-699.2 261.09,-699.2 261.09,-711.2 261.09,-711.2 261.09,-717.2 255.09,-723.2 249.09,-723.2"/>
<text xml:space="preserve" text-anchor="start" x="121.78" y="-703.2" font-family="Inter, ui-sans-serif, system-ui, -apple-system, BlinkMacSystemFont, Segoe UI, sans-serif" font-weight="bold" font-size="10.00" fill="#2f2a21">Reply 武器 WMD...</text>
</a>
</g>
</g>
<!-- n16&#45;&gt;n0 -->
<g id="edge20" class="edge">
<title>n16&#45;&gt;n0</title>
<g id="a_edge20"><a xlink:title="support">
<path fill="none" stroke="#6f8f72" d="M261.54,-700.95C378.77,-695.48 561.64,-685.67 574.56,-677.2 655.34,-624.28 689.84,-505.81 701.95,-450.59"/>
<polygon fill="#6f8f72" stroke="#6f8f72" points="705.34,-451.49 703.95,-440.99 698.48,-450.06 705.34,-451.49"/>
</a>
</g>
</g>
<!-- n16&#45;&gt;n6 -->
<g id="edge18" class="edge">
<title>n16&#45;&gt;n6</title>
<g id="a_edge18"><a xlink:title="attack">
<path fill="none" stroke="#b85b57" d="M261.27,-711.45C289.96,-713.3 321.55,-715.33 350.91,-717.22"/>
<polygon fill="#b85b57" stroke="#b85b57" points="350.33,-720.69 360.53,-717.84 350.78,-713.7 350.33,-720.69"/>
</a>
</g>
</g>
</g>
</svg>
