<?xml version="1.0" encoding="UTF-8" standalone="no"?>
<!DOCTYPE svg PUBLIC "-//W3C//DTD SVG 1.1//EN"
 "http://www.w3.org/Graphics/SVG/1.1/DTD/svg11.dtd">
<!-- Generated by graphviz version 14.1.4 (0)
 -->
<!-- Title: Argument Map Pages: 1 -->
<svg class="argdown-summary-map" width="667pt" height="720pt"
 viewBox="0.00 0.00 667.00 720.00" xmlns="http://www.w3.org/2000/svg" xmlns:xlink="http://www.w3.org/1999/xlink">
<g id="graph0" class="graph" transform="scale(0.854306 0.854306) rotate(0) translate(4 838.79)">
<title>Argument Map</title>
<g id="clust1" class="cluster">
<title>cluster_1</title>
<polygon fill="#f3eadb" stroke="#d4c0a1" points="8,-24.79 8,-826.79 764.24,-826.79 764.24,-24.79 8,-24.79"/>
<text xml:space="preserve" text-anchor="start" x="347.44" y="-810.79" font-family="Inter, ui-sans-serif, system-ui, -apple-system, BlinkMacSystemFont, Segoe UI, sans-serif" font-size="12.00" fill="#2f2a21">Central Thesis</text>
</g>
<!-- n0 -->
<g id="node1" class="node">
<title>n0</title>
<g id="a_node1"><a xlink:title="北歐商業身分基礎設施的代價">
<path fill="#fffdf7" stroke="#6f8f72" stroke-width="2" d="M744.24,-466.79C744.24,-466.79 572.4,-466.79 572.4,-466.79 566.4,-466.79 560.4,-460.79 560.4,-454.79 560.4,-454.79 560.4,-442.79 560.4,-442.79 560.4,-436.79 566.4,-430.79 572.4,-430.79 572.4,-430.79 744.24,-430.79 744.24,-430.79 750.24,-430.79 756.24,-436.79 756.24,-442.79 756.24,-442.79 756.24,-454.79 756.24,-454.79 756.24,-460.79 750.24,-466.79 744.24,-466.79"/>
<text xml:space="preserve" text-anchor="start" x="604.14" y="-446.79" font-family="Inter, ui-sans-serif, system-ui, -apple-system, BlinkMacSystemFont, Segoe UI, sans-serif" font-weight="bold" font-size="10.00" fill="#2f2a21">北歐商業身分基礎設施的代價</text>
</a>
</g>
</g>
<!-- n1 -->
<g id="node2" class="node">
<title>n1</title>
<g id="a_node2"><a xlink:title="四種治理形態並存的 CII NCT 結構批判">
<path fill="#fffdf7" stroke="#6f8f72" stroke-width="2" d="M199.84,-78.79C199.84,-78.79 28,-78.79 28,-78.79 22,-78.79 16,-72.79 16,-66.79 16,-66.79 16,-54.79 16,-54.79 16,-48.79 22,-42.79 28,-42.79 28,-42.79 199.84,-42.79 199.84,-42.79 205.84,-42.79 211.84,-48.79 211.84,-54.79 211.84,-54.79 211.84,-66.79 211.84,-66.79 211.84,-72.79 205.84,-78.79 199.84,-78.79"/>
<text xml:space="preserve" text-anchor="start" x="38.91" y="-58.79" font-family="Inter, ui-sans-serif, system-ui, -apple-system, BlinkMacSystemFont, Segoe UI, sans-serif" font-weight="bold" font-size="10.00" fill="#2f2a21">四種治理形態並存的 CII NCT 結構批判</text>
</a>
</g>
</g>
<!-- n1&#45;&gt;n0 -->
<g id="edge2" class="edge">
<title>n1&#45;&gt;n0</title>
<g id="a_edge2"><a xlink:title="support">
<path fill="none" stroke="#6f8f72" d="M160.06,-42.41C241.48,-12.52 414.62,35.72 524.4,-43.79 648.13,-133.41 658.74,-341.88 658.21,-419.22"/>
<polygon fill="#6f8f72" stroke="#6f8f72" points="654.72,-418.91 658.07,-428.96 661.72,-419.01 654.72,-418.91"/>
</a>
</g>
</g>
<!-- n3 -->
<g id="node4" class="node">
<title>n3</title>
<g id="a_node4"><a xlink:title="BankID 模式作為單一範本">
<path fill="#fffdf7" stroke="#6f8f72" stroke-width="2" d="M472.04,-88.79C472.04,-88.79 300.2,-88.79 300.2,-88.79 294.2,-88.79 288.2,-82.79 288.2,-76.79 288.2,-76.79 288.2,-64.79 288.2,-64.79 288.2,-58.79 294.2,-52.79 300.2,-52.79 300.2,-52.79 472.04,-52.79 472.04,-52.79 478.04,-52.79 484.04,-58.79 484.04,-64.79 484.04,-64.79 484.04,-76.79 484.04,-76.79 484.04,-82.79 478.04,-88.79 472.04,-88.79"/>
<text xml:space="preserve" text-anchor="start" x="334.16" y="-68.79" font-family="Inter, ui-sans-serif, system-ui, -apple-system, BlinkMacSystemFont, Segoe UI, sans-serif" font-weight="bold" font-size="10.00" fill="#2f2a21">BankID 模式作為單一範本</text>
</a>
</g>
</g>
<!-- n1&#45;&gt;n3 -->
<g id="edge11" class="edge">
<title>n1&#45;&gt;n3</title>
<g id="a_edge11"><a xlink:title="attack">
<path fill="none" stroke="#b85b57" d="M212.09,-64.39C232.99,-65.16 255.21,-65.98 276.52,-66.77"/>
<polygon fill="#b85b57" stroke="#b85b57" points="276.27,-70.26 286.39,-67.14 276.53,-63.27 276.27,-70.26"/>
</a>
</g>
</g>
<!-- n2 -->
<g id="node3" class="node">
<title>n2</title>
<g id="a_node3"><a xlink:title="NCT&#45;remedy 兩組條件——救濟程序設計四元件 條件性可移植判準">
<path fill="#fffdf7" stroke="#6f8f72" stroke-width="2" d="M512.4,-142.79C512.4,-142.79 259.84,-142.79 259.84,-142.79 253.84,-142.79 247.84,-136.79 247.84,-130.79 247.84,-130.79 247.84,-118.79 247.84,-118.79 247.84,-112.79 253.84,-106.79 259.84,-106.79 259.84,-106.79 512.4,-106.79 512.4,-106.79 518.4,-106.79 524.4,-112.79 524.4,-118.79 524.4,-118.79 524.4,-130.79 524.4,-130.79 524.4,-136.79 518.4,-142.79 512.4,-142.79"/>
<text xml:space="preserve" text-anchor="start" x="257.76" y="-122.79" font-family="Inter, ui-sans-serif, system-ui, -apple-system, BlinkMacSystemFont, Segoe UI, sans-serif" font-weight="bold" font-size="10.00" fill="#2f2a21">NCT&#45;remedy 兩組條件——救濟程序設計四元件 條件性可移植判準</text>
</a>
</g>
</g>
<!-- n2&#45;&gt;n0 -->
<g id="edge9" class="edge">
<title>n2&#45;&gt;n0</title>
<g id="a_edge9"><a xlink:title="support">
<path fill="none" stroke="#6f8f72" d="M511.69,-143.24C516.15,-145.78 520.41,-148.61 524.4,-151.79 611.25,-220.89 643.08,-358.85 653.19,-419.28"/>
<polygon fill="#6f8f72" stroke="#6f8f72" points="649.72,-419.79 654.74,-429.13 656.64,-418.7 649.72,-419.79"/>
</a>
</g>
</g>
<!-- n3&#45;&gt;n0 -->
<g id="edge12" class="edge">
<title>n3&#45;&gt;n0</title>
<g id="a_edge12"><a xlink:title="attack">
<path fill="none" stroke="#b85b57" d="M484.32,-77.06C498.91,-81.48 512.9,-88.07 524.4,-97.79 624.65,-182.49 649.43,-351.17 655.44,-419.27"/>
<polygon fill="#b85b57" stroke="#b85b57" points="651.92,-419.21 656.21,-428.89 658.9,-418.65 651.92,-419.21"/>
</a>
</g>
</g>
<!-- n4 -->
<g id="node5" class="node">
<title>n4</title>
<g id="a_node5"><a xlink:title="BankID 不是壟斷，是技術中立標準">
<path fill="#fffdf7" stroke="#6f8f72" stroke-width="2" d="M472.04,-648.79C472.04,-648.79 300.2,-648.79 300.2,-648.79 294.2,-648.79 288.2,-642.79 288.2,-636.79 288.2,-636.79 288.2,-624.79 288.2,-624.79 288.2,-618.79 294.2,-612.79 300.2,-612.79 300.2,-612.79 472.04,-612.79 472.04,-612.79 478.04,-612.79 484.04,-618.79 484.04,-624.79 484.04,-624.79 484.04,-636.79 484.04,-636.79 484.04,-642.79 478.04,-648.79 472.04,-648.79"/>
<text xml:space="preserve" text-anchor="start" x="317.49" y="-628.79" font-family="Inter, ui-sans-serif, system-ui, -apple-system, BlinkMacSystemFont, Segoe UI, sans-serif" font-weight="bold" font-size="10.00" fill="#2f2a21">BankID 不是壟斷，是技術中立標準</text>
</a>
</g>
</g>
<!-- n4&#45;&gt;n0 -->
<g id="edge14" class="edge">
<title>n4&#45;&gt;n0</title>
<g id="a_edge14"><a xlink:title="attack">
<path fill="none" stroke="#b85b57" d="M484.21,-616.12C498.25,-611.77 512.1,-606.12 524.4,-598.79 575.95,-568.07 618.37,-510.66 640.57,-476.46"/>
<polygon fill="#b85b57" stroke="#b85b57" points="643.32,-478.66 645.73,-468.34 637.41,-474.91 643.32,-478.66"/>
</a>
</g>
</g>
<!-- n5 -->
<g id="node6" class="node">
<title>n5</title>
<g id="a_node6"><a xlink:title="商業 vs 國家二元批判已過時">
<path fill="#fffdf7" stroke="#6f8f72" stroke-width="2" d="M472.04,-722.79C472.04,-722.79 300.2,-722.79 300.2,-722.79 294.2,-722.79 288.2,-716.79 288.2,-710.79 288.2,-710.79 288.2,-698.79 288.2,-698.79 288.2,-692.79 294.2,-686.79 300.2,-686.79 300.2,-686.79 472.04,-686.79 472.04,-686.79 478.04,-686.79 484.04,-692.79 484.04,-698.79 484.04,-698.79 484.04,-710.79 484.04,-710.79 484.04,-716.79 478.04,-722.79 472.04,-722.79"/>
<text xml:space="preserve" text-anchor="start" x="331.94" y="-702.79" font-family="Inter, ui-sans-serif, system-ui, -apple-system, BlinkMacSystemFont, Segoe UI, sans-serif" font-weight="bold" font-size="10.00" fill="#2f2a21">商業 vs 國家二元批判已過時</text>
</a>
</g>
</g>
<!-- n5&#45;&gt;n0 -->
<g id="edge17" class="edge">
<title>n5&#45;&gt;n0</title>
<g id="a_edge17"><a xlink:title="attack">
<path fill="none" stroke="#b85b57" d="M484.48,-692.5C498.72,-687.83 512.55,-681.46 524.4,-672.79 592.62,-622.82 632.1,-526.32 648.43,-477.94"/>
<polygon fill="#b85b57" stroke="#b85b57" points="651.66,-479.31 651.44,-468.72 645.01,-477.14 651.66,-479.31"/>
</a>
</g>
</g>
<!-- n6 -->
<g id="node7" class="node">
<title>n6</title>
<g id="a_node7"><a xlink:title="北歐前提不可移植 模式不可學">
<path fill="#fffdf7" stroke="#6f8f72" stroke-width="2" d="M472.04,-796.79C472.04,-796.79 300.2,-796.79 300.2,-796.79 294.2,-796.79 288.2,-790.79 288.2,-784.79 288.2,-784.79 288.2,-772.79 288.2,-772.79 288.2,-766.79 294.2,-760.79 300.2,-760.79 300.2,-760.79 472.04,-760.79 472.04,-760.79 478.04,-760.79 484.04,-766.79 484.04,-772.79 484.04,-772.79 484.04,-784.79 484.04,-784.79 484.04,-790.79 478.04,-796.79 472.04,-796.79"/>
<text xml:space="preserve" text-anchor="start" x="330.55" y="-776.79" font-family="Inter, ui-sans-serif, system-ui, -apple-system, BlinkMacSystemFont, Segoe UI, sans-serif" font-weight="bold" font-size="10.00" fill="#2f2a21">北歐前提不可移植 模式不可學</text>
</a>
</g>
</g>
<!-- n6&#45;&gt;n0 -->
<g id="edge20" class="edge">
<title>n6&#45;&gt;n0</title>
<g id="a_edge20"><a xlink:title="attack">
<path fill="none" stroke="#b85b57" d="M484.34,-768.03C498.84,-763.2 512.79,-756.37 524.4,-746.79 610.02,-676.1 642.45,-538.98 652.95,-478.58"/>
<polygon fill="#b85b57" stroke="#b85b57" points="656.4,-479.16 654.57,-468.73 649.49,-478.03 656.4,-479.16"/>
</a>
</g>
</g>
<!-- n7 -->
<g id="node8" class="node">
<title>n7</title>
<g id="a_node8"><a xlink:title="Formal Core">
<path fill="#e8f1e8" stroke="#c8b794" d="M472.04,-196.79C472.04,-196.79 300.2,-196.79 300.2,-196.79 294.2,-196.79 288.2,-190.79 288.2,-184.79 288.2,-184.79 288.2,-172.79 288.2,-172.79 288.2,-166.79 294.2,-160.79 300.2,-160.79 300.2,-160.79 472.04,-160.79 472.04,-160.79 478.04,-160.79 484.04,-166.79 484.04,-172.79 484.04,-172.79 484.04,-184.79 484.04,-184.79 484.04,-190.79 478.04,-196.79 472.04,-196.79"/>
<text xml:space="preserve" text-anchor="start" x="356.67" y="-176.79" font-family="Inter, ui-sans-serif, system-ui, -apple-system, BlinkMacSystemFont, Segoe UI, sans-serif" font-weight="bold" font-size="10.00" fill="#2f2a21">Formal Core</text>
</a>
</g>
</g>
<!-- n7&#45;&gt;n0 -->
<g id="edge1" class="edge">
<title>n7&#45;&gt;n0</title>
<g id="a_edge1"><a xlink:title="support">
<path fill="none" stroke="#6f8f72" d="M484.28,-186.78C498.63,-191.02 512.54,-197.1 524.4,-205.79 598,-259.7 635.51,-367.17 650,-419.2"/>
<polygon fill="#6f8f72" stroke="#6f8f72" points="646.62,-420.08 652.58,-428.84 653.38,-418.27 646.62,-420.08"/>
</a>
</g>
</g>
<!-- n8 -->
<g id="node9" class="node">
<title>n8</title>
<g id="a_node9"><a xlink:title="四種治理形態（I 歸納）">
<path fill="#e8f1e8" stroke="#c8b794" d="M472.04,-250.79C472.04,-250.79 300.2,-250.79 300.2,-250.79 294.2,-250.79 288.2,-244.79 288.2,-238.79 288.2,-238.79 288.2,-226.79 288.2,-226.79 288.2,-220.79 294.2,-214.79 300.2,-214.79 300.2,-214.79 472.04,-214.79 472.04,-214.79 478.04,-214.79 484.04,-220.79 484.04,-226.79 484.04,-226.79 484.04,-238.79 484.04,-238.79 484.04,-244.79 478.04,-250.79 472.04,-250.79"/>
<text xml:space="preserve" text-anchor="start" x="341.67" y="-230.79" font-family="Inter, ui-sans-serif, system-ui, -apple-system, BlinkMacSystemFont, Segoe UI, sans-serif" font-weight="bold" font-size="10.00" fill="#2f2a21">四種治理形態（I 歸納）</text>
</a>
</g>
</g>
<!-- n8&#45;&gt;n0 -->
<g id="edge3" class="edge">
<title>n8&#45;&gt;n0</title>
<g id="a_edge3"><a xlink:title="support">
<path fill="none" stroke="#6f8f72" d="M484.53,-242.28C498.61,-246.34 512.38,-251.98 524.4,-259.79 585.39,-299.4 626.66,-377.7 645.55,-420.02"/>
<polygon fill="#6f8f72" stroke="#6f8f72" points="642.28,-421.28 649.47,-429.06 648.7,-418.5 642.28,-421.28"/>
</a>
</g>
</g>
<!-- n9 -->
<g id="node10" class="node">
<title>n9</title>
<g id="a_node10"><a xlink:title="因果鏈四環 五個具體案例（C 因果）">
<path fill="#e8f1e8" stroke="#c8b794" d="M472.04,-304.79C472.04,-304.79 300.2,-304.79 300.2,-304.79 294.2,-304.79 288.2,-298.79 288.2,-292.79 288.2,-292.79 288.2,-280.79 288.2,-280.79 288.2,-274.79 294.2,-268.79 300.2,-268.79 300.2,-268.79 472.04,-268.79 472.04,-268.79 478.04,-268.79 484.04,-274.79 484.04,-280.79 484.04,-280.79 484.04,-292.79 484.04,-292.79 484.04,-298.79 478.04,-304.79 472.04,-304.79"/>
<text xml:space="preserve" text-anchor="start" x="317.22" y="-284.79" font-family="Inter, ui-sans-serif, system-ui, -apple-system, BlinkMacSystemFont, Segoe UI, sans-serif" font-weight="bold" font-size="10.00" fill="#2f2a21">因果鏈四環 五個具體案例（C 因果）</text>
</a>
</g>
</g>
<!-- n9&#45;&gt;n0 -->
<g id="edge4" class="edge">
<title>n9&#45;&gt;n0</title>
<g id="a_edge4"><a xlink:title="support">
<path fill="none" stroke="#6f8f72" d="M484.19,-298.28C498.16,-302.08 511.99,-307.11 524.4,-313.79 573.22,-340.06 615.38,-390.27 638.48,-421.5"/>
<polygon fill="#6f8f72" stroke="#6f8f72" points="635.43,-423.26 644.14,-429.3 641.1,-419.15 635.43,-423.26"/>
</a>
</g>
</g>
<!-- n10 -->
<g id="node11" class="node">
<title>n10</title>
<g id="a_node11"><a xlink:title="央行警示作為政策可行性訊號（Ab 溯因）">
<path fill="#e8f1e8" stroke="#c8b794" d="M472.04,-358.79C472.04,-358.79 300.2,-358.79 300.2,-358.79 294.2,-358.79 288.2,-352.79 288.2,-346.79 288.2,-346.79 288.2,-334.79 288.2,-334.79 288.2,-328.79 294.2,-322.79 300.2,-322.79 300.2,-322.79 472.04,-322.79 472.04,-322.79 478.04,-322.79 484.04,-328.79 484.04,-334.79 484.04,-334.79 484.04,-346.79 484.04,-346.79 484.04,-352.79 478.04,-358.79 472.04,-358.79"/>
<text xml:space="preserve" text-anchor="start" x="307.22" y="-338.79" font-family="Inter, ui-sans-serif, system-ui, -apple-system, BlinkMacSystemFont, Segoe UI, sans-serif" font-weight="bold" font-size="10.00" fill="#2f2a21">央行警示作為政策可行性訊號（Ab 溯因）</text>
</a>
</g>
</g>
<!-- n10&#45;&gt;n0 -->
<g id="edge5" class="edge">
<title>n10&#45;&gt;n0</title>
<g id="a_edge5"><a xlink:title="support">
<path fill="none" stroke="#6f8f72" d="M484.35,-355.45C498.02,-358.8 511.72,-362.86 524.4,-367.79 560.58,-381.85 598.01,-405.64 623.89,-423.81"/>
<polygon fill="#6f8f72" stroke="#6f8f72" points="621.82,-426.62 631.99,-429.58 625.88,-420.93 621.82,-426.62"/>
</a>
</g>
</g>
<!-- n11 -->
<g id="node12" class="node">
<title>n11</title>
<g id="a_node12"><a xlink:title="NCT 形式骨架（D 演繹）">
<path fill="#e8f1e8" stroke="#c8b794" d="M472.04,-412.79C472.04,-412.79 300.2,-412.79 300.2,-412.79 294.2,-412.79 288.2,-406.79 288.2,-400.79 288.2,-400.79 288.2,-388.79 288.2,-388.79 288.2,-382.79 294.2,-376.79 300.2,-376.79 300.2,-376.79 472.04,-376.79 472.04,-376.79 478.04,-376.79 484.04,-382.79 484.04,-388.79 484.04,-388.79 484.04,-400.79 484.04,-400.79 484.04,-406.79 478.04,-412.79 472.04,-412.79"/>
<text xml:space="preserve" text-anchor="start" x="336.11" y="-392.79" font-family="Inter, ui-sans-serif, system-ui, -apple-system, BlinkMacSystemFont, Segoe UI, sans-serif" font-weight="bold" font-size="10.00" fill="#2f2a21">NCT 形式骨架（D 演繹）</text>
</a>
</g>
</g>
<!-- n11&#45;&gt;n0 -->
<g id="edge6" class="edge">
<title>n11&#45;&gt;n0</title>
<g id="a_edge6"><a xlink:title="support">
<path fill="none" stroke="#6f8f72" d="M481.29,-413.23C495.73,-416.08 510.46,-419 524.4,-421.79 534.6,-423.83 545.23,-425.97 555.85,-428.11"/>
<polygon fill="#6f8f72" stroke="#6f8f72" points="554.91,-431.49 565.4,-430.04 556.29,-424.63 554.91,-431.49"/>
</a>
</g>
</g>
<!-- n12 -->
<g id="node13" class="node">
<title>n12</title>
<g id="a_node13"><a xlink:title="反例集合與輸出難度梯度（反例）">
<path fill="#e8f1e8" stroke="#c8b794" d="M472.04,-466.79C472.04,-466.79 300.2,-466.79 300.2,-466.79 294.2,-466.79 288.2,-460.79 288.2,-454.79 288.2,-454.79 288.2,-442.79 288.2,-442.79 288.2,-436.79 294.2,-430.79 300.2,-430.79 300.2,-430.79 472.04,-430.79 472.04,-430.79 478.04,-430.79 484.04,-436.79 484.04,-442.79 484.04,-442.79 484.04,-454.79 484.04,-454.79 484.04,-460.79 478.04,-466.79 472.04,-466.79"/>
<text xml:space="preserve" text-anchor="start" x="323.61" y="-446.79" font-family="Inter, ui-sans-serif, system-ui, -apple-system, BlinkMacSystemFont, Segoe UI, sans-serif" font-weight="bold" font-size="10.00" fill="#2f2a21">反例集合與輸出難度梯度（反例）</text>
</a>
</g>
</g>
<!-- n12&#45;&gt;n0 -->
<g id="edge7" class="edge">
<title>n12&#45;&gt;n0</title>
<g id="a_edge7"><a xlink:title="support">
<path fill="none" stroke="#6f8f72" d="M484.29,-448.79C505.19,-448.79 527.41,-448.79 548.72,-448.79"/>
<polygon fill="#6f8f72" stroke="#6f8f72" points="548.59,-452.29 558.59,-448.79 548.59,-445.29 548.59,-452.29"/>
</a>
</g>
</g>
<!-- n13 -->
<g id="node14" class="node">
<title>n13</title>
<g id="a_node14"><a xlink:title="CII 六步因果鏈 覆蓋率 強制性 替代品擠出 KYC...">
<path fill="#e8f1e8" stroke="#c8b794" d="M478.78,-520.79C478.78,-520.79 293.46,-520.79 293.46,-520.79 287.46,-520.79 281.46,-514.79 281.46,-508.79 281.46,-508.79 281.46,-496.79 281.46,-496.79 281.46,-490.79 287.46,-484.79 293.46,-484.79 293.46,-484.79 478.78,-484.79 478.78,-484.79 484.78,-484.79 490.78,-490.79 490.78,-496.79 490.78,-496.79 490.78,-508.79 490.78,-508.79 490.78,-514.79 484.78,-520.79 478.78,-520.79"/>
<text xml:space="preserve" text-anchor="start" x="291.38" y="-500.79" font-family="Inter, ui-sans-serif, system-ui, -apple-system, BlinkMacSystemFont, Segoe UI, sans-serif" font-weight="bold" font-size="10.00" fill="#2f2a21">CII 六步因果鏈 覆蓋率 強制性 替代品擠出 KYC...</text>
</a>
</g>
</g>
<!-- n13&#45;&gt;n0 -->
<g id="edge8" class="edge">
<title>n13&#45;&gt;n0</title>
<g id="a_edge8"><a xlink:title="support">
<path fill="none" stroke="#6f8f72" d="M481.29,-484.35C495.73,-481.5 510.46,-478.57 524.4,-475.79 534.6,-473.75 545.23,-471.61 555.85,-469.47"/>
<polygon fill="#6f8f72" stroke="#6f8f72" points="556.29,-472.95 565.4,-467.54 554.91,-466.09 556.29,-472.95"/>
</a>
</g>
</g>
<!-- n14 -->
<g id="node15" class="node">
<title>n14</title>
<g id="a_node15"><a xlink:title="Conclusion">
<path fill="#e8f1e8" stroke="#c8b794" d="M472.04,-574.79C472.04,-574.79 300.2,-574.79 300.2,-574.79 294.2,-574.79 288.2,-568.79 288.2,-562.79 288.2,-562.79 288.2,-550.79 288.2,-550.79 288.2,-544.79 294.2,-538.79 300.2,-538.79 300.2,-538.79 472.04,-538.79 472.04,-538.79 478.04,-538.79 484.04,-544.79 484.04,-550.79 484.04,-550.79 484.04,-562.79 484.04,-562.79 484.04,-568.79 478.04,-574.79 472.04,-574.79"/>
<text xml:space="preserve" text-anchor="start" x="358.9" y="-554.79" font-family="Inter, ui-sans-serif, system-ui, -apple-system, BlinkMacSystemFont, Segoe UI, sans-serif" font-weight="bold" font-size="10.00" fill="#2f2a21">Conclusion</text>
</a>
</g>
</g>
<!-- n14&#45;&gt;n0 -->
<g id="edge10" class="edge">
<title>n14&#45;&gt;n0</title>
<g id="a_edge10"><a xlink:title="support">
<path fill="none" stroke="#6f8f72" d="M484.35,-542.12C498.02,-538.78 511.72,-534.72 524.4,-529.79 560.58,-515.72 598.01,-491.94 623.89,-473.77"/>
<polygon fill="#6f8f72" stroke="#6f8f72" points="625.88,-476.65 631.99,-468 621.82,-470.95 625.88,-476.65"/>
</a>
</g>
</g>
<!-- n15 -->
<g id="node16" class="node">
<title>n15</title>
<g id="a_node16"><a xlink:title="Reply BankID 不是壟斷，是技術中立標準...">
<path fill="#e8f1e8" stroke="#c8b794" d="M199.84,-629.79C199.84,-629.79 28,-629.79 28,-629.79 22,-629.79 16,-623.79 16,-617.79 16,-617.79 16,-605.79 16,-605.79 16,-599.79 22,-593.79 28,-593.79 28,-593.79 199.84,-593.79 199.84,-593.79 205.84,-593.79 211.84,-599.79 211.84,-605.79 211.84,-605.79 211.84,-617.79 211.84,-617.79 211.84,-623.79 205.84,-629.79 199.84,-629.79"/>
<text xml:space="preserve" text-anchor="start" x="26.12" y="-609.79" font-family="Inter, ui-sans-serif, system-ui, -apple-system, BlinkMacSystemFont, Segoe UI, sans-serif" font-weight="bold" font-size="10.00" fill="#2f2a21">Reply BankID 不是壟斷，是技術中立標準...</text>
</a>
</g>
</g>
<!-- n15&#45;&gt;n0 -->
<g id="edge15" class="edge">
<title>n15&#45;&gt;n0</title>
<g id="a_edge15"><a xlink:title="support">
<path fill="none" stroke="#6f8f72" d="M212.18,-605.56C332.16,-597.81 520.87,-585.41 524.4,-583.79 575.32,-560.39 617.34,-508.34 639.75,-476.14"/>
<polygon fill="#6f8f72" stroke="#6f8f72" points="642.49,-478.33 645.21,-468.09 636.7,-474.4 642.49,-478.33"/>
</a>
</g>
</g>
<!-- n15&#45;&gt;n4 -->
<g id="edge13" class="edge">
<title>n15&#45;&gt;n4</title>
<g id="a_edge13"><a xlink:title="attack">
<path fill="none" stroke="#b85b57" d="M212.09,-618.62C232.99,-620.09 255.21,-621.65 276.52,-623.15"/>
<polygon fill="#b85b57" stroke="#b85b57" points="276.18,-626.64 286.4,-623.85 276.67,-619.65 276.18,-626.64"/>
</a>
</g>
</g>
<!-- n16 -->
<g id="node17" class="node">
<title>n16</title>
<g id="a_node17"><a xlink:title="Reply 商業 vs 國家二元批判已過時...">
<path fill="#e8f1e8" stroke="#c8b794" d="M199.84,-703.79C199.84,-703.79 28,-703.79 28,-703.79 22,-703.79 16,-697.79 16,-691.79 16,-691.79 16,-679.79 16,-679.79 16,-673.79 22,-667.79 28,-667.79 28,-667.79 199.84,-667.79 199.84,-667.79 205.84,-667.79 211.84,-673.79 211.84,-679.79 211.84,-679.79 211.84,-691.79 211.84,-691.79 211.84,-697.79 205.84,-703.79 199.84,-703.79"/>
<text xml:space="preserve" text-anchor="start" x="40.57" y="-683.79" font-family="Inter, ui-sans-serif, system-ui, -apple-system, BlinkMacSystemFont, Segoe UI, sans-serif" font-weight="bold" font-size="10.00" fill="#2f2a21">Reply 商業 vs 國家二元批判已過時...</text>
</a>
</g>
</g>
<!-- n16&#45;&gt;n0 -->
<g id="edge18" class="edge">
<title>n16&#45;&gt;n0</title>
<g id="a_edge18"><a xlink:title="support">
<path fill="none" stroke="#6f8f72" d="M212.24,-679.67C332.29,-672.05 521.06,-659.77 524.4,-657.79 593.21,-616.89 632.23,-524.96 648.4,-477.84"/>
<polygon fill="#6f8f72" stroke="#6f8f72" points="651.64,-479.18 651.46,-468.59 645,-476.98 651.64,-479.18"/>
</a>
</g>
</g>
<!-- n16&#45;&gt;n5 -->
<g id="edge16" class="edge">
<title>n16&#45;&gt;n5</title>
<g id="a_edge16"><a xlink:title="attack">
<path fill="none" stroke="#b85b57" d="M212.09,-692.62C232.99,-694.09 255.21,-695.65 276.52,-697.15"/>
<polygon fill="#b85b57" stroke="#b85b57" points="276.18,-700.64 286.4,-697.85 276.67,-693.65 276.18,-700.64"/>
</a>
</g>
</g>
<!-- n17 -->
<g id="node18" class="node">
<title>n17</title>
<g id="a_node18"><a xlink:title="Reply 北歐前提不可移植 模式不可學">
<path fill="#e8f1e8" stroke="#c8b794" d="M199.84,-777.79C199.84,-777.79 28,-777.79 28,-777.79 22,-777.79 16,-771.79 16,-765.79 16,-765.79 16,-753.79 16,-753.79 16,-747.79 22,-741.79 28,-741.79 28,-741.79 199.84,-741.79 199.84,-741.79 205.84,-741.79 211.84,-747.79 211.84,-753.79 211.84,-753.79 211.84,-765.79 211.84,-765.79 211.84,-771.79 205.84,-777.79 199.84,-777.79"/>
<text xml:space="preserve" text-anchor="start" x="43.35" y="-757.79" font-family="Inter, ui-sans-serif, system-ui, -apple-system, BlinkMacSystemFont, Segoe UI, sans-serif" font-weight="bold" font-size="10.00" fill="#2f2a21">Reply 北歐前提不可移植 模式不可學</text>
</a>
</g>
</g>
<!-- n17&#45;&gt;n0 -->
<g id="edge21" class="edge">
<title>n17&#45;&gt;n0</title>
<g id="a_edge21"><a xlink:title="support">
<path fill="none" stroke="#6f8f72" d="M212.28,-753.73C332.37,-746.18 521.19,-733.98 524.4,-731.79 612.21,-671.72 643.47,-537.74 653.31,-478.24"/>
<polygon fill="#6f8f72" stroke="#6f8f72" points="656.74,-478.97 654.81,-468.55 649.82,-477.89 656.74,-478.97"/>
</a>
</g>
</g>
<!-- n17&#45;&gt;n6 -->
<g id="edge19" class="edge">
<title>n17&#45;&gt;n6</title>
<g id="a_edge19"><a xlink:title="attack">
<path fill="none" stroke="#b85b57" d="M212.09,-766.62C232.99,-768.09 255.21,-769.65 276.52,-771.15"/>
<polygon fill="#b85b57" stroke="#b85b57" points="276.18,-774.64 286.4,-771.85 276.67,-767.65 276.18,-774.64"/>
</a>
</g>
</g>
</g>
</svg>
