<?xml version="1.0" encoding="UTF-8" standalone="no"?>
<!DOCTYPE svg PUBLIC "-//W3C//DTD SVG 1.1//EN"
 "http://www.w3.org/Graphics/SVG/1.1/DTD/svg11.dtd">
<!-- Generated by graphviz version 14.1.4 (0)
 -->
<!-- Title: Argument Map Pages: 1 -->
<svg class="argdown-summary-map" width="689pt" height="720pt"
 viewBox="0.00 0.00 689.00 720.00" xmlns="http://www.w3.org/2000/svg" xmlns:xlink="http://www.w3.org/1999/xlink">
<g id="graph0" class="graph" transform="scale(0.854298 0.854298) rotate(0) translate(4 838.8)">
<title>Argument Map</title>
<g id="clust1" class="cluster">
<title>cluster_1</title>
<polygon fill="#f3eadb" stroke="#d4c0a1" points="8,-24.8 8,-826.8 790.5,-826.8 790.5,-24.8 8,-24.8"/>
<text xml:space="preserve" text-anchor="start" x="360.57" y="-810.8" font-family="Inter, ui-sans-serif, system-ui, -apple-system, BlinkMacSystemFont, Segoe UI, sans-serif" font-size="12.00" fill="#2f2a21">Central Thesis</text>
</g>
<!-- n0 -->
<g id="node1" class="node">
<title>n0</title>
<g id="a_node1"><a xlink:title="資訊採購會導致壟斷還是獎勵創新">
<path fill="#fffdf7" stroke="#6f8f72" stroke-width="2" d="M770.5,-466.8C770.5,-466.8 598.66,-466.8 598.66,-466.8 592.66,-466.8 586.66,-460.8 586.66,-454.8 586.66,-454.8 586.66,-442.8 586.66,-442.8 586.66,-436.8 592.66,-430.8 598.66,-430.8 598.66,-430.8 770.5,-430.8 770.5,-430.8 776.5,-430.8 782.5,-436.8 782.5,-442.8 782.5,-442.8 782.5,-454.8 782.5,-454.8 782.5,-460.8 776.5,-466.8 770.5,-466.8"/>
<text xml:space="preserve" text-anchor="start" x="622.07" y="-446.8" font-family="Inter, ui-sans-serif, system-ui, -apple-system, BlinkMacSystemFont, Segoe UI, sans-serif" font-weight="bold" font-size="10.00" fill="#2f2a21">資訊採購會導致壟斷還是獎勵創新</text>
</a>
</g>
</g>
<!-- n1 -->
<g id="node2" class="node">
<title>n1</title>
<g id="a_node2"><a xlink:title="制度設計決定市場結局">
<path fill="#fffdf7" stroke="#6f8f72" stroke-width="2" d="M226.03,-78.8C226.03,-78.8 54.19,-78.8 54.19,-78.8 48.19,-78.8 42.19,-72.8 42.19,-66.8 42.19,-66.8 42.19,-54.8 42.19,-54.8 42.19,-48.8 48.19,-42.8 54.19,-42.8 54.19,-42.8 226.03,-42.8 226.03,-42.8 232.03,-42.8 238.03,-48.8 238.03,-54.8 238.03,-54.8 238.03,-66.8 238.03,-66.8 238.03,-72.8 232.03,-78.8 226.03,-78.8"/>
<text xml:space="preserve" text-anchor="start" x="98.43" y="-58.8" font-family="Inter, ui-sans-serif, system-ui, -apple-system, BlinkMacSystemFont, Segoe UI, sans-serif" font-weight="bold" font-size="10.00" fill="#2f2a21">制度設計決定市場結局</text>
</a>
</g>
</g>
<!-- n1&#45;&gt;n0 -->
<g id="edge2" class="edge">
<title>n1&#45;&gt;n0</title>
<g id="a_edge2"><a xlink:title="support">
<path fill="none" stroke="#6f8f72" d="M186.26,-42.41C267.69,-12.52 440.87,35.72 550.66,-43.8 674.4,-133.42 685,-341.89 684.47,-419.23"/>
<polygon fill="#6f8f72" stroke="#6f8f72" points="680.98,-418.91 684.33,-428.97 687.98,-419.02 680.98,-418.91"/>
</a>
</g>
</g>
<!-- n3 -->
<g id="node4" class="node">
<title>n3</title>
<g id="a_node4"><a xlink:title="流程電子化即市場開放">
<path fill="#fffdf7" stroke="#6f8f72" stroke-width="2" d="M511.36,-88.8C511.36,-88.8 339.52,-88.8 339.52,-88.8 333.52,-88.8 327.52,-82.8 327.52,-76.8 327.52,-76.8 327.52,-64.8 327.52,-64.8 327.52,-58.8 333.52,-52.8 339.52,-52.8 339.52,-52.8 511.36,-52.8 511.36,-52.8 517.36,-52.8 523.36,-58.8 523.36,-64.8 523.36,-64.8 523.36,-76.8 523.36,-76.8 523.36,-82.8 517.36,-88.8 511.36,-88.8"/>
<text xml:space="preserve" text-anchor="start" x="383.76" y="-68.8" font-family="Inter, ui-sans-serif, system-ui, -apple-system, BlinkMacSystemFont, Segoe UI, sans-serif" font-weight="bold" font-size="10.00" fill="#2f2a21">流程電子化即市場開放</text>
</a>
</g>
</g>
<!-- n1&#45;&gt;n3 -->
<g id="edge11" class="edge">
<title>n1&#45;&gt;n3</title>
<g id="a_edge11"><a xlink:title="attack">
<path fill="none" stroke="#b85b57" d="M238.22,-64.22C263.34,-65.11 290.53,-66.07 316.18,-66.98"/>
<polygon fill="#b85b57" stroke="#b85b57" points="315.83,-70.47 325.94,-67.32 316.07,-63.47 315.83,-70.47"/>
</a>
</g>
</g>
<!-- n2 -->
<g id="node3" class="node">
<title>n2</title>
<g id="a_node3"><a xlink:title="任何資訊採購制度要把市場往開放方向拉，必須通過六道條件">
<path fill="#fffdf7" stroke="#6f8f72" stroke-width="2" d="M535.88,-142.8C535.88,-142.8 315,-142.8 315,-142.8 309,-142.8 303,-136.8 303,-130.8 303,-130.8 303,-118.8 303,-118.8 303,-112.8 309,-106.8 315,-106.8 315,-106.8 535.88,-106.8 535.88,-106.8 541.88,-106.8 547.88,-112.8 547.88,-118.8 547.88,-118.8 547.88,-130.8 547.88,-130.8 547.88,-136.8 541.88,-142.8 535.88,-142.8"/>
<text xml:space="preserve" text-anchor="start" x="312.92" y="-122.8" font-family="Inter, ui-sans-serif, system-ui, -apple-system, BlinkMacSystemFont, Segoe UI, sans-serif" font-weight="bold" font-size="10.00" fill="#2f2a21">任何資訊採購制度要把市場往開放方向拉，必須通過六道條件</text>
</a>
</g>
</g>
<!-- n2&#45;&gt;n0 -->
<g id="edge9" class="edge">
<title>n2&#45;&gt;n0</title>
<g id="a_edge9"><a xlink:title="support">
<path fill="none" stroke="#6f8f72" d="M538.04,-143.23C542.48,-145.75 546.72,-148.6 550.66,-151.8 636.61,-221.59 668.86,-358.61 679.26,-419"/>
<polygon fill="#6f8f72" stroke="#6f8f72" points="675.8,-419.54 680.87,-428.85 682.71,-418.42 675.8,-419.54"/>
</a>
</g>
</g>
<!-- n3&#45;&gt;n0 -->
<g id="edge12" class="edge">
<title>n3&#45;&gt;n0</title>
<g id="a_edge12"><a xlink:title="attack">
<path fill="none" stroke="#b85b57" d="M523.62,-81.73C533.45,-85.72 542.72,-90.95 550.66,-97.8 650.06,-183.48 675.33,-351.6 681.59,-419.41"/>
<polygon fill="#b85b57" stroke="#b85b57" points="678.07,-419.32 682.39,-428.99 685.04,-418.73 678.07,-419.32"/>
</a>
</g>
</g>
<!-- n4 -->
<g id="node5" class="node">
<title>n4</title>
<g id="a_node5"><a xlink:title="Lewis&#45;Faupel et al">
<path fill="#fffdf7" stroke="#6f8f72" stroke-width="2" d="M511.36,-648.8C511.36,-648.8 339.52,-648.8 339.52,-648.8 333.52,-648.8 327.52,-642.8 327.52,-636.8 327.52,-636.8 327.52,-624.8 327.52,-624.8 327.52,-618.8 333.52,-612.8 339.52,-612.8 339.52,-612.8 511.36,-612.8 511.36,-612.8 517.36,-612.8 523.36,-618.8 523.36,-624.8 523.36,-624.8 523.36,-636.8 523.36,-636.8 523.36,-642.8 517.36,-648.8 511.36,-648.8"/>
<text xml:space="preserve" text-anchor="start" x="382.37" y="-628.8" font-family="Inter, ui-sans-serif, system-ui, -apple-system, BlinkMacSystemFont, Segoe UI, sans-serif" font-weight="bold" font-size="10.00" fill="#2f2a21">Lewis&#45;Faupel et al</text>
</a>
</g>
</g>
<!-- n4&#45;&gt;n0 -->
<g id="edge14" class="edge">
<title>n4&#45;&gt;n0</title>
<g id="a_edge14"><a xlink:title="attack">
<path fill="none" stroke="#b85b57" d="M522.43,-612.32C532.31,-608.6 541.92,-604.14 550.66,-598.8 601.72,-567.57 644.18,-510.58 666.54,-476.55"/>
<polygon fill="#b85b57" stroke="#b85b57" points="669.27,-478.77 671.74,-468.46 663.39,-474.98 669.27,-478.77"/>
</a>
</g>
</g>
<!-- n5 -->
<g id="node6" class="node">
<title>n5</title>
<g id="a_node6"><a xlink:title="把大型整合標案切成小工作包就會自動帶來市場開放">
<path fill="#fffdf7" stroke="#6f8f72" stroke-width="2" d="M519.21,-722.8C519.21,-722.8 331.67,-722.8 331.67,-722.8 325.67,-722.8 319.67,-716.8 319.67,-710.8 319.67,-710.8 319.67,-698.8 319.67,-698.8 319.67,-692.8 325.67,-686.8 331.67,-686.8 331.67,-686.8 519.21,-686.8 519.21,-686.8 525.21,-686.8 531.21,-692.8 531.21,-698.8 531.21,-698.8 531.21,-710.8 531.21,-710.8 531.21,-716.8 525.21,-722.8 519.21,-722.8"/>
<text xml:space="preserve" text-anchor="start" x="329.59" y="-702.8" font-family="Inter, ui-sans-serif, system-ui, -apple-system, BlinkMacSystemFont, Segoe UI, sans-serif" font-weight="bold" font-size="10.00" fill="#2f2a21">把大型整合標案切成小工作包就會自動帶來市場開放</text>
</a>
</g>
</g>
<!-- n5&#45;&gt;n0 -->
<g id="edge17" class="edge">
<title>n5&#45;&gt;n0</title>
<g id="a_edge17"><a xlink:title="attack">
<path fill="none" stroke="#b85b57" d="M527.29,-686.31C535.6,-682.6 543.53,-678.14 550.66,-672.8 618.16,-622.15 657.88,-526.31 674.45,-478.08"/>
<polygon fill="#b85b57" stroke="#b85b57" points="677.77,-479.2 677.61,-468.61 671.13,-476.99 677.77,-479.2"/>
</a>
</g>
</g>
<!-- n6 -->
<g id="node7" class="node">
<title>n6</title>
<g id="a_node7"><a xlink:title="市場自我修正 — 不需政府干預">
<path fill="#fffdf7" stroke="#6f8f72" stroke-width="2" d="M511.36,-796.8C511.36,-796.8 339.52,-796.8 339.52,-796.8 333.52,-796.8 327.52,-790.8 327.52,-784.8 327.52,-784.8 327.52,-772.8 327.52,-772.8 327.52,-766.8 333.52,-760.8 339.52,-760.8 339.52,-760.8 511.36,-760.8 511.36,-760.8 517.36,-760.8 523.36,-766.8 523.36,-772.8 523.36,-772.8 523.36,-784.8 523.36,-784.8 523.36,-790.8 517.36,-796.8 511.36,-796.8"/>
<text xml:space="preserve" text-anchor="start" x="368.48" y="-776.8" font-family="Inter, ui-sans-serif, system-ui, -apple-system, BlinkMacSystemFont, Segoe UI, sans-serif" font-weight="bold" font-size="10.00" fill="#2f2a21">市場自我修正 — 不需政府干預</text>
</a>
</g>
</g>
<!-- n6&#45;&gt;n0 -->
<g id="edge20" class="edge">
<title>n6&#45;&gt;n0</title>
<g id="a_edge20"><a xlink:title="attack">
<path fill="none" stroke="#b85b57" d="M523.65,-763.15C533.42,-758.91 542.67,-753.55 550.66,-746.8 635.46,-675.13 668.32,-538.52 679.07,-478.42"/>
<polygon fill="#b85b57" stroke="#b85b57" points="682.51,-479.08 680.73,-468.63 675.61,-477.9 682.51,-479.08"/>
</a>
</g>
</g>
<!-- n7 -->
<g id="node8" class="node">
<title>n7</title>
<g id="a_node8"><a xlink:title="Formal Core">
<path fill="#e8f1e8" stroke="#c8b794" d="M511.36,-196.8C511.36,-196.8 339.52,-196.8 339.52,-196.8 333.52,-196.8 327.52,-190.8 327.52,-184.8 327.52,-184.8 327.52,-172.8 327.52,-172.8 327.52,-166.8 333.52,-160.8 339.52,-160.8 339.52,-160.8 511.36,-160.8 511.36,-160.8 517.36,-160.8 523.36,-166.8 523.36,-172.8 523.36,-172.8 523.36,-184.8 523.36,-184.8 523.36,-190.8 517.36,-196.8 511.36,-196.8"/>
<text xml:space="preserve" text-anchor="start" x="395.99" y="-176.8" font-family="Inter, ui-sans-serif, system-ui, -apple-system, BlinkMacSystemFont, Segoe UI, sans-serif" font-weight="bold" font-size="10.00" fill="#2f2a21">Formal Core</text>
</a>
</g>
</g>
<!-- n7&#45;&gt;n0 -->
<g id="edge1" class="edge">
<title>n7&#45;&gt;n0</title>
<g id="a_edge1"><a xlink:title="support">
<path fill="none" stroke="#6f8f72" d="M523.66,-191.22C533.31,-194.95 542.53,-199.72 550.66,-205.8 623.72,-260.44 661.49,-367.55 676.16,-419.35"/>
<polygon fill="#6f8f72" stroke="#6f8f72" points="672.76,-420.21 678.77,-428.94 679.52,-418.37 672.76,-420.21"/>
</a>
</g>
</g>
<!-- n8 -->
<g id="node9" class="node">
<title>n8</title>
<g id="a_node9"><a xlink:title="兩種集中必須拆開觀察">
<path fill="#e8f1e8" stroke="#c8b794" d="M511.36,-250.8C511.36,-250.8 339.52,-250.8 339.52,-250.8 333.52,-250.8 327.52,-244.8 327.52,-238.8 327.52,-238.8 327.52,-226.8 327.52,-226.8 327.52,-220.8 333.52,-214.8 339.52,-214.8 339.52,-214.8 511.36,-214.8 511.36,-214.8 517.36,-214.8 523.36,-220.8 523.36,-226.8 523.36,-226.8 523.36,-238.8 523.36,-238.8 523.36,-244.8 517.36,-250.8 511.36,-250.8"/>
<text xml:space="preserve" text-anchor="start" x="383.76" y="-230.8" font-family="Inter, ui-sans-serif, system-ui, -apple-system, BlinkMacSystemFont, Segoe UI, sans-serif" font-weight="bold" font-size="10.00" fill="#2f2a21">兩種集中必須拆開觀察</text>
</a>
</g>
</g>
<!-- n8&#45;&gt;n0 -->
<g id="edge3" class="edge">
<title>n8&#45;&gt;n0</title>
<g id="a_edge3"><a xlink:title="support">
<path fill="none" stroke="#6f8f72" d="M523.63,-246.4C533.18,-249.91 542.38,-254.31 550.66,-259.8 611.25,-300.01 652.69,-378.06 671.71,-420.18"/>
<polygon fill="#6f8f72" stroke="#6f8f72" points="668.43,-421.43 675.66,-429.18 674.84,-418.61 668.43,-421.43"/>
</a>
</g>
</g>
<!-- n9 -->
<g id="node10" class="node">
<title>n9</title>
<g id="a_node10"><a xlink:title="為什麼制度會把市場推向集中">
<path fill="#e8f1e8" stroke="#c8b794" d="M511.36,-304.8C511.36,-304.8 339.52,-304.8 339.52,-304.8 333.52,-304.8 327.52,-298.8 327.52,-292.8 327.52,-292.8 327.52,-280.8 327.52,-280.8 327.52,-274.8 333.52,-268.8 339.52,-268.8 339.52,-268.8 511.36,-268.8 511.36,-268.8 517.36,-268.8 523.36,-274.8 523.36,-280.8 523.36,-280.8 523.36,-292.8 523.36,-292.8 523.36,-298.8 517.36,-304.8 511.36,-304.8"/>
<text xml:space="preserve" text-anchor="start" x="371.26" y="-284.8" font-family="Inter, ui-sans-serif, system-ui, -apple-system, BlinkMacSystemFont, Segoe UI, sans-serif" font-weight="bold" font-size="10.00" fill="#2f2a21">為什麼制度會把市場推向集中</text>
</a>
</g>
</g>
<!-- n9&#45;&gt;n0 -->
<g id="edge4" class="edge">
<title>n9&#45;&gt;n0</title>
<g id="a_edge4"><a xlink:title="support">
<path fill="none" stroke="#6f8f72" d="M523.74,-302.15C533.11,-305.33 542.25,-309.16 550.66,-313.8 599.22,-340.55 641.46,-390.6 664.65,-421.67"/>
<polygon fill="#6f8f72" stroke="#6f8f72" points="661.6,-423.43 670.33,-429.44 667.25,-419.3 661.6,-423.43"/>
</a>
</g>
</g>
<!-- n10 -->
<g id="node11" class="node">
<title>n10</title>
<g id="a_node11"><a xlink:title="制度可以把市場往較開放的方向拉">
<path fill="#e8f1e8" stroke="#c8b794" d="M511.36,-358.8C511.36,-358.8 339.52,-358.8 339.52,-358.8 333.52,-358.8 327.52,-352.8 327.52,-346.8 327.52,-346.8 327.52,-334.8 327.52,-334.8 327.52,-328.8 333.52,-322.8 339.52,-322.8 339.52,-322.8 511.36,-322.8 511.36,-322.8 517.36,-322.8 523.36,-328.8 523.36,-334.8 523.36,-334.8 523.36,-346.8 523.36,-346.8 523.36,-352.8 517.36,-358.8 511.36,-358.8"/>
<text xml:space="preserve" text-anchor="start" x="362.93" y="-338.8" font-family="Inter, ui-sans-serif, system-ui, -apple-system, BlinkMacSystemFont, Segoe UI, sans-serif" font-weight="bold" font-size="10.00" fill="#2f2a21">制度可以把市場往較開放的方向拉</text>
</a>
</g>
</g>
<!-- n10&#45;&gt;n0 -->
<g id="edge5" class="edge">
<title>n10&#45;&gt;n0</title>
<g id="a_edge5"><a xlink:title="support">
<path fill="none" stroke="#6f8f72" d="M523.69,-358.64C532.93,-361.31 542.05,-364.35 550.66,-367.8 586.7,-382.22 624.15,-405.96 650.07,-424.02"/>
<polygon fill="#6f8f72" stroke="#6f8f72" points="648,-426.84 658.18,-429.76 652.04,-421.13 648,-426.84"/>
</a>
</g>
</g>
<!-- n11 -->
<g id="node12" class="node">
<title>n11</title>
<g id="a_node12"><a xlink:title="工具有效性的條件而非萬靈丹">
<path fill="#e8f1e8" stroke="#c8b794" d="M511.36,-412.8C511.36,-412.8 339.52,-412.8 339.52,-412.8 333.52,-412.8 327.52,-406.8 327.52,-400.8 327.52,-400.8 327.52,-388.8 327.52,-388.8 327.52,-382.8 333.52,-376.8 339.52,-376.8 339.52,-376.8 511.36,-376.8 511.36,-376.8 517.36,-376.8 523.36,-382.8 523.36,-388.8 523.36,-388.8 523.36,-400.8 523.36,-400.8 523.36,-406.8 517.36,-412.8 511.36,-412.8"/>
<text xml:space="preserve" text-anchor="start" x="371.26" y="-392.8" font-family="Inter, ui-sans-serif, system-ui, -apple-system, BlinkMacSystemFont, Segoe UI, sans-serif" font-weight="bold" font-size="10.00" fill="#2f2a21">工具有效性的條件而非萬靈丹</text>
</a>
</g>
</g>
<!-- n11&#45;&gt;n0 -->
<g id="edge6" class="edge">
<title>n11&#45;&gt;n0</title>
<g id="a_edge6"><a xlink:title="support">
<path fill="none" stroke="#6f8f72" d="M514.21,-413.23C536.84,-417.98 561.36,-423.13 584.52,-427.99"/>
<polygon fill="#6f8f72" stroke="#6f8f72" points="583.78,-431.41 594.28,-430.04 585.22,-424.56 583.78,-431.41"/>
</a>
</g>
</g>
<!-- n12 -->
<g id="node13" class="node">
<title>n12</title>
<g id="a_node13"><a xlink:title="工具實作的歷史先例與技術可行性">
<path fill="#e8f1e8" stroke="#c8b794" d="M511.36,-466.8C511.36,-466.8 339.52,-466.8 339.52,-466.8 333.52,-466.8 327.52,-460.8 327.52,-454.8 327.52,-454.8 327.52,-442.8 327.52,-442.8 327.52,-436.8 333.52,-430.8 339.52,-430.8 339.52,-430.8 511.36,-430.8 511.36,-430.8 517.36,-430.8 523.36,-436.8 523.36,-442.8 523.36,-442.8 523.36,-454.8 523.36,-454.8 523.36,-460.8 517.36,-466.8 511.36,-466.8"/>
<text xml:space="preserve" text-anchor="start" x="362.93" y="-446.8" font-family="Inter, ui-sans-serif, system-ui, -apple-system, BlinkMacSystemFont, Segoe UI, sans-serif" font-weight="bold" font-size="10.00" fill="#2f2a21">工具實作的歷史先例與技術可行性</text>
</a>
</g>
</g>
<!-- n12&#45;&gt;n0 -->
<g id="edge7" class="edge">
<title>n12&#45;&gt;n0</title>
<g id="a_edge7"><a xlink:title="support">
<path fill="none" stroke="#6f8f72" d="M523.65,-448.8C540.45,-448.8 558.01,-448.8 575.09,-448.8"/>
<polygon fill="#6f8f72" stroke="#6f8f72" points="574.71,-452.3 584.71,-448.8 574.71,-445.3 574.71,-452.3"/>
</a>
</g>
</g>
<!-- n13 -->
<g id="node14" class="node">
<title>n13</title>
<g id="a_node14"><a xlink:title="框架協議閉鎖效應五步因果鏈（早期名單 深度依賴 續約鎖定）">
<path fill="#e8f1e8" stroke="#c8b794" d="M538.66,-520.8C538.66,-520.8 312.22,-520.8 312.22,-520.8 306.22,-520.8 300.22,-514.8 300.22,-508.8 300.22,-508.8 300.22,-496.8 300.22,-496.8 300.22,-490.8 306.22,-484.8 312.22,-484.8 312.22,-484.8 538.66,-484.8 538.66,-484.8 544.66,-484.8 550.66,-490.8 550.66,-496.8 550.66,-496.8 550.66,-508.8 550.66,-508.8 550.66,-514.8 544.66,-520.8 538.66,-520.8"/>
<text xml:space="preserve" text-anchor="start" x="310.14" y="-500.8" font-family="Inter, ui-sans-serif, system-ui, -apple-system, BlinkMacSystemFont, Segoe UI, sans-serif" font-weight="bold" font-size="10.00" fill="#2f2a21">框架協議閉鎖效應五步因果鏈（早期名單 深度依賴 續約鎖定）</text>
</a>
</g>
</g>
<!-- n13&#45;&gt;n0 -->
<g id="edge8" class="edge">
<title>n13&#45;&gt;n0</title>
<g id="a_edge8"><a xlink:title="support">
<path fill="none" stroke="#6f8f72" d="M514.21,-484.36C536.84,-479.61 561.36,-474.46 584.52,-469.6"/>
<polygon fill="#6f8f72" stroke="#6f8f72" points="585.22,-473.03 594.28,-467.55 583.78,-466.18 585.22,-473.03"/>
</a>
</g>
</g>
<!-- n14 -->
<g id="node15" class="node">
<title>n14</title>
<g id="a_node15"><a xlink:title="Conclusion">
<path fill="#e8f1e8" stroke="#c8b794" d="M511.36,-574.8C511.36,-574.8 339.52,-574.8 339.52,-574.8 333.52,-574.8 327.52,-568.8 327.52,-562.8 327.52,-562.8 327.52,-550.8 327.52,-550.8 327.52,-544.8 333.52,-538.8 339.52,-538.8 339.52,-538.8 511.36,-538.8 511.36,-538.8 517.36,-538.8 523.36,-544.8 523.36,-550.8 523.36,-550.8 523.36,-562.8 523.36,-562.8 523.36,-568.8 517.36,-574.8 511.36,-574.8"/>
<text xml:space="preserve" text-anchor="start" x="398.22" y="-554.8" font-family="Inter, ui-sans-serif, system-ui, -apple-system, BlinkMacSystemFont, Segoe UI, sans-serif" font-weight="bold" font-size="10.00" fill="#2f2a21">Conclusion</text>
</a>
</g>
</g>
<!-- n14&#45;&gt;n0 -->
<g id="edge10" class="edge">
<title>n14&#45;&gt;n0</title>
<g id="a_edge10"><a xlink:title="support">
<path fill="none" stroke="#6f8f72" d="M523.69,-538.96C532.93,-536.28 542.05,-533.24 550.66,-529.8 586.7,-515.37 624.15,-491.63 650.07,-473.57"/>
<polygon fill="#6f8f72" stroke="#6f8f72" points="652.04,-476.47 658.18,-467.84 648,-470.75 652.04,-476.47"/>
</a>
</g>
</g>
<!-- n15 -->
<g id="node16" class="node">
<title>n15</title>
<g id="a_node16"><a xlink:title="Reply Lewis&#45;Faupel et al. 2016...">
<path fill="#e8f1e8" stroke="#c8b794" d="M226.03,-629.8C226.03,-629.8 54.19,-629.8 54.19,-629.8 48.19,-629.8 42.19,-623.8 42.19,-617.8 42.19,-617.8 42.19,-605.8 42.19,-605.8 42.19,-599.8 48.19,-593.8 54.19,-593.8 54.19,-593.8 226.03,-593.8 226.03,-593.8 232.03,-593.8 238.03,-599.8 238.03,-605.8 238.03,-605.8 238.03,-617.8 238.03,-617.8 238.03,-623.8 232.03,-629.8 226.03,-629.8"/>
<text xml:space="preserve" text-anchor="start" x="63.97" y="-609.8" font-family="Inter, ui-sans-serif, system-ui, -apple-system, BlinkMacSystemFont, Segoe UI, sans-serif" font-weight="bold" font-size="10.00" fill="#2f2a21">Reply Lewis&#45;Faupel et al. 2016...</text>
</a>
</g>
</g>
<!-- n15&#45;&gt;n0 -->
<g id="edge15" class="edge">
<title>n15&#45;&gt;n0</title>
<g id="a_edge15"><a xlink:title="support">
<path fill="none" stroke="#6f8f72" d="M238.44,-606.88C355.07,-600.73 536.68,-590.22 550.66,-583.8 601.58,-560.4 643.6,-508.35 666.01,-476.15"/>
<polygon fill="#6f8f72" stroke="#6f8f72" points="668.75,-478.34 671.47,-468.1 662.96,-474.41 668.75,-478.34"/>
</a>
</g>
</g>
<!-- n15&#45;&gt;n4 -->
<g id="edge13" class="edge">
<title>n15&#45;&gt;n4</title>
<g id="a_edge13"><a xlink:title="attack">
<path fill="none" stroke="#b85b57" d="M238.22,-618.31C263.34,-619.99 290.53,-621.82 316.18,-623.54"/>
<polygon fill="#b85b57" stroke="#b85b57" points="315.73,-627.02 325.95,-624.19 316.2,-620.03 315.73,-627.02"/>
</a>
</g>
</g>
<!-- n16 -->
<g id="node17" class="node">
<title>n16</title>
<g id="a_node17"><a xlink:title="Reply 分案萬靈丹 — 把標案切小就能促進競爭 OECD 與...">
<path fill="#e8f1e8" stroke="#c8b794" d="M252.22,-703.8C252.22,-703.8 28,-703.8 28,-703.8 22,-703.8 16,-697.8 16,-691.8 16,-691.8 16,-679.8 16,-679.8 16,-673.8 22,-667.8 28,-667.8 28,-667.8 252.22,-667.8 252.22,-667.8 258.22,-667.8 264.22,-673.8 264.22,-679.8 264.22,-679.8 264.22,-691.8 264.22,-691.8 264.22,-697.8 258.22,-703.8 252.22,-703.8"/>
<text xml:space="preserve" text-anchor="start" x="25.92" y="-683.8" font-family="Inter, ui-sans-serif, system-ui, -apple-system, BlinkMacSystemFont, Segoe UI, sans-serif" font-weight="bold" font-size="10.00" fill="#2f2a21">Reply 分案萬靈丹 — 把標案切小就能促進競爭 OECD 與...</text>
</a>
</g>
</g>
<!-- n16&#45;&gt;n0 -->
<g id="edge18" class="edge">
<title>n16&#45;&gt;n0</title>
<g id="a_edge18"><a xlink:title="support">
<path fill="none" stroke="#6f8f72" d="M264.53,-678.69C382.85,-671.67 544.47,-661.48 550.66,-657.8 619.47,-616.9 658.49,-524.97 674.66,-477.85"/>
<polygon fill="#6f8f72" stroke="#6f8f72" points="677.9,-479.19 677.72,-468.6 671.26,-476.99 677.9,-479.19"/>
</a>
</g>
</g>
<!-- n16&#45;&gt;n5 -->
<g id="edge16" class="edge">
<title>n16&#45;&gt;n5</title>
<g id="a_edge16"><a xlink:title="attack">
<path fill="none" stroke="#b85b57" d="M264.56,-694.08C279.03,-695.05 293.76,-696.03 308.13,-697"/>
<polygon fill="#b85b57" stroke="#b85b57" points="307.85,-700.49 318.06,-697.66 308.32,-693.5 307.85,-700.49"/>
</a>
</g>
</g>
<!-- n17 -->
<g id="node18" class="node">
<title>n17</title>
<g id="a_node18"><a xlink:title="Reply 市場自我修正 — 不需政府干預...">
<path fill="#e8f1e8" stroke="#c8b794" d="M226.03,-777.8C226.03,-777.8 54.19,-777.8 54.19,-777.8 48.19,-777.8 42.19,-771.8 42.19,-765.8 42.19,-765.8 42.19,-753.8 42.19,-753.8 42.19,-747.8 48.19,-741.8 54.19,-741.8 54.19,-741.8 226.03,-741.8 226.03,-741.8 232.03,-741.8 238.03,-747.8 238.03,-753.8 238.03,-753.8 238.03,-765.8 238.03,-765.8 238.03,-771.8 232.03,-777.8 226.03,-777.8"/>
<text xml:space="preserve" text-anchor="start" x="63.98" y="-757.8" font-family="Inter, ui-sans-serif, system-ui, -apple-system, BlinkMacSystemFont, Segoe UI, sans-serif" font-weight="bold" font-size="10.00" fill="#2f2a21">Reply 市場自我修正 — 不需政府干預...</text>
</a>
</g>
</g>
<!-- n17&#45;&gt;n0 -->
<g id="edge21" class="edge">
<title>n17&#45;&gt;n0</title>
<g id="a_edge21"><a xlink:title="support">
<path fill="none" stroke="#6f8f72" d="M238.28,-754.37C357.36,-747.54 544.26,-736.17 550.66,-731.8 638.47,-671.73 669.73,-537.75 679.57,-478.25"/>
<polygon fill="#6f8f72" stroke="#6f8f72" points="683,-478.98 681.07,-468.56 676.08,-477.9 683,-478.98"/>
</a>
</g>
</g>
<!-- n17&#45;&gt;n6 -->
<g id="edge19" class="edge">
<title>n17&#45;&gt;n6</title>
<g id="a_edge19"><a xlink:title="attack">
<path fill="none" stroke="#b85b57" d="M238.22,-766.31C263.34,-767.99 290.53,-769.82 316.18,-771.54"/>
<polygon fill="#b85b57" stroke="#b85b57" points="315.73,-775.02 325.95,-772.19 316.2,-768.03 315.73,-775.02"/>
</a>
</g>
</g>
</g>
</svg>
