<?xml version="1.0" encoding="UTF-8" standalone="no"?>
<!DOCTYPE svg PUBLIC "-//W3C//DTD SVG 1.1//EN"
 "http://www.w3.org/Graphics/SVG/1.1/DTD/svg11.dtd">
<!-- Generated by graphviz version 14.1.4 (0)
 -->
<!-- Title: Argument Map Pages: 1 -->
<svg class="argdown-summary-map" width="720pt" height="659pt"
 viewBox="0.00 0.00 720.00 659.00" xmlns="http://www.w3.org/2000/svg" xmlns:xlink="http://www.w3.org/1999/xlink">
<g id="graph0" class="graph" transform="scale(0.783119 0.783119) rotate(0) translate(4 837.86)">
<title>Argument Map</title>
<g id="clust1" class="cluster">
<title>cluster_1</title>
<polygon fill="#f3eadb" stroke="#d4c0a1" points="8,-23.86 8,-825.86 903.4,-825.86 903.4,-23.86 8,-23.86"/>
<text xml:space="preserve" text-anchor="start" x="417.02" y="-809.86" font-family="Inter, ui-sans-serif, system-ui, -apple-system, BlinkMacSystemFont, Segoe UI, sans-serif" font-size="12.00" fill="#2f2a21">Central Thesis</text>
</g>
<!-- n0 -->
<g id="node1" class="node">
<title>n0</title>
<g id="a_node1"><a xlink:title="為什麼憑證的撤銷一定要回家報到：no&#45;phone&#45;home 的工程經濟學">
<path fill="#fffdf7" stroke="#6f8f72" stroke-width="2" d="M883.4,-465.86C883.4,-465.86 625.87,-465.86 625.87,-465.86 619.87,-465.86 613.87,-459.86 613.87,-453.86 613.87,-453.86 613.87,-441.86 613.87,-441.86 613.87,-435.86 619.87,-429.86 625.87,-429.86 625.87,-429.86 883.4,-429.86 883.4,-429.86 889.4,-429.86 895.4,-435.86 895.4,-441.86 895.4,-441.86 895.4,-453.86 895.4,-453.86 895.4,-459.86 889.4,-465.86 883.4,-465.86"/>
<text xml:space="preserve" text-anchor="start" x="623.79" y="-445.86" font-family="Inter, ui-sans-serif, system-ui, -apple-system, BlinkMacSystemFont, Segoe UI, sans-serif" font-weight="bold" font-size="10.00" fill="#2f2a21">為什麼憑證的撤銷一定要回家報到：no&#45;phone&#45;home 的工程經濟學</text>
</a>
</g>
</g>
<!-- n1 -->
<g id="node2" class="node">
<title>n1</title>
<g id="a_node2"><a xlink:title="Phone&#45;home 是工程偏好（IDT 解釋） 四件式推力可改變均衡">
<path fill="#fffdf7" stroke="#6f8f72" stroke-width="2" d="M267.2,-77.86C267.2,-77.86 28,-77.86 28,-77.86 22,-77.86 16,-71.86 16,-65.86 16,-65.86 16,-53.86 16,-53.86 16,-47.86 22,-41.86 28,-41.86 28,-41.86 267.2,-41.86 267.2,-41.86 273.2,-41.86 279.2,-47.86 279.2,-53.86 279.2,-53.86 279.2,-65.86 279.2,-65.86 279.2,-71.86 273.2,-77.86 267.2,-77.86"/>
<text xml:space="preserve" text-anchor="start" x="25.92" y="-57.86" font-family="Inter, ui-sans-serif, system-ui, -apple-system, BlinkMacSystemFont, Segoe UI, sans-serif" font-weight="bold" font-size="10.00" fill="#2f2a21">Phone&#45;home 是工程偏好（IDT 解釋） 四件式推力可改變均衡</text>
</a>
</g>
</g>
<!-- n1&#45;&gt;n0 -->
<g id="edge2" class="edge">
<title>n1&#45;&gt;n0</title>
<g id="a_edge2"><a xlink:title="support">
<path fill="none" stroke="#6f8f72" d="M196.2,-41.43C280.79,-12.01 459.54,34.78 577.87,-42.86 710.48,-129.87 743.55,-340.83 751.36,-418.51"/>
<polygon fill="#6f8f72" stroke="#6f8f72" points="747.85,-418.65 752.26,-428.29 754.82,-418.01 747.85,-418.65"/>
</a>
</g>
</g>
<!-- n3 -->
<g id="node4" class="node">
<title>n3</title>
<g id="a_node4"><a xlink:title="Phone&#45;home 是撤銷新鮮度的工程必然">
<path fill="#fffdf7" stroke="#6f8f72" stroke-width="2" d="M532.46,-87.86C532.46,-87.86 360.62,-87.86 360.62,-87.86 354.62,-87.86 348.62,-81.86 348.62,-75.86 348.62,-75.86 348.62,-63.86 348.62,-63.86 348.62,-57.86 354.62,-51.86 360.62,-51.86 360.62,-51.86 532.46,-51.86 532.46,-51.86 538.46,-51.86 544.46,-57.86 544.46,-63.86 544.46,-63.86 544.46,-75.86 544.46,-75.86 544.46,-81.86 538.46,-87.86 532.46,-87.86"/>
<text xml:space="preserve" text-anchor="start" x="369.03" y="-67.86" font-family="Inter, ui-sans-serif, system-ui, -apple-system, BlinkMacSystemFont, Segoe UI, sans-serif" font-weight="bold" font-size="10.00" fill="#2f2a21">Phone&#45;home 是撤銷新鮮度的工程必然</text>
</a>
</g>
</g>
<!-- n1&#45;&gt;n3 -->
<g id="edge11" class="edge">
<title>n1&#45;&gt;n3</title>
<g id="a_edge11"><a xlink:title="attack">
<path fill="none" stroke="#b85b57" d="M279.27,-64.26C298.56,-64.91 318.26,-65.57 337.03,-66.2"/>
<polygon fill="#b85b57" stroke="#b85b57" points="336.66,-69.69 346.77,-66.53 336.89,-62.7 336.66,-69.69"/>
</a>
</g>
</g>
<!-- n2 -->
<g id="node3" class="node">
<title>n2</title>
<g id="a_node3"><a xlink:title="No&#45;phone&#45;home 的合法部署，必須通過四件式推力 五場景...">
<path fill="#fffdf7" stroke="#6f8f72" stroke-width="2" d="M564.75,-141.86C564.75,-141.86 328.33,-141.86 328.33,-141.86 322.33,-141.86 316.33,-135.86 316.33,-129.86 316.33,-129.86 316.33,-117.86 316.33,-117.86 316.33,-111.86 322.33,-105.86 328.33,-105.86 328.33,-105.86 564.75,-105.86 564.75,-105.86 570.75,-105.86 576.75,-111.86 576.75,-117.86 576.75,-117.86 576.75,-129.86 576.75,-129.86 576.75,-135.86 570.75,-141.86 564.75,-141.86"/>
<text xml:space="preserve" text-anchor="start" x="326.25" y="-121.86" font-family="Inter, ui-sans-serif, system-ui, -apple-system, BlinkMacSystemFont, Segoe UI, sans-serif" font-weight="bold" font-size="10.00" fill="#2f2a21">No&#45;phone&#45;home 的合法部署，必須通過四件式推力 五場景...</text>
</a>
</g>
</g>
<!-- n2&#45;&gt;n0 -->
<g id="edge9" class="edge">
<title>n2&#45;&gt;n0</title>
<g id="a_edge9"><a xlink:title="support">
<path fill="none" stroke="#6f8f72" d="M563.53,-142.25C568.55,-144.78 573.36,-147.63 577.87,-150.86 673.85,-219.43 726.16,-358.19 745.2,-418.62"/>
<polygon fill="#6f8f72" stroke="#6f8f72" points="741.85,-419.64 748.12,-428.17 748.54,-417.59 741.85,-419.64"/>
</a>
</g>
</g>
<!-- n3&#45;&gt;n0 -->
<g id="edge12" class="edge">
<title>n3&#45;&gt;n0</title>
<g id="a_edge12"><a xlink:title="attack">
<path fill="none" stroke="#b85b57" d="M544.78,-79.67C556.67,-83.76 568.07,-89.32 577.87,-96.86 686.69,-180.52 733.08,-349.8 747.91,-418.19"/>
<polygon fill="#b85b57" stroke="#b85b57" points="744.47,-418.83 749.94,-427.9 751.32,-417.39 744.47,-418.83"/>
</a>
</g>
</g>
<!-- n4 -->
<g id="node5" class="node">
<title>n4</title>
<g id="a_node5"><a xlink:title="金融制裁名單即時更新需要 verifier 直接接觸 issuer">
<path fill="#fffdf7" stroke="#6f8f72" stroke-width="2" d="M546.71,-647.86C546.71,-647.86 346.36,-647.86 346.36,-647.86 340.36,-647.86 334.36,-641.86 334.36,-635.86 334.36,-635.86 334.36,-623.86 334.36,-623.86 334.36,-617.86 340.36,-611.86 346.36,-611.86 346.36,-611.86 546.71,-611.86 546.71,-611.86 552.71,-611.86 558.71,-617.86 558.71,-623.86 558.71,-623.86 558.71,-635.86 558.71,-635.86 558.71,-641.86 552.71,-647.86 546.71,-647.86"/>
<text xml:space="preserve" text-anchor="start" x="344.28" y="-627.86" font-family="Inter, ui-sans-serif, system-ui, -apple-system, BlinkMacSystemFont, Segoe UI, sans-serif" font-weight="bold" font-size="10.00" fill="#2f2a21">金融制裁名單即時更新需要 verifier 直接接觸 issuer</text>
</a>
</g>
</g>
<!-- n4&#45;&gt;n0 -->
<g id="edge14" class="edge">
<title>n4&#45;&gt;n0</title>
<g id="a_edge14"><a xlink:title="attack">
<path fill="none" stroke="#b85b57" d="M544.76,-611.36C556.21,-607.63 567.5,-603.17 577.87,-597.86 639.81,-566.11 698.52,-508.5 729.94,-474.66"/>
<polygon fill="#b85b57" stroke="#b85b57" points="732.49,-477.05 736.66,-467.31 727.33,-472.33 732.49,-477.05"/>
</a>
</g>
</g>
<!-- n5 -->
<g id="node6" class="node">
<title>n5</title>
<g id="a_node6"><a xlink:title="W3C Bitstring Status List...">
<path fill="#fffdf7" stroke="#6f8f72" stroke-width="2" d="M532.46,-721.86C532.46,-721.86 360.62,-721.86 360.62,-721.86 354.62,-721.86 348.62,-715.86 348.62,-709.86 348.62,-709.86 348.62,-697.86 348.62,-697.86 348.62,-691.86 354.62,-685.86 360.62,-685.86 360.62,-685.86 532.46,-685.86 532.46,-685.86 538.46,-685.86 544.46,-691.86 544.46,-697.86 544.46,-697.86 544.46,-709.86 544.46,-709.86 544.46,-715.86 538.46,-721.86 532.46,-721.86"/>
<text xml:space="preserve" text-anchor="start" x="382.37" y="-701.86" font-family="Inter, ui-sans-serif, system-ui, -apple-system, BlinkMacSystemFont, Segoe UI, sans-serif" font-weight="bold" font-size="10.00" fill="#2f2a21">W3C Bitstring Status List...</text>
</a>
</g>
</g>
<!-- n5&#45;&gt;n0 -->
<g id="edge17" class="edge">
<title>n5&#45;&gt;n0</title>
<g id="a_edge17"><a xlink:title="attack">
<path fill="none" stroke="#b85b57" d="M544.87,-687.68C556.49,-683.55 567.79,-678.36 577.87,-671.86 655.87,-621.52 714.02,-524.49 739.47,-476.37"/>
<polygon fill="#b85b57" stroke="#b85b57" points="742.48,-478.16 743.98,-467.67 736.26,-474.93 742.48,-478.16"/>
</a>
</g>
</g>
<!-- n6 -->
<g id="node7" class="node">
<title>n6</title>
<g id="a_node7"><a xlink:title="issuer 在 GDPR 規範下不會蒐集驗證資料 E(I)...">
<path fill="#fffdf7" stroke="#6f8f72" stroke-width="2" d="M541.42,-795.86C541.42,-795.86 351.65,-795.86 351.65,-795.86 345.65,-795.86 339.65,-789.86 339.65,-783.86 339.65,-783.86 339.65,-771.86 339.65,-771.86 339.65,-765.86 345.65,-759.86 351.65,-759.86 351.65,-759.86 541.42,-759.86 541.42,-759.86 547.42,-759.86 553.42,-765.86 553.42,-771.86 553.42,-771.86 553.42,-783.86 553.42,-783.86 553.42,-789.86 547.42,-795.86 541.42,-795.86"/>
<text xml:space="preserve" text-anchor="start" x="349.57" y="-775.86" font-family="Inter, ui-sans-serif, system-ui, -apple-system, BlinkMacSystemFont, Segoe UI, sans-serif" font-weight="bold" font-size="10.00" fill="#2f2a21">issuer 在 GDPR 規範下不會蒐集驗證資料 E(I)...</text>
</a>
</g>
</g>
<!-- n6&#45;&gt;n0 -->
<g id="edge20" class="edge">
<title>n6&#45;&gt;n0</title>
<g id="a_edge20"><a xlink:title="attack">
<path fill="none" stroke="#b85b57" d="M553.67,-759.69C562.28,-755.91 570.49,-751.35 577.87,-745.86 672.74,-675.32 725.63,-537.11 745.01,-476.97"/>
<polygon fill="#b85b57" stroke="#b85b57" points="748.23,-478.38 747.89,-467.79 741.55,-476.29 748.23,-478.38"/>
</a>
</g>
</g>
<!-- n7 -->
<g id="node8" class="node">
<title>n7</title>
<g id="a_node8"><a xlink:title="Formal Core">
<path fill="#e8f1e8" stroke="#c8b794" d="M532.46,-195.86C532.46,-195.86 360.62,-195.86 360.62,-195.86 354.62,-195.86 348.62,-189.86 348.62,-183.86 348.62,-183.86 348.62,-171.86 348.62,-171.86 348.62,-165.86 354.62,-159.86 360.62,-159.86 360.62,-159.86 532.46,-159.86 532.46,-159.86 538.46,-159.86 544.46,-165.86 544.46,-171.86 544.46,-171.86 544.46,-183.86 544.46,-183.86 544.46,-189.86 538.46,-195.86 532.46,-195.86"/>
<text xml:space="preserve" text-anchor="start" x="417.09" y="-175.86" font-family="Inter, ui-sans-serif, system-ui, -apple-system, BlinkMacSystemFont, Segoe UI, sans-serif" font-weight="bold" font-size="10.00" fill="#2f2a21">Formal Core</text>
</a>
</g>
</g>
<!-- n7&#45;&gt;n0 -->
<g id="edge1" class="edge">
<title>n7&#45;&gt;n0</title>
<g id="a_edge1"><a xlink:title="support">
<path fill="none" stroke="#6f8f72" d="M544.71,-189.53C556.42,-193.34 567.78,-198.33 577.87,-204.86 661.35,-258.89 718.1,-367.55 741.54,-419.26"/>
<polygon fill="#6f8f72" stroke="#6f8f72" points="738.29,-420.57 745.54,-428.29 744.69,-417.73 738.29,-420.57"/>
</a>
</g>
</g>
<!-- n8 -->
<g id="node9" class="node">
<title>n8</title>
<g id="a_node9"><a xlink:title="六族 變種、五維度 trade&#45;off">
<path fill="#e8f1e8" stroke="#c8b794" d="M532.46,-249.86C532.46,-249.86 360.62,-249.86 360.62,-249.86 354.62,-249.86 348.62,-243.86 348.62,-237.86 348.62,-237.86 348.62,-225.86 348.62,-225.86 348.62,-219.86 354.62,-213.86 360.62,-213.86 360.62,-213.86 532.46,-213.86 532.46,-213.86 538.46,-213.86 544.46,-219.86 544.46,-225.86 544.46,-225.86 544.46,-237.86 544.46,-237.86 544.46,-243.86 538.46,-249.86 532.46,-249.86"/>
<text xml:space="preserve" text-anchor="start" x="390.14" y="-229.86" font-family="Inter, ui-sans-serif, system-ui, -apple-system, BlinkMacSystemFont, Segoe UI, sans-serif" font-weight="bold" font-size="10.00" fill="#2f2a21">六族 變種、五維度 trade&#45;off</text>
</a>
</g>
</g>
<!-- n8&#45;&gt;n0 -->
<g id="edge3" class="edge">
<title>n8&#45;&gt;n0</title>
<g id="a_edge3"><a xlink:title="support">
<path fill="none" stroke="#6f8f72" d="M544.66,-244.94C556.25,-248.52 567.6,-253.07 577.87,-258.86 649.1,-298.98 708.08,-377.92 736.09,-419.96"/>
<polygon fill="#6f8f72" stroke="#6f8f72" points="733.14,-421.85 741.55,-428.3 739,-418.01 733.14,-421.85"/>
</a>
</g>
</g>
<!-- n9 -->
<g id="node10" class="node">
<title>n9</title>
<g id="a_node10"><a xlink:title="D1&#45;D4 四維度評估">
<path fill="#e8f1e8" stroke="#c8b794" d="M532.46,-303.86C532.46,-303.86 360.62,-303.86 360.62,-303.86 354.62,-303.86 348.62,-297.86 348.62,-291.86 348.62,-291.86 348.62,-279.86 348.62,-279.86 348.62,-273.86 354.62,-267.86 360.62,-267.86 360.62,-267.86 532.46,-267.86 532.46,-267.86 538.46,-267.86 544.46,-273.86 544.46,-279.86 544.46,-279.86 544.46,-291.86 544.46,-291.86 544.46,-297.86 538.46,-303.86 532.46,-303.86"/>
<text xml:space="preserve" text-anchor="start" x="409.86" y="-283.86" font-family="Inter, ui-sans-serif, system-ui, -apple-system, BlinkMacSystemFont, Segoe UI, sans-serif" font-weight="bold" font-size="10.00" fill="#2f2a21">D1&#45;D4 四維度評估</text>
</a>
</g>
</g>
<!-- n9&#45;&gt;n0 -->
<g id="edge4" class="edge">
<title>n9&#45;&gt;n0</title>
<g id="a_edge4"><a xlink:title="support">
<path fill="none" stroke="#6f8f72" d="M544.84,-300.92C556.22,-304.16 567.47,-308.09 577.87,-312.86 637.6,-340.22 695.84,-391.14 728.01,-422.02"/>
<polygon fill="#6f8f72" stroke="#6f8f72" points="725.3,-424.26 734.91,-428.73 730.18,-419.25 725.3,-424.26"/>
</a>
</g>
</g>
<!-- n10 -->
<g id="node11" class="node">
<title>n10</title>
<g id="a_node11"><a xlink:title="P(I R 0, C 0) f(&#45;E, &#45;L, &#45;T) 1.6% to 5%">
<path fill="#e8f1e8" stroke="#c8b794" d="M532.46,-357.86C532.46,-357.86 360.62,-357.86 360.62,-357.86 354.62,-357.86 348.62,-351.86 348.62,-345.86 348.62,-345.86 348.62,-333.86 348.62,-333.86 348.62,-327.86 354.62,-321.86 360.62,-321.86 360.62,-321.86 532.46,-321.86 532.46,-321.86 538.46,-321.86 544.46,-327.86 544.46,-333.86 544.46,-333.86 544.46,-345.86 544.46,-345.86 544.46,-351.86 538.46,-357.86 532.46,-357.86"/>
<text xml:space="preserve" text-anchor="start" x="364.87" y="-337.86" font-family="Inter, ui-sans-serif, system-ui, -apple-system, BlinkMacSystemFont, Segoe UI, sans-serif" font-weight="bold" font-size="10.00" fill="#2f2a21">P(I R 0, C 0) f(&#45;E, &#45;L, &#45;T) 1.6% to 5%</text>
</a>
</g>
</g>
<!-- n10&#45;&gt;n0 -->
<g id="edge5" class="edge">
<title>n10&#45;&gt;n0</title>
<g id="a_edge5"><a xlink:title="support">
<path fill="none" stroke="#6f8f72" d="M544.63,-357.41C555.94,-360.21 567.23,-363.35 577.87,-366.86 624.49,-382.21 675.14,-406.41 710.04,-424.37"/>
<polygon fill="#6f8f72" stroke="#6f8f72" points="708.06,-427.29 718.55,-428.79 711.29,-421.08 708.06,-427.29"/>
</a>
</g>
</g>
<!-- n11 -->
<g id="node12" class="node">
<title>n11</title>
<g id="a_node12"><a xlink:title="EU 規範分層 AAMVA mDL v1.4 v1.5 半年案例">
<path fill="#e8f1e8" stroke="#c8b794" d="M541.98,-411.86C541.98,-411.86 351.09,-411.86 351.09,-411.86 345.09,-411.86 339.09,-405.86 339.09,-399.86 339.09,-399.86 339.09,-387.86 339.09,-387.86 339.09,-381.86 345.09,-375.86 351.09,-375.86 351.09,-375.86 541.98,-375.86 541.98,-375.86 547.98,-375.86 553.98,-381.86 553.98,-387.86 553.98,-387.86 553.98,-399.86 553.98,-399.86 553.98,-405.86 547.98,-411.86 541.98,-411.86"/>
<text xml:space="preserve" text-anchor="start" x="349.01" y="-391.86" font-family="Inter, ui-sans-serif, system-ui, -apple-system, BlinkMacSystemFont, Segoe UI, sans-serif" font-weight="bold" font-size="10.00" fill="#2f2a21">EU 規範分層 AAMVA mDL v1.4 v1.5 半年案例</text>
</a>
</g>
</g>
<!-- n11&#45;&gt;n0 -->
<g id="edge6" class="edge">
<title>n11&#45;&gt;n0</title>
<g id="a_edge6"><a xlink:title="support">
<path fill="none" stroke="#6f8f72" d="M552.02,-412.29C579.62,-417.16 609.57,-422.44 637.73,-427.41"/>
<polygon fill="#6f8f72" stroke="#6f8f72" points="636.9,-430.82 647.35,-429.11 638.11,-423.92 636.9,-430.82"/>
</a>
</g>
</g>
<!-- n12 -->
<g id="node13" class="node">
<title>n12</title>
<g id="a_node13"><a xlink:title="化解新鮮度反論">
<path fill="#e8f1e8" stroke="#c8b794" d="M532.46,-465.86C532.46,-465.86 360.62,-465.86 360.62,-465.86 354.62,-465.86 348.62,-459.86 348.62,-453.86 348.62,-453.86 348.62,-441.86 348.62,-441.86 348.62,-435.86 354.62,-429.86 360.62,-429.86 360.62,-429.86 532.46,-429.86 532.46,-429.86 538.46,-429.86 544.46,-435.86 544.46,-441.86 544.46,-441.86 544.46,-453.86 544.46,-453.86 544.46,-459.86 538.46,-465.86 532.46,-465.86"/>
<text xml:space="preserve" text-anchor="start" x="417.37" y="-445.86" font-family="Inter, ui-sans-serif, system-ui, -apple-system, BlinkMacSystemFont, Segoe UI, sans-serif" font-weight="bold" font-size="10.00" fill="#2f2a21">化解新鮮度反論</text>
</a>
</g>
</g>
<!-- n12&#45;&gt;n0 -->
<g id="edge7" class="edge">
<title>n12&#45;&gt;n0</title>
<g id="a_edge7"><a xlink:title="support">
<path fill="none" stroke="#6f8f72" d="M544.81,-447.86C563.1,-447.86 582.63,-447.86 602.12,-447.86"/>
<polygon fill="#6f8f72" stroke="#6f8f72" points="602.07,-451.36 612.07,-447.86 602.07,-444.36 602.07,-451.36"/>
</a>
</g>
</g>
<!-- n13 -->
<g id="node14" class="node">
<title>n13</title>
<g id="a_node14"><a xlink:title="Phone&#45;home 默認形成六步因果鏈 從 issuer 動機到工程默認">
<path fill="#e8f1e8" stroke="#c8b794" d="M565.87,-519.86C565.87,-519.86 327.2,-519.86 327.2,-519.86 321.2,-519.86 315.2,-513.86 315.2,-507.86 315.2,-507.86 315.2,-495.86 315.2,-495.86 315.2,-489.86 321.2,-483.86 327.2,-483.86 327.2,-483.86 565.87,-483.86 565.87,-483.86 571.87,-483.86 577.87,-489.86 577.87,-495.86 577.87,-495.86 577.87,-507.86 577.87,-507.86 577.87,-513.86 571.87,-519.86 565.87,-519.86"/>
<text xml:space="preserve" text-anchor="start" x="325.12" y="-499.86" font-family="Inter, ui-sans-serif, system-ui, -apple-system, BlinkMacSystemFont, Segoe UI, sans-serif" font-weight="bold" font-size="10.00" fill="#2f2a21">Phone&#45;home 默認形成六步因果鏈 從 issuer 動機到工程默認</text>
</a>
</g>
</g>
<!-- n13&#45;&gt;n0 -->
<g id="edge8" class="edge">
<title>n13&#45;&gt;n0</title>
<g id="a_edge8"><a xlink:title="support">
<path fill="none" stroke="#6f8f72" d="M552.02,-483.43C579.62,-478.56 609.57,-473.27 637.73,-468.31"/>
<polygon fill="#6f8f72" stroke="#6f8f72" points="638.11,-471.79 647.35,-466.61 636.9,-464.9 638.11,-471.79"/>
</a>
</g>
</g>
<!-- n14 -->
<g id="node15" class="node">
<title>n14</title>
<g id="a_node15"><a xlink:title="Conclusion">
<path fill="#e8f1e8" stroke="#c8b794" d="M532.46,-573.86C532.46,-573.86 360.62,-573.86 360.62,-573.86 354.62,-573.86 348.62,-567.86 348.62,-561.86 348.62,-561.86 348.62,-549.86 348.62,-549.86 348.62,-543.86 354.62,-537.86 360.62,-537.86 360.62,-537.86 532.46,-537.86 532.46,-537.86 538.46,-537.86 544.46,-543.86 544.46,-549.86 544.46,-549.86 544.46,-561.86 544.46,-561.86 544.46,-567.86 538.46,-573.86 532.46,-573.86"/>
<text xml:space="preserve" text-anchor="start" x="419.32" y="-553.86" font-family="Inter, ui-sans-serif, system-ui, -apple-system, BlinkMacSystemFont, Segoe UI, sans-serif" font-weight="bold" font-size="10.00" fill="#2f2a21">Conclusion</text>
</a>
</g>
</g>
<!-- n14&#45;&gt;n0 -->
<g id="edge10" class="edge">
<title>n14&#45;&gt;n0</title>
<g id="a_edge10"><a xlink:title="support">
<path fill="none" stroke="#6f8f72" d="M544.63,-538.31C555.94,-535.51 567.23,-532.36 577.87,-528.86 624.49,-513.51 675.14,-489.3 710.04,-471.34"/>
<polygon fill="#6f8f72" stroke="#6f8f72" points="711.29,-474.64 718.55,-466.92 708.06,-468.43 711.29,-474.64"/>
</a>
</g>
</g>
<!-- n15 -->
<g id="node16" class="node">
<title>n15</title>
<g id="a_node16"><a xlink:title="Reply 金融場景需要即時 phone&#45;home 金融場景的...">
<path fill="#e8f1e8" stroke="#c8b794" d="M251.65,-628.86C251.65,-628.86 43.56,-628.86 43.56,-628.86 37.56,-628.86 31.56,-622.86 31.56,-616.86 31.56,-616.86 31.56,-604.86 31.56,-604.86 31.56,-598.86 37.56,-592.86 43.56,-592.86 43.56,-592.86 251.65,-592.86 251.65,-592.86 257.65,-592.86 263.65,-598.86 263.65,-604.86 263.65,-604.86 263.65,-616.86 263.65,-616.86 263.65,-622.86 257.65,-628.86 251.65,-628.86"/>
<text xml:space="preserve" text-anchor="start" x="41.48" y="-608.86" font-family="Inter, ui-sans-serif, system-ui, -apple-system, BlinkMacSystemFont, Segoe UI, sans-serif" font-weight="bold" font-size="10.00" fill="#2f2a21">Reply 金融場景需要即時 phone&#45;home 金融場景的...</text>
</a>
</g>
</g>
<!-- n15&#45;&gt;n0 -->
<g id="edge15" class="edge">
<title>n15&#45;&gt;n0</title>
<g id="a_edge15"><a xlink:title="support">
<path fill="none" stroke="#6f8f72" d="M263.99,-604.99C386.12,-598.53 563.32,-588.33 577.87,-582.86 640.02,-559.46 698.25,-506.26 729.6,-474.07"/>
<polygon fill="#6f8f72" stroke="#6f8f72" points="731.92,-476.72 736.3,-467.07 726.86,-471.87 731.92,-476.72"/>
</a>
</g>
</g>
<!-- n15&#45;&gt;n4 -->
<g id="edge13" class="edge">
<title>n15&#45;&gt;n4</title>
<g id="a_edge13"><a xlink:title="attack">
<path fill="none" stroke="#b85b57" d="M263.83,-618.23C283.18,-619.47 303.33,-620.76 322.86,-622.01"/>
<polygon fill="#b85b57" stroke="#b85b57" points="322.56,-625.5 332.76,-622.64 323.01,-618.51 322.56,-625.5"/>
</a>
</g>
</g>
<!-- n16 -->
<g id="node17" class="node">
<title>n16</title>
<g id="a_node17"><a xlink:title="Reply 替代技術不夠成熟...">
<path fill="#e8f1e8" stroke="#c8b794" d="M233.52,-702.86C233.52,-702.86 61.68,-702.86 61.68,-702.86 55.68,-702.86 49.68,-696.86 49.68,-690.86 49.68,-690.86 49.68,-678.86 49.68,-678.86 49.68,-672.86 55.68,-666.86 61.68,-666.86 61.68,-666.86 233.52,-666.86 233.52,-666.86 239.52,-666.86 245.52,-672.86 245.52,-678.86 245.52,-678.86 245.52,-690.86 245.52,-690.86 245.52,-696.86 239.52,-702.86 233.52,-702.86"/>
<text xml:space="preserve" text-anchor="start" x="95.09" y="-682.86" font-family="Inter, ui-sans-serif, system-ui, -apple-system, BlinkMacSystemFont, Segoe UI, sans-serif" font-weight="bold" font-size="10.00" fill="#2f2a21">Reply 替代技術不夠成熟...</text>
</a>
</g>
</g>
<!-- n16&#45;&gt;n0 -->
<g id="edge18" class="edge">
<title>n16&#45;&gt;n0</title>
<g id="a_edge18"><a xlink:title="support">
<path fill="none" stroke="#6f8f72" d="M246.02,-679.45C370.39,-672.41 570.54,-660.57 577.87,-656.86 657.15,-616.75 714.55,-523.36 739.62,-476.2"/>
<polygon fill="#6f8f72" stroke="#6f8f72" points="742.68,-477.89 744.18,-467.41 736.47,-474.67 742.68,-477.89"/>
</a>
</g>
</g>
<!-- n16&#45;&gt;n5 -->
<g id="edge16" class="edge">
<title>n16&#45;&gt;n5</title>
<g id="a_edge16"><a xlink:title="attack">
<path fill="none" stroke="#b85b57" d="M245.83,-691.08C275,-692.95 307.18,-695 337.03,-696.91"/>
<polygon fill="#b85b57" stroke="#b85b57" points="336.63,-700.4 346.83,-697.54 337.08,-693.41 336.63,-700.4"/>
</a>
</g>
</g>
<!-- n17 -->
<g id="node18" class="node">
<title>n17</title>
<g id="a_node18"><a xlink:title="Reply Issuer 沒有真的蒐集驗證資料 E(I) 估計過高...">
<path fill="#e8f1e8" stroke="#c8b794" d="M249.99,-776.86C249.99,-776.86 45.21,-776.86 45.21,-776.86 39.21,-776.86 33.21,-770.86 33.21,-764.86 33.21,-764.86 33.21,-752.86 33.21,-752.86 33.21,-746.86 39.21,-740.86 45.21,-740.86 45.21,-740.86 249.99,-740.86 249.99,-740.86 255.99,-740.86 261.99,-746.86 261.99,-752.86 261.99,-752.86 261.99,-764.86 261.99,-764.86 261.99,-770.86 255.99,-776.86 249.99,-776.86"/>
<text xml:space="preserve" text-anchor="start" x="43.13" y="-756.86" font-family="Inter, ui-sans-serif, system-ui, -apple-system, BlinkMacSystemFont, Segoe UI, sans-serif" font-weight="bold" font-size="10.00" fill="#2f2a21">Reply Issuer 沒有真的蒐集驗證資料 E(I) 估計過高...</text>
</a>
</g>
</g>
<!-- n17&#45;&gt;n0 -->
<g id="edge21" class="edge">
<title>n17&#45;&gt;n0</title>
<g id="a_edge21"><a xlink:title="support">
<path fill="none" stroke="#6f8f72" d="M262.4,-752.7C387.29,-745.75 571.13,-734.9 577.87,-730.86 675.3,-672.45 726.69,-537.09 745.34,-477.23"/>
<polygon fill="#6f8f72" stroke="#6f8f72" points="748.65,-478.34 748.19,-467.76 741.95,-476.32 748.65,-478.34"/>
</a>
</g>
</g>
<!-- n17&#45;&gt;n6 -->
<g id="edge19" class="edge">
<title>n17&#45;&gt;n6</title>
<g id="a_edge19"><a xlink:title="attack">
<path fill="none" stroke="#b85b57" d="M262.13,-766.12C283.74,-767.51 306.4,-768.95 328.13,-770.35"/>
<polygon fill="#b85b57" stroke="#b85b57" points="327.68,-773.82 337.88,-770.97 328.13,-766.84 327.68,-773.82"/>
</a>
</g>
</g>
</g>
</svg>
