<?xml version="1.0" encoding="UTF-8" standalone="no"?>
<!DOCTYPE svg PUBLIC "-//W3C//DTD SVG 1.1//EN"
 "http://www.w3.org/Graphics/SVG/1.1/DTD/svg11.dtd">
<!-- Generated by graphviz version 14.1.4 (0)
 -->
<!-- Title: Argument Map Pages: 1 -->
<svg class="argdown-summary-map" width="658pt" height="720pt"
 viewBox="0.00 0.00 658.00 720.00" xmlns="http://www.w3.org/2000/svg" xmlns:xlink="http://www.w3.org/1999/xlink">
<g id="graph0" class="graph" transform="scale(0.85756 0.85756) rotate(0) translate(4 835.59)">
<title>Argument Map</title>
<g id="clust1" class="cluster">
<title>cluster_1</title>
<polygon fill="#f3eadb" stroke="#d4c0a1" points="8,-21.59 8,-823.59 751.07,-823.59 751.07,-21.59 8,-21.59"/>
<text xml:space="preserve" text-anchor="start" x="340.85" y="-807.59" font-family="Inter, ui-sans-serif, system-ui, -apple-system, BlinkMacSystemFont, Segoe UI, sans-serif" font-size="12.00" fill="#2f2a21">Central Thesis</text>
</g>
<!-- n0 -->
<g id="node1" class="node">
<title>n0</title>
<g id="a_node1"><a xlink:title="護照根的不可能性">
<path fill="#fffdf7" stroke="#6f8f72" stroke-width="2" d="M731.07,-463.59C731.07,-463.59 559.23,-463.59 559.23,-463.59 553.23,-463.59 547.23,-457.59 547.23,-451.59 547.23,-451.59 547.23,-439.59 547.23,-439.59 547.23,-433.59 553.23,-427.59 559.23,-427.59 559.23,-427.59 731.07,-427.59 731.07,-427.59 737.07,-427.59 743.07,-433.59 743.07,-439.59 743.07,-439.59 743.07,-451.59 743.07,-451.59 743.07,-457.59 737.07,-463.59 731.07,-463.59"/>
<text xml:space="preserve" text-anchor="start" x="611.81" y="-443.59" font-family="Inter, ui-sans-serif, system-ui, -apple-system, BlinkMacSystemFont, Segoe UI, sans-serif" font-weight="bold" font-size="10.00" fill="#2f2a21">護照根的不可能性</text>
</a>
</g>
</g>
<!-- n1 -->
<g id="node2" class="node">
<title>n1</title>
<g id="a_node2"><a xlink:title="Multi&#45;Rooted Civic Proof（四選一可退路）">
<path fill="#fffdf7" stroke="#6f8f72" stroke-width="2" d="M218.03,-75.59C218.03,-75.59 38.85,-75.59 38.85,-75.59 32.85,-75.59 26.85,-69.59 26.85,-63.59 26.85,-63.59 26.85,-51.59 26.85,-51.59 26.85,-45.59 32.85,-39.59 38.85,-39.59 38.85,-39.59 218.03,-39.59 218.03,-39.59 224.03,-39.59 230.03,-45.59 230.03,-51.59 230.03,-51.59 230.03,-63.59 230.03,-63.59 230.03,-69.59 224.03,-75.59 218.03,-75.59"/>
<text xml:space="preserve" text-anchor="start" x="36.77" y="-55.59" font-family="Inter, ui-sans-serif, system-ui, -apple-system, BlinkMacSystemFont, Segoe UI, sans-serif" font-weight="bold" font-size="10.00" fill="#2f2a21">Multi&#45;Rooted Civic Proof（四選一可退路）</text>
</a>
</g>
</g>
<!-- n1&#45;&gt;n0 -->
<g id="edge2" class="edge">
<title>n1&#45;&gt;n0</title>
<g id="a_edge2"><a xlink:title="support">
<path fill="none" stroke="#6f8f72" d="M174.56,-39.14C251.66,-10.89 410.21,32.58 511.23,-40.59 634.97,-130.21 645.57,-338.69 645.05,-416.02"/>
<polygon fill="#6f8f72" stroke="#6f8f72" points="641.55,-415.71 644.9,-425.76 648.55,-415.81 641.55,-415.71"/>
</a>
</g>
</g>
<!-- n3 -->
<g id="node4" class="node">
<title>n3</title>
<g id="a_node4"><a xlink:title="護照根作為公民身分最終根">
<path fill="#fffdf7" stroke="#6f8f72" stroke-width="2" d="M479.97,-85.59C479.97,-85.59 308.13,-85.59 308.13,-85.59 302.13,-85.59 296.13,-79.59 296.13,-73.59 296.13,-73.59 296.13,-61.59 296.13,-61.59 296.13,-55.59 302.13,-49.59 308.13,-49.59 308.13,-49.59 479.97,-49.59 479.97,-49.59 485.97,-49.59 491.97,-55.59 491.97,-61.59 491.97,-61.59 491.97,-73.59 491.97,-73.59 491.97,-79.59 485.97,-85.59 479.97,-85.59"/>
<text xml:space="preserve" text-anchor="start" x="344.04" y="-65.59" font-family="Inter, ui-sans-serif, system-ui, -apple-system, BlinkMacSystemFont, Segoe UI, sans-serif" font-weight="bold" font-size="10.00" fill="#2f2a21">護照根作為公民身分最終根</text>
</a>
</g>
</g>
<!-- n1&#45;&gt;n3 -->
<g id="edge11" class="edge">
<title>n1&#45;&gt;n3</title>
<g id="a_edge11"><a xlink:title="attack">
<path fill="none" stroke="#b85b57" d="M230.23,-61.42C247.96,-62.09 266.48,-62.79 284.42,-63.47"/>
<polygon fill="#b85b57" stroke="#b85b57" points="284.16,-66.96 294.28,-63.84 284.42,-59.97 284.16,-66.96"/>
</a>
</g>
</g>
<!-- n2 -->
<g id="node3" class="node">
<title>n2</title>
<g id="a_node3"><a xlink:title="MR&#45;CivicProof 的合法部署，必須先通過五條邊界條件">
<path fill="#fffdf7" stroke="#6f8f72" stroke-width="2" d="M498.65,-139.59C498.65,-139.59 289.45,-139.59 289.45,-139.59 283.45,-139.59 277.45,-133.59 277.45,-127.59 277.45,-127.59 277.45,-115.59 277.45,-115.59 277.45,-109.59 283.45,-103.59 289.45,-103.59 289.45,-103.59 498.65,-103.59 498.65,-103.59 504.65,-103.59 510.65,-109.59 510.65,-115.59 510.65,-115.59 510.65,-127.59 510.65,-127.59 510.65,-133.59 504.65,-139.59 498.65,-139.59"/>
<text xml:space="preserve" text-anchor="start" x="287.37" y="-119.59" font-family="Inter, ui-sans-serif, system-ui, -apple-system, BlinkMacSystemFont, Segoe UI, sans-serif" font-weight="bold" font-size="10.00" fill="#2f2a21">MR&#45;CivicProof 的合法部署，必須先通過五條邊界條件</text>
</a>
</g>
</g>
<!-- n2&#45;&gt;n0 -->
<g id="edge9" class="edge">
<title>n2&#45;&gt;n0</title>
<g id="a_edge9"><a xlink:title="support">
<path fill="none" stroke="#6f8f72" d="M498.64,-139.98C503.09,-142.51 507.32,-145.37 511.23,-148.59 596.68,-219 629.2,-355.69 639.75,-415.9"/>
<polygon fill="#6f8f72" stroke="#6f8f72" points="636.29,-416.42 641.38,-425.71 643.19,-415.27 636.29,-416.42"/>
</a>
</g>
</g>
<!-- n3&#45;&gt;n0 -->
<g id="edge12" class="edge">
<title>n3&#45;&gt;n0</title>
<g id="a_edge12"><a xlink:title="attack">
<path fill="none" stroke="#b85b57" d="M492.27,-82.13C499.11,-85.51 505.54,-89.62 511.23,-94.59 610.02,-180.99 635.64,-348.7 642.07,-416.3"/>
<polygon fill="#b85b57" stroke="#b85b57" points="638.55,-416.19 642.9,-425.85 645.52,-415.58 638.55,-416.19"/>
</a>
</g>
</g>
<!-- n4 -->
<g id="node5" class="node">
<title>n4</title>
<g id="a_node5"><a xlink:title="ICAO PKI 是工程上經過驗證的根">
<path fill="#fffdf7" stroke="#6f8f72" stroke-width="2" d="M479.97,-645.59C479.97,-645.59 308.13,-645.59 308.13,-645.59 302.13,-645.59 296.13,-639.59 296.13,-633.59 296.13,-633.59 296.13,-621.59 296.13,-621.59 296.13,-615.59 302.13,-609.59 308.13,-609.59 308.13,-609.59 479.97,-609.59 479.97,-609.59 485.97,-609.59 491.97,-615.59 491.97,-621.59 491.97,-621.59 491.97,-633.59 491.97,-633.59 491.97,-639.59 485.97,-645.59 479.97,-645.59"/>
<text xml:space="preserve" text-anchor="start" x="328.76" y="-625.59" font-family="Inter, ui-sans-serif, system-ui, -apple-system, BlinkMacSystemFont, Segoe UI, sans-serif" font-weight="bold" font-size="10.00" fill="#2f2a21">ICAO PKI 是工程上經過驗證的根</text>
</a>
</g>
</g>
<!-- n4&#45;&gt;n0 -->
<g id="edge14" class="edge">
<title>n4&#45;&gt;n0</title>
<g id="a_edge14"><a xlink:title="attack">
<path fill="none" stroke="#b85b57" d="M483.33,-609.18C493.1,-605.44 502.62,-600.96 511.23,-595.59 562.03,-563.94 604.58,-507.1 627.02,-473.21"/>
<polygon fill="#b85b57" stroke="#b85b57" points="629.74,-475.45 632.25,-465.16 623.87,-471.64 629.74,-475.45"/>
</a>
</g>
</g>
<!-- n5 -->
<g id="node6" class="node">
<title>n5</title>
<g id="a_node6"><a xlink:title="zkPassport age proof 等 ZK...">
<path fill="#fffdf7" stroke="#6f8f72" stroke-width="2" d="M479.97,-719.59C479.97,-719.59 308.13,-719.59 308.13,-719.59 302.13,-719.59 296.13,-713.59 296.13,-707.59 296.13,-707.59 296.13,-695.59 296.13,-695.59 296.13,-689.59 302.13,-683.59 308.13,-683.59 308.13,-683.59 479.97,-683.59 479.97,-683.59 485.97,-683.59 491.97,-689.59 491.97,-695.59 491.97,-695.59 491.97,-707.59 491.97,-707.59 491.97,-713.59 485.97,-719.59 479.97,-719.59"/>
<text xml:space="preserve" text-anchor="start" x="325.43" y="-699.59" font-family="Inter, ui-sans-serif, system-ui, -apple-system, BlinkMacSystemFont, Segoe UI, sans-serif" font-weight="bold" font-size="10.00" fill="#2f2a21">zkPassport age proof 等 ZK...</text>
</a>
</g>
</g>
<!-- n5&#45;&gt;n0 -->
<g id="edge17" class="edge">
<title>n5&#45;&gt;n0</title>
<g id="a_edge17"><a xlink:title="attack">
<path fill="none" stroke="#b85b57" d="M487.94,-683.2C496.24,-679.47 504.16,-674.99 511.23,-669.59 578.31,-618.39 618.22,-522.81 634.93,-474.75"/>
<polygon fill="#b85b57" stroke="#b85b57" points="638.23,-475.92 638.11,-465.32 631.6,-473.68 638.23,-475.92"/>
</a>
</g>
</g>
<!-- n6 -->
<g id="node7" class="node">
<title>n6</title>
<g id="a_node7"><a xlink:title="ICAO 不可能被取代">
<path fill="#fffdf7" stroke="#6f8f72" stroke-width="2" d="M479.97,-793.59C479.97,-793.59 308.13,-793.59 308.13,-793.59 302.13,-793.59 296.13,-787.59 296.13,-781.59 296.13,-781.59 296.13,-769.59 296.13,-769.59 296.13,-763.59 302.13,-757.59 308.13,-757.59 308.13,-757.59 479.97,-757.59 479.97,-757.59 485.97,-757.59 491.97,-763.59 491.97,-769.59 491.97,-769.59 491.97,-781.59 491.97,-781.59 491.97,-787.59 485.97,-793.59 479.97,-793.59"/>
<text xml:space="preserve" text-anchor="start" x="355.16" y="-773.59" font-family="Inter, ui-sans-serif, system-ui, -apple-system, BlinkMacSystemFont, Segoe UI, sans-serif" font-weight="bold" font-size="10.00" fill="#2f2a21">ICAO 不可能被取代</text>
</a>
</g>
</g>
<!-- n6&#45;&gt;n0 -->
<g id="edge20" class="edge">
<title>n6&#45;&gt;n0</title>
<g id="a_edge20"><a xlink:title="attack">
<path fill="none" stroke="#b85b57" d="M490.34,-757.2C497.86,-753.46 504.96,-748.98 511.23,-743.59 595.43,-671.22 628.61,-534.99 639.54,-475.1"/>
<polygon fill="#b85b57" stroke="#b85b57" points="642.98,-475.8 641.24,-465.35 636.08,-474.6 642.98,-475.8"/>
</a>
</g>
</g>
<!-- n7 -->
<g id="node8" class="node">
<title>n7</title>
<g id="a_node8"><a xlink:title="Formal Core">
<path fill="#e8f1e8" stroke="#c8b794" d="M479.97,-193.59C479.97,-193.59 308.13,-193.59 308.13,-193.59 302.13,-193.59 296.13,-187.59 296.13,-181.59 296.13,-181.59 296.13,-169.59 296.13,-169.59 296.13,-163.59 302.13,-157.59 308.13,-157.59 308.13,-157.59 479.97,-157.59 479.97,-157.59 485.97,-157.59 491.97,-163.59 491.97,-169.59 491.97,-169.59 491.97,-181.59 491.97,-181.59 491.97,-187.59 485.97,-193.59 479.97,-193.59"/>
<text xml:space="preserve" text-anchor="start" x="364.6" y="-173.59" font-family="Inter, ui-sans-serif, system-ui, -apple-system, BlinkMacSystemFont, Segoe UI, sans-serif" font-weight="bold" font-size="10.00" fill="#2f2a21">Formal Core</text>
</a>
</g>
</g>
<!-- n7&#45;&gt;n0 -->
<g id="edge1" class="edge">
<title>n7&#45;&gt;n0</title>
<g id="a_edge1"><a xlink:title="support">
<path fill="none" stroke="#6f8f72" d="M492.4,-191.42C499.09,-194.52 505.46,-198.21 511.23,-202.59 583.9,-257.75 621.86,-364.62 636.65,-416.25"/>
<polygon fill="#6f8f72" stroke="#6f8f72" points="633.25,-417.1 639.28,-425.81 640,-415.23 633.25,-417.1"/>
</a>
</g>
</g>
<!-- n8 -->
<g id="node9" class="node">
<title>n8</title>
<g id="a_node9"><a xlink:title="三層架構 六項治理威脅">
<path fill="#e8f1e8" stroke="#c8b794" d="M479.97,-247.59C479.97,-247.59 308.13,-247.59 308.13,-247.59 302.13,-247.59 296.13,-241.59 296.13,-235.59 296.13,-235.59 296.13,-223.59 296.13,-223.59 296.13,-217.59 302.13,-211.59 308.13,-211.59 308.13,-211.59 479.97,-211.59 479.97,-211.59 485.97,-211.59 491.97,-217.59 491.97,-223.59 491.97,-223.59 491.97,-235.59 491.97,-235.59 491.97,-241.59 485.97,-247.59 479.97,-247.59"/>
<text xml:space="preserve" text-anchor="start" x="350.99" y="-227.59" font-family="Inter, ui-sans-serif, system-ui, -apple-system, BlinkMacSystemFont, Segoe UI, sans-serif" font-weight="bold" font-size="10.00" fill="#2f2a21">三層架構 六項治理威脅</text>
</a>
</g>
</g>
<!-- n8&#45;&gt;n0 -->
<g id="edge3" class="edge">
<title>n8&#45;&gt;n0</title>
<g id="a_edge3"><a xlink:title="support">
<path fill="none" stroke="#6f8f72" d="M492.46,-246.41C499.06,-249.29 505.39,-252.66 511.23,-256.59 571.38,-297.14 612.88,-374.71 632.06,-416.77"/>
<polygon fill="#6f8f72" stroke="#6f8f72" points="628.8,-418.04 636.05,-425.76 635.19,-415.2 628.8,-418.04"/>
</a>
</g>
</g>
<!-- n9 -->
<g id="node10" class="node">
<title>n9</title>
<g id="a_node10"><a xlink:title="8 案例 4 主形式 2 邊界形式">
<path fill="#e8f1e8" stroke="#c8b794" d="M479.97,-301.59C479.97,-301.59 308.13,-301.59 308.13,-301.59 302.13,-301.59 296.13,-295.59 296.13,-289.59 296.13,-289.59 296.13,-277.59 296.13,-277.59 296.13,-271.59 302.13,-265.59 308.13,-265.59 308.13,-265.59 479.97,-265.59 479.97,-265.59 485.97,-265.59 491.97,-271.59 491.97,-277.59 491.97,-277.59 491.97,-289.59 491.97,-289.59 491.97,-295.59 485.97,-301.59 479.97,-301.59"/>
<text xml:space="preserve" text-anchor="start" x="341.26" y="-281.59" font-family="Inter, ui-sans-serif, system-ui, -apple-system, BlinkMacSystemFont, Segoe UI, sans-serif" font-weight="bold" font-size="10.00" fill="#2f2a21">8 案例 4 主形式 2 邊界形式</text>
</a>
</g>
</g>
<!-- n9&#45;&gt;n0 -->
<g id="edge4" class="edge">
<title>n9&#45;&gt;n0</title>
<g id="a_edge4"><a xlink:title="support">
<path fill="none" stroke="#6f8f72" d="M492.37,-301.76C498.91,-304.32 505.27,-307.25 511.23,-310.59 559.6,-337.69 601.9,-387.63 625.15,-418.59"/>
<polygon fill="#6f8f72" stroke="#6f8f72" points="622.1,-420.34 630.84,-426.32 627.73,-416.19 622.1,-420.34"/>
</a>
</g>
</g>
<!-- n10 -->
<g id="node11" class="node">
<title>n10</title>
<g id="a_node11"><a xlink:title="主權容器的合取必要結構">
<path fill="#e8f1e8" stroke="#c8b794" d="M479.97,-355.59C479.97,-355.59 308.13,-355.59 308.13,-355.59 302.13,-355.59 296.13,-349.59 296.13,-343.59 296.13,-343.59 296.13,-331.59 296.13,-331.59 296.13,-325.59 302.13,-319.59 308.13,-319.59 308.13,-319.59 479.97,-319.59 479.97,-319.59 485.97,-319.59 491.97,-325.59 491.97,-331.59 491.97,-331.59 491.97,-343.59 491.97,-343.59 491.97,-349.59 485.97,-355.59 479.97,-355.59"/>
<text xml:space="preserve" text-anchor="start" x="348.21" y="-335.59" font-family="Inter, ui-sans-serif, system-ui, -apple-system, BlinkMacSystemFont, Segoe UI, sans-serif" font-weight="bold" font-size="10.00" fill="#2f2a21">主權容器的合取必要結構</text>
</a>
</g>
</g>
<!-- n10&#45;&gt;n0 -->
<g id="edge5" class="edge">
<title>n10&#45;&gt;n0</title>
<g id="a_edge5"><a xlink:title="support">
<path fill="none" stroke="#6f8f72" d="M486.92,-356.04C495.25,-358.58 503.47,-361.42 511.23,-364.59 546.95,-379.18 584.16,-402.69 610.1,-420.63"/>
<polygon fill="#6f8f72" stroke="#6f8f72" points="608.03,-423.45 618.22,-426.33 612.05,-417.72 608.03,-423.45"/>
</a>
</g>
</g>
<!-- n11 -->
<g id="node12" class="node">
<title>n11</title>
<g id="a_node12"><a xlink:title="R₁..R₄ 四層信任根 三條降級準則">
<path fill="#e8f1e8" stroke="#c8b794" d="M479.97,-409.59C479.97,-409.59 308.13,-409.59 308.13,-409.59 302.13,-409.59 296.13,-403.59 296.13,-397.59 296.13,-397.59 296.13,-385.59 296.13,-385.59 296.13,-379.59 302.13,-373.59 308.13,-373.59 308.13,-373.59 479.97,-373.59 479.97,-373.59 485.97,-373.59 491.97,-379.59 491.97,-385.59 491.97,-385.59 491.97,-397.59 491.97,-397.59 491.97,-403.59 485.97,-409.59 479.97,-409.59"/>
<text xml:space="preserve" text-anchor="start" x="327.1" y="-389.59" font-family="Inter, ui-sans-serif, system-ui, -apple-system, BlinkMacSystemFont, Segoe UI, sans-serif" font-weight="bold" font-size="10.00" fill="#2f2a21">R₁..R₄ 四層信任根 三條降級準則</text>
</a>
</g>
</g>
<!-- n11&#45;&gt;n0 -->
<g id="edge6" class="edge">
<title>n11&#45;&gt;n0</title>
<g id="a_edge6"><a xlink:title="support">
<path fill="none" stroke="#6f8f72" d="M480.08,-410.02C501.9,-414.76 525.53,-419.88 547.88,-424.72"/>
<polygon fill="#6f8f72" stroke="#6f8f72" points="547.09,-428.13 557.6,-426.83 548.57,-421.29 547.09,-428.13"/>
</a>
</g>
</g>
<!-- n12 -->
<g id="node13" class="node">
<title>n12</title>
<g id="a_node13"><a xlink:title="B1&#45;B5 五條邊界 真實場景測試">
<path fill="#e8f1e8" stroke="#c8b794" d="M479.97,-463.59C479.97,-463.59 308.13,-463.59 308.13,-463.59 302.13,-463.59 296.13,-457.59 296.13,-451.59 296.13,-451.59 296.13,-439.59 296.13,-439.59 296.13,-433.59 302.13,-427.59 308.13,-427.59 308.13,-427.59 479.97,-427.59 479.97,-427.59 485.97,-427.59 491.97,-433.59 491.97,-439.59 491.97,-439.59 491.97,-451.59 491.97,-451.59 491.97,-457.59 485.97,-463.59 479.97,-463.59"/>
<text xml:space="preserve" text-anchor="start" x="335.15" y="-443.59" font-family="Inter, ui-sans-serif, system-ui, -apple-system, BlinkMacSystemFont, Segoe UI, sans-serif" font-weight="bold" font-size="10.00" fill="#2f2a21">B1&#45;B5 五條邊界 真實場景測試</text>
</a>
</g>
</g>
<!-- n12&#45;&gt;n0 -->
<g id="edge7" class="edge">
<title>n12&#45;&gt;n0</title>
<g id="a_edge7"><a xlink:title="support">
<path fill="none" stroke="#6f8f72" d="M492.43,-445.59C506.54,-445.59 521.13,-445.59 535.44,-445.59"/>
<polygon fill="#6f8f72" stroke="#6f8f72" points="535.33,-449.09 545.33,-445.59 535.33,-442.09 535.33,-449.09"/>
</a>
</g>
</g>
<!-- n13 -->
<g id="node14" class="node">
<title>n13</title>
<g id="a_node14"><a xlink:title="主權根失效七步因果鏈 Issuer Adversary Trust 崩壞">
<path fill="#e8f1e8" stroke="#c8b794" d="M499.23,-517.59C499.23,-517.59 288.87,-517.59 288.87,-517.59 282.87,-517.59 276.87,-511.59 276.87,-505.59 276.87,-505.59 276.87,-493.59 276.87,-493.59 276.87,-487.59 282.87,-481.59 288.87,-481.59 288.87,-481.59 499.23,-481.59 499.23,-481.59 505.23,-481.59 511.23,-487.59 511.23,-493.59 511.23,-493.59 511.23,-505.59 511.23,-505.59 511.23,-511.59 505.23,-517.59 499.23,-517.59"/>
<text xml:space="preserve" text-anchor="start" x="286.79" y="-497.59" font-family="Inter, ui-sans-serif, system-ui, -apple-system, BlinkMacSystemFont, Segoe UI, sans-serif" font-weight="bold" font-size="10.00" fill="#2f2a21">主權根失效七步因果鏈 Issuer Adversary Trust 崩壞</text>
</a>
</g>
</g>
<!-- n13&#45;&gt;n0 -->
<g id="edge8" class="edge">
<title>n13&#45;&gt;n0</title>
<g id="a_edge8"><a xlink:title="support">
<path fill="none" stroke="#6f8f72" d="M480.08,-481.16C501.9,-476.43 525.53,-471.31 547.88,-466.46"/>
<polygon fill="#6f8f72" stroke="#6f8f72" points="548.57,-469.89 557.6,-464.35 547.09,-463.05 548.57,-469.89"/>
</a>
</g>
</g>
<!-- n14 -->
<g id="node15" class="node">
<title>n14</title>
<g id="a_node15"><a xlink:title="Conclusion">
<path fill="#e8f1e8" stroke="#c8b794" d="M479.97,-571.59C479.97,-571.59 308.13,-571.59 308.13,-571.59 302.13,-571.59 296.13,-565.59 296.13,-559.59 296.13,-559.59 296.13,-547.59 296.13,-547.59 296.13,-541.59 302.13,-535.59 308.13,-535.59 308.13,-535.59 479.97,-535.59 479.97,-535.59 485.97,-535.59 491.97,-541.59 491.97,-547.59 491.97,-547.59 491.97,-559.59 491.97,-559.59 491.97,-565.59 485.97,-571.59 479.97,-571.59"/>
<text xml:space="preserve" text-anchor="start" x="366.83" y="-551.59" font-family="Inter, ui-sans-serif, system-ui, -apple-system, BlinkMacSystemFont, Segoe UI, sans-serif" font-weight="bold" font-size="10.00" fill="#2f2a21">Conclusion</text>
</a>
</g>
</g>
<!-- n14&#45;&gt;n0 -->
<g id="edge10" class="edge">
<title>n14&#45;&gt;n0</title>
<g id="a_edge10"><a xlink:title="support">
<path fill="none" stroke="#6f8f72" d="M486.92,-535.15C495.25,-532.61 503.47,-529.76 511.23,-526.59 546.95,-512 584.16,-488.49 610.1,-470.55"/>
<polygon fill="#6f8f72" stroke="#6f8f72" points="612.05,-473.46 618.22,-464.85 608.03,-467.73 612.05,-473.46"/>
</a>
</g>
</g>
<!-- n15 -->
<g id="node16" class="node">
<title>n15</title>
<g id="a_node16"><a xlink:title="Reply ICAO PKI 已在主流文獻被視為穩固 ICAO...">
<path fill="#e8f1e8" stroke="#c8b794" d="M228.87,-626.59C228.87,-626.59 28,-626.59 28,-626.59 22,-626.59 16,-620.59 16,-614.59 16,-614.59 16,-602.59 16,-602.59 16,-596.59 22,-590.59 28,-590.59 28,-590.59 228.87,-590.59 228.87,-590.59 234.87,-590.59 240.87,-596.59 240.87,-602.59 240.87,-602.59 240.87,-614.59 240.87,-614.59 240.87,-620.59 234.87,-626.59 228.87,-626.59"/>
<text xml:space="preserve" text-anchor="start" x="25.92" y="-606.59" font-family="Inter, ui-sans-serif, system-ui, -apple-system, BlinkMacSystemFont, Segoe UI, sans-serif" font-weight="bold" font-size="10.00" fill="#2f2a21">Reply ICAO PKI 已在主流文獻被視為穩固 ICAO...</text>
</a>
</g>
</g>
<!-- n15&#45;&gt;n0 -->
<g id="edge15" class="edge">
<title>n15&#45;&gt;n0</title>
<g id="a_edge15"><a xlink:title="support">
<path fill="none" stroke="#6f8f72" d="M241.37,-602.31C349.6,-595.94 499.02,-586.24 511.23,-580.59 562.09,-557.07 604.13,-505.06 626.56,-472.9"/>
<polygon fill="#6f8f72" stroke="#6f8f72" points="629.3,-475.1 632.03,-464.86 623.51,-471.16 629.3,-475.1"/>
</a>
</g>
</g>
<!-- n15&#45;&gt;n4 -->
<g id="edge13" class="edge">
<title>n15&#45;&gt;n4</title>
<g id="a_edge13"><a xlink:title="attack">
<path fill="none" stroke="#b85b57" d="M241.23,-616.65C255.52,-617.68 270.12,-618.73 284.36,-619.76"/>
<polygon fill="#b85b57" stroke="#b85b57" points="283.94,-623.24 294.17,-620.46 284.45,-616.25 283.94,-623.24"/>
</a>
</g>
</g>
<!-- n16 -->
<g id="node17" class="node">
<title>n16</title>
<g id="a_node17"><a xlink:title="Reply zkPassport 已解決隱私問題...">
<path fill="#e8f1e8" stroke="#c8b794" d="M214.36,-700.59C214.36,-700.59 42.52,-700.59 42.52,-700.59 36.52,-700.59 30.52,-694.59 30.52,-688.59 30.52,-688.59 30.52,-676.59 30.52,-676.59 30.52,-670.59 36.52,-664.59 42.52,-664.59 42.52,-664.59 214.36,-664.59 214.36,-664.59 220.36,-664.59 226.36,-670.59 226.36,-676.59 226.36,-676.59 226.36,-688.59 226.36,-688.59 226.36,-694.59 220.36,-700.59 214.36,-700.59"/>
<text xml:space="preserve" text-anchor="start" x="52.03" y="-680.59" font-family="Inter, ui-sans-serif, system-ui, -apple-system, BlinkMacSystemFont, Segoe UI, sans-serif" font-weight="bold" font-size="10.00" fill="#2f2a21">Reply zkPassport 已解決隱私問題...</text>
</a>
</g>
</g>
<!-- n16&#45;&gt;n0 -->
<g id="edge18" class="edge">
<title>n16&#45;&gt;n0</title>
<g id="a_edge18"><a xlink:title="support">
<path fill="none" stroke="#6f8f72" d="M226.72,-676.52C337.82,-669.44 505.15,-658.23 511.23,-654.59 579.94,-613.52 619.01,-521.67 635.21,-474.61"/>
<polygon fill="#6f8f72" stroke="#6f8f72" points="638.45,-475.96 638.28,-465.37 631.8,-473.75 638.45,-475.96"/>
</a>
</g>
</g>
<!-- n16&#45;&gt;n5 -->
<g id="edge16" class="edge">
<title>n16&#45;&gt;n5</title>
<g id="a_edge16"><a xlink:title="attack">
<path fill="none" stroke="#b85b57" d="M226.85,-689.61C245.64,-690.97 265.44,-692.39 284.56,-693.77"/>
<polygon fill="#b85b57" stroke="#b85b57" points="284.31,-697.26 294.53,-694.49 284.81,-690.28 284.31,-697.26"/>
</a>
</g>
</g>
<!-- n17 -->
<g id="node18" class="node">
<title>n17</title>
<g id="a_node18"><a xlink:title="Reply 跨國治理體系不可能被取代 即使 ICAO...">
<path fill="#e8f1e8" stroke="#c8b794" d="M219.15,-774.59C219.15,-774.59 37.72,-774.59 37.72,-774.59 31.72,-774.59 25.72,-768.59 25.72,-762.59 25.72,-762.59 25.72,-750.59 25.72,-750.59 25.72,-744.59 31.72,-738.59 37.72,-738.59 37.72,-738.59 219.15,-738.59 219.15,-738.59 225.15,-738.59 231.15,-744.59 231.15,-750.59 231.15,-750.59 231.15,-762.59 231.15,-762.59 231.15,-768.59 225.15,-774.59 219.15,-774.59"/>
<text xml:space="preserve" text-anchor="start" x="35.64" y="-754.59" font-family="Inter, ui-sans-serif, system-ui, -apple-system, BlinkMacSystemFont, Segoe UI, sans-serif" font-weight="bold" font-size="10.00" fill="#2f2a21">Reply 跨國治理體系不可能被取代 即使 ICAO...</text>
</a>
</g>
</g>
<!-- n17&#45;&gt;n0 -->
<g id="edge21" class="edge">
<title>n17&#45;&gt;n0</title>
<g id="a_edge21"><a xlink:title="support">
<path fill="none" stroke="#6f8f72" d="M231.23,-750.37C342.37,-743.4 505.47,-732.55 511.23,-728.59 598.89,-668.3 630.24,-534.45 640.11,-475.01"/>
<polygon fill="#6f8f72" stroke="#6f8f72" points="643.54,-475.75 641.63,-465.33 636.63,-474.67 643.54,-475.75"/>
</a>
</g>
</g>
<!-- n17&#45;&gt;n6 -->
<g id="edge19" class="edge">
<title>n17&#45;&gt;n6</title>
<g id="a_edge19"><a xlink:title="attack">
<path fill="none" stroke="#b85b57" d="M231.36,-763.94C248.71,-765.19 266.79,-766.49 284.31,-767.75"/>
<polygon fill="#b85b57" stroke="#b85b57" points="284,-771.24 294.22,-768.47 284.5,-764.26 284,-771.24"/>
</a>
</g>
</g>
</g>
</svg>
