<?xml version="1.0" encoding="UTF-8" standalone="no"?>
<!DOCTYPE svg PUBLIC "-//W3C//DTD SVG 1.1//EN"
 "http://www.w3.org/Graphics/SVG/1.1/DTD/svg11.dtd">
<!-- Generated by graphviz version 14.1.4 (0)
 -->
<!-- Title: Argument Map Pages: 1 -->
<svg class="argdown-summary-map" width="720pt" height="716pt"
 viewBox="0.00 0.00 720.00 716.00" xmlns="http://www.w3.org/2000/svg" xmlns:xlink="http://www.w3.org/1999/xlink">
<g id="graph0" class="graph" transform="scale(0.849845 0.849845) rotate(0) translate(4 838.55)">
<title>Argument Map</title>
<g id="clust1" class="cluster">
<title>cluster_1</title>
<polygon fill="#f3eadb" stroke="#d4c0a1" points="8,-24.55 8,-826.55 831.21,-826.55 831.21,-24.55 8,-24.55"/>
<text xml:space="preserve" text-anchor="start" x="380.93" y="-810.55" font-family="Inter, ui-sans-serif, system-ui, -apple-system, BlinkMacSystemFont, Segoe UI, sans-serif" font-size="12.00" fill="#2f2a21">Central Thesis</text>
</g>
<!-- n0 -->
<g id="node1" class="node">
<title>n0</title>
<g id="a_node1"><a xlink:title="公共領域的政治哲學基礎：civic&#45;proof 系列規範下界的...">
<path fill="#fffdf7" stroke="#6f8f72" stroke-width="2" d="M811.21,-466.55C811.21,-466.55 594.78,-466.55 594.78,-466.55 588.78,-466.55 582.78,-460.55 582.78,-454.55 582.78,-454.55 582.78,-442.55 582.78,-442.55 582.78,-436.55 588.78,-430.55 594.78,-430.55 594.78,-430.55 811.21,-430.55 811.21,-430.55 817.21,-430.55 823.21,-436.55 823.21,-442.55 823.21,-442.55 823.21,-454.55 823.21,-454.55 823.21,-460.55 817.21,-466.55 811.21,-466.55"/>
<text xml:space="preserve" text-anchor="start" x="592.7" y="-446.55" font-family="Inter, ui-sans-serif, system-ui, -apple-system, BlinkMacSystemFont, Segoe UI, sans-serif" font-weight="bold" font-size="10.00" fill="#2f2a21">公共領域的政治哲學基礎：civic&#45;proof 系列規範下界的...</text>
</a>
</g>
</g>
<!-- n1 -->
<g id="node2" class="node">
<title>n1</title>
<g id="a_node2"><a xlink:title="四家於合取下保留各自原著立場與張力，PRF...">
<path fill="#fffdf7" stroke="#6f8f72" stroke-width="2" d="M211.1,-78.55C211.1,-78.55 36.9,-78.55 36.9,-78.55 30.9,-78.55 24.9,-72.55 24.9,-66.55 24.9,-66.55 24.9,-54.55 24.9,-54.55 24.9,-48.55 30.9,-42.55 36.9,-42.55 36.9,-42.55 211.1,-42.55 211.1,-42.55 217.1,-42.55 223.1,-48.55 223.1,-54.55 223.1,-54.55 223.1,-66.55 223.1,-66.55 223.1,-72.55 217.1,-78.55 211.1,-78.55"/>
<text xml:space="preserve" text-anchor="start" x="34.82" y="-58.55" font-family="Inter, ui-sans-serif, system-ui, -apple-system, BlinkMacSystemFont, Segoe UI, sans-serif" font-weight="bold" font-size="10.00" fill="#2f2a21">四家於合取下保留各自原著立場與張力，PRF...</text>
</a>
</g>
</g>
<!-- n1&#45;&gt;n0 -->
<g id="edge2" class="edge">
<title>n1&#45;&gt;n0</title>
<g id="a_edge2"><a xlink:title="support">
<path fill="none" stroke="#6f8f72" d="M171.44,-42.13C254.82,-12.36 431.9,35.45 546.78,-43.55 674.87,-131.64 697.31,-341.05 701.2,-418.81"/>
<polygon fill="#6f8f72" stroke="#6f8f72" points="697.69,-418.77 701.61,-428.61 704.69,-418.47 697.69,-418.77"/>
</a>
</g>
</g>
<!-- n3 -->
<g id="node4" class="node">
<title>n3</title>
<g id="a_node4"><a xlink:title="四家可融合為新版複合民主理論，PRF...">
<path fill="#fffdf7" stroke="#6f8f72" stroke-width="2" d="M493.31,-88.55C493.31,-88.55 321.47,-88.55 321.47,-88.55 315.47,-88.55 309.47,-82.55 309.47,-76.55 309.47,-76.55 309.47,-64.55 309.47,-64.55 309.47,-58.55 315.47,-52.55 321.47,-52.55 321.47,-52.55 493.31,-52.55 493.31,-52.55 499.31,-52.55 505.31,-58.55 505.31,-64.55 505.31,-64.55 505.31,-76.55 505.31,-76.55 505.31,-82.55 499.31,-88.55 493.31,-88.55"/>
<text xml:space="preserve" text-anchor="start" x="330.71" y="-68.55" font-family="Inter, ui-sans-serif, system-ui, -apple-system, BlinkMacSystemFont, Segoe UI, sans-serif" font-weight="bold" font-size="10.00" fill="#2f2a21">四家可融合為新版複合民主理論，PRF...</text>
</a>
</g>
</g>
<!-- n1&#45;&gt;n3 -->
<g id="edge11" class="edge">
<title>n1&#45;&gt;n3</title>
<g id="a_edge11"><a xlink:title="attack">
<path fill="none" stroke="#b85b57" d="M223.42,-64.05C247.36,-64.9 273.1,-65.81 297.5,-66.68"/>
<polygon fill="#b85b57" stroke="#b85b57" points="297.35,-70.18 307.47,-67.03 297.6,-63.18 297.35,-70.18"/>
</a>
</g>
</g>
<!-- n2 -->
<g id="node3" class="node">
<title>n2</title>
<g id="a_node3"><a xlink:title="把 PRF 四家合取下界翻譯為可被檢驗之承擔結構，必須通過六道條件">
<path fill="#fffdf7" stroke="#6f8f72" stroke-width="2" d="M534.78,-142.55C534.78,-142.55 280,-142.55 280,-142.55 274,-142.55 268,-136.55 268,-130.55 268,-130.55 268,-118.55 268,-118.55 268,-112.55 274,-106.55 280,-106.55 280,-106.55 534.78,-106.55 534.78,-106.55 540.78,-106.55 546.78,-112.55 546.78,-118.55 546.78,-118.55 546.78,-130.55 546.78,-130.55 546.78,-136.55 540.78,-142.55 534.78,-142.55"/>
<text xml:space="preserve" text-anchor="start" x="277.92" y="-122.55" font-family="Inter, ui-sans-serif, system-ui, -apple-system, BlinkMacSystemFont, Segoe UI, sans-serif" font-weight="bold" font-size="10.00" fill="#2f2a21">把 PRF 四家合取下界翻譯為可被檢驗之承擔結構，必須通過六道條件</text>
</a>
</g>
</g>
<!-- n2&#45;&gt;n0 -->
<g id="edge9" class="edge">
<title>n2&#45;&gt;n0</title>
<g id="a_edge9"><a xlink:title="support">
<path fill="none" stroke="#6f8f72" d="M533.07,-142.91C537.86,-145.46 542.46,-148.33 546.78,-151.55 638.59,-220.04 680.99,-358.84 695.67,-419.3"/>
<polygon fill="#6f8f72" stroke="#6f8f72" points="692.22,-419.89 697.9,-428.83 699.03,-418.3 692.22,-419.89"/>
</a>
</g>
</g>
<!-- n3&#45;&gt;n0 -->
<g id="edge12" class="edge">
<title>n3&#45;&gt;n0</title>
<g id="a_edge12"><a xlink:title="attack">
<path fill="none" stroke="#b85b57" d="M505.56,-77.15C520.45,-81.51 534.82,-88.01 546.78,-97.55 651.67,-181.26 687.59,-350.51 698.14,-418.89"/>
<polygon fill="#b85b57" stroke="#b85b57" points="694.65,-419.19 699.56,-428.58 701.57,-418.18 694.65,-419.19"/>
</a>
</g>
</g>
<!-- n4 -->
<g id="node5" class="node">
<title>n4</title>
<g id="a_node5"><a xlink:title="人格性主體">
<path fill="#fffdf7" stroke="#6f8f72" stroke-width="2" d="M493.31,-648.55C493.31,-648.55 321.47,-648.55 321.47,-648.55 315.47,-648.55 309.47,-642.55 309.47,-636.55 309.47,-636.55 309.47,-624.55 309.47,-624.55 309.47,-618.55 315.47,-612.55 321.47,-612.55 321.47,-612.55 493.31,-612.55 493.31,-612.55 499.31,-612.55 505.31,-618.55 505.31,-624.55 505.31,-624.55 505.31,-636.55 505.31,-636.55 505.31,-642.55 499.31,-648.55 493.31,-648.55"/>
<text xml:space="preserve" text-anchor="start" x="386.55" y="-628.55" font-family="Inter, ui-sans-serif, system-ui, -apple-system, BlinkMacSystemFont, Segoe UI, sans-serif" font-weight="bold" font-size="10.00" fill="#2f2a21">人格性主體</text>
</a>
</g>
</g>
<!-- n4&#45;&gt;n0 -->
<g id="edge14" class="edge">
<title>n4&#45;&gt;n0</title>
<g id="a_edge14"><a xlink:title="attack">
<path fill="none" stroke="#b85b57" d="M505.77,-615.1C519.99,-610.85 534.1,-605.44 546.78,-598.55 603.66,-567.64 654.46,-510.14 681.48,-476.01"/>
<polygon fill="#b85b57" stroke="#b85b57" points="684.14,-478.28 687.52,-468.24 678.62,-473.98 684.14,-478.28"/>
</a>
</g>
</g>
<!-- n5 -->
<g id="node6" class="node">
<title>n5</title>
<g id="a_node6"><a xlink:title="歷史哲學殘餘">
<path fill="#fffdf7" stroke="#6f8f72" stroke-width="2" d="M493.31,-722.55C493.31,-722.55 321.47,-722.55 321.47,-722.55 315.47,-722.55 309.47,-716.55 309.47,-710.55 309.47,-710.55 309.47,-698.55 309.47,-698.55 309.47,-692.55 315.47,-686.55 321.47,-686.55 321.47,-686.55 493.31,-686.55 493.31,-686.55 499.31,-686.55 505.31,-692.55 505.31,-698.55 505.31,-698.55 505.31,-710.55 505.31,-710.55 505.31,-716.55 499.31,-722.55 493.31,-722.55"/>
<text xml:space="preserve" text-anchor="start" x="382.38" y="-702.55" font-family="Inter, ui-sans-serif, system-ui, -apple-system, BlinkMacSystemFont, Segoe UI, sans-serif" font-weight="bold" font-size="10.00" fill="#2f2a21">歷史哲學殘餘</text>
</a>
</g>
</g>
<!-- n5&#45;&gt;n0 -->
<g id="edge17" class="edge">
<title>n5&#45;&gt;n0</title>
<g id="a_edge17"><a xlink:title="attack">
<path fill="none" stroke="#b85b57" d="M505.64,-691.72C520.19,-687.13 534.43,-680.92 546.78,-672.55 620.34,-622.65 669.52,-525.36 690.5,-477.1"/>
<polygon fill="#b85b57" stroke="#b85b57" points="693.61,-478.73 694.29,-468.16 687.16,-476 693.61,-478.73"/>
</a>
</g>
</g>
<!-- n6 -->
<g id="node7" class="node">
<title>n6</title>
<g id="a_node7"><a xlink:title="為何選這四家">
<path fill="#fffdf7" stroke="#6f8f72" stroke-width="2" d="M493.31,-796.55C493.31,-796.55 321.47,-796.55 321.47,-796.55 315.47,-796.55 309.47,-790.55 309.47,-784.55 309.47,-784.55 309.47,-772.55 309.47,-772.55 309.47,-766.55 315.47,-760.55 321.47,-760.55 321.47,-760.55 493.31,-760.55 493.31,-760.55 499.31,-760.55 505.31,-766.55 505.31,-772.55 505.31,-772.55 505.31,-784.55 505.31,-784.55 505.31,-790.55 499.31,-796.55 493.31,-796.55"/>
<text xml:space="preserve" text-anchor="start" x="382.38" y="-776.55" font-family="Inter, ui-sans-serif, system-ui, -apple-system, BlinkMacSystemFont, Segoe UI, sans-serif" font-weight="bold" font-size="10.00" fill="#2f2a21">為何選這四家</text>
</a>
</g>
</g>
<!-- n6&#45;&gt;n0 -->
<g id="edge20" class="edge">
<title>n6&#45;&gt;n0</title>
<g id="a_edge20"><a xlink:title="attack">
<path fill="none" stroke="#b85b57" d="M505.53,-767.4C520.34,-762.61 534.69,-755.91 546.78,-746.55 637.58,-676.23 680.52,-537.82 695.51,-477.64"/>
<polygon fill="#b85b57" stroke="#b85b57" points="698.86,-478.7 697.79,-468.16 692.05,-477.07 698.86,-478.7"/>
</a>
</g>
</g>
<!-- n7 -->
<g id="node8" class="node">
<title>n7</title>
<g id="a_node8"><a xlink:title="Formal Core">
<path fill="#e8f1e8" stroke="#c8b794" d="M493.31,-196.55C493.31,-196.55 321.47,-196.55 321.47,-196.55 315.47,-196.55 309.47,-190.55 309.47,-184.55 309.47,-184.55 309.47,-172.55 309.47,-172.55 309.47,-166.55 315.47,-160.55 321.47,-160.55 321.47,-160.55 493.31,-160.55 493.31,-160.55 499.31,-160.55 505.31,-166.55 505.31,-172.55 505.31,-172.55 505.31,-184.55 505.31,-184.55 505.31,-190.55 499.31,-196.55 493.31,-196.55"/>
<text xml:space="preserve" text-anchor="start" x="377.94" y="-176.55" font-family="Inter, ui-sans-serif, system-ui, -apple-system, BlinkMacSystemFont, Segoe UI, sans-serif" font-weight="bold" font-size="10.00" fill="#2f2a21">Formal Core</text>
</a>
</g>
</g>
<!-- n7&#45;&gt;n0 -->
<g id="edge1" class="edge">
<title>n7&#45;&gt;n0</title>
<g id="a_edge1"><a xlink:title="support">
<path fill="none" stroke="#6f8f72" d="M505.46,-187.06C520.11,-191.22 534.43,-197.15 546.78,-205.55 625.65,-259.22 673.12,-367.66 692.22,-419.57"/>
<polygon fill="#6f8f72" stroke="#6f8f72" points="688.9,-420.67 695.56,-428.91 695.49,-418.31 688.9,-420.67"/>
</a>
</g>
</g>
<!-- n8 -->
<g id="node9" class="node">
<title>n8</title>
<g id="a_node9"><a xlink:title="PRF 形式骨架與 32 cell 承擔矩陣構成四家合取下界之形式表述">
<path fill="#e8f1e8" stroke="#c8b794" d="M526.45,-250.55C526.45,-250.55 288.33,-250.55 288.33,-250.55 282.33,-250.55 276.33,-244.55 276.33,-238.55 276.33,-238.55 276.33,-226.55 276.33,-226.55 276.33,-220.55 282.33,-214.55 288.33,-214.55 288.33,-214.55 526.45,-214.55 526.45,-214.55 532.45,-214.55 538.45,-220.55 538.45,-226.55 538.45,-226.55 538.45,-238.55 538.45,-238.55 538.45,-244.55 532.45,-250.55 526.45,-250.55"/>
<text xml:space="preserve" text-anchor="start" x="286.25" y="-230.55" font-family="Inter, ui-sans-serif, system-ui, -apple-system, BlinkMacSystemFont, Segoe UI, sans-serif" font-weight="bold" font-size="10.00" fill="#2f2a21">PRF 形式骨架與 32 cell 承擔矩陣構成四家合取下界之形式表述</text>
</a>
</g>
</g>
<!-- n8&#45;&gt;n0 -->
<g id="edge3" class="edge">
<title>n8&#45;&gt;n0</title>
<g id="a_edge3"><a xlink:title="support">
<path fill="none" stroke="#6f8f72" d="M529.89,-251.02C535.75,-253.52 541.42,-256.35 546.78,-259.55 613.17,-299.16 663.63,-378.03 687.25,-420.28"/>
<polygon fill="#6f8f72" stroke="#6f8f72" points="684.07,-421.76 691.94,-428.86 690.21,-418.4 684.07,-421.76"/>
</a>
</g>
</g>
<!-- n9 -->
<g id="node10" class="node">
<title>n9</title>
<g id="a_node10"><a xlink:title="Arendt plurality...">
<path fill="#e8f1e8" stroke="#c8b794" d="M493.31,-304.55C493.31,-304.55 321.47,-304.55 321.47,-304.55 315.47,-304.55 309.47,-298.55 309.47,-292.55 309.47,-292.55 309.47,-280.55 309.47,-280.55 309.47,-274.55 315.47,-268.55 321.47,-268.55 321.47,-268.55 493.31,-268.55 493.31,-268.55 499.31,-268.55 505.31,-274.55 505.31,-280.55 505.31,-280.55 505.31,-292.55 505.31,-292.55 505.31,-298.55 499.31,-304.55 493.31,-304.55"/>
<text xml:space="preserve" text-anchor="start" x="366.27" y="-284.55" font-family="Inter, ui-sans-serif, system-ui, -apple-system, BlinkMacSystemFont, Segoe UI, sans-serif" font-weight="bold" font-size="10.00" fill="#2f2a21">Arendt plurality...</text>
</a>
</g>
</g>
<!-- n9&#45;&gt;n0 -->
<g id="edge4" class="edge">
<title>n9&#45;&gt;n0</title>
<g id="a_edge4"><a xlink:title="support">
<path fill="none" stroke="#6f8f72" d="M505.79,-298.84C519.94,-302.53 534.02,-307.32 546.78,-313.55 601.11,-340.08 651.46,-390.56 679.33,-421.71"/>
<polygon fill="#6f8f72" stroke="#6f8f72" points="676.68,-423.99 685.92,-429.19 681.94,-419.37 676.68,-423.99"/>
</a>
</g>
</g>
<!-- n10 -->
<g id="node11" class="node">
<title>n10</title>
<g id="a_node11"><a xlink:title="Habermas Öffentlichkeit...">
<path fill="#e8f1e8" stroke="#c8b794" d="M493.31,-358.55C493.31,-358.55 321.47,-358.55 321.47,-358.55 315.47,-358.55 309.47,-352.55 309.47,-346.55 309.47,-346.55 309.47,-334.55 309.47,-334.55 309.47,-328.55 315.47,-322.55 321.47,-322.55 321.47,-322.55 493.31,-322.55 493.31,-322.55 499.31,-322.55 505.31,-328.55 505.31,-334.55 505.31,-334.55 505.31,-346.55 505.31,-346.55 505.31,-352.55 499.31,-358.55 493.31,-358.55"/>
<text xml:space="preserve" text-anchor="start" x="346.82" y="-338.55" font-family="Inter, ui-sans-serif, system-ui, -apple-system, BlinkMacSystemFont, Segoe UI, sans-serif" font-weight="bold" font-size="10.00" fill="#2f2a21">Habermas Öffentlichkeit...</text>
</a>
</g>
</g>
<!-- n10&#45;&gt;n0 -->
<g id="edge5" class="edge">
<title>n10&#45;&gt;n0</title>
<g id="a_edge5"><a xlink:title="support">
<path fill="none" stroke="#6f8f72" d="M505.75,-355.86C519.69,-359.11 533.72,-362.98 546.78,-367.55 588.4,-382.13 632.71,-406.2 663.28,-424.32"/>
<polygon fill="#6f8f72" stroke="#6f8f72" points="661.43,-427.29 671.8,-429.44 665.03,-421.29 661.43,-427.29"/>
</a>
</g>
</g>
<!-- n11 -->
<g id="node12" class="node">
<title>n11</title>
<g id="a_node12"><a xlink:title="Pettit contestation 採三層...">
<path fill="#e8f1e8" stroke="#c8b794" d="M493.31,-412.55C493.31,-412.55 321.47,-412.55 321.47,-412.55 315.47,-412.55 309.47,-406.55 309.47,-400.55 309.47,-400.55 309.47,-388.55 309.47,-388.55 309.47,-382.55 315.47,-376.55 321.47,-376.55 321.47,-376.55 493.31,-376.55 493.31,-376.55 499.31,-376.55 505.31,-382.55 505.31,-388.55 505.31,-388.55 505.31,-400.55 505.31,-400.55 505.31,-406.55 499.31,-412.55 493.31,-412.55"/>
<text xml:space="preserve" text-anchor="start" x="345.72" y="-392.55" font-family="Inter, ui-sans-serif, system-ui, -apple-system, BlinkMacSystemFont, Segoe UI, sans-serif" font-weight="bold" font-size="10.00" fill="#2f2a21">Pettit contestation 採三層...</text>
</a>
</g>
</g>
<!-- n11&#45;&gt;n0 -->
<g id="edge6" class="edge">
<title>n11&#45;&gt;n0</title>
<g id="a_edge6"><a xlink:title="support">
<path fill="none" stroke="#6f8f72" d="M505.75,-412.46C532.94,-417.46 562.69,-422.93 590.62,-428.07"/>
<polygon fill="#6f8f72" stroke="#6f8f72" points="589.68,-431.45 600.15,-429.82 590.94,-424.57 589.68,-431.45"/>
</a>
</g>
</g>
<!-- n12 -->
<g id="node13" class="node">
<title>n12</title>
<g id="a_node13"><a xlink:title="Mouffe agonism 採 legitimate...">
<path fill="#e8f1e8" stroke="#c8b794" d="M493.31,-466.55C493.31,-466.55 321.47,-466.55 321.47,-466.55 315.47,-466.55 309.47,-460.55 309.47,-454.55 309.47,-454.55 309.47,-442.55 309.47,-442.55 309.47,-436.55 315.47,-430.55 321.47,-430.55 321.47,-430.55 493.31,-430.55 493.31,-430.55 499.31,-430.55 505.31,-436.55 505.31,-442.55 505.31,-442.55 505.31,-454.55 505.31,-454.55 505.31,-460.55 499.31,-466.55 493.31,-466.55"/>
<text xml:space="preserve" text-anchor="start" x="334.6" y="-446.55" font-family="Inter, ui-sans-serif, system-ui, -apple-system, BlinkMacSystemFont, Segoe UI, sans-serif" font-weight="bold" font-size="10.00" fill="#2f2a21">Mouffe agonism 採 legitimate...</text>
</a>
</g>
</g>
<!-- n12&#45;&gt;n0 -->
<g id="edge7" class="edge">
<title>n12&#45;&gt;n0</title>
<g id="a_edge7"><a xlink:title="support">
<path fill="none" stroke="#6f8f72" d="M505.75,-448.55C526.64,-448.55 549.05,-448.55 570.99,-448.55"/>
<polygon fill="#6f8f72" stroke="#6f8f72" points="570.89,-452.05 580.89,-448.55 570.89,-445.05 570.89,-452.05"/>
</a>
</g>
</g>
<!-- n13 -->
<g id="node14" class="node">
<title>n13</title>
<g id="a_node14"><a xlink:title="四家概念 PRF 函數合取定義 T PRF1&#45;T PRF5 形式化...">
<path fill="#e8f1e8" stroke="#c8b794" d="M515.32,-520.55C515.32,-520.55 299.46,-520.55 299.46,-520.55 293.46,-520.55 287.46,-514.55 287.46,-508.55 287.46,-508.55 287.46,-496.55 287.46,-496.55 287.46,-490.55 293.46,-484.55 299.46,-484.55 299.46,-484.55 515.32,-484.55 515.32,-484.55 521.32,-484.55 527.32,-490.55 527.32,-496.55 527.32,-496.55 527.32,-508.55 527.32,-508.55 527.32,-514.55 521.32,-520.55 515.32,-520.55"/>
<text xml:space="preserve" text-anchor="start" x="297.38" y="-500.55" font-family="Inter, ui-sans-serif, system-ui, -apple-system, BlinkMacSystemFont, Segoe UI, sans-serif" font-weight="bold" font-size="10.00" fill="#2f2a21">四家概念 PRF 函數合取定義 T PRF1&#45;T PRF5 形式化...</text>
</a>
</g>
</g>
<!-- n13&#45;&gt;n0 -->
<g id="edge8" class="edge">
<title>n13&#45;&gt;n0</title>
<g id="a_edge8"><a xlink:title="support">
<path fill="none" stroke="#6f8f72" d="M508.61,-484.12C535.04,-479.26 563.71,-473.98 590.69,-469.02"/>
<polygon fill="#6f8f72" stroke="#6f8f72" points="591.04,-472.52 600.24,-467.26 589.77,-465.63 591.04,-472.52"/>
</a>
</g>
</g>
<!-- n14 -->
<g id="node15" class="node">
<title>n14</title>
<g id="a_node15"><a xlink:title="Conclusion">
<path fill="#e8f1e8" stroke="#c8b794" d="M493.31,-574.55C493.31,-574.55 321.47,-574.55 321.47,-574.55 315.47,-574.55 309.47,-568.55 309.47,-562.55 309.47,-562.55 309.47,-550.55 309.47,-550.55 309.47,-544.55 315.47,-538.55 321.47,-538.55 321.47,-538.55 493.31,-538.55 493.31,-538.55 499.31,-538.55 505.31,-544.55 505.31,-550.55 505.31,-550.55 505.31,-562.55 505.31,-562.55 505.31,-568.55 499.31,-574.55 493.31,-574.55"/>
<text xml:space="preserve" text-anchor="start" x="380.17" y="-554.55" font-family="Inter, ui-sans-serif, system-ui, -apple-system, BlinkMacSystemFont, Segoe UI, sans-serif" font-weight="bold" font-size="10.00" fill="#2f2a21">Conclusion</text>
</a>
</g>
</g>
<!-- n14&#45;&gt;n0 -->
<g id="edge10" class="edge">
<title>n14&#45;&gt;n0</title>
<g id="a_edge10"><a xlink:title="support">
<path fill="none" stroke="#6f8f72" d="M505.75,-541.24C519.69,-537.99 533.72,-534.12 546.78,-529.55 588.4,-514.97 632.71,-490.9 663.28,-472.78"/>
<polygon fill="#6f8f72" stroke="#6f8f72" points="665.03,-475.81 671.8,-467.66 661.43,-469.81 665.03,-475.81"/>
</a>
</g>
</g>
<!-- n15 -->
<g id="node16" class="node">
<title>n15</title>
<g id="a_node16"><a xlink:title="Reply CF1 Coeckelbergh relational...">
<path fill="#e8f1e8" stroke="#c8b794" d="M209.92,-629.55C209.92,-629.55 38.08,-629.55 38.08,-629.55 32.08,-629.55 26.08,-623.55 26.08,-617.55 26.08,-617.55 26.08,-605.55 26.08,-605.55 26.08,-599.55 32.08,-593.55 38.08,-593.55 38.08,-593.55 209.92,-593.55 209.92,-593.55 215.92,-593.55 221.92,-599.55 221.92,-605.55 221.92,-605.55 221.92,-617.55 221.92,-617.55 221.92,-623.55 215.92,-629.55 209.92,-629.55"/>
<text xml:space="preserve" text-anchor="start" x="37.31" y="-609.55" font-family="Inter, ui-sans-serif, system-ui, -apple-system, BlinkMacSystemFont, Segoe UI, sans-serif" font-weight="bold" font-size="10.00" fill="#2f2a21">Reply CF1 Coeckelbergh relational...</text>
</a>
</g>
</g>
<!-- n15&#45;&gt;n0 -->
<g id="edge15" class="edge">
<title>n15&#45;&gt;n0</title>
<g id="a_edge15"><a xlink:title="support">
<path fill="none" stroke="#6f8f72" d="M222.2,-605.86C344.43,-598.6 539.35,-586.61 546.78,-583.55 603.52,-560.16 654.02,-507.34 681.1,-475.14"/>
<polygon fill="#6f8f72" stroke="#6f8f72" points="683.48,-477.76 687.13,-467.82 678.07,-473.31 683.48,-477.76"/>
</a>
</g>
</g>
<!-- n15&#45;&gt;n4 -->
<g id="edge13" class="edge">
<title>n15&#45;&gt;n4</title>
<g id="a_edge13"><a xlink:title="attack">
<path fill="none" stroke="#b85b57" d="M222.23,-618.11C246.62,-619.76 272.93,-621.54 297.83,-623.22"/>
<polygon fill="#b85b57" stroke="#b85b57" points="297.43,-626.7 307.64,-623.88 297.9,-619.72 297.43,-626.7"/>
</a>
</g>
</g>
<!-- n16 -->
<g id="node17" class="node">
<title>n16</title>
<g id="a_node17"><a xlink:title="Reply CF2 Floridi infosphere...">
<path fill="#e8f1e8" stroke="#c8b794" d="M209.92,-703.55C209.92,-703.55 38.08,-703.55 38.08,-703.55 32.08,-703.55 26.08,-697.55 26.08,-691.55 26.08,-691.55 26.08,-679.55 26.08,-679.55 26.08,-673.55 32.08,-667.55 38.08,-667.55 38.08,-667.55 209.92,-667.55 209.92,-667.55 215.92,-667.55 221.92,-673.55 221.92,-679.55 221.92,-679.55 221.92,-691.55 221.92,-691.55 221.92,-697.55 215.92,-703.55 209.92,-703.55"/>
<text xml:space="preserve" text-anchor="start" x="51.77" y="-683.55" font-family="Inter, ui-sans-serif, system-ui, -apple-system, BlinkMacSystemFont, Segoe UI, sans-serif" font-weight="bold" font-size="10.00" fill="#2f2a21">Reply CF2 Floridi infosphere...</text>
</a>
</g>
</g>
<!-- n16&#45;&gt;n0 -->
<g id="edge18" class="edge">
<title>n16&#45;&gt;n0</title>
<g id="a_edge18"><a xlink:title="support">
<path fill="none" stroke="#6f8f72" d="M222.32,-680.1C344.67,-673.1 539.72,-661.4 546.78,-657.55 620.8,-617.19 669.36,-524.67 690.27,-477.44"/>
<polygon fill="#6f8f72" stroke="#6f8f72" points="693.42,-478.97 694.16,-468.4 686.99,-476.2 693.42,-478.97"/>
</a>
</g>
</g>
<!-- n16&#45;&gt;n5 -->
<g id="edge16" class="edge">
<title>n16&#45;&gt;n5</title>
<g id="a_edge16"><a xlink:title="attack">
<path fill="none" stroke="#b85b57" d="M222.23,-692.11C246.62,-693.76 272.93,-695.54 297.83,-697.22"/>
<polygon fill="#b85b57" stroke="#b85b57" points="297.43,-700.7 307.64,-697.88 297.9,-693.72 297.43,-700.7"/>
</a>
</g>
</g>
<!-- n17 -->
<g id="node18" class="node">
<title>n17</title>
<g id="a_node18"><a xlink:title="Reply CF5 元反論為何選這四家— Rawls Sen...">
<path fill="#e8f1e8" stroke="#c8b794" d="M220,-777.55C220,-777.55 28,-777.55 28,-777.55 22,-777.55 16,-771.55 16,-765.55 16,-765.55 16,-753.55 16,-753.55 16,-747.55 22,-741.55 28,-741.55 28,-741.55 220,-741.55 220,-741.55 226,-741.55 232,-747.55 232,-753.55 232,-753.55 232,-765.55 232,-765.55 232,-771.55 226,-777.55 220,-777.55"/>
<text xml:space="preserve" text-anchor="start" x="25.92" y="-757.55" font-family="Inter, ui-sans-serif, system-ui, -apple-system, BlinkMacSystemFont, Segoe UI, sans-serif" font-weight="bold" font-size="10.00" fill="#2f2a21">Reply CF5 元反論為何選這四家— Rawls Sen...</text>
</a>
</g>
</g>
<!-- n17&#45;&gt;n0 -->
<g id="edge21" class="edge">
<title>n17&#45;&gt;n0</title>
<g id="a_edge21"><a xlink:title="support">
<path fill="none" stroke="#6f8f72" d="M232.25,-753.05C356.12,-745.46 543.47,-733.66 546.78,-731.55 639.57,-672.37 681.34,-537.42 695.76,-477.8"/>
<polygon fill="#6f8f72" stroke="#6f8f72" points="699.09,-478.93 697.95,-468.4 692.28,-477.34 699.09,-478.93"/>
</a>
</g>
</g>
<!-- n17&#45;&gt;n6 -->
<g id="edge19" class="edge">
<title>n17&#45;&gt;n6</title>
<g id="a_edge19"><a xlink:title="attack">
<path fill="none" stroke="#b85b57" d="M232.18,-766.79C253.64,-768.24 276.21,-769.76 297.72,-771.21"/>
<polygon fill="#b85b57" stroke="#b85b57" points="297.48,-774.7 307.69,-771.88 297.95,-767.72 297.48,-774.7"/>
</a>
</g>
</g>
</g>
</svg>
