<?xml version="1.0" encoding="UTF-8" standalone="no"?>
<!DOCTYPE svg PUBLIC "-//W3C//DTD SVG 1.1//EN"
 "http://www.w3.org/Graphics/SVG/1.1/DTD/svg11.dtd">
<!-- Generated by graphviz version 14.1.4 (0)
 -->
<!-- Title: Argument Map Pages: 1 -->
<svg class="argdown-summary-map" width="711pt" height="720pt"
 viewBox="0.00 0.00 711.00 720.00" xmlns="http://www.w3.org/2000/svg" xmlns:xlink="http://www.w3.org/1999/xlink">
<g id="graph0" class="graph" transform="scale(0.853328 0.853328) rotate(0) translate(4 839.76)">
<title>Argument Map</title>
<g id="clust1" class="cluster">
<title>cluster_1</title>
<polygon fill="#f3eadb" stroke="#d4c0a1" points="8,-25.76 8,-827.76 816.79,-827.76 816.79,-25.76 8,-25.76"/>
<text xml:space="preserve" text-anchor="start" x="373.72" y="-811.76" font-family="Inter, ui-sans-serif, system-ui, -apple-system, BlinkMacSystemFont, Segoe UI, sans-serif" font-size="12.00" fill="#2f2a21">Central Thesis</text>
</g>
<!-- n0 -->
<g id="node1" class="node">
<title>n0</title>
<g id="a_node1"><a xlink:title="不會用皮夾的人怎麼辦：公民證明取得權作為基本權利">
<path fill="#fffdf7" stroke="#6f8f72" stroke-width="2" d="M796.79,-467.76C796.79,-467.76 600.92,-467.76 600.92,-467.76 594.92,-467.76 588.92,-461.76 588.92,-455.76 588.92,-455.76 588.92,-443.76 588.92,-443.76 588.92,-437.76 594.92,-431.76 600.92,-431.76 600.92,-431.76 796.79,-431.76 796.79,-431.76 802.79,-431.76 808.79,-437.76 808.79,-443.76 808.79,-443.76 808.79,-455.76 808.79,-455.76 808.79,-461.76 802.79,-467.76 796.79,-467.76"/>
<text xml:space="preserve" text-anchor="start" x="598.84" y="-447.76" font-family="Inter, ui-sans-serif, system-ui, -apple-system, BlinkMacSystemFont, Segoe UI, sans-serif" font-weight="bold" font-size="10.00" fill="#2f2a21">不會用皮夾的人怎麼辦：公民證明取得權作為基本權利</text>
</a>
</g>
</g>
<!-- n1 -->
<g id="node2" class="node">
<title>n1</title>
<g id="a_node2"><a xlink:title="Civic proof 屬人權層...">
<path fill="#fffdf7" stroke="#6f8f72" stroke-width="2" d="M212.15,-79.76C212.15,-79.76 40.31,-79.76 40.31,-79.76 34.31,-79.76 28.31,-73.76 28.31,-67.76 28.31,-67.76 28.31,-55.76 28.31,-55.76 28.31,-49.76 34.31,-43.76 40.31,-43.76 40.31,-43.76 212.15,-43.76 212.15,-43.76 218.15,-43.76 224.15,-49.76 224.15,-55.76 224.15,-55.76 224.15,-67.76 224.15,-67.76 224.15,-73.76 218.15,-79.76 212.15,-79.76"/>
<text xml:space="preserve" text-anchor="start" x="77.89" y="-59.76" font-family="Inter, ui-sans-serif, system-ui, -apple-system, BlinkMacSystemFont, Segoe UI, sans-serif" font-weight="bold" font-size="10.00" fill="#2f2a21">Civic proof 屬人權層...</text>
</a>
</g>
</g>
<!-- n1&#45;&gt;n0 -->
<g id="edge2" class="edge">
<title>n1&#45;&gt;n0</title>
<g id="a_edge2"><a xlink:title="support">
<path fill="none" stroke="#6f8f72" d="M173.29,-43.29C257.3,-12.91 437.41,36.58 552.92,-44.76 678.97,-133.53 695.98,-342.52 697.83,-420.09"/>
<polygon fill="#6f8f72" stroke="#6f8f72" points="694.33,-419.92 697.99,-429.86 701.33,-419.81 694.33,-419.92"/>
</a>
</g>
</g>
<!-- n3 -->
<g id="node4" class="node">
<title>n3</title>
<g id="a_node4"><a xlink:title="Civic proof 屬立法政策選擇（statutory...">
<path fill="#fffdf7" stroke="#6f8f72" stroke-width="2" d="M498.61,-89.76C498.61,-89.76 326.77,-89.76 326.77,-89.76 320.77,-89.76 314.77,-83.76 314.77,-77.76 314.77,-77.76 314.77,-65.76 314.77,-65.76 314.77,-59.76 320.77,-53.76 326.77,-53.76 326.77,-53.76 498.61,-53.76 498.61,-53.76 504.61,-53.76 510.61,-59.76 510.61,-65.76 510.61,-65.76 510.61,-77.76 510.61,-77.76 510.61,-83.76 504.61,-89.76 498.61,-89.76"/>
<text xml:space="preserve" text-anchor="start" x="326.29" y="-69.76" font-family="Inter, ui-sans-serif, system-ui, -apple-system, BlinkMacSystemFont, Segoe UI, sans-serif" font-weight="bold" font-size="10.00" fill="#2f2a21">Civic proof 屬立法政策選擇（statutory...</text>
</a>
</g>
</g>
<!-- n1&#45;&gt;n3 -->
<g id="edge11" class="edge">
<title>n1&#45;&gt;n3</title>
<g id="a_edge11"><a xlink:title="attack">
<path fill="none" stroke="#b85b57" d="M224.33,-65.17C249.7,-66.06 277.22,-67.03 303.15,-67.94"/>
<polygon fill="#b85b57" stroke="#b85b57" points="302.91,-71.43 313.03,-68.29 303.16,-64.44 302.91,-71.43"/>
</a>
</g>
</g>
<!-- n2 -->
<g id="node3" class="node">
<title>n2</title>
<g id="a_node3"><a xlink:title="任何 civic proof inclusion...">
<path fill="#fffdf7" stroke="#6f8f72" stroke-width="2" d="M498.61,-143.76C498.61,-143.76 326.77,-143.76 326.77,-143.76 320.77,-143.76 314.77,-137.76 314.77,-131.76 314.77,-131.76 314.77,-119.76 314.77,-119.76 314.77,-113.76 320.77,-107.76 326.77,-107.76 326.77,-107.76 498.61,-107.76 498.61,-107.76 504.61,-107.76 510.61,-113.76 510.61,-119.76 510.61,-119.76 510.61,-131.76 510.61,-131.76 510.61,-137.76 504.61,-143.76 498.61,-143.76"/>
<text xml:space="preserve" text-anchor="start" x="350.18" y="-123.76" font-family="Inter, ui-sans-serif, system-ui, -apple-system, BlinkMacSystemFont, Segoe UI, sans-serif" font-weight="bold" font-size="10.00" fill="#2f2a21">任何 civic proof inclusion...</text>
</a>
</g>
</g>
<!-- n2&#45;&gt;n0 -->
<g id="edge9" class="edge">
<title>n2&#45;&gt;n0</title>
<g id="a_edge9"><a xlink:title="support">
<path fill="none" stroke="#6f8f72" d="M510.78,-132.56C525.92,-136.89 540.61,-143.32 552.92,-152.76 642.55,-221.49 680.04,-360.16 692.58,-420.55"/>
<polygon fill="#6f8f72" stroke="#6f8f72" points="689.08,-420.92 694.46,-430.05 695.95,-419.56 689.08,-420.92"/>
</a>
</g>
</g>
<!-- n3&#45;&gt;n0 -->
<g id="edge12" class="edge">
<title>n3&#45;&gt;n0</title>
<g id="a_edge12"><a xlink:title="attack">
<path fill="none" stroke="#b85b57" d="M510.93,-77.81C526.15,-82.21 540.81,-88.86 552.92,-98.76 655.72,-182.8 686.47,-351.86 694.92,-420.14"/>
<polygon fill="#b85b57" stroke="#b85b57" points="691.41,-420.28 696.03,-429.81 698.36,-419.47 691.41,-420.28"/>
</a>
</g>
</g>
<!-- n4 -->
<g id="node5" class="node">
<title>n4</title>
<g id="a_node5"><a xlink:title="淨包容效益">
<path fill="#fffdf7" stroke="#6f8f72" stroke-width="2" d="M498.61,-649.76C498.61,-649.76 326.77,-649.76 326.77,-649.76 320.77,-649.76 314.77,-643.76 314.77,-637.76 314.77,-637.76 314.77,-625.76 314.77,-625.76 314.77,-619.76 320.77,-613.76 326.77,-613.76 326.77,-613.76 498.61,-613.76 498.61,-613.76 504.61,-613.76 510.61,-619.76 510.61,-625.76 510.61,-625.76 510.61,-637.76 510.61,-637.76 510.61,-643.76 504.61,-649.76 498.61,-649.76"/>
<text xml:space="preserve" text-anchor="start" x="391.85" y="-629.76" font-family="Inter, ui-sans-serif, system-ui, -apple-system, BlinkMacSystemFont, Segoe UI, sans-serif" font-weight="bold" font-size="10.00" fill="#2f2a21">淨包容效益</text>
</a>
</g>
</g>
<!-- n4&#45;&gt;n0 -->
<g id="edge14" class="edge">
<title>n4&#45;&gt;n0</title>
<g id="a_edge14"><a xlink:title="attack">
<path fill="none" stroke="#b85b57" d="M510.77,-617.08C525.43,-612.72 539.96,-607.08 552.92,-599.76 607.53,-568.9 654.59,-511.13 679.32,-476.99"/>
<polygon fill="#b85b57" stroke="#b85b57" points="681.87,-479.44 684.81,-469.26 676.17,-475.39 681.87,-479.44"/>
</a>
</g>
</g>
<!-- n5 -->
<g id="node6" class="node">
<title>n5</title>
<g id="a_node6"><a xlink:title="Posner Vermeule — 行政國家彈性需求">
<path fill="#fffdf7" stroke="#6f8f72" stroke-width="2" d="M498.61,-723.76C498.61,-723.76 326.77,-723.76 326.77,-723.76 320.77,-723.76 314.77,-717.76 314.77,-711.76 314.77,-711.76 314.77,-699.76 314.77,-699.76 314.77,-693.76 320.77,-687.76 326.77,-687.76 326.77,-687.76 498.61,-687.76 498.61,-687.76 504.61,-687.76 510.61,-693.76 510.61,-699.76 510.61,-699.76 510.61,-711.76 510.61,-711.76 510.61,-717.76 504.61,-723.76 498.61,-723.76"/>
<text xml:space="preserve" text-anchor="start" x="331.55" y="-703.76" font-family="Inter, ui-sans-serif, system-ui, -apple-system, BlinkMacSystemFont, Segoe UI, sans-serif" font-weight="bold" font-size="10.00" fill="#2f2a21">Posner Vermeule — 行政國家彈性需求</text>
</a>
</g>
</g>
<!-- n5&#45;&gt;n0 -->
<g id="edge17" class="edge">
<title>n5&#45;&gt;n0</title>
<g id="a_edge17"><a xlink:title="attack">
<path fill="none" stroke="#b85b57" d="M511.04,-693.57C525.9,-688.9 540.42,-682.51 552.92,-673.76 624.03,-623.92 668.72,-526.95 687.54,-478.6"/>
<polygon fill="#b85b57" stroke="#b85b57" points="690.77,-479.97 691.04,-469.38 684.22,-477.49 690.77,-479.97"/>
</a>
</g>
</g>
<!-- n6 -->
<g id="node7" class="node">
<title>n6</title>
<g id="a_node7"><a xlink:title="Lessig cyber&#45;libertarian — 市場主導...">
<path fill="#fffdf7" stroke="#6f8f72" stroke-width="2" d="M498.61,-797.76C498.61,-797.76 326.77,-797.76 326.77,-797.76 320.77,-797.76 314.77,-791.76 314.77,-785.76 314.77,-785.76 314.77,-773.76 314.77,-773.76 314.77,-767.76 320.77,-761.76 326.77,-761.76 326.77,-761.76 498.61,-761.76 498.61,-761.76 504.61,-761.76 510.61,-767.76 510.61,-773.76 510.61,-773.76 510.61,-785.76 510.61,-785.76 510.61,-791.76 504.61,-797.76 498.61,-797.76"/>
<text xml:space="preserve" text-anchor="start" x="328.49" y="-777.76" font-family="Inter, ui-sans-serif, system-ui, -apple-system, BlinkMacSystemFont, Segoe UI, sans-serif" font-weight="bold" font-size="10.00" fill="#2f2a21">Lessig cyber&#45;libertarian — 市場主導...</text>
</a>
</g>
</g>
<!-- n6&#45;&gt;n0 -->
<g id="edge20" class="edge">
<title>n6&#45;&gt;n0</title>
<g id="a_edge20"><a xlink:title="attack">
<path fill="none" stroke="#b85b57" d="M510.92,-769.2C526.05,-764.36 540.69,-757.48 552.92,-747.76 641.34,-677.41 679.4,-539.6 692.32,-479.25"/>
<polygon fill="#b85b57" stroke="#b85b57" points="695.69,-480.24 694.28,-469.74 688.84,-478.83 695.69,-480.24"/>
</a>
</g>
</g>
<!-- n7 -->
<g id="node8" class="node">
<title>n7</title>
<g id="a_node8"><a xlink:title="Formal Core">
<path fill="#e8f1e8" stroke="#c8b794" d="M498.61,-197.76C498.61,-197.76 326.77,-197.76 326.77,-197.76 320.77,-197.76 314.77,-191.76 314.77,-185.76 314.77,-185.76 314.77,-173.76 314.77,-173.76 314.77,-167.76 320.77,-161.76 326.77,-161.76 326.77,-161.76 498.61,-161.76 498.61,-161.76 504.61,-161.76 510.61,-167.76 510.61,-173.76 510.61,-173.76 510.61,-185.76 510.61,-185.76 510.61,-191.76 504.61,-197.76 498.61,-197.76"/>
<text xml:space="preserve" text-anchor="start" x="383.24" y="-177.76" font-family="Inter, ui-sans-serif, system-ui, -apple-system, BlinkMacSystemFont, Segoe UI, sans-serif" font-weight="bold" font-size="10.00" fill="#2f2a21">Formal Core</text>
</a>
</g>
</g>
<!-- n7&#45;&gt;n0 -->
<g id="edge1" class="edge">
<title>n7&#45;&gt;n0</title>
<g id="a_edge1"><a xlink:title="support">
<path fill="none" stroke="#6f8f72" d="M510.85,-187.66C525.82,-191.87 540.42,-197.98 552.92,-206.76 629.53,-260.56 672.4,-368.93 689.31,-420.81"/>
<polygon fill="#6f8f72" stroke="#6f8f72" points="685.9,-421.63 692.25,-430.11 692.57,-419.52 685.9,-421.63"/>
</a>
</g>
</g>
<!-- n8 -->
<g id="node9" class="node">
<title>n8</title>
<g id="a_node9"><a xlink:title="排除可被類型化，且四類有獨立介入點">
<path fill="#e8f1e8" stroke="#c8b794" d="M498.61,-251.76C498.61,-251.76 326.77,-251.76 326.77,-251.76 320.77,-251.76 314.77,-245.76 314.77,-239.76 314.77,-239.76 314.77,-227.76 314.77,-227.76 314.77,-221.76 320.77,-215.76 326.77,-215.76 326.77,-215.76 498.61,-215.76 498.61,-215.76 504.61,-215.76 510.61,-221.76 510.61,-227.76 510.61,-227.76 510.61,-239.76 510.61,-239.76 510.61,-245.76 504.61,-251.76 498.61,-251.76"/>
<text xml:space="preserve" text-anchor="start" x="341.84" y="-231.76" font-family="Inter, ui-sans-serif, system-ui, -apple-system, BlinkMacSystemFont, Segoe UI, sans-serif" font-weight="bold" font-size="10.00" fill="#2f2a21">排除可被類型化，且四類有獨立介入點</text>
</a>
</g>
</g>
<!-- n8&#45;&gt;n0 -->
<g id="edge3" class="edge">
<title>n8&#45;&gt;n0</title>
<g id="a_edge3"><a xlink:title="support">
<path fill="none" stroke="#6f8f72" d="M511.1,-243.23C525.79,-247.28 540.25,-252.92 552.92,-260.76 616.8,-300.28 663.01,-378.9 684.46,-421.21"/>
<polygon fill="#6f8f72" stroke="#6f8f72" points="681.25,-422.62 688.82,-430.03 687.52,-419.52 681.25,-422.62"/>
</a>
</g>
</g>
<!-- n9 -->
<g id="node10" class="node">
<title>n9</title>
<g id="a_node10"><a xlink:title="Civic proof 是橫貫三層公民權的前置條件">
<path fill="#e8f1e8" stroke="#c8b794" d="M498.61,-305.76C498.61,-305.76 326.77,-305.76 326.77,-305.76 320.77,-305.76 314.77,-299.76 314.77,-293.76 314.77,-293.76 314.77,-281.76 314.77,-281.76 314.77,-275.76 320.77,-269.76 326.77,-269.76 326.77,-269.76 498.61,-269.76 498.61,-269.76 504.61,-269.76 510.61,-275.76 510.61,-281.76 510.61,-281.76 510.61,-293.76 510.61,-293.76 510.61,-299.76 504.61,-305.76 498.61,-305.76"/>
<text xml:space="preserve" text-anchor="start" x="331.01" y="-285.76" font-family="Inter, ui-sans-serif, system-ui, -apple-system, BlinkMacSystemFont, Segoe UI, sans-serif" font-weight="bold" font-size="10.00" fill="#2f2a21">Civic proof 是橫貫三層公民權的前置條件</text>
</a>
</g>
</g>
<!-- n9&#45;&gt;n0 -->
<g id="edge4" class="edge">
<title>n9&#45;&gt;n0</title>
<g id="a_edge4"><a xlink:title="support">
<path fill="none" stroke="#6f8f72" d="M510.77,-299.31C525.35,-303.1 539.86,-308.11 552.92,-314.76 604.8,-341.16 651.44,-391.68 677.09,-422.87"/>
<polygon fill="#6f8f72" stroke="#6f8f72" points="674.1,-424.74 683.11,-430.32 679.55,-420.34 674.1,-424.74"/>
</a>
</g>
</g>
<!-- n10 -->
<g id="node11" class="node">
<title>n10</title>
<g id="a_node11"><a xlink:title="國家三層義務 嚴重度光譜">
<path fill="#e8f1e8" stroke="#c8b794" d="M498.61,-359.76C498.61,-359.76 326.77,-359.76 326.77,-359.76 320.77,-359.76 314.77,-353.76 314.77,-347.76 314.77,-347.76 314.77,-335.76 314.77,-335.76 314.77,-329.76 320.77,-323.76 326.77,-323.76 326.77,-323.76 498.61,-323.76 498.61,-323.76 504.61,-323.76 510.61,-329.76 510.61,-335.76 510.61,-335.76 510.61,-347.76 510.61,-347.76 510.61,-353.76 504.61,-359.76 498.61,-359.76"/>
<text xml:space="preserve" text-anchor="start" x="365.46" y="-339.76" font-family="Inter, ui-sans-serif, system-ui, -apple-system, BlinkMacSystemFont, Segoe UI, sans-serif" font-weight="bold" font-size="10.00" fill="#2f2a21">國家三層義務 嚴重度光譜</text>
</a>
</g>
</g>
<!-- n10&#45;&gt;n0 -->
<g id="edge5" class="edge">
<title>n10&#45;&gt;n0</title>
<g id="a_edge5"><a xlink:title="support">
<path fill="none" stroke="#6f8f72" d="M511.02,-356.51C525.27,-359.85 539.62,-363.89 552.92,-368.76 592.03,-383.06 633.15,-407.01 661.56,-425.17"/>
<polygon fill="#6f8f72" stroke="#6f8f72" points="659.49,-428 669.79,-430.5 663.3,-422.13 659.49,-428"/>
</a>
</g>
</g>
<!-- n11 -->
<g id="node12" class="node">
<title>n11</title>
<g id="a_node12"><a xlink:title="Wallet 預設本身為規範偏誤">
<path fill="#e8f1e8" stroke="#c8b794" d="M498.61,-413.76C498.61,-413.76 326.77,-413.76 326.77,-413.76 320.77,-413.76 314.77,-407.76 314.77,-401.76 314.77,-401.76 314.77,-389.76 314.77,-389.76 314.77,-383.76 320.77,-377.76 326.77,-377.76 326.77,-377.76 498.61,-377.76 498.61,-377.76 504.61,-377.76 510.61,-383.76 510.61,-389.76 510.61,-389.76 510.61,-401.76 510.61,-401.76 510.61,-407.76 504.61,-413.76 498.61,-413.76"/>
<text xml:space="preserve" text-anchor="start" x="359.07" y="-393.76" font-family="Inter, ui-sans-serif, system-ui, -apple-system, BlinkMacSystemFont, Segoe UI, sans-serif" font-weight="bold" font-size="10.00" fill="#2f2a21">Wallet 預設本身為規範偏誤</text>
</a>
</g>
</g>
<!-- n11&#45;&gt;n0 -->
<g id="edge6" class="edge">
<title>n11&#45;&gt;n0</title>
<g id="a_edge6"><a xlink:title="support">
<path fill="none" stroke="#6f8f72" d="M510.69,-414.19C536.15,-419.03 563.77,-424.28 589.78,-429.22"/>
<polygon fill="#6f8f72" stroke="#6f8f72" points="588.85,-432.6 599.32,-431.03 590.15,-425.73 588.85,-432.6"/>
</a>
</g>
</g>
<!-- n12 -->
<g id="node13" class="node">
<title>n12</title>
<g id="a_node13"><a xlink:title="三層條款並行 雙防線 三道防腐">
<path fill="#e8f1e8" stroke="#c8b794" d="M498.61,-467.76C498.61,-467.76 326.77,-467.76 326.77,-467.76 320.77,-467.76 314.77,-461.76 314.77,-455.76 314.77,-455.76 314.77,-443.76 314.77,-443.76 314.77,-437.76 320.77,-431.76 326.77,-431.76 326.77,-431.76 498.61,-431.76 498.61,-431.76 504.61,-431.76 510.61,-437.76 510.61,-443.76 510.61,-443.76 510.61,-455.76 510.61,-455.76 510.61,-461.76 504.61,-467.76 498.61,-467.76"/>
<text xml:space="preserve" text-anchor="start" x="355.73" y="-447.76" font-family="Inter, ui-sans-serif, system-ui, -apple-system, BlinkMacSystemFont, Segoe UI, sans-serif" font-weight="bold" font-size="10.00" fill="#2f2a21">三層條款並行 雙防線 三道防腐</text>
</a>
</g>
</g>
<!-- n12&#45;&gt;n0 -->
<g id="edge7" class="edge">
<title>n12&#45;&gt;n0</title>
<g id="a_edge7"><a xlink:title="support">
<path fill="none" stroke="#6f8f72" d="M511.08,-449.76C532.43,-449.76 555.27,-449.76 577.39,-449.76"/>
<polygon fill="#6f8f72" stroke="#6f8f72" points="577.37,-453.26 587.37,-449.76 577.37,-446.26 577.37,-453.26"/>
</a>
</g>
</g>
<!-- n13 -->
<g id="node14" class="node">
<title>n13</title>
<g id="a_node14"><a xlink:title="Aadhaar PDS 致死案六步因果鏈（強制連結 結構性褫奪公民資格）">
<path fill="#e8f1e8" stroke="#c8b794" d="M540.92,-521.76C540.92,-521.76 284.46,-521.76 284.46,-521.76 278.46,-521.76 272.46,-515.76 272.46,-509.76 272.46,-509.76 272.46,-497.76 272.46,-497.76 272.46,-491.76 278.46,-485.76 284.46,-485.76 284.46,-485.76 540.92,-485.76 540.92,-485.76 546.92,-485.76 552.92,-491.76 552.92,-497.76 552.92,-497.76 552.92,-509.76 552.92,-509.76 552.92,-515.76 546.92,-521.76 540.92,-521.76"/>
<text xml:space="preserve" text-anchor="start" x="282.38" y="-501.76" font-family="Inter, ui-sans-serif, system-ui, -apple-system, BlinkMacSystemFont, Segoe UI, sans-serif" font-weight="bold" font-size="10.00" fill="#2f2a21">Aadhaar PDS 致死案六步因果鏈（強制連結 結構性褫奪公民資格）</text>
</a>
</g>
</g>
<!-- n13&#45;&gt;n0 -->
<g id="edge8" class="edge">
<title>n13&#45;&gt;n0</title>
<g id="a_edge8"><a xlink:title="support">
<path fill="none" stroke="#6f8f72" d="M510.69,-485.32C536.15,-480.48 563.77,-475.24 589.78,-470.29"/>
<polygon fill="#6f8f72" stroke="#6f8f72" points="590.15,-473.78 599.32,-468.48 588.85,-466.91 590.15,-473.78"/>
</a>
</g>
</g>
<!-- n14 -->
<g id="node15" class="node">
<title>n14</title>
<g id="a_node15"><a xlink:title="Conclusion">
<path fill="#e8f1e8" stroke="#c8b794" d="M498.61,-575.76C498.61,-575.76 326.77,-575.76 326.77,-575.76 320.77,-575.76 314.77,-569.76 314.77,-563.76 314.77,-563.76 314.77,-551.76 314.77,-551.76 314.77,-545.76 320.77,-539.76 326.77,-539.76 326.77,-539.76 498.61,-539.76 498.61,-539.76 504.61,-539.76 510.61,-545.76 510.61,-551.76 510.61,-551.76 510.61,-563.76 510.61,-563.76 510.61,-569.76 504.61,-575.76 498.61,-575.76"/>
<text xml:space="preserve" text-anchor="start" x="385.47" y="-555.76" font-family="Inter, ui-sans-serif, system-ui, -apple-system, BlinkMacSystemFont, Segoe UI, sans-serif" font-weight="bold" font-size="10.00" fill="#2f2a21">Conclusion</text>
</a>
</g>
</g>
<!-- n14&#45;&gt;n0 -->
<g id="edge10" class="edge">
<title>n14&#45;&gt;n0</title>
<g id="a_edge10"><a xlink:title="support">
<path fill="none" stroke="#6f8f72" d="M511.02,-543C525.27,-539.66 539.62,-535.62 552.92,-530.76 592.03,-516.45 633.15,-492.5 661.56,-474.34"/>
<polygon fill="#6f8f72" stroke="#6f8f72" points="663.3,-477.38 669.79,-469.01 659.49,-471.51 663.3,-477.38"/>
</a>
</g>
</g>
<!-- n15 -->
<g id="node16" class="node">
<title>n15</title>
<g id="a_node16"><a xlink:title="Reply Banerjee Duflo — universal...">
<path fill="#e8f1e8" stroke="#c8b794" d="M212.15,-630.76C212.15,-630.76 40.31,-630.76 40.31,-630.76 34.31,-630.76 28.31,-624.76 28.31,-618.76 28.31,-618.76 28.31,-606.76 28.31,-606.76 28.31,-600.76 34.31,-594.76 40.31,-594.76 40.31,-594.76 212.15,-594.76 212.15,-594.76 218.15,-594.76 224.15,-600.76 224.15,-606.76 224.15,-606.76 224.15,-618.76 224.15,-618.76 224.15,-624.76 218.15,-630.76 212.15,-630.76"/>
<text xml:space="preserve" text-anchor="start" x="42.87" y="-610.76" font-family="Inter, ui-sans-serif, system-ui, -apple-system, BlinkMacSystemFont, Segoe UI, sans-serif" font-weight="bold" font-size="10.00" fill="#2f2a21">Reply Banerjee Duflo — universal...</text>
</a>
</g>
</g>
<!-- n15&#45;&gt;n0 -->
<g id="edge15" class="edge">
<title>n15&#45;&gt;n0</title>
<g id="a_edge15"><a xlink:title="support">
<path fill="none" stroke="#6f8f72" d="M224.56,-607.16C347.88,-599.96 545.45,-587.98 552.92,-584.76 606.93,-561.42 653.49,-508.97 678.43,-476.75"/>
<polygon fill="#6f8f72" stroke="#6f8f72" points="681.01,-479.14 684.26,-469.05 675.43,-474.91 681.01,-479.14"/>
</a>
</g>
</g>
<!-- n15&#45;&gt;n4 -->
<g id="edge13" class="edge">
<title>n15&#45;&gt;n4</title>
<g id="a_edge13"><a xlink:title="attack">
<path fill="none" stroke="#b85b57" d="M224.33,-619.24C249.7,-620.94 277.22,-622.77 303.15,-624.51"/>
<polygon fill="#b85b57" stroke="#b85b57" points="302.82,-627.99 313.03,-625.17 303.29,-621.01 302.82,-627.99"/>
</a>
</g>
</g>
<!-- n16 -->
<g id="node17" class="node">
<title>n16</title>
<g id="a_node17"><a xlink:title="Reply Posner Vermeule — 行政國家彈性需求...">
<path fill="#e8f1e8" stroke="#c8b794" d="M224.46,-704.76C224.46,-704.76 28,-704.76 28,-704.76 22,-704.76 16,-698.76 16,-692.76 16,-692.76 16,-680.76 16,-680.76 16,-674.76 22,-668.76 28,-668.76 28,-668.76 224.46,-668.76 224.46,-668.76 230.46,-668.76 236.46,-674.76 236.46,-680.76 236.46,-680.76 236.46,-692.76 236.46,-692.76 236.46,-698.76 230.46,-704.76 224.46,-704.76"/>
<text xml:space="preserve" text-anchor="start" x="25.92" y="-684.76" font-family="Inter, ui-sans-serif, system-ui, -apple-system, BlinkMacSystemFont, Segoe UI, sans-serif" font-weight="bold" font-size="10.00" fill="#2f2a21">Reply Posner Vermeule — 行政國家彈性需求...</text>
</a>
</g>
</g>
<!-- n16&#45;&gt;n0 -->
<g id="edge18" class="edge">
<title>n16&#45;&gt;n0</title>
<g id="a_edge18"><a xlink:title="support">
<path fill="none" stroke="#6f8f72" d="M236.76,-680.71C360.6,-673.71 546.07,-662.63 552.92,-658.76 624.45,-618.27 668.59,-526.15 687.35,-478.9"/>
<polygon fill="#6f8f72" stroke="#6f8f72" points="690.6,-480.18 690.93,-469.59 684.07,-477.67 690.6,-480.18"/>
</a>
</g>
</g>
<!-- n16&#45;&gt;n5 -->
<g id="edge16" class="edge">
<title>n16&#45;&gt;n5</title>
<g id="a_edge16"><a xlink:title="attack">
<path fill="none" stroke="#b85b57" d="M236.8,-694.07C258.66,-695.53 281.6,-697.07 303.42,-698.52"/>
<polygon fill="#b85b57" stroke="#b85b57" points="302.99,-702 313.2,-699.18 303.46,-695.02 302.99,-702"/>
</a>
</g>
</g>
<!-- n17 -->
<g id="node18" class="node">
<title>n17</title>
<g id="a_node18"><a xlink:title="Reply Lessig cyber&#45;libertarian...">
<path fill="#e8f1e8" stroke="#c8b794" d="M212.15,-778.76C212.15,-778.76 40.31,-778.76 40.31,-778.76 34.31,-778.76 28.31,-772.76 28.31,-766.76 28.31,-766.76 28.31,-754.76 28.31,-754.76 28.31,-748.76 34.31,-742.76 40.31,-742.76 40.31,-742.76 212.15,-742.76 212.15,-742.76 218.15,-742.76 224.15,-748.76 224.15,-754.76 224.15,-754.76 224.15,-766.76 224.15,-766.76 224.15,-772.76 218.15,-778.76 212.15,-778.76"/>
<text xml:space="preserve" text-anchor="start" x="50.65" y="-758.76" font-family="Inter, ui-sans-serif, system-ui, -apple-system, BlinkMacSystemFont, Segoe UI, sans-serif" font-weight="bold" font-size="10.00" fill="#2f2a21">Reply Lessig cyber&#45;libertarian...</text>
</a>
</g>
</g>
<!-- n17&#45;&gt;n0 -->
<g id="edge21" class="edge">
<title>n17&#45;&gt;n0</title>
<g id="a_edge21"><a xlink:title="support">
<path fill="none" stroke="#6f8f72" d="M224.43,-754.95C349.02,-747.42 549.51,-735 552.92,-732.76 643.32,-673.32 680.25,-539.01 692.6,-479.31"/>
<polygon fill="#6f8f72" stroke="#6f8f72" points="696.02,-480.06 694.52,-469.57 689.15,-478.71 696.02,-480.06"/>
</a>
</g>
</g>
<!-- n17&#45;&gt;n6 -->
<g id="edge19" class="edge">
<title>n17&#45;&gt;n6</title>
<g id="a_edge19"><a xlink:title="attack">
<path fill="none" stroke="#b85b57" d="M224.33,-767.24C249.7,-768.94 277.22,-770.77 303.15,-772.51"/>
<polygon fill="#b85b57" stroke="#b85b57" points="302.82,-775.99 313.03,-773.17 303.29,-769.01 302.82,-775.99"/>
</a>
</g>
</g>
</g>
</svg>
