<?xml version="1.0" encoding="UTF-8" standalone="no"?>
<!DOCTYPE svg PUBLIC "-//W3C//DTD SVG 1.1//EN"
 "http://www.w3.org/Graphics/SVG/1.1/DTD/svg11.dtd">
<!-- Generated by graphviz version 14.1.4 (0)
 -->
<!-- Title: Argument Map Pages: 1 -->
<svg class="argdown-summary-map" width="702pt" height="720pt"
 viewBox="0.00 0.00 702.00 720.00" xmlns="http://www.w3.org/2000/svg" xmlns:xlink="http://www.w3.org/1999/xlink">
<g id="graph0" class="graph" transform="scale(0.85655 0.85655) rotate(0) translate(4 836.58)">
<title>Argument Map</title>
<g id="clust1" class="cluster">
<title>cluster_1</title>
<polygon fill="#f3eadb" stroke="#d4c0a1" points="8,-22.58 8,-824.58 803.42,-824.58 803.42,-22.58 8,-22.58"/>
<text xml:space="preserve" text-anchor="start" x="367.03" y="-808.58" font-family="Inter, ui-sans-serif, system-ui, -apple-system, BlinkMacSystemFont, Segoe UI, sans-serif" font-size="12.00" fill="#2f2a21">Central Thesis</text>
</g>
<!-- n0 -->
<g id="node1" class="node">
<title>n0</title>
<g id="a_node1"><a xlink:title="公共鏈被身分基建請出去了嗎？一條 SSI 的去鏈化路徑">
<path fill="#fffdf7" stroke="#6f8f72" stroke-width="2" d="M783.42,-464.58C783.42,-464.58 582.53,-464.58 582.53,-464.58 576.53,-464.58 570.53,-458.58 570.53,-452.58 570.53,-452.58 570.53,-440.58 570.53,-440.58 570.53,-434.58 576.53,-428.58 582.53,-428.58 582.53,-428.58 783.42,-428.58 783.42,-428.58 789.42,-428.58 795.42,-434.58 795.42,-440.58 795.42,-440.58 795.42,-452.58 795.42,-452.58 795.42,-458.58 789.42,-464.58 783.42,-464.58"/>
<text xml:space="preserve" text-anchor="start" x="580.45" y="-444.58" font-family="Inter, ui-sans-serif, system-ui, -apple-system, BlinkMacSystemFont, Segoe UI, sans-serif" font-weight="bold" font-size="10.00" fill="#2f2a21">公共鏈被身分基建請出去了嗎？一條 SSI 的去鏈化路徑</text>
</a>
</g>
</g>
<!-- n1 -->
<g id="node2" class="node">
<title>n1</title>
<g id="a_node2"><a xlink:title="公共鏈在身分基建有特定可行位置，由治理與法規條件決定">
<path fill="#fffdf7" stroke="#6f8f72" stroke-width="2" d="M240.55,-76.58C240.55,-76.58 28,-76.58 28,-76.58 22,-76.58 16,-70.58 16,-64.58 16,-64.58 16,-52.58 16,-52.58 16,-46.58 22,-40.58 28,-40.58 28,-40.58 240.55,-40.58 240.55,-40.58 246.55,-40.58 252.55,-46.58 252.55,-52.58 252.55,-52.58 252.55,-64.58 252.55,-64.58 252.55,-70.58 246.55,-76.58 240.55,-76.58"/>
<text xml:space="preserve" text-anchor="start" x="25.92" y="-56.58" font-family="Inter, ui-sans-serif, system-ui, -apple-system, BlinkMacSystemFont, Segoe UI, sans-serif" font-weight="bold" font-size="10.00" fill="#2f2a21">公共鏈在身分基建有特定可行位置，由治理與法規條件決定</text>
</a>
</g>
</g>
<!-- n1&#45;&gt;n0 -->
<g id="edge2" class="edge">
<title>n1&#45;&gt;n0</title>
<g id="a_edge2"><a xlink:title="support">
<path fill="none" stroke="#6f8f72" d="M181.25,-40.13C261.13,-11.36 427.26,33.52 534.53,-41.58 661.08,-130.19 679.41,-339.28 681.76,-416.9"/>
<polygon fill="#6f8f72" stroke="#6f8f72" points="678.26,-416.76 681.98,-426.68 685.26,-416.6 678.26,-416.76"/>
</a>
</g>
</g>
<!-- n3 -->
<g id="node4" class="node">
<title>n3</title>
<g id="a_node4"><a xlink:title="公共鏈在身分基建沒有位置（全稱否認）">
<path fill="#fffdf7" stroke="#6f8f72" stroke-width="2" d="M497.46,-86.58C497.46,-86.58 325.62,-86.58 325.62,-86.58 319.62,-86.58 313.62,-80.58 313.62,-74.58 313.62,-74.58 313.62,-62.58 313.62,-62.58 313.62,-56.58 319.62,-50.58 325.62,-50.58 325.62,-50.58 497.46,-50.58 497.46,-50.58 503.46,-50.58 509.46,-56.58 509.46,-62.58 509.46,-62.58 509.46,-74.58 509.46,-74.58 509.46,-80.58 503.46,-86.58 497.46,-86.58"/>
<text xml:space="preserve" text-anchor="start" x="336.53" y="-66.58" font-family="Inter, ui-sans-serif, system-ui, -apple-system, BlinkMacSystemFont, Segoe UI, sans-serif" font-weight="bold" font-size="10.00" fill="#2f2a21">公共鏈在身分基建沒有位置（全稱否認）</text>
</a>
</g>
</g>
<!-- n1&#45;&gt;n3 -->
<g id="edge11" class="edge">
<title>n1&#45;&gt;n3</title>
<g id="a_edge11"><a xlink:title="attack">
<path fill="none" stroke="#b85b57" d="M252.81,-62.85C269.19,-63.45 285.97,-64.06 302.17,-64.64"/>
<polygon fill="#b85b57" stroke="#b85b57" points="301.66,-68.13 311.78,-64.99 301.91,-61.13 301.66,-68.13"/>
</a>
</g>
</g>
<!-- n2 -->
<g id="node3" class="node">
<title>n2</title>
<g id="a_node3"><a xlink:title="任何公共鏈承擔身分基建位置的合法性，必須通過六道條件">
<path fill="#fffdf7" stroke="#6f8f72" stroke-width="2" d="M517.81,-140.58C517.81,-140.58 305.27,-140.58 305.27,-140.58 299.27,-140.58 293.27,-134.58 293.27,-128.58 293.27,-128.58 293.27,-116.58 293.27,-116.58 293.27,-110.58 299.27,-104.58 305.27,-104.58 305.27,-104.58 517.81,-104.58 517.81,-104.58 523.81,-104.58 529.81,-110.58 529.81,-116.58 529.81,-116.58 529.81,-128.58 529.81,-128.58 529.81,-134.58 523.81,-140.58 517.81,-140.58"/>
<text xml:space="preserve" text-anchor="start" x="303.19" y="-120.58" font-family="Inter, ui-sans-serif, system-ui, -apple-system, BlinkMacSystemFont, Segoe UI, sans-serif" font-weight="bold" font-size="10.00" fill="#2f2a21">任何公共鏈承擔身分基建位置的合法性，必須通過六道條件</text>
</a>
</g>
</g>
<!-- n2&#45;&gt;n0 -->
<g id="edge9" class="edge">
<title>n2&#45;&gt;n0</title>
<g id="a_edge9"><a xlink:title="support">
<path fill="none" stroke="#6f8f72" d="M521.41,-141.01C526.03,-143.53 530.43,-146.37 534.53,-149.58 623.58,-219.25 662.78,-356.84 676.2,-417.12"/>
<polygon fill="#6f8f72" stroke="#6f8f72" points="672.72,-417.57 678.23,-426.62 679.56,-416.11 672.72,-417.57"/>
</a>
</g>
</g>
<!-- n3&#45;&gt;n0 -->
<g id="edge12" class="edge">
<title>n3&#45;&gt;n0</title>
<g id="a_edge12"><a xlink:title="attack">
<path fill="none" stroke="#b85b57" d="M509.88,-80.88C518.79,-84.66 527.2,-89.47 534.53,-95.58 636.74,-180.88 669.38,-349.22 678.66,-417.14"/>
<polygon fill="#b85b57" stroke="#b85b57" points="675.15,-417.27 679.9,-426.75 682.09,-416.38 675.15,-417.27"/>
</a>
</g>
</g>
<!-- n4 -->
<g id="node5" class="node">
<title>n4</title>
<g id="a_node5"><a xlink:title="不可變">
<path fill="#fffdf7" stroke="#6f8f72" stroke-width="2" d="M497.46,-646.58C497.46,-646.58 325.62,-646.58 325.62,-646.58 319.62,-646.58 313.62,-640.58 313.62,-634.58 313.62,-634.58 313.62,-622.58 313.62,-622.58 313.62,-616.58 319.62,-610.58 325.62,-610.58 325.62,-610.58 497.46,-610.58 497.46,-610.58 503.46,-610.58 509.46,-616.58 509.46,-622.58 509.46,-622.58 509.46,-634.58 509.46,-634.58 509.46,-640.58 503.46,-646.58 497.46,-646.58"/>
<text xml:space="preserve" text-anchor="start" x="399.04" y="-626.58" font-family="Inter, ui-sans-serif, system-ui, -apple-system, BlinkMacSystemFont, Segoe UI, sans-serif" font-weight="bold" font-size="10.00" fill="#2f2a21">不可變</text>
</a>
</g>
</g>
<!-- n4&#45;&gt;n0 -->
<g id="edge14" class="edge">
<title>n4&#45;&gt;n0</title>
<g id="a_edge14"><a xlink:title="attack">
<path fill="none" stroke="#b85b57" d="M504.95,-610.09C515.26,-606.36 525.34,-601.91 534.53,-596.58 589.11,-564.95 637.17,-507.7 662.66,-473.81"/>
<polygon fill="#b85b57" stroke="#b85b57" points="665.2,-476.26 668.33,-466.13 659.57,-472.09 665.2,-476.26"/>
</a>
</g>
</g>
<!-- n5 -->
<g id="node6" class="node">
<title>n5</title>
<g id="a_node6"><a xlink:title="eIDAS 2.0 QTSP 體系 — 法人主體營運責任硬性要求">
<path fill="#fffdf7" stroke="#6f8f72" stroke-width="2" d="M514.21,-720.58C514.21,-720.58 308.87,-720.58 308.87,-720.58 302.87,-720.58 296.87,-714.58 296.87,-708.58 296.87,-708.58 296.87,-696.58 296.87,-696.58 296.87,-690.58 302.87,-684.58 308.87,-684.58 308.87,-684.58 514.21,-684.58 514.21,-684.58 520.21,-684.58 526.21,-690.58 526.21,-696.58 526.21,-696.58 526.21,-708.58 526.21,-708.58 526.21,-714.58 520.21,-720.58 514.21,-720.58"/>
<text xml:space="preserve" text-anchor="start" x="306.79" y="-700.58" font-family="Inter, ui-sans-serif, system-ui, -apple-system, BlinkMacSystemFont, Segoe UI, sans-serif" font-weight="bold" font-size="10.00" fill="#2f2a21">eIDAS 2.0 QTSP 體系 — 法人主體營運責任硬性要求</text>
</a>
</g>
</g>
<!-- n5&#45;&gt;n0 -->
<g id="edge17" class="edge">
<title>n5&#45;&gt;n0</title>
<g id="a_edge17"><a xlink:title="attack">
<path fill="none" stroke="#b85b57" d="M510.1,-684.13C518.76,-680.41 527.06,-675.94 534.53,-670.58 605.26,-619.81 651.33,-523.68 671.03,-475.56"/>
<polygon fill="#b85b57" stroke="#b85b57" points="674.24,-476.95 674.7,-466.36 667.74,-474.35 674.24,-476.95"/>
</a>
</g>
</g>
<!-- n6 -->
<g id="node7" class="node">
<title>n6</title>
<g id="a_node7"><a xlink:title="不丹 NDI 反例不可外推 — 治理脈絡特殊">
<path fill="#fffdf7" stroke="#6f8f72" stroke-width="2" d="M497.46,-794.58C497.46,-794.58 325.62,-794.58 325.62,-794.58 319.62,-794.58 313.62,-788.58 313.62,-782.58 313.62,-782.58 313.62,-770.58 313.62,-770.58 313.62,-764.58 319.62,-758.58 325.62,-758.58 325.62,-758.58 497.46,-758.58 497.46,-758.58 503.46,-758.58 509.46,-764.58 509.46,-770.58 509.46,-770.58 509.46,-782.58 509.46,-782.58 509.46,-788.58 503.46,-794.58 497.46,-794.58"/>
<text xml:space="preserve" text-anchor="start" x="334.86" y="-774.58" font-family="Inter, ui-sans-serif, system-ui, -apple-system, BlinkMacSystemFont, Segoe UI, sans-serif" font-weight="bold" font-size="10.00" fill="#2f2a21">不丹 NDI 反例不可外推 — 治理脈絡特殊</text>
</a>
</g>
</g>
<!-- n6&#45;&gt;n0 -->
<g id="edge20" class="edge">
<title>n6&#45;&gt;n0</title>
<g id="a_edge20"><a xlink:title="attack">
<path fill="none" stroke="#b85b57" d="M509.9,-759.48C518.75,-755.5 527.15,-750.6 534.53,-744.58 622.4,-672.95 662.23,-535.82 676.01,-475.86"/>
<polygon fill="#b85b57" stroke="#b85b57" points="679.36,-476.94 678.1,-466.42 672.52,-475.43 679.36,-476.94"/>
</a>
</g>
</g>
<!-- n7 -->
<g id="node8" class="node">
<title>n7</title>
<g id="a_node8"><a xlink:title="Formal Core">
<path fill="#e8f1e8" stroke="#c8b794" d="M497.46,-194.58C497.46,-194.58 325.62,-194.58 325.62,-194.58 319.62,-194.58 313.62,-188.58 313.62,-182.58 313.62,-182.58 313.62,-170.58 313.62,-170.58 313.62,-164.58 319.62,-158.58 325.62,-158.58 325.62,-158.58 497.46,-158.58 497.46,-158.58 503.46,-158.58 509.46,-164.58 509.46,-170.58 509.46,-170.58 509.46,-182.58 509.46,-182.58 509.46,-188.58 503.46,-194.58 497.46,-194.58"/>
<text xml:space="preserve" text-anchor="start" x="382.09" y="-174.58" font-family="Inter, ui-sans-serif, system-ui, -apple-system, BlinkMacSystemFont, Segoe UI, sans-serif" font-weight="bold" font-size="10.00" fill="#2f2a21">Formal Core</text>
</a>
</g>
</g>
<!-- n7&#45;&gt;n0 -->
<g id="edge1" class="edge">
<title>n7&#45;&gt;n0</title>
<g id="a_edge1"><a xlink:title="support">
<path fill="none" stroke="#6f8f72" d="M509.92,-190.39C518.67,-193.88 527.04,-198.21 534.53,-203.58 610.8,-258.22 655.11,-365.73 672.86,-417.44"/>
<polygon fill="#6f8f72" stroke="#6f8f72" points="669.47,-418.35 675.95,-426.73 676.11,-416.14 669.47,-418.35"/>
</a>
</g>
</g>
<!-- n8 -->
<g id="node9" class="node">
<title>n8</title>
<g id="a_node9"><a xlink:title="早期 DID 真的有公共鏈基因">
<path fill="#e8f1e8" stroke="#c8b794" d="M497.46,-248.58C497.46,-248.58 325.62,-248.58 325.62,-248.58 319.62,-248.58 313.62,-242.58 313.62,-236.58 313.62,-236.58 313.62,-224.58 313.62,-224.58 313.62,-218.58 319.62,-212.58 325.62,-212.58 325.62,-212.58 497.46,-212.58 497.46,-212.58 503.46,-212.58 509.46,-218.58 509.46,-224.58 509.46,-224.58 509.46,-236.58 509.46,-236.58 509.46,-242.58 503.46,-248.58 497.46,-248.58"/>
<text xml:space="preserve" text-anchor="start" x="358.48" y="-228.58" font-family="Inter, ui-sans-serif, system-ui, -apple-system, BlinkMacSystemFont, Segoe UI, sans-serif" font-weight="bold" font-size="10.00" fill="#2f2a21">早期 DID 真的有公共鏈基因</text>
</a>
</g>
</g>
<!-- n8&#45;&gt;n0 -->
<g id="edge3" class="edge">
<title>n8&#45;&gt;n0</title>
<g id="a_edge3"><a xlink:title="support">
<path fill="none" stroke="#6f8f72" d="M509.92,-245.56C518.57,-248.82 526.92,-252.78 534.53,-257.58 598.47,-297.94 645.92,-376.21 668.08,-418.25"/>
<polygon fill="#6f8f72" stroke="#6f8f72" points="664.9,-419.72 672.59,-427.01 671.12,-416.52 664.9,-419.72"/>
</a>
</g>
</g>
<!-- n9 -->
<g id="node10" class="node">
<title>n9</title>
<g id="a_node10"><a xlink:title="派系角力在 W3C 留下的工程妥協">
<path fill="#e8f1e8" stroke="#c8b794" d="M497.46,-302.58C497.46,-302.58 325.62,-302.58 325.62,-302.58 319.62,-302.58 313.62,-296.58 313.62,-290.58 313.62,-290.58 313.62,-278.58 313.62,-278.58 313.62,-272.58 319.62,-266.58 325.62,-266.58 325.62,-266.58 497.46,-266.58 497.46,-266.58 503.46,-266.58 509.46,-272.58 509.46,-278.58 509.46,-278.58 509.46,-290.58 509.46,-290.58 509.46,-296.58 503.46,-302.58 497.46,-302.58"/>
<text xml:space="preserve" text-anchor="start" x="347.64" y="-282.58" font-family="Inter, ui-sans-serif, system-ui, -apple-system, BlinkMacSystemFont, Segoe UI, sans-serif" font-weight="bold" font-size="10.00" fill="#2f2a21">派系角力在 W3C 留下的工程妥協</text>
</a>
</g>
</g>
<!-- n9&#45;&gt;n0 -->
<g id="edge4" class="edge">
<title>n9&#45;&gt;n0</title>
<g id="a_edge4"><a xlink:title="support">
<path fill="none" stroke="#6f8f72" d="M509.77,-301.15C518.36,-304.08 526.74,-307.53 534.53,-311.58 586.66,-338.69 634.32,-388.98 660.63,-419.94"/>
<polygon fill="#6f8f72" stroke="#6f8f72" points="657.71,-421.91 666.81,-427.34 663.08,-417.42 657.71,-421.91"/>
</a>
</g>
</g>
<!-- n10 -->
<g id="node11" class="node">
<title>n10</title>
<g id="a_node11"><a xlink:title="GDPR eIDAS KYC AML 營運責任">
<path fill="#e8f1e8" stroke="#c8b794" d="M497.46,-356.58C497.46,-356.58 325.62,-356.58 325.62,-356.58 319.62,-356.58 313.62,-350.58 313.62,-344.58 313.62,-344.58 313.62,-332.58 313.62,-332.58 313.62,-326.58 319.62,-320.58 325.62,-320.58 325.62,-320.58 497.46,-320.58 497.46,-320.58 503.46,-320.58 509.46,-326.58 509.46,-332.58 509.46,-332.58 509.46,-344.58 509.46,-344.58 509.46,-350.58 503.46,-356.58 497.46,-356.58"/>
<text xml:space="preserve" text-anchor="start" x="338.75" y="-336.58" font-family="Inter, ui-sans-serif, system-ui, -apple-system, BlinkMacSystemFont, Segoe UI, sans-serif" font-weight="bold" font-size="10.00" fill="#2f2a21">GDPR eIDAS KYC AML 營運責任</text>
</a>
</g>
</g>
<!-- n10&#45;&gt;n0 -->
<g id="edge5" class="edge">
<title>n10&#45;&gt;n0</title>
<g id="a_edge5"><a xlink:title="support">
<path fill="none" stroke="#6f8f72" d="M508.21,-357C517.21,-359.56 526.11,-362.41 534.53,-365.58 573.9,-380.4 615.63,-404.18 644.62,-422.15"/>
<polygon fill="#6f8f72" stroke="#6f8f72" points="642.7,-425.08 653.03,-427.44 646.42,-419.15 642.7,-425.08"/>
</a>
</g>
</g>
<!-- n11 -->
<g id="node12" class="node">
<title>n11</title>
<g id="a_node12"><a xlink:title="撤銷需求與公共鏈基底層的工程不對齊">
<path fill="#e8f1e8" stroke="#c8b794" d="M497.46,-410.58C497.46,-410.58 325.62,-410.58 325.62,-410.58 319.62,-410.58 313.62,-404.58 313.62,-398.58 313.62,-398.58 313.62,-386.58 313.62,-386.58 313.62,-380.58 319.62,-374.58 325.62,-374.58 325.62,-374.58 497.46,-374.58 497.46,-374.58 503.46,-374.58 509.46,-380.58 509.46,-386.58 509.46,-386.58 509.46,-398.58 509.46,-398.58 509.46,-404.58 503.46,-410.58 497.46,-410.58"/>
<text xml:space="preserve" text-anchor="start" x="340.69" y="-390.58" font-family="Inter, ui-sans-serif, system-ui, -apple-system, BlinkMacSystemFont, Segoe UI, sans-serif" font-weight="bold" font-size="10.00" fill="#2f2a21">撤銷需求與公共鏈基底層的工程不對齊</text>
</a>
</g>
</g>
<!-- n11&#45;&gt;n0 -->
<g id="edge6" class="edge">
<title>n11&#45;&gt;n0</title>
<g id="a_edge6"><a xlink:title="support">
<path fill="none" stroke="#6f8f72" d="M504.51,-411.01C528.44,-415.81 554.37,-421.01 578.84,-425.91"/>
<polygon fill="#6f8f72" stroke="#6f8f72" points="577.98,-429.31 588.48,-427.84 579.36,-422.45 577.98,-429.31"/>
</a>
</g>
</g>
<!-- n12 -->
<g id="node13" class="node">
<title>n12</title>
<g id="a_node13"><a xlink:title="三條路線在三個不同強度上對 thesis 提出修正">
<path fill="#e8f1e8" stroke="#c8b794" d="M497.54,-464.58C497.54,-464.58 325.54,-464.58 325.54,-464.58 319.54,-464.58 313.54,-458.58 313.54,-452.58 313.54,-452.58 313.54,-440.58 313.54,-440.58 313.54,-434.58 319.54,-428.58 325.54,-428.58 325.54,-428.58 497.54,-428.58 497.54,-428.58 503.54,-428.58 509.54,-434.58 509.54,-440.58 509.54,-440.58 509.54,-452.58 509.54,-452.58 509.54,-458.58 503.54,-464.58 497.54,-464.58"/>
<text xml:space="preserve" text-anchor="start" x="323.46" y="-444.58" font-family="Inter, ui-sans-serif, system-ui, -apple-system, BlinkMacSystemFont, Segoe UI, sans-serif" font-weight="bold" font-size="10.00" fill="#2f2a21">三條路線在三個不同強度上對 thesis 提出修正</text>
</a>
</g>
</g>
<!-- n12&#45;&gt;n0 -->
<g id="edge7" class="edge">
<title>n12&#45;&gt;n0</title>
<g id="a_edge7"><a xlink:title="support">
<path fill="none" stroke="#6f8f72" d="M509.81,-446.58C525.73,-446.58 542.41,-446.58 558.86,-446.58"/>
<polygon fill="#6f8f72" stroke="#6f8f72" points="558.68,-450.08 568.68,-446.58 558.68,-443.08 558.68,-450.08"/>
</a>
</g>
</g>
<!-- n13 -->
<g id="node14" class="node">
<title>n13</title>
<g id="a_node14"><a xlink:title="不丹 NDI 五步遷移因果鏈（Indy Polygon Ethereum）">
<path fill="#e8f1e8" stroke="#c8b794" d="M522.53,-518.58C522.53,-518.58 300.55,-518.58 300.55,-518.58 294.55,-518.58 288.55,-512.58 288.55,-506.58 288.55,-506.58 288.55,-494.58 288.55,-494.58 288.55,-488.58 294.55,-482.58 300.55,-482.58 300.55,-482.58 522.53,-482.58 522.53,-482.58 528.53,-482.58 534.53,-488.58 534.53,-494.58 534.53,-494.58 534.53,-506.58 534.53,-506.58 534.53,-512.58 528.53,-518.58 522.53,-518.58"/>
<text xml:space="preserve" text-anchor="start" x="298.47" y="-498.58" font-family="Inter, ui-sans-serif, system-ui, -apple-system, BlinkMacSystemFont, Segoe UI, sans-serif" font-weight="bold" font-size="10.00" fill="#2f2a21">不丹 NDI 五步遷移因果鏈（Indy Polygon Ethereum）</text>
</a>
</g>
</g>
<!-- n13&#45;&gt;n0 -->
<g id="edge8" class="edge">
<title>n13&#45;&gt;n0</title>
<g id="a_edge8"><a xlink:title="support">
<path fill="none" stroke="#6f8f72" d="M504.51,-482.15C528.44,-477.35 554.37,-472.16 578.84,-467.25"/>
<polygon fill="#6f8f72" stroke="#6f8f72" points="579.36,-470.72 588.48,-465.32 577.98,-463.85 579.36,-470.72"/>
</a>
</g>
</g>
<!-- n14 -->
<g id="node15" class="node">
<title>n14</title>
<g id="a_node15"><a xlink:title="Conclusion">
<path fill="#e8f1e8" stroke="#c8b794" d="M497.46,-572.58C497.46,-572.58 325.62,-572.58 325.62,-572.58 319.62,-572.58 313.62,-566.58 313.62,-560.58 313.62,-560.58 313.62,-548.58 313.62,-548.58 313.62,-542.58 319.62,-536.58 325.62,-536.58 325.62,-536.58 497.46,-536.58 497.46,-536.58 503.46,-536.58 509.46,-542.58 509.46,-548.58 509.46,-548.58 509.46,-560.58 509.46,-560.58 509.46,-566.58 503.46,-572.58 497.46,-572.58"/>
<text xml:space="preserve" text-anchor="start" x="384.32" y="-552.58" font-family="Inter, ui-sans-serif, system-ui, -apple-system, BlinkMacSystemFont, Segoe UI, sans-serif" font-weight="bold" font-size="10.00" fill="#2f2a21">Conclusion</text>
</a>
</g>
</g>
<!-- n14&#45;&gt;n0 -->
<g id="edge10" class="edge">
<title>n14&#45;&gt;n0</title>
<g id="a_edge10"><a xlink:title="support">
<path fill="none" stroke="#6f8f72" d="M508.21,-536.16C517.21,-533.61 526.11,-530.75 534.53,-527.58 573.9,-512.76 615.63,-488.98 644.62,-471.01"/>
<polygon fill="#6f8f72" stroke="#6f8f72" points="646.42,-474.01 653.03,-465.73 642.7,-468.08 646.42,-474.01"/>
</a>
</g>
</g>
<!-- n15 -->
<g id="node16" class="node">
<title>n15</title>
<g id="a_node16"><a xlink:title="Reply CNIL 2018 — 公共鏈與 GDPR Art...">
<path fill="#e8f1e8" stroke="#c8b794" d="M223.61,-627.58C223.61,-627.58 44.94,-627.58 44.94,-627.58 38.94,-627.58 32.94,-621.58 32.94,-615.58 32.94,-615.58 32.94,-603.58 32.94,-603.58 32.94,-597.58 38.94,-591.58 44.94,-591.58 44.94,-591.58 223.61,-591.58 223.61,-591.58 229.61,-591.58 235.61,-597.58 235.61,-603.58 235.61,-603.58 235.61,-615.58 235.61,-615.58 235.61,-621.58 229.61,-627.58 223.61,-627.58"/>
<text xml:space="preserve" text-anchor="start" x="42.86" y="-607.58" font-family="Inter, ui-sans-serif, system-ui, -apple-system, BlinkMacSystemFont, Segoe UI, sans-serif" font-weight="bold" font-size="10.00" fill="#2f2a21">Reply CNIL 2018 — 公共鏈與 GDPR Art...</text>
</a>
</g>
</g>
<!-- n15&#45;&gt;n0 -->
<g id="edge15" class="edge">
<title>n15&#45;&gt;n0</title>
<g id="a_edge15"><a xlink:title="support">
<path fill="none" stroke="#6f8f72" d="M236.08,-604.17C349.86,-597.81 520.98,-587.4 534.53,-581.58 589.1,-558.14 636.59,-505.73 662.09,-473.54"/>
<polygon fill="#6f8f72" stroke="#6f8f72" points="664.69,-475.89 668.05,-465.84 659.16,-471.6 664.69,-475.89"/>
</a>
</g>
</g>
<!-- n15&#45;&gt;n4 -->
<g id="edge13" class="edge">
<title>n15&#45;&gt;n4</title>
<g id="a_edge13"><a xlink:title="attack">
<path fill="none" stroke="#b85b57" d="M235.82,-616.52C257.4,-618.01 280.29,-619.59 302.15,-621.1"/>
<polygon fill="#b85b57" stroke="#b85b57" points="301.75,-624.58 311.97,-621.78 302.24,-617.6 301.75,-624.58"/>
</a>
</g>
</g>
<!-- n16 -->
<g id="node17" class="node">
<title>n16</title>
<g id="a_node17"><a xlink:title="Reply eIDAS 2.0 QTSP 體系...">
<path fill="#e8f1e8" stroke="#c8b794" d="M220.19,-701.58C220.19,-701.58 48.35,-701.58 48.35,-701.58 42.35,-701.58 36.35,-695.58 36.35,-689.58 36.35,-689.58 36.35,-677.58 36.35,-677.58 36.35,-671.58 42.35,-665.58 48.35,-665.58 48.35,-665.58 220.19,-665.58 220.19,-665.58 226.19,-665.58 232.19,-671.58 232.19,-677.58 232.19,-677.58 232.19,-689.58 232.19,-689.58 232.19,-695.58 226.19,-701.58 220.19,-701.58"/>
<text xml:space="preserve" text-anchor="start" x="67.31" y="-681.58" font-family="Inter, ui-sans-serif, system-ui, -apple-system, BlinkMacSystemFont, Segoe UI, sans-serif" font-weight="bold" font-size="10.00" fill="#2f2a21">Reply eIDAS 2.0 QTSP 體系...</text>
</a>
</g>
</g>
<!-- n16&#45;&gt;n0 -->
<g id="edge18" class="edge">
<title>n16&#45;&gt;n0</title>
<g id="a_edge18"><a xlink:title="support">
<path fill="none" stroke="#6f8f72" d="M232.66,-677.78C348.73,-670.71 528,-659.26 534.53,-655.58 606.7,-614.91 651.98,-522.54 671.24,-475.41"/>
<polygon fill="#6f8f72" stroke="#6f8f72" points="674.38,-476.99 674.81,-466.4 667.87,-474.4 674.38,-476.99"/>
</a>
</g>
</g>
<!-- n16&#45;&gt;n5 -->
<g id="edge16" class="edge">
<title>n16&#45;&gt;n5</title>
<g id="a_edge16"><a xlink:title="attack">
<path fill="none" stroke="#b85b57" d="M232.32,-690.28C249.42,-691.46 267.43,-692.7 285.17,-693.93"/>
<polygon fill="#b85b57" stroke="#b85b57" points="284.74,-697.41 294.96,-694.6 285.23,-690.42 284.74,-697.41"/>
</a>
</g>
</g>
<!-- n17 -->
<g id="node18" class="node">
<title>n17</title>
<g id="a_node18"><a xlink:title="Reply 不丹 NDI 反例不可外推 — 治理脈絡特殊...">
<path fill="#e8f1e8" stroke="#c8b794" d="M228.05,-775.58C228.05,-775.58 40.5,-775.58 40.5,-775.58 34.5,-775.58 28.5,-769.58 28.5,-763.58 28.5,-763.58 28.5,-751.58 28.5,-751.58 28.5,-745.58 34.5,-739.58 40.5,-739.58 40.5,-739.58 228.05,-739.58 228.05,-739.58 234.05,-739.58 240.05,-745.58 240.05,-751.58 240.05,-751.58 240.05,-763.58 240.05,-763.58 240.05,-769.58 234.05,-775.58 228.05,-775.58"/>
<text xml:space="preserve" text-anchor="start" x="38.42" y="-755.58" font-family="Inter, ui-sans-serif, system-ui, -apple-system, BlinkMacSystemFont, Segoe UI, sans-serif" font-weight="bold" font-size="10.00" fill="#2f2a21">Reply 不丹 NDI 反例不可外推 — 治理脈絡特殊...</text>
</a>
</g>
</g>
<!-- n17&#45;&gt;n0 -->
<g id="edge21" class="edge">
<title>n17&#45;&gt;n0</title>
<g id="a_edge21"><a xlink:title="support">
<path fill="none" stroke="#6f8f72" d="M240.4,-751.46C356.62,-744.5 528.4,-733.6 534.53,-729.58 625.34,-670.05 663.53,-535.79 676.44,-476.12"/>
<polygon fill="#6f8f72" stroke="#6f8f72" points="679.85,-476.89 678.45,-466.39 673,-475.47 679.85,-476.89"/>
</a>
</g>
</g>
<!-- n17&#45;&gt;n6 -->
<g id="edge19" class="edge">
<title>n17&#45;&gt;n6</title>
<g id="a_edge19"><a xlink:title="attack">
<path fill="none" stroke="#b85b57" d="M240.52,-764.85C260.66,-766.24 281.78,-767.69 302.02,-769.09"/>
<polygon fill="#b85b57" stroke="#b85b57" points="301.76,-772.58 311.98,-769.78 302.25,-765.6 301.76,-772.58"/>
</a>
</g>
</g>
</g>
</svg>
