<?xml version="1.0" encoding="UTF-8" standalone="no"?>
<!DOCTYPE svg PUBLIC "-//W3C//DTD SVG 1.1//EN"
 "http://www.w3.org/Graphics/SVG/1.1/DTD/svg11.dtd">
<!-- Generated by graphviz version 14.1.4 (0)
 -->
<!-- Title: Argument Map Pages: 1 -->
<svg class="argdown-summary-map" width="692pt" height="720pt"
 viewBox="0.00 0.00 692.00 720.00" xmlns="http://www.w3.org/2000/svg" xmlns:xlink="http://www.w3.org/1999/xlink">
<g id="graph0" class="graph" transform="scale(0.91804 0.91804) rotate(0) translate(4 780.28)">
<title>Argument Map</title>
<g id="clust1" class="cluster">
<title>cluster_1</title>
<polygon fill="#f3eadb" stroke="#d4c0a1" points="8,-20.28 8,-768.28 737.7,-768.28 737.7,-20.28 8,-20.28"/>
<text xml:space="preserve" text-anchor="start" x="334.17" y="-752.28" font-family="Inter, ui-sans-serif, system-ui, -apple-system, BlinkMacSystemFont, Segoe UI, sans-serif" font-size="12.00" fill="#2f2a21">Central Thesis</text>
</g>
<!-- n0 -->
<g id="node1" class="node">
<title>n0</title>
<g id="a_node1"><a xlink:title="我們試著用資料看身分制度與民主衰退的關係">
<path fill="#fffdf7" stroke="#6f8f72" stroke-width="2" d="M717.7,-435.28C717.7,-435.28 545.86,-435.28 545.86,-435.28 539.86,-435.28 533.86,-429.28 533.86,-423.28 533.86,-423.28 533.86,-411.28 533.86,-411.28 533.86,-405.28 539.86,-399.28 545.86,-399.28 545.86,-399.28 717.7,-399.28 717.7,-399.28 723.7,-399.28 729.7,-405.28 729.7,-411.28 729.7,-411.28 729.7,-423.28 729.7,-423.28 729.7,-429.28 723.7,-435.28 717.7,-435.28"/>
<text xml:space="preserve" text-anchor="start" x="548.43" y="-415.28" font-family="Inter, ui-sans-serif, system-ui, -apple-system, BlinkMacSystemFont, Segoe UI, sans-serif" font-weight="bold" font-size="10.00" fill="#2f2a21">我們試著用資料看身分制度與民主衰退的關係</text>
</a>
</g>
</g>
<!-- n1 -->
<g id="node2" class="node">
<title>n1</title>
<g id="a_node2"><a xlink:title="統計非獨立 機制存在性 因果未識別三段式">
<path fill="#fffdf7" stroke="#6f8f72" stroke-width="2" d="M206.85,-74.28C206.85,-74.28 35.01,-74.28 35.01,-74.28 29.01,-74.28 23.01,-68.28 23.01,-62.28 23.01,-62.28 23.01,-50.28 23.01,-50.28 23.01,-44.28 29.01,-38.28 35.01,-38.28 35.01,-38.28 206.85,-38.28 206.85,-38.28 212.85,-38.28 218.85,-44.28 218.85,-50.28 218.85,-50.28 218.85,-62.28 218.85,-62.28 218.85,-68.28 212.85,-74.28 206.85,-74.28"/>
<text xml:space="preserve" text-anchor="start" x="43.14" y="-54.28" font-family="Inter, ui-sans-serif, system-ui, -apple-system, BlinkMacSystemFont, Segoe UI, sans-serif" font-weight="bold" font-size="10.00" fill="#2f2a21">統計非獨立 機制存在性 因果未識別三段式</text>
</a>
</g>
</g>
<!-- n1&#45;&gt;n0 -->
<g id="edge2" class="edge">
<title>n1&#45;&gt;n0</title>
<g id="a_edge2"><a xlink:title="support">
<path fill="none" stroke="#6f8f72" d="M167.42,-37.85C243.53,-10.28 398.17,31.34 497.86,-39.28 614,-121.56 629.4,-313.78 630.9,-387.64"/>
<polygon fill="#6f8f72" stroke="#6f8f72" points="627.4,-387.37 631.02,-397.33 634.4,-387.28 627.4,-387.37"/>
</a>
</g>
</g>
<!-- n3 -->
<g id="node4" class="node">
<title>n3</title>
<g id="a_node4"><a xlink:title="身分制度與結社自由統計獨立的虛無假設">
<path fill="#fffdf7" stroke="#6f8f72" stroke-width="2" d="M465.78,-84.28C465.78,-84.28 293.94,-84.28 293.94,-84.28 287.94,-84.28 281.94,-78.28 281.94,-72.28 281.94,-72.28 281.94,-60.28 281.94,-60.28 281.94,-54.28 287.94,-48.28 293.94,-48.28 293.94,-48.28 465.78,-48.28 465.78,-48.28 471.78,-48.28 477.78,-54.28 477.78,-60.28 477.78,-60.28 477.78,-72.28 477.78,-72.28 477.78,-78.28 471.78,-84.28 465.78,-84.28"/>
<text xml:space="preserve" text-anchor="start" x="304.85" y="-64.28" font-family="Inter, ui-sans-serif, system-ui, -apple-system, BlinkMacSystemFont, Segoe UI, sans-serif" font-weight="bold" font-size="10.00" fill="#2f2a21">身分制度與結社自由統計獨立的虛無假設</text>
</a>
</g>
</g>
<!-- n1&#45;&gt;n3 -->
<g id="edge10" class="edge">
<title>n1&#45;&gt;n3</title>
<g id="a_edge10"><a xlink:title="attack">
<path fill="none" stroke="#b85b57" d="M219.07,-60.06C235.85,-60.71 253.4,-61.4 270.46,-62.06"/>
<polygon fill="#b85b57" stroke="#b85b57" points="269.95,-65.54 280.08,-62.43 270.22,-58.55 269.95,-65.54"/>
</a>
</g>
</g>
<!-- n2 -->
<g id="node3" class="node">
<title>n2</title>
<g id="a_node3"><a xlink:title="Pilot 後續研究議程——multi&#45;method...">
<path fill="#fffdf7" stroke="#6f8f72" stroke-width="2" d="M465.78,-138.28C465.78,-138.28 293.94,-138.28 293.94,-138.28 287.94,-138.28 281.94,-132.28 281.94,-126.28 281.94,-126.28 281.94,-114.28 281.94,-114.28 281.94,-108.28 287.94,-102.28 293.94,-102.28 293.94,-102.28 465.78,-102.28 465.78,-102.28 471.78,-102.28 477.78,-108.28 477.78,-114.28 477.78,-114.28 477.78,-126.28 477.78,-126.28 477.78,-132.28 471.78,-138.28 465.78,-138.28"/>
<text xml:space="preserve" text-anchor="start" x="298.47" y="-118.28" font-family="Inter, ui-sans-serif, system-ui, -apple-system, BlinkMacSystemFont, Segoe UI, sans-serif" font-weight="bold" font-size="10.00" fill="#2f2a21">Pilot 後續研究議程——multi&#45;method...</text>
</a>
</g>
</g>
<!-- n2&#45;&gt;n0 -->
<g id="edge8" class="edge">
<title>n2&#45;&gt;n0</title>
<g id="a_edge8"><a xlink:title="support">
<path fill="none" stroke="#6f8f72" d="M478.25,-135.37C485.25,-138.63 491.89,-142.55 497.86,-147.28 577.02,-210.01 612.42,-331.96 625.01,-387.93"/>
<polygon fill="#6f8f72" stroke="#6f8f72" points="621.58,-388.61 627.1,-397.65 628.42,-387.14 621.58,-388.61"/>
</a>
</g>
</g>
<!-- n3&#45;&gt;n0 -->
<g id="edge11" class="edge">
<title>n3&#45;&gt;n0</title>
<g id="a_edge11"><a xlink:title="attack">
<path fill="none" stroke="#b85b57" d="M478.04,-80.65C485.18,-84.06 491.9,-88.22 497.86,-93.28 589.93,-171.49 619.15,-323.47 627.62,-387.6"/>
<polygon fill="#b85b57" stroke="#b85b57" points="624.12,-387.86 628.82,-397.36 631.07,-387 624.12,-387.86"/>
</a>
</g>
</g>
<!-- n4 -->
<g id="node5" class="node">
<title>n4</title>
<g id="a_node5"><a xlink:title="相關必為因果">
<path fill="#fffdf7" stroke="#6f8f72" stroke-width="2" d="M465.78,-590.28C465.78,-590.28 293.94,-590.28 293.94,-590.28 287.94,-590.28 281.94,-584.28 281.94,-578.28 281.94,-578.28 281.94,-566.28 281.94,-566.28 281.94,-560.28 287.94,-554.28 293.94,-554.28 293.94,-554.28 465.78,-554.28 465.78,-554.28 471.78,-554.28 477.78,-560.28 477.78,-566.28 477.78,-566.28 477.78,-578.28 477.78,-578.28 477.78,-584.28 471.78,-590.28 465.78,-590.28"/>
<text xml:space="preserve" text-anchor="start" x="354.86" y="-570.28" font-family="Inter, ui-sans-serif, system-ui, -apple-system, BlinkMacSystemFont, Segoe UI, sans-serif" font-weight="bold" font-size="10.00" fill="#2f2a21">相關必為因果</text>
</a>
</g>
</g>
<!-- n4&#45;&gt;n0 -->
<g id="edge13" class="edge">
<title>n4&#45;&gt;n0</title>
<g id="a_edge13"><a xlink:title="attack">
<path fill="none" stroke="#b85b57" d="M467.1,-553.83C477.77,-550.07 488.28,-545.59 497.86,-540.28 542.75,-515.35 584.46,-472.17 608.78,-444.17"/>
<polygon fill="#b85b57" stroke="#b85b57" points="611.24,-446.68 615.06,-436.8 605.91,-442.14 611.24,-446.68"/>
</a>
</g>
</g>
<!-- n5 -->
<g id="node6" class="node">
<title>n5</title>
<g id="a_node6"><a xlink:title="沒有實際統計 沒研究價值">
<path fill="#fffdf7" stroke="#6f8f72" stroke-width="2" d="M465.78,-664.28C465.78,-664.28 293.94,-664.28 293.94,-664.28 287.94,-664.28 281.94,-658.28 281.94,-652.28 281.94,-652.28 281.94,-640.28 281.94,-640.28 281.94,-634.28 287.94,-628.28 293.94,-628.28 293.94,-628.28 465.78,-628.28 465.78,-628.28 471.78,-628.28 477.78,-634.28 477.78,-640.28 477.78,-640.28 477.78,-652.28 477.78,-652.28 477.78,-658.28 471.78,-664.28 465.78,-664.28"/>
<text xml:space="preserve" text-anchor="start" x="332.63" y="-644.28" font-family="Inter, ui-sans-serif, system-ui, -apple-system, BlinkMacSystemFont, Segoe UI, sans-serif" font-weight="bold" font-size="10.00" fill="#2f2a21">沒有實際統計 沒研究價值</text>
</a>
</g>
</g>
<!-- n5&#45;&gt;n0 -->
<g id="edge16" class="edge">
<title>n5&#45;&gt;n0</title>
<g id="a_edge16"><a xlink:title="attack">
<path fill="none" stroke="#b85b57" d="M473.19,-627.9C481.93,-624.17 490.33,-619.68 497.86,-614.28 558.93,-570.49 600.38,-489.28 619.22,-446.07"/>
<polygon fill="#b85b57" stroke="#b85b57" points="622.34,-447.67 623.03,-437.1 615.9,-444.93 622.34,-447.67"/>
</a>
</g>
</g>
<!-- n6 -->
<g id="node7" class="node">
<title>n6</title>
<g id="a_node7"><a xlink:title="Aadhaar 是 BJP 政體性格而非 ID 制度">
<path fill="#fffdf7" stroke="#6f8f72" stroke-width="2" d="M465.78,-738.28C465.78,-738.28 293.94,-738.28 293.94,-738.28 287.94,-738.28 281.94,-732.28 281.94,-726.28 281.94,-726.28 281.94,-714.28 281.94,-714.28 281.94,-708.28 287.94,-702.28 293.94,-702.28 293.94,-702.28 465.78,-702.28 465.78,-702.28 471.78,-702.28 477.78,-708.28 477.78,-714.28 477.78,-714.28 477.78,-726.28 477.78,-726.28 477.78,-732.28 471.78,-738.28 465.78,-738.28"/>
<text xml:space="preserve" text-anchor="start" x="300.68" y="-718.28" font-family="Inter, ui-sans-serif, system-ui, -apple-system, BlinkMacSystemFont, Segoe UI, sans-serif" font-weight="bold" font-size="10.00" fill="#2f2a21">Aadhaar 是 BJP 政體性格而非 ID 制度</text>
</a>
</g>
</g>
<!-- n6&#45;&gt;n0 -->
<g id="edge19" class="edge">
<title>n6&#45;&gt;n0</title>
<g id="a_edge19"><a xlink:title="attack">
<path fill="none" stroke="#b85b57" d="M476.32,-701.84C484.05,-698.12 491.37,-693.65 497.86,-688.28 575.74,-623.88 611.71,-502.72 624.72,-446.86"/>
<polygon fill="#b85b57" stroke="#b85b57" points="628.13,-447.67 626.89,-437.14 621.29,-446.14 628.13,-447.67"/>
</a>
</g>
</g>
<!-- n7 -->
<g id="node8" class="node">
<title>n7</title>
<g id="a_node8"><a xlink:title="Formal Core">
<path fill="#e8f1e8" stroke="#c8b794" d="M465.78,-192.28C465.78,-192.28 293.94,-192.28 293.94,-192.28 287.94,-192.28 281.94,-186.28 281.94,-180.28 281.94,-180.28 281.94,-168.28 281.94,-168.28 281.94,-162.28 287.94,-156.28 293.94,-156.28 293.94,-156.28 465.78,-156.28 465.78,-156.28 471.78,-156.28 477.78,-162.28 477.78,-168.28 477.78,-168.28 477.78,-180.28 477.78,-180.28 477.78,-186.28 471.78,-192.28 465.78,-192.28"/>
<text xml:space="preserve" text-anchor="start" x="350.41" y="-172.28" font-family="Inter, ui-sans-serif, system-ui, -apple-system, BlinkMacSystemFont, Segoe UI, sans-serif" font-weight="bold" font-size="10.00" fill="#2f2a21">Formal Core</text>
</a>
</g>
</g>
<!-- n7&#45;&gt;n0 -->
<g id="edge1" class="edge">
<title>n7&#45;&gt;n0</title>
<g id="a_edge1"><a xlink:title="support">
<path fill="none" stroke="#6f8f72" d="M478.06,-190.13C485.07,-193.22 491.76,-196.9 497.86,-201.28 564.26,-248.98 604.27,-341.13 621.23,-388.14"/>
<polygon fill="#6f8f72" stroke="#6f8f72" points="617.85,-389.09 624.46,-397.38 624.46,-386.78 617.85,-389.09"/>
</a>
</g>
</g>
<!-- n8 -->
<g id="node9" class="node">
<title>n8</title>
<g id="a_node9"><a xlink:title="測量基礎（I 歸納）">
<path fill="#e8f1e8" stroke="#c8b794" d="M465.78,-246.28C465.78,-246.28 293.94,-246.28 293.94,-246.28 287.94,-246.28 281.94,-240.28 281.94,-234.28 281.94,-234.28 281.94,-222.28 281.94,-222.28 281.94,-216.28 287.94,-210.28 293.94,-210.28 293.94,-210.28 465.78,-210.28 465.78,-210.28 471.78,-210.28 477.78,-216.28 477.78,-222.28 477.78,-222.28 477.78,-234.28 477.78,-234.28 477.78,-240.28 471.78,-246.28 465.78,-246.28"/>
<text xml:space="preserve" text-anchor="start" x="343.74" y="-226.28" font-family="Inter, ui-sans-serif, system-ui, -apple-system, BlinkMacSystemFont, Segoe UI, sans-serif" font-weight="bold" font-size="10.00" fill="#2f2a21">測量基礎（I 歸納）</text>
</a>
</g>
</g>
<!-- n8&#45;&gt;n0 -->
<g id="edge3" class="edge">
<title>n8&#45;&gt;n0</title>
<g id="a_edge3"><a xlink:title="support">
<path fill="none" stroke="#6f8f72" d="M478.03,-245.3C484.97,-248.13 491.66,-251.43 497.86,-255.28 552.11,-288.94 594.45,-352.58 615.71,-389.28"/>
<polygon fill="#6f8f72" stroke="#6f8f72" points="612.42,-390.58 620.39,-397.55 618.51,-387.13 612.42,-390.58"/>
</a>
</g>
</g>
<!-- n9 -->
<g id="node10" class="node">
<title>n9</title>
<g id="a_node10"><a xlink:title="統計非獨立的證據（I 歸納）">
<path fill="#e8f1e8" stroke="#c8b794" d="M465.78,-300.28C465.78,-300.28 293.94,-300.28 293.94,-300.28 287.94,-300.28 281.94,-294.28 281.94,-288.28 281.94,-288.28 281.94,-276.28 281.94,-276.28 281.94,-270.28 287.94,-264.28 293.94,-264.28 293.94,-264.28 465.78,-264.28 465.78,-264.28 471.78,-264.28 477.78,-270.28 477.78,-276.28 477.78,-276.28 477.78,-288.28 477.78,-288.28 477.78,-294.28 471.78,-300.28 465.78,-300.28"/>
<text xml:space="preserve" text-anchor="start" x="327.07" y="-280.28" font-family="Inter, ui-sans-serif, system-ui, -apple-system, BlinkMacSystemFont, Segoe UI, sans-serif" font-weight="bold" font-size="10.00" fill="#2f2a21">統計非獨立的證據（I 歸納）</text>
</a>
</g>
</g>
<!-- n9&#45;&gt;n0 -->
<g id="edge4" class="edge">
<title>n9&#45;&gt;n0</title>
<g id="a_edge4"><a xlink:title="support">
<path fill="none" stroke="#6f8f72" d="M477.24,-300.74C484.35,-303.24 491.3,-306.08 497.86,-309.28 540.1,-329.92 580.87,-366.27 605.87,-391.04"/>
<polygon fill="#6f8f72" stroke="#6f8f72" points="603.13,-393.25 612.66,-397.89 608.1,-388.32 603.13,-393.25"/>
</a>
</g>
</g>
<!-- n10 -->
<g id="node11" class="node">
<title>n10</title>
<g id="a_node11"><a xlink:title="因果評估而非結論（C 因果評估）">
<path fill="#e8f1e8" stroke="#c8b794" d="M465.78,-354.28C465.78,-354.28 293.94,-354.28 293.94,-354.28 287.94,-354.28 281.94,-348.28 281.94,-342.28 281.94,-342.28 281.94,-330.28 281.94,-330.28 281.94,-324.28 287.94,-318.28 293.94,-318.28 293.94,-318.28 465.78,-318.28 465.78,-318.28 471.78,-318.28 477.78,-324.28 477.78,-330.28 477.78,-330.28 477.78,-342.28 477.78,-342.28 477.78,-348.28 471.78,-354.28 465.78,-354.28"/>
<text xml:space="preserve" text-anchor="start" x="316.52" y="-334.28" font-family="Inter, ui-sans-serif, system-ui, -apple-system, BlinkMacSystemFont, Segoe UI, sans-serif" font-weight="bold" font-size="10.00" fill="#2f2a21">因果評估而非結論（C 因果評估）</text>
</a>
</g>
</g>
<!-- n10&#45;&gt;n0 -->
<g id="edge5" class="edge">
<title>n10&#45;&gt;n0</title>
<g id="a_edge5"><a xlink:title="support">
<path fill="none" stroke="#6f8f72" d="M467.85,-354.73C478.03,-357.37 488.22,-360.23 497.86,-363.28 525.37,-371.98 555.2,-383.87 579.62,-394.27"/>
<polygon fill="#6f8f72" stroke="#6f8f72" points="578.12,-397.44 588.69,-398.18 580.89,-391.01 578.12,-397.44"/>
</a>
</g>
</g>
<!-- n11 -->
<g id="node12" class="node">
<title>n11</title>
<g id="a_node12"><a xlink:title="機制存在性（C 機制證明）">
<path fill="#e8f1e8" stroke="#c8b794" d="M465.78,-408.28C465.78,-408.28 293.94,-408.28 293.94,-408.28 287.94,-408.28 281.94,-402.28 281.94,-396.28 281.94,-396.28 281.94,-384.28 281.94,-384.28 281.94,-378.28 287.94,-372.28 293.94,-372.28 293.94,-372.28 465.78,-372.28 465.78,-372.28 471.78,-372.28 477.78,-378.28 477.78,-384.28 477.78,-384.28 477.78,-396.28 477.78,-396.28 477.78,-402.28 471.78,-408.28 465.78,-408.28"/>
<text xml:space="preserve" text-anchor="start" x="329.02" y="-388.28" font-family="Inter, ui-sans-serif, system-ui, -apple-system, BlinkMacSystemFont, Segoe UI, sans-serif" font-weight="bold" font-size="10.00" fill="#2f2a21">機制存在性（C 機制證明）</text>
</a>
</g>
</g>
<!-- n11&#45;&gt;n0 -->
<g id="edge6" class="edge">
<title>n11&#45;&gt;n0</title>
<g id="a_edge6"><a xlink:title="support">
<path fill="none" stroke="#6f8f72" d="M478.2,-400.8C492.73,-402.37 507.78,-403.99 522.51,-405.58"/>
<polygon fill="#6f8f72" stroke="#6f8f72" points="521.88,-409.04 532.2,-406.63 522.63,-402.08 521.88,-409.04"/>
</a>
</g>
</g>
<!-- n12 -->
<g id="node13" class="node">
<title>n12</title>
<g id="a_node13"><a xlink:title="Pilot 推理鏈六步——跨國資料缺口 IAI 編碼方案 APS...">
<path fill="#e8f1e8" stroke="#c8b794" d="M485.86,-462.28C485.86,-462.28 273.87,-462.28 273.87,-462.28 267.87,-462.28 261.87,-456.28 261.87,-450.28 261.87,-450.28 261.87,-438.28 261.87,-438.28 261.87,-432.28 267.87,-426.28 273.87,-426.28 273.87,-426.28 485.86,-426.28 485.86,-426.28 491.86,-426.28 497.86,-432.28 497.86,-438.28 497.86,-438.28 497.86,-450.28 497.86,-450.28 497.86,-456.28 491.86,-462.28 485.86,-462.28"/>
<text xml:space="preserve" text-anchor="start" x="271.79" y="-442.28" font-family="Inter, ui-sans-serif, system-ui, -apple-system, BlinkMacSystemFont, Segoe UI, sans-serif" font-weight="bold" font-size="10.00" fill="#2f2a21">Pilot 推理鏈六步——跨國資料缺口 IAI 編碼方案 APS...</text>
</a>
</g>
</g>
<!-- n12&#45;&gt;n0 -->
<g id="edge7" class="edge">
<title>n12&#45;&gt;n0</title>
<g id="a_edge7"><a xlink:title="support">
<path fill="none" stroke="#6f8f72" d="M498.14,-431.61C506.15,-430.74 514.21,-429.87 522.18,-429.01"/>
<polygon fill="#6f8f72" stroke="#6f8f72" points="522.3,-432.52 531.87,-427.97 521.55,-425.56 522.3,-432.52"/>
</a>
</g>
</g>
<!-- n13 -->
<g id="node14" class="node">
<title>n13</title>
<g id="a_node14"><a xlink:title="Conclusion">
<path fill="#e8f1e8" stroke="#c8b794" d="M465.78,-516.28C465.78,-516.28 293.94,-516.28 293.94,-516.28 287.94,-516.28 281.94,-510.28 281.94,-504.28 281.94,-504.28 281.94,-492.28 281.94,-492.28 281.94,-486.28 287.94,-480.28 293.94,-480.28 293.94,-480.28 465.78,-480.28 465.78,-480.28 471.78,-480.28 477.78,-486.28 477.78,-492.28 477.78,-492.28 477.78,-504.28 477.78,-504.28 477.78,-510.28 471.78,-516.28 465.78,-516.28"/>
<text xml:space="preserve" text-anchor="start" x="352.64" y="-496.28" font-family="Inter, ui-sans-serif, system-ui, -apple-system, BlinkMacSystemFont, Segoe UI, sans-serif" font-weight="bold" font-size="10.00" fill="#2f2a21">Conclusion</text>
</a>
</g>
</g>
<!-- n13&#45;&gt;n0 -->
<g id="edge9" class="edge">
<title>n13&#45;&gt;n0</title>
<g id="a_edge9"><a xlink:title="support">
<path fill="none" stroke="#6f8f72" d="M467.85,-479.83C478.03,-477.19 488.22,-474.33 497.86,-471.28 525.37,-462.58 555.2,-450.69 579.62,-440.29"/>
<polygon fill="#6f8f72" stroke="#6f8f72" points="580.89,-443.55 588.69,-436.38 578.12,-437.12 580.89,-443.55"/>
</a>
</g>
</g>
<!-- n14 -->
<g id="node15" class="node">
<title>n14</title>
<g id="a_node15"><a xlink:title="Reply 相關必為因果（過度延伸論）">
<path fill="#e8f1e8" stroke="#c8b794" d="M206.85,-571.28C206.85,-571.28 35.01,-571.28 35.01,-571.28 29.01,-571.28 23.01,-565.28 23.01,-559.28 23.01,-559.28 23.01,-547.28 23.01,-547.28 23.01,-541.28 29.01,-535.28 35.01,-535.28 35.01,-535.28 206.85,-535.28 206.85,-535.28 212.85,-535.28 218.85,-541.28 218.85,-547.28 218.85,-547.28 218.85,-559.28 218.85,-559.28 218.85,-565.28 212.85,-571.28 206.85,-571.28"/>
<text xml:space="preserve" text-anchor="start" x="51.75" y="-551.28" font-family="Inter, ui-sans-serif, system-ui, -apple-system, BlinkMacSystemFont, Segoe UI, sans-serif" font-weight="bold" font-size="10.00" fill="#2f2a21">Reply 相關必為因果（過度延伸論）</text>
</a>
</g>
</g>
<!-- n14&#45;&gt;n0 -->
<g id="edge14" class="edge">
<title>n14&#45;&gt;n0</title>
<g id="a_edge14"><a xlink:title="support">
<path fill="none" stroke="#6f8f72" d="M219.18,-547.49C326.24,-540.89 485.05,-530.37 497.86,-525.28 542.29,-507.62 583.35,-469.52 607.75,-443.64"/>
<polygon fill="#6f8f72" stroke="#6f8f72" points="610.13,-446.22 614.33,-436.49 604.98,-441.47 610.13,-446.22"/>
</a>
</g>
</g>
<!-- n14&#45;&gt;n4 -->
<g id="edge12" class="edge">
<title>n14&#45;&gt;n4</title>
<g id="a_edge12"><a xlink:title="attack">
<path fill="none" stroke="#b85b57" d="M219.07,-560.46C235.85,-561.7 253.4,-563 270.46,-564.26"/>
<polygon fill="#b85b57" stroke="#b85b57" points="269.85,-567.73 280.08,-564.97 270.37,-560.75 269.85,-567.73"/>
</a>
</g>
</g>
<!-- n15 -->
<g id="node16" class="node">
<title>n15</title>
<g id="a_node16"><a xlink:title="Reply 沒有實際統計 沒研究價值（pilot 質疑論）">
<path fill="#e8f1e8" stroke="#c8b794" d="M213.87,-645.28C213.87,-645.28 28,-645.28 28,-645.28 22,-645.28 16,-639.28 16,-633.28 16,-633.28 16,-621.28 16,-621.28 16,-615.28 22,-609.28 28,-609.28 28,-609.28 213.87,-609.28 213.87,-609.28 219.87,-609.28 225.87,-615.28 225.87,-621.28 225.87,-621.28 225.87,-633.28 225.87,-633.28 225.87,-639.28 219.87,-645.28 213.87,-645.28"/>
<text xml:space="preserve" text-anchor="start" x="25.92" y="-625.28" font-family="Inter, ui-sans-serif, system-ui, -apple-system, BlinkMacSystemFont, Segoe UI, sans-serif" font-weight="bold" font-size="10.00" fill="#2f2a21">Reply 沒有實際統計 沒研究價值（pilot 質疑論）</text>
</a>
</g>
</g>
<!-- n15&#45;&gt;n0 -->
<g id="edge17" class="edge">
<title>n15&#45;&gt;n0</title>
<g id="a_edge17"><a xlink:title="support">
<path fill="none" stroke="#6f8f72" d="M225.96,-620.59C335.15,-613.4 491.91,-602.58 497.86,-599.28 559.86,-564.83 600.71,-487.89 619.27,-445.93"/>
<polygon fill="#6f8f72" stroke="#6f8f72" points="622.39,-447.53 623.11,-436.96 615.95,-444.77 622.39,-447.53"/>
</a>
</g>
</g>
<!-- n15&#45;&gt;n5 -->
<g id="edge15" class="edge">
<title>n15&#45;&gt;n5</title>
<g id="a_edge15"><a xlink:title="attack">
<path fill="none" stroke="#b85b57" d="M226.07,-634.98C240.7,-636.06 255.77,-637.18 270.48,-638.26"/>
<polygon fill="#b85b57" stroke="#b85b57" points="269.9,-641.73 280.13,-638.98 270.42,-634.75 269.9,-641.73"/>
</a>
</g>
</g>
<!-- n16 -->
<g id="node17" class="node">
<title>n16</title>
<g id="a_node17"><a xlink:title="Reply Aadhaar 是 BJP 政體性格而非 ID...">
<path fill="#e8f1e8" stroke="#c8b794" d="M207.49,-719.28C207.49,-719.28 34.38,-719.28 34.38,-719.28 28.38,-719.28 22.38,-713.28 22.38,-707.28 22.38,-707.28 22.38,-695.28 22.38,-695.28 22.38,-689.28 28.38,-683.28 34.38,-683.28 34.38,-683.28 207.49,-683.28 207.49,-683.28 213.49,-683.28 219.49,-689.28 219.49,-695.28 219.49,-695.28 219.49,-707.28 219.49,-707.28 219.49,-713.28 213.49,-719.28 207.49,-719.28"/>
<text xml:space="preserve" text-anchor="start" x="32.3" y="-699.28" font-family="Inter, ui-sans-serif, system-ui, -apple-system, BlinkMacSystemFont, Segoe UI, sans-serif" font-weight="bold" font-size="10.00" fill="#2f2a21">Reply Aadhaar 是 BJP 政體性格而非 ID...</text>
</a>
</g>
</g>
<!-- n16&#45;&gt;n0 -->
<g id="edge20" class="edge">
<title>n16&#45;&gt;n0</title>
<g id="a_edge20"><a xlink:title="support">
<path fill="none" stroke="#6f8f72" d="M219.71,-695.16C329.15,-688.13 492.07,-677.1 497.86,-673.28 578.47,-620.1 613.06,-501.77 625.22,-446.62"/>
<polygon fill="#6f8f72" stroke="#6f8f72" points="628.6,-447.54 627.23,-437.03 621.75,-446.1 628.6,-447.54"/>
</a>
</g>
</g>
<!-- n16&#45;&gt;n6 -->
<g id="edge18" class="edge">
<title>n16&#45;&gt;n6</title>
<g id="a_edge18"><a xlink:title="attack">
<path fill="none" stroke="#b85b57" d="M219.8,-708.52C236.44,-709.75 253.8,-711.03 270.68,-712.28"/>
<polygon fill="#b85b57" stroke="#b85b57" points="269.95,-715.74 280.18,-712.98 270.47,-708.75 269.95,-715.74"/>
</a>
</g>
</g>
</g>
</svg>
