<?xml version="1.0" encoding="UTF-8" standalone="no"?>
<!DOCTYPE svg PUBLIC "-//W3C//DTD SVG 1.1//EN"
 "http://www.w3.org/Graphics/SVG/1.1/DTD/svg11.dtd">
<!-- Generated by graphviz version 14.1.4 (0)
 -->
<!-- Title: Argument Map Pages: 1 -->
<svg class="argdown-summary-map" width="640pt" height="720pt"
 viewBox="0.00 0.00 640.00 720.00" xmlns="http://www.w3.org/2000/svg" xmlns:xlink="http://www.w3.org/1999/xlink">
<g id="graph0" class="graph" transform="scale(0.858357 0.858357) rotate(0) translate(4 834.81)">
<title>Argument Map</title>
<g id="clust1" class="cluster">
<title>cluster_1</title>
<polygon fill="#f3eadb" stroke="#d4c0a1" points="8,-20.81 8,-822.81 729.81,-822.81 729.81,-20.81 8,-20.81"/>
<text xml:space="preserve" text-anchor="start" x="330.22" y="-806.81" font-family="Inter, ui-sans-serif, system-ui, -apple-system, BlinkMacSystemFont, Segoe UI, sans-serif" font-size="12.00" fill="#2f2a21">Central Thesis</text>
</g>
<!-- n0 -->
<g id="node1" class="node">
<title>n0</title>
<g id="a_node1"><a xlink:title="一人一帳號的代價">
<path fill="#fffdf7" stroke="#6f8f72" stroke-width="2" d="M709.81,-462.81C709.81,-462.81 537.97,-462.81 537.97,-462.81 531.97,-462.81 525.97,-456.81 525.97,-450.81 525.97,-450.81 525.97,-438.81 525.97,-438.81 525.97,-432.81 531.97,-426.81 537.97,-426.81 537.97,-426.81 709.81,-426.81 709.81,-426.81 715.81,-426.81 721.81,-432.81 721.81,-438.81 721.81,-438.81 721.81,-450.81 721.81,-450.81 721.81,-456.81 715.81,-462.81 709.81,-462.81"/>
<text xml:space="preserve" text-anchor="start" x="590.55" y="-442.81" font-family="Inter, ui-sans-serif, system-ui, -apple-system, BlinkMacSystemFont, Segoe UI, sans-serif" font-weight="bold" font-size="10.00" fill="#2f2a21">一人一帳號的代價</text>
</a>
</g>
</g>
<!-- n1 -->
<g id="node2" class="node">
<title>n1</title>
<g id="a_node2"><a xlink:title="場景分層 IT 三軸權衡">
<path fill="#fffdf7" stroke="#6f8f72" stroke-width="2" d="M199.84,-74.81C199.84,-74.81 28,-74.81 28,-74.81 22,-74.81 16,-68.81 16,-62.81 16,-62.81 16,-50.81 16,-50.81 16,-44.81 22,-38.81 28,-38.81 28,-38.81 199.84,-38.81 199.84,-38.81 205.84,-38.81 211.84,-44.81 211.84,-50.81 211.84,-50.81 211.84,-62.81 211.84,-62.81 211.84,-68.81 205.84,-74.81 199.84,-74.81"/>
<text xml:space="preserve" text-anchor="start" x="73.36" y="-54.81" font-family="Inter, ui-sans-serif, system-ui, -apple-system, BlinkMacSystemFont, Segoe UI, sans-serif" font-weight="bold" font-size="10.00" fill="#2f2a21">場景分層 IT 三軸權衡</text>
</a>
</g>
</g>
<!-- n1&#45;&gt;n0 -->
<g id="edge2" class="edge">
<title>n1&#45;&gt;n0</title>
<g id="a_edge2"><a xlink:title="support">
<path fill="none" stroke="#6f8f72" d="M159.85,-38.41C235.81,-10.57 390.99,31.88 489.97,-39.81 613.71,-129.43 624.31,-337.91 623.79,-415.25"/>
<polygon fill="#6f8f72" stroke="#6f8f72" points="620.29,-414.93 623.64,-424.98 627.29,-415.03 620.29,-414.93"/>
</a>
</g>
</g>
<!-- n3 -->
<g id="node4" class="node">
<title>n3</title>
<g id="a_node4"><a xlink:title="Universal personhood...">
<path fill="#fffdf7" stroke="#6f8f72" stroke-width="2" d="M454.83,-84.81C454.83,-84.81 282.99,-84.81 282.99,-84.81 276.99,-84.81 270.99,-78.81 270.99,-72.81 270.99,-72.81 270.99,-60.81 270.99,-60.81 270.99,-54.81 276.99,-48.81 282.99,-48.81 282.99,-48.81 454.83,-48.81 454.83,-48.81 460.83,-48.81 466.83,-54.81 466.83,-60.81 466.83,-60.81 466.83,-72.81 466.83,-72.81 466.83,-78.81 460.83,-84.81 454.83,-84.81"/>
<text xml:space="preserve" text-anchor="start" x="311.95" y="-64.81" font-family="Inter, ui-sans-serif, system-ui, -apple-system, BlinkMacSystemFont, Segoe UI, sans-serif" font-weight="bold" font-size="10.00" fill="#2f2a21">Universal personhood...</text>
</a>
</g>
</g>
<!-- n1&#45;&gt;n3 -->
<g id="edge11" class="edge">
<title>n1&#45;&gt;n3</title>
<g id="a_edge11"><a xlink:title="attack">
<path fill="none" stroke="#b85b57" d="M212.01,-60.65C227.48,-61.26 243.58,-61.9 259.29,-62.52"/>
<polygon fill="#b85b57" stroke="#b85b57" points="259.02,-66.01 269.15,-62.91 259.29,-59.02 259.02,-66.01"/>
</a>
</g>
</g>
<!-- n2 -->
<g id="node3" class="node">
<title>n2</title>
<g id="a_node3"><a xlink:title="場景分層 4 層 5 條邊界條件">
<path fill="#fffdf7" stroke="#6f8f72" stroke-width="2" d="M454.83,-138.81C454.83,-138.81 282.99,-138.81 282.99,-138.81 276.99,-138.81 270.99,-132.81 270.99,-126.81 270.99,-126.81 270.99,-114.81 270.99,-114.81 270.99,-108.81 276.99,-102.81 282.99,-102.81 282.99,-102.81 454.83,-102.81 454.83,-102.81 460.83,-102.81 466.83,-108.81 466.83,-114.81 466.83,-114.81 466.83,-126.81 466.83,-126.81 466.83,-132.81 460.83,-138.81 454.83,-138.81"/>
<text xml:space="preserve" text-anchor="start" x="316.11" y="-118.81" font-family="Inter, ui-sans-serif, system-ui, -apple-system, BlinkMacSystemFont, Segoe UI, sans-serif" font-weight="bold" font-size="10.00" fill="#2f2a21">場景分層 4 層 5 條邊界條件</text>
</a>
</g>
</g>
<!-- n2&#45;&gt;n0 -->
<g id="edge9" class="edge">
<title>n2&#45;&gt;n0</title>
<g id="a_edge9"><a xlink:title="support">
<path fill="none" stroke="#6f8f72" d="M467.07,-134.09C475.31,-137.7 483.11,-142.2 489.97,-147.81 575.67,-217.91 608.06,-354.76 618.53,-415.07"/>
<polygon fill="#6f8f72" stroke="#6f8f72" points="615.07,-415.6 620.15,-424.9 621.98,-414.46 615.07,-415.6"/>
</a>
</g>
</g>
<!-- n3&#45;&gt;n0 -->
<g id="edge12" class="edge">
<title>n3&#45;&gt;n0</title>
<g id="a_edge12"><a xlink:title="attack">
<path fill="none" stroke="#b85b57" d="M467.13,-79.54C475.41,-83.25 483.19,-87.93 489.97,-93.81 589.07,-179.85 614.51,-347.77 620.85,-415.47"/>
<polygon fill="#b85b57" stroke="#b85b57" points="617.33,-415.37 621.67,-425.04 624.31,-414.77 617.33,-415.37"/>
</a>
</g>
</g>
<!-- n4 -->
<g id="node5" class="node">
<title>n4</title>
<g id="a_node5"><a xlink:title="Worldcoin 不誠實 應全面禁止">
<path fill="#fffdf7" stroke="#6f8f72" stroke-width="2" d="M454.83,-644.81C454.83,-644.81 282.99,-644.81 282.99,-644.81 276.99,-644.81 270.99,-638.81 270.99,-632.81 270.99,-632.81 270.99,-620.81 270.99,-620.81 270.99,-614.81 276.99,-608.81 282.99,-608.81 282.99,-608.81 454.83,-608.81 454.83,-608.81 460.83,-608.81 466.83,-614.81 466.83,-620.81 466.83,-620.81 466.83,-632.81 466.83,-632.81 466.83,-638.81 460.83,-644.81 454.83,-644.81"/>
<text xml:space="preserve" text-anchor="start" x="308.35" y="-624.81" font-family="Inter, ui-sans-serif, system-ui, -apple-system, BlinkMacSystemFont, Segoe UI, sans-serif" font-weight="bold" font-size="10.00" fill="#2f2a21">Worldcoin 不誠實 應全面禁止</text>
</a>
</g>
</g>
<!-- n4&#45;&gt;n0 -->
<g id="edge14" class="edge">
<title>n4&#45;&gt;n0</title>
<g id="a_edge14"><a xlink:title="attack">
<path fill="none" stroke="#b85b57" d="M461.75,-608.42C471.63,-604.68 481.25,-600.19 489.97,-594.81 540.9,-563.37 583.4,-506.46 605.8,-472.5"/>
<polygon fill="#b85b57" stroke="#b85b57" points="608.53,-474.73 611.02,-464.43 602.65,-470.93 608.53,-474.73"/>
</a>
</g>
</g>
<!-- n5 -->
<g id="node6" class="node">
<title>n5</title>
<g id="a_node6"><a xlink:title="zkPassport 用 ZK 包裝政府文件，比 Worldcoin 好">
<path fill="#fffdf7" stroke="#6f8f72" stroke-width="2" d="M473.23,-718.81C473.23,-718.81 264.58,-718.81 264.58,-718.81 258.58,-718.81 252.58,-712.81 252.58,-706.81 252.58,-706.81 252.58,-694.81 252.58,-694.81 252.58,-688.81 258.58,-682.81 264.58,-682.81 264.58,-682.81 473.23,-682.81 473.23,-682.81 479.23,-682.81 485.23,-688.81 485.23,-694.81 485.23,-694.81 485.23,-706.81 485.23,-706.81 485.23,-712.81 479.23,-718.81 473.23,-718.81"/>
<text xml:space="preserve" text-anchor="start" x="262.5" y="-698.81" font-family="Inter, ui-sans-serif, system-ui, -apple-system, BlinkMacSystemFont, Segoe UI, sans-serif" font-weight="bold" font-size="10.00" fill="#2f2a21">zkPassport 用 ZK 包裝政府文件，比 Worldcoin 好</text>
</a>
</g>
</g>
<!-- n5&#45;&gt;n0 -->
<g id="edge17" class="edge">
<title>n5&#45;&gt;n0</title>
<g id="a_edge17"><a xlink:title="attack">
<path fill="none" stroke="#b85b57" d="M466.49,-682.44C474.85,-678.71 482.83,-674.21 489.97,-668.81 557.26,-617.89 597.08,-522.18 613.72,-474.04"/>
<polygon fill="#b85b57" stroke="#b85b57" points="617.03,-475.18 616.88,-464.58 610.39,-472.96 617.03,-475.18"/>
</a>
</g>
</g>
<!-- n6 -->
<g id="node7" class="node">
<title>n6</title>
<g id="a_node7"><a xlink:title="Sybil resistance 等同於 KYC，所以實名 監控是必要的">
<path fill="#fffdf7" stroke="#6f8f72" stroke-width="2" d="M477.97,-792.81C477.97,-792.81 259.84,-792.81 259.84,-792.81 253.84,-792.81 247.84,-786.81 247.84,-780.81 247.84,-780.81 247.84,-768.81 247.84,-768.81 247.84,-762.81 253.84,-756.81 259.84,-756.81 259.84,-756.81 477.97,-756.81 477.97,-756.81 483.97,-756.81 489.97,-762.81 489.97,-768.81 489.97,-768.81 489.97,-780.81 489.97,-780.81 489.97,-786.81 483.97,-792.81 477.97,-792.81"/>
<text xml:space="preserve" text-anchor="start" x="257.76" y="-772.81" font-family="Inter, ui-sans-serif, system-ui, -apple-system, BlinkMacSystemFont, Segoe UI, sans-serif" font-weight="bold" font-size="10.00" fill="#2f2a21">Sybil resistance 等同於 KYC，所以實名 監控是必要的</text>
</a>
</g>
</g>
<!-- n6&#45;&gt;n0 -->
<g id="edge20" class="edge">
<title>n6&#45;&gt;n0</title>
<g id="a_edge20"><a xlink:title="attack">
<path fill="none" stroke="#b85b57" d="M468.95,-756.43C476.51,-752.69 483.65,-748.2 489.97,-742.81 574.47,-670.79 607.49,-534.37 618.33,-474.38"/>
<polygon fill="#b85b57" stroke="#b85b57" points="621.77,-475.06 620.01,-464.61 614.87,-473.87 621.77,-475.06"/>
</a>
</g>
</g>
<!-- n7 -->
<g id="node8" class="node">
<title>n7</title>
<g id="a_node8"><a xlink:title="Formal Core">
<path fill="#e8f1e8" stroke="#c8b794" d="M454.83,-192.81C454.83,-192.81 282.99,-192.81 282.99,-192.81 276.99,-192.81 270.99,-186.81 270.99,-180.81 270.99,-180.81 270.99,-168.81 270.99,-168.81 270.99,-162.81 276.99,-156.81 282.99,-156.81 282.99,-156.81 454.83,-156.81 454.83,-156.81 460.83,-156.81 466.83,-162.81 466.83,-168.81 466.83,-168.81 466.83,-180.81 466.83,-180.81 466.83,-186.81 460.83,-192.81 454.83,-192.81"/>
<text xml:space="preserve" text-anchor="start" x="339.45" y="-172.81" font-family="Inter, ui-sans-serif, system-ui, -apple-system, BlinkMacSystemFont, Segoe UI, sans-serif" font-weight="bold" font-size="10.00" fill="#2f2a21">Formal Core</text>
</a>
</g>
</g>
<!-- n7&#45;&gt;n0 -->
<g id="edge1" class="edge">
<title>n7&#45;&gt;n0</title>
<g id="a_edge1"><a xlink:title="support">
<path fill="none" stroke="#6f8f72" d="M467.21,-188.93C475.33,-192.37 483.06,-196.61 489.97,-201.81 562.83,-256.71 600.7,-363.7 615.43,-415.42"/>
<polygon fill="#6f8f72" stroke="#6f8f72" points="612.03,-416.27 618.05,-424.99 618.78,-414.42 612.03,-416.27"/>
</a>
</g>
</g>
<!-- n8 -->
<g id="node9" class="node">
<title>n8</title>
<g id="a_node9"><a xlink:title="Worldcoin BrightID Gitcoin...">
<path fill="#e8f1e8" stroke="#c8b794" d="M454.83,-246.81C454.83,-246.81 282.99,-246.81 282.99,-246.81 276.99,-246.81 270.99,-240.81 270.99,-234.81 270.99,-234.81 270.99,-222.81 270.99,-222.81 270.99,-216.81 276.99,-210.81 282.99,-210.81 282.99,-210.81 454.83,-210.81 454.83,-210.81 460.83,-210.81 466.83,-216.81 466.83,-222.81 466.83,-222.81 466.83,-234.81 466.83,-234.81 466.83,-240.81 460.83,-246.81 454.83,-246.81"/>
<text xml:space="preserve" text-anchor="start" x="300.58" y="-226.81" font-family="Inter, ui-sans-serif, system-ui, -apple-system, BlinkMacSystemFont, Segoe UI, sans-serif" font-weight="bold" font-size="10.00" fill="#2f2a21">Worldcoin BrightID Gitcoin...</text>
</a>
</g>
</g>
<!-- n8&#45;&gt;n0 -->
<g id="edge3" class="edge">
<title>n8&#45;&gt;n0</title>
<g id="a_edge3"><a xlink:title="support">
<path fill="none" stroke="#6f8f72" d="M467.23,-244.01C475.25,-247.23 482.96,-251.12 489.97,-255.81 550.27,-296.14 591.7,-373.81 610.84,-415.93"/>
<polygon fill="#6f8f72" stroke="#6f8f72" points="607.57,-417.21 614.82,-424.94 613.98,-414.38 607.57,-417.21"/>
</a>
</g>
</g>
<!-- n9 -->
<g id="node10" class="node">
<title>n9</title>
<g id="a_node10"><a xlink:title="合取最大化不可達結構">
<path fill="#e8f1e8" stroke="#c8b794" d="M454.83,-300.81C454.83,-300.81 282.99,-300.81 282.99,-300.81 276.99,-300.81 270.99,-294.81 270.99,-288.81 270.99,-288.81 270.99,-276.81 270.99,-276.81 270.99,-270.81 276.99,-264.81 282.99,-264.81 282.99,-264.81 454.83,-264.81 454.83,-264.81 460.83,-264.81 466.83,-270.81 466.83,-276.81 466.83,-276.81 466.83,-288.81 466.83,-288.81 466.83,-294.81 460.83,-300.81 454.83,-300.81"/>
<text xml:space="preserve" text-anchor="start" x="327.23" y="-280.81" font-family="Inter, ui-sans-serif, system-ui, -apple-system, BlinkMacSystemFont, Segoe UI, sans-serif" font-weight="bold" font-size="10.00" fill="#2f2a21">合取最大化不可達結構</text>
</a>
</g>
</g>
<!-- n9&#45;&gt;n0 -->
<g id="edge4" class="edge">
<title>n9&#45;&gt;n0</title>
<g id="a_edge4"><a xlink:title="support">
<path fill="none" stroke="#6f8f72" d="M467.07,-299.51C475.04,-302.41 482.78,-305.82 489.97,-309.81 538.43,-336.74 580.7,-386.74 603.92,-417.75"/>
<polygon fill="#6f8f72" stroke="#6f8f72" points="600.87,-419.5 609.61,-425.5 606.52,-415.36 600.87,-419.5"/>
</a>
</g>
</g>
<!-- n10 -->
<g id="node11" class="node">
<title>n10</title>
<g id="a_node11"><a xlink:title="中強類比（A 強 B 弱紅線 C 中強 D 強）">
<path fill="#e8f1e8" stroke="#c8b794" d="M454.83,-354.81C454.83,-354.81 282.99,-354.81 282.99,-354.81 276.99,-354.81 270.99,-348.81 270.99,-342.81 270.99,-342.81 270.99,-330.81 270.99,-330.81 270.99,-324.81 276.99,-318.81 282.99,-318.81 282.99,-318.81 454.83,-318.81 454.83,-318.81 460.83,-318.81 466.83,-324.81 466.83,-330.81 466.83,-330.81 466.83,-342.81 466.83,-342.81 466.83,-348.81 460.83,-354.81 454.83,-354.81"/>
<text xml:space="preserve" text-anchor="start" x="290.56" y="-334.81" font-family="Inter, ui-sans-serif, system-ui, -apple-system, BlinkMacSystemFont, Segoe UI, sans-serif" font-weight="bold" font-size="10.00" fill="#2f2a21">中強類比（A 強 B 弱紅線 C 中強 D 強）</text>
</a>
</g>
</g>
<!-- n10&#45;&gt;n0 -->
<g id="edge5" class="edge">
<title>n10&#45;&gt;n0</title>
<g id="a_edge5"><a xlink:title="support">
<path fill="none" stroke="#6f8f72" d="M465.49,-355.29C473.88,-357.82 482.15,-360.65 489.97,-363.81 525.74,-378.27 562.95,-401.8 588.87,-419.78"/>
<polygon fill="#6f8f72" stroke="#6f8f72" points="586.8,-422.6 596.99,-425.49 590.83,-416.87 586.8,-422.6"/>
</a>
</g>
</g>
<!-- n11 -->
<g id="node12" class="node">
<title>n11</title>
<g id="a_node12"><a xlink:title="不可逆生物特徵 跨場景外推">
<path fill="#e8f1e8" stroke="#c8b794" d="M454.83,-408.81C454.83,-408.81 282.99,-408.81 282.99,-408.81 276.99,-408.81 270.99,-402.81 270.99,-396.81 270.99,-396.81 270.99,-384.81 270.99,-384.81 270.99,-378.81 276.99,-372.81 282.99,-372.81 282.99,-372.81 454.83,-372.81 454.83,-372.81 460.83,-372.81 466.83,-378.81 466.83,-384.81 466.83,-384.81 466.83,-396.81 466.83,-396.81 466.83,-402.81 460.83,-408.81 454.83,-408.81"/>
<text xml:space="preserve" text-anchor="start" x="317.51" y="-388.81" font-family="Inter, ui-sans-serif, system-ui, -apple-system, BlinkMacSystemFont, Segoe UI, sans-serif" font-weight="bold" font-size="10.00" fill="#2f2a21">不可逆生物特徵 跨場景外推</text>
</a>
</g>
</g>
<!-- n11&#45;&gt;n0 -->
<g id="edge6" class="edge">
<title>n11&#45;&gt;n0</title>
<g id="a_edge6"><a xlink:title="support">
<path fill="none" stroke="#6f8f72" d="M456.26,-409.24C478.53,-414 502.64,-419.14 525.43,-424.01"/>
<polygon fill="#6f8f72" stroke="#6f8f72" points="524.5,-427.39 535.01,-426.05 525.97,-420.54 524.5,-427.39"/>
</a>
</g>
</g>
<!-- n12 -->
<g id="node13" class="node">
<title>n12</title>
<g id="a_node13"><a xlink:title="L0 L1 L2 L3 B1&#45;B5">
<path fill="#e8f1e8" stroke="#c8b794" d="M454.83,-462.81C454.83,-462.81 282.99,-462.81 282.99,-462.81 276.99,-462.81 270.99,-456.81 270.99,-450.81 270.99,-450.81 270.99,-438.81 270.99,-438.81 270.99,-432.81 276.99,-426.81 282.99,-426.81 282.99,-426.81 454.83,-426.81 454.83,-426.81 460.83,-426.81 466.83,-432.81 466.83,-438.81 466.83,-438.81 466.83,-450.81 466.83,-450.81 466.83,-456.81 460.83,-462.81 454.83,-462.81"/>
<text xml:space="preserve" text-anchor="start" x="325.56" y="-442.81" font-family="Inter, ui-sans-serif, system-ui, -apple-system, BlinkMacSystemFont, Segoe UI, sans-serif" font-weight="bold" font-size="10.00" fill="#2f2a21">L0 L1 L2 L3 B1&#45;B5</text>
</a>
</g>
</g>
<!-- n12&#45;&gt;n0 -->
<g id="edge7" class="edge">
<title>n12&#45;&gt;n0</title>
<g id="a_edge7"><a xlink:title="support">
<path fill="none" stroke="#6f8f72" d="M466.99,-444.81C482.47,-444.81 498.56,-444.81 514.28,-444.81"/>
<polygon fill="#6f8f72" stroke="#6f8f72" points="514.13,-448.31 524.13,-444.81 514.13,-441.31 514.13,-448.31"/>
</a>
</g>
</g>
<!-- n13 -->
<g id="node14" class="node">
<title>n13</title>
<g id="a_node14"><a xlink:title="Worldcoin 過度通用化六步因果鏈 M1...">
<path fill="#e8f1e8" stroke="#c8b794" d="M454.83,-516.81C454.83,-516.81 282.99,-516.81 282.99,-516.81 276.99,-516.81 270.99,-510.81 270.99,-504.81 270.99,-504.81 270.99,-492.81 270.99,-492.81 270.99,-486.81 276.99,-480.81 282.99,-480.81 282.99,-480.81 454.83,-480.81 454.83,-480.81 460.83,-480.81 466.83,-486.81 466.83,-492.81 466.83,-492.81 466.83,-504.81 466.83,-504.81 466.83,-510.81 460.83,-516.81 454.83,-516.81"/>
<text xml:space="preserve" text-anchor="start" x="288.9" y="-496.81" font-family="Inter, ui-sans-serif, system-ui, -apple-system, BlinkMacSystemFont, Segoe UI, sans-serif" font-weight="bold" font-size="10.00" fill="#2f2a21">Worldcoin 過度通用化六步因果鏈 M1...</text>
</a>
</g>
</g>
<!-- n13&#45;&gt;n0 -->
<g id="edge8" class="edge">
<title>n13&#45;&gt;n0</title>
<g id="a_edge8"><a xlink:title="support">
<path fill="none" stroke="#6f8f72" d="M456.26,-480.38C478.53,-475.63 502.64,-470.48 525.43,-465.62"/>
<polygon fill="#6f8f72" stroke="#6f8f72" points="525.97,-469.08 535.01,-463.57 524.5,-462.23 525.97,-469.08"/>
</a>
</g>
</g>
<!-- n14 -->
<g id="node15" class="node">
<title>n14</title>
<g id="a_node15"><a xlink:title="Conclusion">
<path fill="#e8f1e8" stroke="#c8b794" d="M454.83,-570.81C454.83,-570.81 282.99,-570.81 282.99,-570.81 276.99,-570.81 270.99,-564.81 270.99,-558.81 270.99,-558.81 270.99,-546.81 270.99,-546.81 270.99,-540.81 276.99,-534.81 282.99,-534.81 282.99,-534.81 454.83,-534.81 454.83,-534.81 460.83,-534.81 466.83,-540.81 466.83,-546.81 466.83,-546.81 466.83,-558.81 466.83,-558.81 466.83,-564.81 460.83,-570.81 454.83,-570.81"/>
<text xml:space="preserve" text-anchor="start" x="341.68" y="-550.81" font-family="Inter, ui-sans-serif, system-ui, -apple-system, BlinkMacSystemFont, Segoe UI, sans-serif" font-weight="bold" font-size="10.00" fill="#2f2a21">Conclusion</text>
</a>
</g>
</g>
<!-- n14&#45;&gt;n0 -->
<g id="edge10" class="edge">
<title>n14&#45;&gt;n0</title>
<g id="a_edge10"><a xlink:title="support">
<path fill="none" stroke="#6f8f72" d="M465.49,-534.33C473.88,-531.81 482.15,-528.98 489.97,-525.81 525.74,-511.35 562.95,-487.83 588.87,-469.85"/>
<polygon fill="#6f8f72" stroke="#6f8f72" points="590.83,-472.75 596.99,-464.13 586.8,-467.03 590.83,-472.75"/>
</a>
</g>
</g>
<!-- n15 -->
<g id="node16" class="node">
<title>n15</title>
<g id="a_node16"><a xlink:title="Reply Worldcoin 是詐騙">
<path fill="#e8f1e8" stroke="#c8b794" d="M199.84,-625.81C199.84,-625.81 28,-625.81 28,-625.81 22,-625.81 16,-619.81 16,-613.81 16,-613.81 16,-601.81 16,-601.81 16,-595.81 22,-589.81 28,-589.81 28,-589.81 199.84,-589.81 199.84,-589.81 205.84,-589.81 211.84,-595.81 211.84,-601.81 211.84,-601.81 211.84,-613.81 211.84,-613.81 211.84,-619.81 205.84,-625.81 199.84,-625.81"/>
<text xml:space="preserve" text-anchor="start" x="60.58" y="-605.81" font-family="Inter, ui-sans-serif, system-ui, -apple-system, BlinkMacSystemFont, Segoe UI, sans-serif" font-weight="bold" font-size="10.00" fill="#2f2a21">Reply Worldcoin 是詐騙</text>
</a>
</g>
</g>
<!-- n15&#45;&gt;n0 -->
<g id="edge15" class="edge">
<title>n15&#45;&gt;n0</title>
<g id="a_edge15"><a xlink:title="support">
<path fill="none" stroke="#6f8f72" d="M212.29,-601.38C321.31,-594.05 483.69,-582.72 489.97,-579.81 540.82,-556.26 582.86,-504.26 605.29,-472.11"/>
<polygon fill="#6f8f72" stroke="#6f8f72" points="608.03,-474.31 610.76,-464.08 602.24,-470.37 608.03,-474.31"/>
</a>
</g>
</g>
<!-- n15&#45;&gt;n4 -->
<g id="edge13" class="edge">
<title>n15&#45;&gt;n4</title>
<g id="a_edge13"><a xlink:title="attack">
<path fill="none" stroke="#b85b57" d="M212.01,-615.1C227.48,-616.27 243.58,-617.47 259.29,-618.66"/>
<polygon fill="#b85b57" stroke="#b85b57" points="258.92,-622.14 269.15,-619.4 259.44,-615.16 258.92,-622.14"/>
</a>
</g>
</g>
<!-- n16 -->
<g id="node17" class="node">
<title>n16</title>
<g id="a_node17"><a xlink:title="Reply zkPassport 是完美方案">
<path fill="#e8f1e8" stroke="#c8b794" d="M199.84,-699.81C199.84,-699.81 28,-699.81 28,-699.81 22,-699.81 16,-693.81 16,-687.81 16,-687.81 16,-675.81 16,-675.81 16,-669.81 22,-663.81 28,-663.81 28,-663.81 199.84,-663.81 199.84,-663.81 205.84,-663.81 211.84,-669.81 211.84,-675.81 211.84,-675.81 211.84,-687.81 211.84,-687.81 211.84,-693.81 205.84,-699.81 199.84,-699.81"/>
<text xml:space="preserve" text-anchor="start" x="50.01" y="-679.81" font-family="Inter, ui-sans-serif, system-ui, -apple-system, BlinkMacSystemFont, Segoe UI, sans-serif" font-weight="bold" font-size="10.00" fill="#2f2a21">Reply zkPassport 是完美方案</text>
</a>
</g>
</g>
<!-- n16&#45;&gt;n0 -->
<g id="edge18" class="edge">
<title>n16&#45;&gt;n0</title>
<g id="a_edge18"><a xlink:title="support">
<path fill="none" stroke="#6f8f72" d="M211.93,-675.63C321.06,-668.52 484.03,-657.37 489.97,-653.81 558.65,-612.7 597.73,-520.87 613.94,-473.82"/>
<polygon fill="#6f8f72" stroke="#6f8f72" points="617.18,-475.17 617.01,-464.58 610.54,-472.97 617.18,-475.17"/>
</a>
</g>
</g>
<!-- n16&#45;&gt;n5 -->
<g id="edge16" class="edge">
<title>n16&#45;&gt;n5</title>
<g id="a_edge16"><a xlink:title="attack">
<path fill="none" stroke="#b85b57" d="M212.01,-689.1C221.52,-689.82 231.27,-690.55 241.02,-691.28"/>
<polygon fill="#b85b57" stroke="#b85b57" points="240.72,-694.77 250.95,-692.03 241.24,-687.79 240.72,-694.77"/>
</a>
</g>
</g>
<!-- n17 -->
<g id="node18" class="node">
<title>n17</title>
<g id="a_node18"><a xlink:title="Reply Sybil resistance KYC">
<path fill="#e8f1e8" stroke="#c8b794" d="M199.84,-773.81C199.84,-773.81 28,-773.81 28,-773.81 22,-773.81 16,-767.81 16,-761.81 16,-761.81 16,-749.81 16,-749.81 16,-743.81 22,-737.81 28,-737.81 28,-737.81 199.84,-737.81 199.84,-737.81 205.84,-737.81 211.84,-743.81 211.84,-749.81 211.84,-749.81 211.84,-761.81 211.84,-761.81 211.84,-767.81 205.84,-773.81 199.84,-773.81"/>
<text xml:space="preserve" text-anchor="start" x="48.89" y="-753.81" font-family="Inter, ui-sans-serif, system-ui, -apple-system, BlinkMacSystemFont, Segoe UI, sans-serif" font-weight="bold" font-size="10.00" fill="#2f2a21">Reply Sybil resistance KYC</text>
</a>
</g>
</g>
<!-- n17&#45;&gt;n0 -->
<g id="edge21" class="edge">
<title>n17&#45;&gt;n0</title>
<g id="a_edge21"><a xlink:title="support">
<path fill="none" stroke="#6f8f72" d="M212.01,-749.76C321.22,-742.77 484.26,-731.74 489.97,-727.81 577.59,-667.47 608.96,-533.64 618.85,-474.22"/>
<polygon fill="#6f8f72" stroke="#6f8f72" points="622.27,-474.96 620.36,-464.54 615.36,-473.88 622.27,-474.96"/>
</a>
</g>
</g>
<!-- n17&#45;&gt;n6 -->
<g id="edge19" class="edge">
<title>n17&#45;&gt;n6</title>
<g id="a_edge19"><a xlink:title="attack">
<path fill="none" stroke="#b85b57" d="M212.01,-763.1C220.05,-763.71 228.27,-764.33 236.51,-764.94"/>
<polygon fill="#b85b57" stroke="#b85b57" points="236.01,-768.42 246.25,-765.68 236.54,-761.44 236.01,-768.42"/>
</a>
</g>
</g>
</g>
</svg>
