<?xml version="1.0" encoding="UTF-8" standalone="no"?>
<!DOCTYPE svg PUBLIC "-//W3C//DTD SVG 1.1//EN"
 "http://www.w3.org/Graphics/SVG/1.1/DTD/svg11.dtd">
<!-- Generated by graphviz version 14.1.4 (0)
 -->
<!-- Title: Argument Map Pages: 1 -->
<svg class="argdown-summary-map" width="688pt" height="720pt"
 viewBox="0.00 0.00 688.00 720.00" xmlns="http://www.w3.org/2000/svg" xmlns:xlink="http://www.w3.org/1999/xlink">
<g id="graph0" class="graph" transform="scale(0.860387 0.860387) rotate(0) translate(4 832.83)">
<title>Argument Map</title>
<g id="clust1" class="cluster">
<title>cluster_1</title>
<polygon fill="#f3eadb" stroke="#d4c0a1" points="8,-18.83 8,-820.83 783.38,-820.83 783.38,-18.83 8,-18.83"/>
<text xml:space="preserve" text-anchor="start" x="357.01" y="-804.83" font-family="Inter, ui-sans-serif, system-ui, -apple-system, BlinkMacSystemFont, Segoe UI, sans-serif" font-size="12.00" fill="#2f2a21">Central Thesis</text>
</g>
<!-- n0 -->
<g id="node1" class="node">
<title>n0</title>
<g id="a_node1"><a xlink:title="為什麼皮夾應該被當成電信業：Apple Wallet 不是中性產品">
<path fill="#fffdf7" stroke="#6f8f72" stroke-width="2" d="M763.38,-460.83C763.38,-460.83 538.06,-460.83 538.06,-460.83 532.06,-460.83 526.06,-454.83 526.06,-448.83 526.06,-448.83 526.06,-436.83 526.06,-436.83 526.06,-430.83 532.06,-424.83 538.06,-424.83 538.06,-424.83 763.38,-424.83 763.38,-424.83 769.38,-424.83 775.38,-430.83 775.38,-436.83 775.38,-436.83 775.38,-448.83 775.38,-448.83 775.38,-454.83 769.38,-460.83 763.38,-460.83"/>
<text xml:space="preserve" text-anchor="start" x="535.98" y="-440.83" font-family="Inter, ui-sans-serif, system-ui, -apple-system, BlinkMacSystemFont, Segoe UI, sans-serif" font-weight="bold" font-size="10.00" fill="#2f2a21">為什麼皮夾應該被當成電信業：Apple Wallet 不是中性產品</text>
</a>
</g>
</g>
<!-- n1 -->
<g id="node2" class="node">
<title>n1</title>
<g id="a_node2"><a xlink:title="Wallet 是公共承載人 multi&#45;pronged 執行...">
<path fill="#fffdf7" stroke="#6f8f72" stroke-width="2" d="M203.85,-72.83C203.85,-72.83 28,-72.83 28,-72.83 22,-72.83 16,-66.83 16,-60.83 16,-60.83 16,-48.83 16,-48.83 16,-42.83 22,-36.83 28,-36.83 28,-36.83 203.85,-36.83 203.85,-36.83 209.85,-36.83 215.85,-42.83 215.85,-48.83 215.85,-48.83 215.85,-60.83 215.85,-60.83 215.85,-66.83 209.85,-72.83 203.85,-72.83"/>
<text xml:space="preserve" text-anchor="start" x="25.92" y="-52.83" font-family="Inter, ui-sans-serif, system-ui, -apple-system, BlinkMacSystemFont, Segoe UI, sans-serif" font-weight="bold" font-size="10.00" fill="#2f2a21">Wallet 是公共承載人 multi&#45;pronged 執行...</text>
</a>
</g>
</g>
<!-- n1&#45;&gt;n0 -->
<g id="edge2" class="edge">
<title>n1&#45;&gt;n0</title>
<g id="a_edge2"><a xlink:title="support">
<path fill="none" stroke="#6f8f72" d="M163.3,-36.38C238.96,-9.58 390.48,29.95 490.06,-37.83 619.05,-125.63 643.83,-335.22 648.59,-413.06"/>
<polygon fill="#6f8f72" stroke="#6f8f72" points="645.08,-413.07 649.11,-422.87 652.07,-412.7 645.08,-413.07"/>
</a>
</g>
</g>
<!-- n3 -->
<g id="node4" class="node">
<title>n3</title>
<g id="a_node4"><a xlink:title="Wallet 是中性商業產品">
<path fill="#fffdf7" stroke="#6f8f72" stroke-width="2" d="M456.87,-82.83C456.87,-82.83 285.03,-82.83 285.03,-82.83 279.03,-82.83 273.03,-76.83 273.03,-70.83 273.03,-70.83 273.03,-58.83 273.03,-58.83 273.03,-52.83 279.03,-46.83 285.03,-46.83 285.03,-46.83 456.87,-46.83 456.87,-46.83 462.87,-46.83 468.87,-52.83 468.87,-58.83 468.87,-58.83 468.87,-70.83 468.87,-70.83 468.87,-76.83 462.87,-82.83 456.87,-82.83"/>
<text xml:space="preserve" text-anchor="start" x="325.67" y="-62.83" font-family="Inter, ui-sans-serif, system-ui, -apple-system, BlinkMacSystemFont, Segoe UI, sans-serif" font-weight="bold" font-size="10.00" fill="#2f2a21">Wallet 是中性商業產品</text>
</a>
</g>
</g>
<!-- n1&#45;&gt;n3 -->
<g id="edge11" class="edge">
<title>n1&#45;&gt;n3</title>
<g id="a_edge11"><a xlink:title="attack">
<path fill="none" stroke="#b85b57" d="M216.2,-58.76C230.99,-59.34 246.29,-59.95 261.26,-60.54"/>
<polygon fill="#b85b57" stroke="#b85b57" points="260.98,-64.03 271.11,-60.93 261.26,-57.03 260.98,-64.03"/>
</a>
</g>
</g>
<!-- n2 -->
<g id="node3" class="node">
<title>n2</title>
<g id="a_node3"><a xlink:title="Wallet 公共承載義務的合法部署，必須先通過四項...">
<path fill="#fffdf7" stroke="#6f8f72" stroke-width="2" d="M468.34,-136.83C468.34,-136.83 273.57,-136.83 273.57,-136.83 267.57,-136.83 261.57,-130.83 261.57,-124.83 261.57,-124.83 261.57,-112.83 261.57,-112.83 261.57,-106.83 267.57,-100.83 273.57,-100.83 273.57,-100.83 468.34,-100.83 468.34,-100.83 474.34,-100.83 480.34,-106.83 480.34,-112.83 480.34,-112.83 480.34,-124.83 480.34,-124.83 480.34,-130.83 474.34,-136.83 468.34,-136.83"/>
<text xml:space="preserve" text-anchor="start" x="271.49" y="-116.83" font-family="Inter, ui-sans-serif, system-ui, -apple-system, BlinkMacSystemFont, Segoe UI, sans-serif" font-weight="bold" font-size="10.00" fill="#2f2a21">Wallet 公共承載義務的合法部署，必須先通過四項...</text>
</a>
</g>
</g>
<!-- n2&#45;&gt;n0 -->
<g id="edge9" class="edge">
<title>n2&#45;&gt;n0</title>
<g id="a_edge9"><a xlink:title="support">
<path fill="none" stroke="#6f8f72" d="M476.68,-137.33C481.38,-139.82 485.88,-142.65 490.06,-145.83 581.51,-215.52 626.62,-353.1 642.66,-413.37"/>
<polygon fill="#6f8f72" stroke="#6f8f72" points="639.23,-414.08 645.11,-422.89 646.01,-412.33 639.23,-414.08"/>
</a>
</g>
</g>
<!-- n3&#45;&gt;n0 -->
<g id="edge12" class="edge">
<title>n3&#45;&gt;n0</title>
<g id="a_edge12"><a xlink:title="attack">
<path fill="none" stroke="#b85b57" d="M469.26,-79.1C476.73,-82.52 483.78,-86.71 490.06,-91.83 594.53,-177.07 633.44,-345.44 645.29,-413.38"/>
<polygon fill="#b85b57" stroke="#b85b57" points="641.79,-413.71 646.89,-423 648.7,-412.56 641.79,-413.71"/>
</a>
</g>
</g>
<!-- n4 -->
<g id="node5" class="node">
<title>n4</title>
<g id="a_node5"><a xlink:title="Justice Scalia 在 540 U.S. 411 寫we...">
<path fill="#fffdf7" stroke="#6f8f72" stroke-width="2" d="M456.87,-642.83C456.87,-642.83 285.03,-642.83 285.03,-642.83 279.03,-642.83 273.03,-636.83 273.03,-630.83 273.03,-630.83 273.03,-618.83 273.03,-618.83 273.03,-612.83 279.03,-606.83 285.03,-606.83 285.03,-606.83 456.87,-606.83 456.87,-606.83 462.87,-606.83 468.87,-612.83 468.87,-618.83 468.87,-618.83 468.87,-630.83 468.87,-630.83 468.87,-636.83 462.87,-642.83 456.87,-642.83"/>
<text xml:space="preserve" text-anchor="start" x="285.35" y="-622.83" font-family="Inter, ui-sans-serif, system-ui, -apple-system, BlinkMacSystemFont, Segoe UI, sans-serif" font-weight="bold" font-size="10.00" fill="#2f2a21">Justice Scalia 在 540 U.S. 411 寫we...</text>
</a>
</g>
</g>
<!-- n4&#45;&gt;n0 -->
<g id="edge14" class="edge">
<title>n4&#45;&gt;n0</title>
<g id="a_edge14"><a xlink:title="attack">
<path fill="none" stroke="#b85b57" d="M459.36,-606.41C470.02,-602.65 480.51,-598.17 490.06,-592.83 547.42,-560.79 600.07,-503.68 628.25,-469.93"/>
<polygon fill="#b85b57" stroke="#b85b57" points="630.92,-472.19 634.57,-462.24 625.52,-467.75 630.92,-472.19"/>
</a>
</g>
</g>
<!-- n5 -->
<g id="node6" class="node">
<title>n5</title>
<g id="a_node6"><a xlink:title="政府規範會把 wallet 變成新監控工具 OID4VC 是 EU...">
<path fill="#fffdf7" stroke="#6f8f72" stroke-width="2" d="M477.79,-716.83C477.79,-716.83 264.12,-716.83 264.12,-716.83 258.12,-716.83 252.12,-710.83 252.12,-704.83 252.12,-704.83 252.12,-692.83 252.12,-692.83 252.12,-686.83 258.12,-680.83 264.12,-680.83 264.12,-680.83 477.79,-680.83 477.79,-680.83 483.79,-680.83 489.79,-686.83 489.79,-692.83 489.79,-692.83 489.79,-704.83 489.79,-704.83 489.79,-710.83 483.79,-716.83 477.79,-716.83"/>
<text xml:space="preserve" text-anchor="start" x="262.04" y="-696.83" font-family="Inter, ui-sans-serif, system-ui, -apple-system, BlinkMacSystemFont, Segoe UI, sans-serif" font-weight="bold" font-size="10.00" fill="#2f2a21">政府規範會把 wallet 變成新監控工具 OID4VC 是 EU...</text>
</a>
</g>
</g>
<!-- n5&#45;&gt;n0 -->
<g id="edge17" class="edge">
<title>n5&#45;&gt;n0</title>
<g id="a_edge17"><a xlink:title="attack">
<path fill="none" stroke="#b85b57" d="M464.71,-680.46C473.67,-676.72 482.3,-672.23 490.06,-666.83 563.51,-615.7 614.98,-519.39 637.29,-471.45"/>
<polygon fill="#b85b57" stroke="#b85b57" points="640.39,-473.1 641.35,-462.55 634.02,-470.2 640.39,-473.1"/>
</a>
</g>
</g>
<!-- n6 -->
<g id="node7" class="node">
<title>n6</title>
<g id="a_node7"><a xlink:title="DMA 執法管轄限於歐盟，跨國 wallet...">
<path fill="#fffdf7" stroke="#6f8f72" stroke-width="2" d="M456.87,-790.83C456.87,-790.83 285.03,-790.83 285.03,-790.83 279.03,-790.83 273.03,-784.83 273.03,-778.83 273.03,-778.83 273.03,-766.83 273.03,-766.83 273.03,-760.83 279.03,-754.83 285.03,-754.83 285.03,-754.83 456.87,-754.83 456.87,-754.83 462.87,-754.83 468.87,-760.83 468.87,-766.83 468.87,-766.83 468.87,-778.83 468.87,-778.83 468.87,-784.83 462.87,-790.83 456.87,-790.83"/>
<text xml:space="preserve" text-anchor="start" x="292.89" y="-770.83" font-family="Inter, ui-sans-serif, system-ui, -apple-system, BlinkMacSystemFont, Segoe UI, sans-serif" font-weight="bold" font-size="10.00" fill="#2f2a21">DMA 執法管轄限於歐盟，跨國 wallet...</text>
</a>
</g>
</g>
<!-- n6&#45;&gt;n0 -->
<g id="edge20" class="edge">
<title>n6&#45;&gt;n0</title>
<g id="a_edge20"><a xlink:title="attack">
<path fill="none" stroke="#b85b57" d="M467.81,-754.37C475.77,-750.65 483.32,-746.19 490.06,-740.83 580.29,-669.09 626.05,-532.02 642.46,-472.1"/>
<polygon fill="#b85b57" stroke="#b85b57" points="645.79,-473.21 644.97,-462.64 639.02,-471.41 645.79,-473.21"/>
</a>
</g>
</g>
<!-- n7 -->
<g id="node8" class="node">
<title>n7</title>
<g id="a_node8"><a xlink:title="Formal Core">
<path fill="#e8f1e8" stroke="#c8b794" d="M456.87,-190.83C456.87,-190.83 285.03,-190.83 285.03,-190.83 279.03,-190.83 273.03,-184.83 273.03,-178.83 273.03,-178.83 273.03,-166.83 273.03,-166.83 273.03,-160.83 279.03,-154.83 285.03,-154.83 285.03,-154.83 456.87,-154.83 456.87,-154.83 462.87,-154.83 468.87,-160.83 468.87,-166.83 468.87,-166.83 468.87,-178.83 468.87,-178.83 468.87,-184.83 462.87,-190.83 456.87,-190.83"/>
<text xml:space="preserve" text-anchor="start" x="341.5" y="-170.83" font-family="Inter, ui-sans-serif, system-ui, -apple-system, BlinkMacSystemFont, Segoe UI, sans-serif" font-weight="bold" font-size="10.00" fill="#2f2a21">Formal Core</text>
</a>
</g>
</g>
<!-- n7&#45;&gt;n0 -->
<g id="edge1" class="edge">
<title>n7&#45;&gt;n0</title>
<g id="a_edge1"><a xlink:title="support">
<path fill="none" stroke="#6f8f72" d="M469.34,-188.56C476.66,-191.67 483.67,-195.39 490.06,-199.83 568.88,-254.58 618.69,-362.04 639.1,-413.72"/>
<polygon fill="#6f8f72" stroke="#6f8f72" points="635.83,-414.95 642.68,-423.02 642.36,-412.43 635.83,-414.95"/>
</a>
</g>
</g>
<!-- n8 -->
<g id="node9" class="node">
<title>n8</title>
<g id="a_node9"><a xlink:title="嚴格四條件 Aspen Skiing Sacrifice Test">
<path fill="#e8f1e8" stroke="#c8b794" d="M456.87,-244.83C456.87,-244.83 285.03,-244.83 285.03,-244.83 279.03,-244.83 273.03,-238.83 273.03,-232.83 273.03,-232.83 273.03,-220.83 273.03,-220.83 273.03,-214.83 279.03,-208.83 285.03,-208.83 285.03,-208.83 456.87,-208.83 456.87,-208.83 462.87,-208.83 468.87,-214.83 468.87,-220.83 468.87,-220.83 468.87,-232.83 468.87,-232.83 468.87,-238.83 462.87,-244.83 456.87,-244.83"/>
<text xml:space="preserve" text-anchor="start" x="283.15" y="-224.83" font-family="Inter, ui-sans-serif, system-ui, -apple-system, BlinkMacSystemFont, Segoe UI, sans-serif" font-weight="bold" font-size="10.00" fill="#2f2a21">嚴格四條件 Aspen Skiing Sacrifice Test</text>
</a>
</g>
</g>
<!-- n8&#45;&gt;n0 -->
<g id="edge3" class="edge">
<title>n8&#45;&gt;n0</title>
<g id="a_edge3"><a xlink:title="support">
<path fill="none" stroke="#6f8f72" d="M469.08,-243.53C476.41,-246.44 483.5,-249.84 490.06,-253.83 556.68,-294.41 609.13,-372.53 633.99,-414.51"/>
<polygon fill="#6f8f72" stroke="#6f8f72" points="630.9,-416.16 638.94,-423.05 636.95,-412.64 630.9,-416.16"/>
</a>
</g>
</g>
<!-- n9 -->
<g id="node10" class="node">
<title>n9</title>
<g id="a_node10"><a xlink:title="β 同構 四項互通機制可移植">
<path fill="#e8f1e8" stroke="#c8b794" d="M456.87,-298.83C456.87,-298.83 285.03,-298.83 285.03,-298.83 279.03,-298.83 273.03,-292.83 273.03,-286.83 273.03,-286.83 273.03,-274.83 273.03,-274.83 273.03,-268.83 279.03,-262.83 285.03,-262.83 285.03,-262.83 456.87,-262.83 456.87,-262.83 462.87,-262.83 468.87,-268.83 468.87,-274.83 468.87,-274.83 468.87,-286.83 468.87,-286.83 468.87,-292.83 462.87,-298.83 456.87,-298.83"/>
<text xml:space="preserve" text-anchor="start" x="319.56" y="-278.83" font-family="Inter, ui-sans-serif, system-ui, -apple-system, BlinkMacSystemFont, Segoe UI, sans-serif" font-weight="bold" font-size="10.00" fill="#2f2a21">β 同構 四項互通機制可移植</text>
</a>
</g>
</g>
<!-- n9&#45;&gt;n0 -->
<g id="edge4" class="edge">
<title>n9&#45;&gt;n0</title>
<g id="a_edge4"><a xlink:title="support">
<path fill="none" stroke="#6f8f72" d="M469.32,-299.1C476.48,-301.65 483.47,-304.54 490.06,-307.83 544.97,-335.27 597,-385.36 626,-416.21"/>
<polygon fill="#6f8f72" stroke="#6f8f72" points="623.16,-418.3 632.52,-423.26 628.3,-413.54 623.16,-418.3"/>
</a>
</g>
</g>
<!-- n10 -->
<g id="node11" class="node">
<title>n10</title>
<g id="a_node11"><a xlink:title="iOS Android 已 designated wallet...">
<path fill="#e8f1e8" stroke="#c8b794" d="M456.87,-352.83C456.87,-352.83 285.03,-352.83 285.03,-352.83 279.03,-352.83 273.03,-346.83 273.03,-340.83 273.03,-340.83 273.03,-328.83 273.03,-328.83 273.03,-322.83 279.03,-316.83 285.03,-316.83 285.03,-316.83 456.87,-316.83 456.87,-316.83 462.87,-316.83 468.87,-322.83 468.87,-328.83 468.87,-328.83 468.87,-340.83 468.87,-340.83 468.87,-346.83 462.87,-352.83 456.87,-352.83"/>
<text xml:space="preserve" text-anchor="start" x="289" y="-332.83" font-family="Inter, ui-sans-serif, system-ui, -apple-system, BlinkMacSystemFont, Segoe UI, sans-serif" font-weight="bold" font-size="10.00" fill="#2f2a21">iOS Android 已 designated wallet...</text>
</a>
</g>
</g>
<!-- n10&#45;&gt;n0 -->
<g id="edge5" class="edge">
<title>n10&#45;&gt;n0</title>
<g id="a_edge5"><a xlink:title="support">
<path fill="none" stroke="#6f8f72" d="M463.2,-353.32C472.37,-355.89 481.46,-358.72 490.06,-361.83 532.26,-377.1 577.64,-400.91 609.19,-418.77"/>
<polygon fill="#6f8f72" stroke="#6f8f72" points="607.2,-421.66 617.62,-423.59 610.68,-415.58 607.2,-421.66"/>
</a>
</g>
</g>
<!-- n11 -->
<g id="node12" class="node">
<title>n11</title>
<g id="a_node12"><a xlink:title="廠商鎖定 vs 互通性義務取代監管 vs 自由">
<path fill="#e8f1e8" stroke="#c8b794" d="M456.87,-406.83C456.87,-406.83 285.03,-406.83 285.03,-406.83 279.03,-406.83 273.03,-400.83 273.03,-394.83 273.03,-394.83 273.03,-382.83 273.03,-382.83 273.03,-376.83 279.03,-370.83 285.03,-370.83 285.03,-370.83 456.87,-370.83 456.87,-370.83 462.87,-370.83 468.87,-376.83 468.87,-382.83 468.87,-382.83 468.87,-394.83 468.87,-394.83 468.87,-400.83 462.87,-406.83 456.87,-406.83"/>
<text xml:space="preserve" text-anchor="start" x="291.76" y="-386.83" font-family="Inter, ui-sans-serif, system-ui, -apple-system, BlinkMacSystemFont, Segoe UI, sans-serif" font-weight="bold" font-size="10.00" fill="#2f2a21">廠商鎖定 vs 互通性義務取代監管 vs 自由</text>
</a>
</g>
</g>
<!-- n11&#45;&gt;n0 -->
<g id="edge6" class="edge">
<title>n11&#45;&gt;n0</title>
<g id="a_edge6"><a xlink:title="support">
<path fill="none" stroke="#6f8f72" d="M466.77,-407.27C491.55,-412.08 518.42,-417.31 543.73,-422.23"/>
<polygon fill="#6f8f72" stroke="#6f8f72" points="542.89,-425.63 553.38,-424.1 544.23,-418.76 542.89,-425.63"/>
</a>
</g>
</g>
<!-- n12 -->
<g id="node13" class="node">
<title>n12</title>
<g id="a_node13"><a xlink:title="4 項可遷移性 4 項禁令 三層執行機制">
<path fill="#e8f1e8" stroke="#c8b794" d="M456.87,-460.83C456.87,-460.83 285.03,-460.83 285.03,-460.83 279.03,-460.83 273.03,-454.83 273.03,-448.83 273.03,-448.83 273.03,-436.83 273.03,-436.83 273.03,-430.83 279.03,-424.83 285.03,-424.83 285.03,-424.83 456.87,-424.83 456.87,-424.83 462.87,-424.83 468.87,-430.83 468.87,-436.83 468.87,-436.83 468.87,-448.83 468.87,-448.83 468.87,-454.83 462.87,-460.83 456.87,-460.83"/>
<text xml:space="preserve" text-anchor="start" x="301.49" y="-440.83" font-family="Inter, ui-sans-serif, system-ui, -apple-system, BlinkMacSystemFont, Segoe UI, sans-serif" font-weight="bold" font-size="10.00" fill="#2f2a21">4 項可遷移性 4 項禁令 三層執行機制</text>
</a>
</g>
</g>
<!-- n12&#45;&gt;n0 -->
<g id="edge7" class="edge">
<title>n12&#45;&gt;n0</title>
<g id="a_edge7"><a xlink:title="support">
<path fill="none" stroke="#6f8f72" d="M469.1,-442.83C483.83,-442.83 499.25,-442.83 514.61,-442.83"/>
<polygon fill="#6f8f72" stroke="#6f8f72" points="514.26,-446.33 524.26,-442.83 514.26,-439.33 514.26,-446.33"/>
</a>
</g>
</g>
<!-- n13 -->
<g id="node14" class="node">
<title>n13</title>
<g id="a_node14"><a xlink:title="Wallet 公共承載六步因果鏈 中性產品 owe common...">
<path fill="#e8f1e8" stroke="#c8b794" d="M478.06,-514.83C478.06,-514.83 263.85,-514.83 263.85,-514.83 257.85,-514.83 251.85,-508.83 251.85,-502.83 251.85,-502.83 251.85,-490.83 251.85,-490.83 251.85,-484.83 257.85,-478.83 263.85,-478.83 263.85,-478.83 478.06,-478.83 478.06,-478.83 484.06,-478.83 490.06,-484.83 490.06,-490.83 490.06,-490.83 490.06,-502.83 490.06,-502.83 490.06,-508.83 484.06,-514.83 478.06,-514.83"/>
<text xml:space="preserve" text-anchor="start" x="261.77" y="-494.83" font-family="Inter, ui-sans-serif, system-ui, -apple-system, BlinkMacSystemFont, Segoe UI, sans-serif" font-weight="bold" font-size="10.00" fill="#2f2a21">Wallet 公共承載六步因果鏈 中性產品 owe common...</text>
</a>
</g>
</g>
<!-- n13&#45;&gt;n0 -->
<g id="edge8" class="edge">
<title>n13&#45;&gt;n0</title>
<g id="a_edge8"><a xlink:title="support">
<path fill="none" stroke="#6f8f72" d="M466.77,-478.4C491.55,-473.58 518.42,-468.36 543.73,-463.44"/>
<polygon fill="#6f8f72" stroke="#6f8f72" points="544.23,-466.91 553.38,-461.56 542.89,-460.04 544.23,-466.91"/>
</a>
</g>
</g>
<!-- n14 -->
<g id="node15" class="node">
<title>n14</title>
<g id="a_node15"><a xlink:title="Conclusion">
<path fill="#e8f1e8" stroke="#c8b794" d="M456.87,-568.83C456.87,-568.83 285.03,-568.83 285.03,-568.83 279.03,-568.83 273.03,-562.83 273.03,-556.83 273.03,-556.83 273.03,-544.83 273.03,-544.83 273.03,-538.83 279.03,-532.83 285.03,-532.83 285.03,-532.83 456.87,-532.83 456.87,-532.83 462.87,-532.83 468.87,-538.83 468.87,-544.83 468.87,-544.83 468.87,-556.83 468.87,-556.83 468.87,-562.83 462.87,-568.83 456.87,-568.83"/>
<text xml:space="preserve" text-anchor="start" x="343.73" y="-548.83" font-family="Inter, ui-sans-serif, system-ui, -apple-system, BlinkMacSystemFont, Segoe UI, sans-serif" font-weight="bold" font-size="10.00" fill="#2f2a21">Conclusion</text>
</a>
</g>
</g>
<!-- n14&#45;&gt;n0 -->
<g id="edge10" class="edge">
<title>n14&#45;&gt;n0</title>
<g id="a_edge10"><a xlink:title="support">
<path fill="none" stroke="#6f8f72" d="M463.2,-532.34C472.37,-529.78 481.46,-526.95 490.06,-523.83 532.26,-508.57 577.64,-484.76 609.19,-466.9"/>
<polygon fill="#6f8f72" stroke="#6f8f72" points="610.68,-470.08 617.62,-462.08 607.2,-464 610.68,-470.08"/>
</a>
</g>
</g>
<!-- n15 -->
<g id="node16" class="node">
<title>n15</title>
<g id="a_node16"><a xlink:title="Reply Trinko 已實質廢除 essential...">
<path fill="#e8f1e8" stroke="#c8b794" d="M201.84,-623.83C201.84,-623.83 30,-623.83 30,-623.83 24,-623.83 18,-617.83 18,-611.83 18,-611.83 18,-599.83 18,-599.83 18,-593.83 24,-587.83 30,-587.83 30,-587.83 201.84,-587.83 201.84,-587.83 207.84,-587.83 213.84,-593.83 213.84,-599.83 213.84,-599.83 213.84,-611.83 213.84,-611.83 213.84,-617.83 207.84,-623.83 201.84,-623.83"/>
<text xml:space="preserve" text-anchor="start" x="36.46" y="-603.83" font-family="Inter, ui-sans-serif, system-ui, -apple-system, BlinkMacSystemFont, Segoe UI, sans-serif" font-weight="bold" font-size="10.00" fill="#2f2a21">Reply Trinko 已實質廢除 essential...</text>
</a>
</g>
</g>
<!-- n15&#45;&gt;n0 -->
<g id="edge15" class="edge">
<title>n15&#45;&gt;n0</title>
<g id="a_edge15"><a xlink:title="support">
<path fill="none" stroke="#6f8f72" d="M213.94,-600.04C320.22,-593.47 477.41,-583.01 490.06,-577.83 547.79,-554.21 599.96,-501.47 628.02,-469.35"/>
<polygon fill="#6f8f72" stroke="#6f8f72" points="630.44,-471.9 634.29,-462.03 625.13,-467.34 630.44,-471.9"/>
</a>
</g>
</g>
<!-- n15&#45;&gt;n4 -->
<g id="edge13" class="edge">
<title>n15&#45;&gt;n4</title>
<g id="a_edge13"><a xlink:title="attack">
<path fill="none" stroke="#b85b57" d="M214.03,-613.12C229.51,-614.29 245.6,-615.5 261.32,-616.68"/>
<polygon fill="#b85b57" stroke="#b85b57" points="260.95,-620.16 271.18,-617.42 261.47,-613.18 260.95,-620.16"/>
</a>
</g>
</g>
<!-- n16 -->
<g id="node17" class="node">
<title>n16</title>
<g id="a_node17"><a xlink:title="Reply Self&#45;sovereign identity...">
<path fill="#e8f1e8" stroke="#c8b794" d="M201.84,-697.83C201.84,-697.83 30,-697.83 30,-697.83 24,-697.83 18,-691.83 18,-685.83 18,-685.83 18,-673.83 18,-673.83 18,-667.83 24,-661.83 30,-661.83 30,-661.83 201.84,-661.83 201.84,-661.83 207.84,-661.83 213.84,-667.83 213.84,-673.83 213.84,-673.83 213.84,-685.83 213.84,-685.83 213.84,-691.83 207.84,-697.83 201.84,-697.83"/>
<text xml:space="preserve" text-anchor="start" x="43.13" y="-677.83" font-family="Inter, ui-sans-serif, system-ui, -apple-system, BlinkMacSystemFont, Segoe UI, sans-serif" font-weight="bold" font-size="10.00" fill="#2f2a21">Reply Self&#45;sovereign identity...</text>
</a>
</g>
</g>
<!-- n16&#45;&gt;n0 -->
<g id="edge18" class="edge">
<title>n16&#45;&gt;n0</title>
<g id="a_edge18"><a xlink:title="support">
<path fill="none" stroke="#6f8f72" d="M213.87,-673.53C322.39,-666.32 484.01,-655.11 490.06,-651.83 564.95,-611.25 615.47,-518.83 637.38,-471.67"/>
<polygon fill="#6f8f72" stroke="#6f8f72" points="640.53,-473.19 641.47,-462.63 634.16,-470.3 640.53,-473.19"/>
</a>
</g>
</g>
<!-- n16&#45;&gt;n5 -->
<g id="edge16" class="edge">
<title>n16&#45;&gt;n5</title>
<g id="a_edge16"><a xlink:title="attack">
<path fill="none" stroke="#b85b57" d="M214.03,-687.12C222.75,-687.78 231.67,-688.45 240.61,-689.12"/>
<polygon fill="#b85b57" stroke="#b85b57" points="240.18,-692.6 250.41,-689.86 240.71,-685.62 240.18,-692.6"/>
</a>
</g>
</g>
<!-- n17 -->
<g id="node18" class="node">
<title>n17</title>
<g id="a_node18"><a xlink:title="Reply DMA 是歐盟區域法不可全球化...">
<path fill="#e8f1e8" stroke="#c8b794" d="M201.84,-771.83C201.84,-771.83 30,-771.83 30,-771.83 24,-771.83 18,-765.83 18,-759.83 18,-759.83 18,-747.83 18,-747.83 18,-741.83 24,-735.83 30,-735.83 30,-735.83 201.84,-735.83 201.84,-735.83 207.84,-735.83 213.84,-741.83 213.84,-747.83 213.84,-747.83 213.84,-759.83 213.84,-759.83 213.84,-765.83 207.84,-771.83 201.84,-771.83"/>
<text xml:space="preserve" text-anchor="start" x="38.13" y="-751.83" font-family="Inter, ui-sans-serif, system-ui, -apple-system, BlinkMacSystemFont, Segoe UI, sans-serif" font-weight="bold" font-size="10.00" fill="#2f2a21">Reply DMA 是歐盟區域法不可全球化...</text>
</a>
</g>
</g>
<!-- n17&#45;&gt;n0 -->
<g id="edge21" class="edge">
<title>n17&#45;&gt;n0</title>
<g id="a_edge21"><a xlink:title="support">
<path fill="none" stroke="#6f8f72" d="M213.95,-747.67C322.56,-740.6 484.25,-729.52 490.06,-725.83 583.58,-666.42 627.58,-531.59 643,-472.04"/>
<polygon fill="#6f8f72" stroke="#6f8f72" points="646.31,-473.2 645.34,-462.65 639.52,-471.5 646.31,-473.2"/>
</a>
</g>
</g>
<!-- n17&#45;&gt;n6 -->
<g id="edge19" class="edge">
<title>n17&#45;&gt;n6</title>
<g id="a_edge19"><a xlink:title="attack">
<path fill="none" stroke="#b85b57" d="M214.03,-761.12C229.51,-762.29 245.6,-763.5 261.32,-764.68"/>
<polygon fill="#b85b57" stroke="#b85b57" points="260.95,-768.16 271.18,-765.42 261.47,-761.18 260.95,-768.16"/>
</a>
</g>
</g>
</g>
</svg>
