<?xml version="1.0" encoding="UTF-8" standalone="no"?>
<!DOCTYPE svg PUBLIC "-//W3C//DTD SVG 1.1//EN"
 "http://www.w3.org/Graphics/SVG/1.1/DTD/svg11.dtd">
<!-- Generated by graphviz version 14.1.4 (0)
 -->
<!-- Title: Argument Map Pages: 1 -->
<svg class="argdown-summary-map" width="650pt" height="720pt"
 viewBox="0.00 0.00 650.00 720.00" xmlns="http://www.w3.org/2000/svg" xmlns:xlink="http://www.w3.org/1999/xlink">
<g id="graph0" class="graph" transform="scale(0.856916 0.856916) rotate(0) translate(4 836.22)">
<title>Argument Map</title>
<g id="clust1" class="cluster">
<title>cluster_1</title>
<polygon fill="#f3eadb" stroke="#d4c0a1" points="8,-22.22 8,-824.22 742.02,-824.22 742.02,-22.22 8,-22.22"/>
<text xml:space="preserve" text-anchor="start" x="336.33" y="-808.22" font-family="Inter, ui-sans-serif, system-ui, -apple-system, BlinkMacSystemFont, Segoe UI, sans-serif" font-size="12.00" fill="#2f2a21">Central Thesis</text>
</g>
<!-- n0 -->
<g id="node1" class="node">
<title>n0</title>
<g id="a_node1"><a xlink:title="數位皮夾把民主成本下放給誰">
<path fill="#fffdf7" stroke="#6f8f72" stroke-width="2" d="M722.02,-464.22C722.02,-464.22 550.18,-464.22 550.18,-464.22 544.18,-464.22 538.18,-458.22 538.18,-452.22 538.18,-452.22 538.18,-440.22 538.18,-440.22 538.18,-434.22 544.18,-428.22 550.18,-428.22 550.18,-428.22 722.02,-428.22 722.02,-428.22 728.02,-428.22 734.02,-434.22 734.02,-440.22 734.02,-440.22 734.02,-452.22 734.02,-452.22 734.02,-458.22 728.02,-464.22 722.02,-464.22"/>
<text xml:space="preserve" text-anchor="start" x="581.92" y="-444.22" font-family="Inter, ui-sans-serif, system-ui, -apple-system, BlinkMacSystemFont, Segoe UI, sans-serif" font-weight="bold" font-size="10.00" fill="#2f2a21">數位皮夾把民主成本下放給誰</text>
</a>
</g>
</g>
<!-- n1 -->
<g id="node2" class="node">
<title>n1</title>
<g id="a_node2"><a xlink:title="CB&#45;Justice D₁ D₂ （必要非充分）">
<path fill="#fffdf7" stroke="#6f8f72" stroke-width="2" d="M199.84,-76.22C199.84,-76.22 28,-76.22 28,-76.22 22,-76.22 16,-70.22 16,-64.22 16,-64.22 16,-52.22 16,-52.22 16,-46.22 22,-40.22 28,-40.22 28,-40.22 199.84,-40.22 199.84,-40.22 205.84,-40.22 211.84,-46.22 211.84,-52.22 211.84,-52.22 211.84,-64.22 211.84,-64.22 211.84,-70.22 205.84,-76.22 199.84,-76.22"/>
<text xml:space="preserve" text-anchor="start" x="38.91" y="-56.22" font-family="Inter, ui-sans-serif, system-ui, -apple-system, BlinkMacSystemFont, Segoe UI, sans-serif" font-weight="bold" font-size="10.00" fill="#2f2a21">CB&#45;Justice D₁ D₂ （必要非充分）</text>
</a>
</g>
</g>
<!-- n1&#45;&gt;n0 -->
<g id="edge2" class="edge">
<title>n1&#45;&gt;n0</title>
<g id="a_edge2"><a xlink:title="support">
<path fill="none" stroke="#6f8f72" d="M160.06,-39.78C238.04,-11.2 399.44,33.19 502.18,-41.22 625.91,-130.84 636.52,-339.32 635.99,-416.66"/>
<polygon fill="#6f8f72" stroke="#6f8f72" points="632.5,-416.34 635.85,-426.39 639.5,-416.44 632.5,-416.34"/>
</a>
</g>
</g>
<!-- n3 -->
<g id="node4" class="node">
<title>n3</title>
<g id="a_node4"><a xlink:title="holder&#45;centric 天然優越">
<path fill="#fffdf7" stroke="#6f8f72" stroke-width="2" d="M460.93,-86.22C460.93,-86.22 289.09,-86.22 289.09,-86.22 283.09,-86.22 277.09,-80.22 277.09,-74.22 277.09,-74.22 277.09,-62.22 277.09,-62.22 277.09,-56.22 283.09,-50.22 289.09,-50.22 289.09,-50.22 460.93,-50.22 460.93,-50.22 466.93,-50.22 472.93,-56.22 472.93,-62.22 472.93,-62.22 472.93,-74.22 472.93,-74.22 472.93,-80.22 466.93,-86.22 460.93,-86.22"/>
<text xml:space="preserve" text-anchor="start" x="323.61" y="-66.22" font-family="Inter, ui-sans-serif, system-ui, -apple-system, BlinkMacSystemFont, Segoe UI, sans-serif" font-weight="bold" font-size="10.00" fill="#2f2a21">holder&#45;centric 天然優越</text>
</a>
</g>
</g>
<!-- n1&#45;&gt;n3 -->
<g id="edge11" class="edge">
<title>n1&#45;&gt;n3</title>
<g id="a_edge11"><a xlink:title="attack">
<path fill="none" stroke="#b85b57" d="M212.13,-61.97C229.45,-62.64 247.58,-63.34 265.2,-64.02"/>
<polygon fill="#b85b57" stroke="#b85b57" points="265.04,-67.52 275.17,-64.41 265.31,-60.52 265.04,-67.52"/>
</a>
</g>
</g>
<!-- n2 -->
<g id="node3" class="node">
<title>n2</title>
<g id="a_node3"><a xlink:title="三項分層強制補強條件 C₁ C₂ C₃">
<path fill="#fffdf7" stroke="#6f8f72" stroke-width="2" d="M460.93,-140.22C460.93,-140.22 289.09,-140.22 289.09,-140.22 283.09,-140.22 277.09,-134.22 277.09,-128.22 277.09,-128.22 277.09,-116.22 277.09,-116.22 277.09,-110.22 283.09,-104.22 289.09,-104.22 289.09,-104.22 460.93,-104.22 460.93,-104.22 466.93,-104.22 472.93,-110.22 472.93,-116.22 472.93,-116.22 472.93,-128.22 472.93,-128.22 472.93,-134.22 466.93,-140.22 460.93,-140.22"/>
<text xml:space="preserve" text-anchor="start" x="305.83" y="-120.22" font-family="Inter, ui-sans-serif, system-ui, -apple-system, BlinkMacSystemFont, Segoe UI, sans-serif" font-weight="bold" font-size="10.00" fill="#2f2a21">三項分層強制補強條件 C₁ C₂ C₃</text>
</a>
</g>
</g>
<!-- n2&#45;&gt;n0 -->
<g id="edge9" class="edge">
<title>n2&#45;&gt;n0</title>
<g id="a_edge9"><a xlink:title="support">
<path fill="none" stroke="#6f8f72" d="M473.34,-133.09C483.76,-137.07 493.65,-142.32 502.18,-149.22 588.24,-218.88 620.43,-355.97 630.8,-416.4"/>
<polygon fill="#6f8f72" stroke="#6f8f72" points="627.34,-416.95 632.4,-426.26 634.25,-415.83 627.34,-416.95"/>
</a>
</g>
</g>
<!-- n3&#45;&gt;n0 -->
<g id="edge12" class="edge">
<title>n3&#45;&gt;n0</title>
<g id="a_edge12"><a xlink:title="attack">
<path fill="none" stroke="#b85b57" d="M473.12,-78.36C483.69,-82.45 493.68,-87.92 502.18,-95.22 601.72,-180.75 626.91,-348.96 633.12,-416.81"/>
<polygon fill="#b85b57" stroke="#b85b57" points="629.6,-416.73 633.92,-426.4 636.58,-416.14 629.6,-416.73"/>
</a>
</g>
</g>
<!-- n4 -->
<g id="node5" class="node">
<title>n4</title>
<g id="a_node5"><a xlink:title="把控制權還給使用者就是進步">
<path fill="#fffdf7" stroke="#6f8f72" stroke-width="2" d="M460.93,-646.22C460.93,-646.22 289.09,-646.22 289.09,-646.22 283.09,-646.22 277.09,-640.22 277.09,-634.22 277.09,-634.22 277.09,-622.22 277.09,-622.22 277.09,-616.22 283.09,-610.22 289.09,-610.22 289.09,-610.22 460.93,-610.22 460.93,-610.22 466.93,-610.22 472.93,-616.22 472.93,-622.22 472.93,-622.22 472.93,-634.22 472.93,-634.22 472.93,-640.22 466.93,-646.22 460.93,-646.22"/>
<text xml:space="preserve" text-anchor="start" x="320.83" y="-626.22" font-family="Inter, ui-sans-serif, system-ui, -apple-system, BlinkMacSystemFont, Segoe UI, sans-serif" font-weight="bold" font-size="10.00" fill="#2f2a21">把控制權還給使用者就是進步</text>
</a>
</g>
</g>
<!-- n4&#45;&gt;n0 -->
<g id="edge14" class="edge">
<title>n4&#45;&gt;n0</title>
<g id="a_edge14"><a xlink:title="attack">
<path fill="none" stroke="#b85b57" d="M473.17,-609.99C483.33,-606.22 493.2,-601.69 502.18,-596.22 553.3,-565.09 595.73,-508.07 618.07,-474.01"/>
<polygon fill="#b85b57" stroke="#b85b57" points="620.81,-476.22 623.27,-465.91 614.92,-472.43 620.81,-476.22"/>
</a>
</g>
</g>
<!-- n5 -->
<g id="node6" class="node">
<title>n5</title>
<g id="a_node6"><a xlink:title="成本下放會推動使用者自我教育、推動 wallet provider 競爭">
<path fill="#fffdf7" stroke="#6f8f72" stroke-width="2" d="M490.18,-720.22C490.18,-720.22 259.84,-720.22 259.84,-720.22 253.84,-720.22 247.84,-714.22 247.84,-708.22 247.84,-708.22 247.84,-696.22 247.84,-696.22 247.84,-690.22 253.84,-684.22 259.84,-684.22 259.84,-684.22 490.18,-684.22 490.18,-684.22 496.18,-684.22 502.18,-690.22 502.18,-696.22 502.18,-696.22 502.18,-708.22 502.18,-708.22 502.18,-714.22 496.18,-720.22 490.18,-720.22"/>
<text xml:space="preserve" text-anchor="start" x="257.76" y="-700.22" font-family="Inter, ui-sans-serif, system-ui, -apple-system, BlinkMacSystemFont, Segoe UI, sans-serif" font-weight="bold" font-size="10.00" fill="#2f2a21">成本下放會推動使用者自我教育、推動 wallet provider 競爭</text>
</a>
</g>
</g>
<!-- n5&#45;&gt;n0 -->
<g id="edge17" class="edge">
<title>n5&#45;&gt;n0</title>
<g id="a_edge17"><a xlink:title="attack">
<path fill="none" stroke="#b85b57" d="M478.75,-683.74C487.08,-680.02 495.03,-675.57 502.18,-670.22 569.77,-619.7 609.45,-523.81 625.99,-475.54"/>
<polygon fill="#b85b57" stroke="#b85b57" points="629.31,-476.65 629.14,-466.06 622.67,-474.44 629.31,-476.65"/>
</a>
</g>
</g>
<!-- n6 -->
<g id="node7" class="node">
<title>n6</title>
<g id="a_node7"><a xlink:title="強制 verifier 認證會抬高合規成本、扼殺新創">
<path fill="#fffdf7" stroke="#6f8f72" stroke-width="2" d="M460.93,-794.22C460.93,-794.22 289.09,-794.22 289.09,-794.22 283.09,-794.22 277.09,-788.22 277.09,-782.22 277.09,-782.22 277.09,-770.22 277.09,-770.22 277.09,-764.22 283.09,-758.22 289.09,-758.22 289.09,-758.22 460.93,-758.22 460.93,-758.22 466.93,-758.22 472.93,-764.22 472.93,-770.22 472.93,-770.22 472.93,-782.22 472.93,-782.22 472.93,-788.22 466.93,-794.22 460.93,-794.22"/>
<text xml:space="preserve" text-anchor="start" x="288.87" y="-774.22" font-family="Inter, ui-sans-serif, system-ui, -apple-system, BlinkMacSystemFont, Segoe UI, sans-serif" font-weight="bold" font-size="10.00" fill="#2f2a21">強制 verifier 認證會抬高合規成本、扼殺新創</text>
</a>
</g>
</g>
<!-- n6&#45;&gt;n0 -->
<g id="edge20" class="edge">
<title>n6&#45;&gt;n0</title>
<g id="a_edge20"><a xlink:title="attack">
<path fill="none" stroke="#b85b57" d="M473.15,-761.41C483.66,-757.04 493.62,-751.43 502.18,-744.22 587.11,-672.71 619.9,-536.02 630.61,-475.88"/>
<polygon fill="#b85b57" stroke="#b85b57" points="634.05,-476.52 632.27,-466.07 627.15,-475.35 634.05,-476.52"/>
</a>
</g>
</g>
<!-- n7 -->
<g id="node8" class="node">
<title>n7</title>
<g id="a_node8"><a xlink:title="Formal Core">
<path fill="#e8f1e8" stroke="#c8b794" d="M460.93,-194.22C460.93,-194.22 289.09,-194.22 289.09,-194.22 283.09,-194.22 277.09,-188.22 277.09,-182.22 277.09,-182.22 277.09,-170.22 277.09,-170.22 277.09,-164.22 283.09,-158.22 289.09,-158.22 289.09,-158.22 460.93,-158.22 460.93,-158.22 466.93,-158.22 472.93,-164.22 472.93,-170.22 472.93,-170.22 472.93,-182.22 472.93,-182.22 472.93,-188.22 466.93,-194.22 460.93,-194.22"/>
<text xml:space="preserve" text-anchor="start" x="345.56" y="-174.22" font-family="Inter, ui-sans-serif, system-ui, -apple-system, BlinkMacSystemFont, Segoe UI, sans-serif" font-weight="bold" font-size="10.00" fill="#2f2a21">Formal Core</text>
</a>
</g>
</g>
<!-- n7&#45;&gt;n0 -->
<g id="edge1" class="edge">
<title>n7&#45;&gt;n0</title>
<g id="a_edge1"><a xlink:title="support">
<path fill="none" stroke="#6f8f72" d="M473.14,-187.89C483.53,-191.73 493.47,-196.73 502.18,-203.22 575.32,-257.74 613.06,-364.92 627.69,-416.76"/>
<polygon fill="#6f8f72" stroke="#6f8f72" points="624.3,-417.62 630.3,-426.35 631.05,-415.78 624.3,-417.62"/>
</a>
</g>
</g>
<!-- n8 -->
<g id="node9" class="node">
<title>n8</title>
<g id="a_node9"><a xlink:title="理解 驗證 信任 爭議">
<path fill="#e8f1e8" stroke="#c8b794" d="M460.93,-248.22C460.93,-248.22 289.09,-248.22 289.09,-248.22 283.09,-248.22 277.09,-242.22 277.09,-236.22 277.09,-236.22 277.09,-224.22 277.09,-224.22 277.09,-218.22 283.09,-212.22 289.09,-212.22 289.09,-212.22 460.93,-212.22 460.93,-212.22 466.93,-212.22 472.93,-218.22 472.93,-224.22 472.93,-224.22 472.93,-236.22 472.93,-236.22 472.93,-242.22 466.93,-248.22 460.93,-248.22"/>
<text xml:space="preserve" text-anchor="start" x="337.5" y="-228.22" font-family="Inter, ui-sans-serif, system-ui, -apple-system, BlinkMacSystemFont, Segoe UI, sans-serif" font-weight="bold" font-size="10.00" fill="#2f2a21">理解 驗證 信任 爭議</text>
</a>
</g>
</g>
<!-- n8&#45;&gt;n0 -->
<g id="edge3" class="edge">
<title>n8&#45;&gt;n0</title>
<g id="a_edge3"><a xlink:title="support">
<path fill="none" stroke="#6f8f72" d="M473.42,-243.21C483.59,-246.83 493.4,-251.41 502.18,-257.22 562.84,-297.34 604.24,-375.43 623.24,-417.58"/>
<polygon fill="#6f8f72" stroke="#6f8f72" points="619.97,-418.83 627.19,-426.59 626.38,-416.02 619.97,-418.83"/>
</a>
</g>
</g>
<!-- n9 -->
<g id="node10" class="node">
<title>n9</title>
<g id="a_node10"><a xlink:title="D₁ D₂ 演繹">
<path fill="#e8f1e8" stroke="#c8b794" d="M460.93,-302.22C460.93,-302.22 289.09,-302.22 289.09,-302.22 283.09,-302.22 277.09,-296.22 277.09,-290.22 277.09,-290.22 277.09,-278.22 277.09,-278.22 277.09,-272.22 283.09,-266.22 289.09,-266.22 289.09,-266.22 460.93,-266.22 460.93,-266.22 466.93,-266.22 472.93,-272.22 472.93,-278.22 472.93,-278.22 472.93,-290.22 472.93,-290.22 472.93,-296.22 466.93,-302.22 460.93,-302.22"/>
<text xml:space="preserve" text-anchor="start" x="348.34" y="-282.22" font-family="Inter, ui-sans-serif, system-ui, -apple-system, BlinkMacSystemFont, Segoe UI, sans-serif" font-weight="bold" font-size="10.00" fill="#2f2a21">D₁ D₂ 演繹</text>
</a>
</g>
</g>
<!-- n9&#45;&gt;n0 -->
<g id="edge4" class="edge">
<title>n9&#45;&gt;n0</title>
<g id="a_edge4"><a xlink:title="support">
<path fill="none" stroke="#6f8f72" d="M473.19,-298.91C483.28,-302.22 493.14,-306.26 502.18,-311.22 550.78,-337.9 593.01,-387.98 616.18,-419.07"/>
<polygon fill="#6f8f72" stroke="#6f8f72" points="613.13,-420.83 621.85,-426.84 618.78,-416.7 613.13,-420.83"/>
</a>
</g>
</g>
<!-- n10 -->
<g id="node11" class="node">
<title>n10</title>
<g id="a_node11"><a xlink:title="C₁ 軟強制 C₂ 硬強制 C₃ 雙軌強制">
<path fill="#e8f1e8" stroke="#c8b794" d="M460.93,-356.22C460.93,-356.22 289.09,-356.22 289.09,-356.22 283.09,-356.22 277.09,-350.22 277.09,-344.22 277.09,-344.22 277.09,-332.22 277.09,-332.22 277.09,-326.22 283.09,-320.22 289.09,-320.22 289.09,-320.22 460.93,-320.22 460.93,-320.22 466.93,-320.22 472.93,-326.22 472.93,-332.22 472.93,-332.22 472.93,-344.22 472.93,-344.22 472.93,-350.22 466.93,-356.22 460.93,-356.22"/>
<text xml:space="preserve" text-anchor="start" x="303.05" y="-336.22" font-family="Inter, ui-sans-serif, system-ui, -apple-system, BlinkMacSystemFont, Segoe UI, sans-serif" font-weight="bold" font-size="10.00" fill="#2f2a21">C₁ 軟強制 C₂ 硬強制 C₃ 雙軌強制</text>
</a>
</g>
</g>
<!-- n10&#45;&gt;n0 -->
<g id="edge5" class="edge">
<title>n10&#45;&gt;n0</title>
<g id="a_edge5"><a xlink:title="support">
<path fill="none" stroke="#6f8f72" d="M473.1,-355.51C483.06,-358.31 492.92,-361.53 502.18,-365.22 538.24,-379.59 575.68,-403.34 601.6,-421.41"/>
<polygon fill="#6f8f72" stroke="#6f8f72" points="599.53,-424.23 609.71,-427.16 603.57,-418.52 599.53,-424.23"/>
</a>
</g>
</g>
<!-- n11 -->
<g id="node12" class="node">
<title>n11</title>
<g id="a_node12"><a xlink:title="三層門檻 反事實降幅">
<path fill="#e8f1e8" stroke="#c8b794" d="M460.93,-410.22C460.93,-410.22 289.09,-410.22 289.09,-410.22 283.09,-410.22 277.09,-404.22 277.09,-398.22 277.09,-398.22 277.09,-386.22 277.09,-386.22 277.09,-380.22 283.09,-374.22 289.09,-374.22 289.09,-374.22 460.93,-374.22 460.93,-374.22 466.93,-374.22 472.93,-380.22 472.93,-386.22 472.93,-386.22 472.93,-398.22 472.93,-398.22 472.93,-404.22 466.93,-410.22 460.93,-410.22"/>
<text xml:space="preserve" text-anchor="start" x="336.11" y="-390.22" font-family="Inter, ui-sans-serif, system-ui, -apple-system, BlinkMacSystemFont, Segoe UI, sans-serif" font-weight="bold" font-size="10.00" fill="#2f2a21">三層門檻 反事實降幅</text>
</a>
</g>
</g>
<!-- n11&#45;&gt;n0 -->
<g id="edge6" class="edge">
<title>n11&#45;&gt;n0</title>
<g id="a_edge6"><a xlink:title="support">
<path fill="none" stroke="#6f8f72" d="M464.45,-410.66C487.35,-415.43 512.17,-420.6 535.6,-425.49"/>
<polygon fill="#6f8f72" stroke="#6f8f72" points="534.63,-428.86 545.14,-427.47 536.06,-422.01 534.63,-428.86"/>
</a>
</g>
</g>
<!-- n12 -->
<g id="node13" class="node">
<title>n12</title>
<g id="a_node13"><a xlink:title="跨國七案例 規範類別差異">
<path fill="#e8f1e8" stroke="#c8b794" d="M460.93,-464.22C460.93,-464.22 289.09,-464.22 289.09,-464.22 283.09,-464.22 277.09,-458.22 277.09,-452.22 277.09,-452.22 277.09,-440.22 277.09,-440.22 277.09,-434.22 283.09,-428.22 289.09,-428.22 289.09,-428.22 460.93,-428.22 460.93,-428.22 466.93,-428.22 472.93,-434.22 472.93,-440.22 472.93,-440.22 472.93,-452.22 472.93,-452.22 472.93,-458.22 466.93,-464.22 460.93,-464.22"/>
<text xml:space="preserve" text-anchor="start" x="327.78" y="-444.22" font-family="Inter, ui-sans-serif, system-ui, -apple-system, BlinkMacSystemFont, Segoe UI, sans-serif" font-weight="bold" font-size="10.00" fill="#2f2a21">跨國七案例 規範類別差異</text>
</a>
</g>
</g>
<!-- n12&#45;&gt;n0 -->
<g id="edge7" class="edge">
<title>n12&#45;&gt;n0</title>
<g id="a_edge7"><a xlink:title="support">
<path fill="none" stroke="#6f8f72" d="M473.22,-446.22C490.54,-446.22 508.67,-446.22 526.29,-446.22"/>
<polygon fill="#6f8f72" stroke="#6f8f72" points="526.26,-449.72 536.26,-446.22 526.26,-442.72 526.26,-449.72"/>
</a>
</g>
</g>
<!-- n13 -->
<g id="node14" class="node">
<title>n13</title>
<g id="a_node14"><a xlink:title="三層門檻 反事實降幅 A (deterministic) 設備門檻...">
<path fill="#e8f1e8" stroke="#c8b794" d="M474.89,-518.22C474.89,-518.22 275.13,-518.22 275.13,-518.22 269.13,-518.22 263.13,-512.22 263.13,-506.22 263.13,-506.22 263.13,-494.22 263.13,-494.22 263.13,-488.22 269.13,-482.22 275.13,-482.22 275.13,-482.22 474.89,-482.22 474.89,-482.22 480.89,-482.22 486.89,-488.22 486.89,-494.22 486.89,-494.22 486.89,-506.22 486.89,-506.22 486.89,-512.22 480.89,-518.22 474.89,-518.22"/>
<text xml:space="preserve" text-anchor="start" x="273.05" y="-498.22" font-family="Inter, ui-sans-serif, system-ui, -apple-system, BlinkMacSystemFont, Segoe UI, sans-serif" font-weight="bold" font-size="10.00" fill="#2f2a21">三層門檻 反事實降幅 A (deterministic) 設備門檻...</text>
</a>
</g>
</g>
<!-- n13&#45;&gt;n0 -->
<g id="edge8" class="edge">
<title>n13&#45;&gt;n0</title>
<g id="a_edge8"><a xlink:title="support">
<path fill="none" stroke="#6f8f72" d="M464.45,-481.79C487.35,-477.02 512.17,-471.84 535.6,-466.96"/>
<polygon fill="#6f8f72" stroke="#6f8f72" points="536.06,-470.44 545.14,-464.97 534.63,-463.59 536.06,-470.44"/>
</a>
</g>
</g>
<!-- n14 -->
<g id="node15" class="node">
<title>n14</title>
<g id="a_node15"><a xlink:title="Conclusion">
<path fill="#e8f1e8" stroke="#c8b794" d="M460.93,-572.22C460.93,-572.22 289.09,-572.22 289.09,-572.22 283.09,-572.22 277.09,-566.22 277.09,-560.22 277.09,-560.22 277.09,-548.22 277.09,-548.22 277.09,-542.22 283.09,-536.22 289.09,-536.22 289.09,-536.22 460.93,-536.22 460.93,-536.22 466.93,-536.22 472.93,-542.22 472.93,-548.22 472.93,-548.22 472.93,-560.22 472.93,-560.22 472.93,-566.22 466.93,-572.22 460.93,-572.22"/>
<text xml:space="preserve" text-anchor="start" x="347.79" y="-552.22" font-family="Inter, ui-sans-serif, system-ui, -apple-system, BlinkMacSystemFont, Segoe UI, sans-serif" font-weight="bold" font-size="10.00" fill="#2f2a21">Conclusion</text>
</a>
</g>
</g>
<!-- n14&#45;&gt;n0 -->
<g id="edge10" class="edge">
<title>n14&#45;&gt;n0</title>
<g id="a_edge10"><a xlink:title="support">
<path fill="none" stroke="#6f8f72" d="M473.1,-536.94C483.06,-534.13 492.92,-530.91 502.18,-527.22 538.24,-512.86 575.68,-489.11 601.6,-471.03"/>
<polygon fill="#6f8f72" stroke="#6f8f72" points="603.57,-473.93 609.71,-465.29 599.53,-468.21 603.57,-473.93"/>
</a>
</g>
</g>
<!-- n15 -->
<g id="node16" class="node">
<title>n15</title>
<g id="a_node16"><a xlink:title="Reply holder&#45;centric 天然優越">
<path fill="#e8f1e8" stroke="#c8b794" d="M199.84,-627.22C199.84,-627.22 28,-627.22 28,-627.22 22,-627.22 16,-621.22 16,-615.22 16,-615.22 16,-603.22 16,-603.22 16,-597.22 22,-591.22 28,-591.22 28,-591.22 199.84,-591.22 199.84,-591.22 205.84,-591.22 211.84,-597.22 211.84,-603.22 211.84,-603.22 211.84,-615.22 211.84,-615.22 211.84,-621.22 205.84,-627.22 199.84,-627.22"/>
<text xml:space="preserve" text-anchor="start" x="47.52" y="-607.22" font-family="Inter, ui-sans-serif, system-ui, -apple-system, BlinkMacSystemFont, Segoe UI, sans-serif" font-weight="bold" font-size="10.00" fill="#2f2a21">Reply holder&#45;centric 天然優越</text>
</a>
</g>
</g>
<!-- n15&#45;&gt;n0 -->
<g id="edge15" class="edge">
<title>n15&#45;&gt;n0</title>
<g id="a_edge15"><a xlink:title="support">
<path fill="none" stroke="#6f8f72" d="M211.99,-603.04C324.55,-595.76 495.63,-584.25 502.18,-581.22 553.05,-557.73 595.08,-505.71 617.51,-473.54"/>
<polygon fill="#6f8f72" stroke="#6f8f72" points="620.25,-475.74 622.98,-465.5 614.46,-471.8 620.25,-475.74"/>
</a>
</g>
</g>
<!-- n15&#45;&gt;n4 -->
<g id="edge13" class="edge">
<title>n15&#45;&gt;n4</title>
<g id="a_edge13"><a xlink:title="attack">
<path fill="none" stroke="#b85b57" d="M212.13,-616.35C229.53,-617.63 247.76,-618.96 265.45,-620.26"/>
<polygon fill="#b85b57" stroke="#b85b57" points="264.94,-623.73 275.17,-620.97 265.46,-616.75 264.94,-623.73"/>
</a>
</g>
</g>
<!-- n16 -->
<g id="node17" class="node">
<title>n16</title>
<g id="a_node17"><a xlink:title="Reply 成本轉移是市場機制">
<path fill="#e8f1e8" stroke="#c8b794" d="M199.84,-701.22C199.84,-701.22 28,-701.22 28,-701.22 22,-701.22 16,-695.22 16,-689.22 16,-689.22 16,-677.22 16,-677.22 16,-671.22 22,-665.22 28,-665.22 28,-665.22 199.84,-665.22 199.84,-665.22 205.84,-665.22 211.84,-671.22 211.84,-677.22 211.84,-677.22 211.84,-689.22 211.84,-689.22 211.84,-695.22 205.84,-701.22 199.84,-701.22"/>
<text xml:space="preserve" text-anchor="start" x="61.41" y="-681.22" font-family="Inter, ui-sans-serif, system-ui, -apple-system, BlinkMacSystemFont, Segoe UI, sans-serif" font-weight="bold" font-size="10.00" fill="#2f2a21">Reply 成本轉移是市場機制</text>
</a>
</g>
</g>
<!-- n16&#45;&gt;n0 -->
<g id="edge18" class="edge">
<title>n16&#45;&gt;n0</title>
<g id="a_edge18"><a xlink:title="support">
<path fill="none" stroke="#6f8f72" d="M212.11,-677.26C324.78,-670.2 495.98,-658.92 502.18,-655.22 570.91,-614.19 609.96,-522.32 626.16,-475.24"/>
<polygon fill="#6f8f72" stroke="#6f8f72" points="629.4,-476.6 629.23,-466 622.76,-474.39 629.4,-476.6"/>
</a>
</g>
</g>
<!-- n16&#45;&gt;n5 -->
<g id="edge16" class="edge">
<title>n16&#45;&gt;n5</title>
<g id="a_edge16"><a xlink:title="attack">
<path fill="none" stroke="#b85b57" d="M212.13,-690.35C220.13,-690.94 228.3,-691.54 236.51,-692.14"/>
<polygon fill="#b85b57" stroke="#b85b57" points="235.99,-695.61 246.22,-692.85 236.5,-688.63 235.99,-695.61"/>
</a>
</g>
</g>
<!-- n17 -->
<g id="node18" class="node">
<title>n17</title>
<g id="a_node18"><a xlink:title="Reply 消費者保護 監管打壓">
<path fill="#e8f1e8" stroke="#c8b794" d="M199.84,-775.22C199.84,-775.22 28,-775.22 28,-775.22 22,-775.22 16,-769.22 16,-763.22 16,-763.22 16,-751.22 16,-751.22 16,-745.22 22,-739.22 28,-739.22 28,-739.22 199.84,-739.22 199.84,-739.22 205.84,-739.22 211.84,-745.22 211.84,-751.22 211.84,-751.22 211.84,-763.22 211.84,-763.22 211.84,-769.22 205.84,-775.22 199.84,-775.22"/>
<text xml:space="preserve" text-anchor="start" x="60.02" y="-755.22" font-family="Inter, ui-sans-serif, system-ui, -apple-system, BlinkMacSystemFont, Segoe UI, sans-serif" font-weight="bold" font-size="10.00" fill="#2f2a21">Reply 消費者保護 監管打壓</text>
</a>
</g>
</g>
<!-- n17&#45;&gt;n0 -->
<g id="edge21" class="edge">
<title>n17&#45;&gt;n0</title>
<g id="a_edge21"><a xlink:title="support">
<path fill="none" stroke="#6f8f72" d="M212.19,-751.39C324.95,-744.46 496.23,-733.31 502.18,-729.22 589.87,-668.98 621.2,-535.1 631.07,-475.65"/>
<polygon fill="#6f8f72" stroke="#6f8f72" points="634.49,-476.38 632.58,-465.96 627.58,-475.3 634.49,-476.38"/>
</a>
</g>
</g>
<!-- n17&#45;&gt;n6 -->
<g id="edge19" class="edge">
<title>n17&#45;&gt;n6</title>
<g id="a_edge19"><a xlink:title="attack">
<path fill="none" stroke="#b85b57" d="M212.13,-764.35C229.53,-765.63 247.76,-766.96 265.45,-768.26"/>
<polygon fill="#b85b57" stroke="#b85b57" points="264.94,-771.73 275.17,-768.97 265.46,-764.75 264.94,-771.73"/>
</a>
</g>
</g>
</g>
</svg>
